<?xml version="1.0" encoding="UTF-8"?>
<svg width="153px" height="212px" viewBox="0 0 153 212" version="1.1" xmlns="http://www.w3.org/2000/svg" xmlns:xlink="http://www.w3.org/1999/xlink">
    <!-- Generator: Sketch 52.3 (67297) - http://www.bohemiancoding.com/sketch -->
    <title>belt</title>
    <desc>Created with Sketch.</desc>
    <g id="Page-1" stroke="none" stroke-width="1" fill="none" fill-rule="evenodd">
        <g id="Artboard-Copy-2" transform="translate(-231.000000, -66.000000)">
            <g id="horse" transform="translate(201.000000, 20.000000)">
                <g id="head">
                    <g id="belt" transform="translate(30.000000, 46.051454)">
                        <polygon id="Path" fill="#A8A8A8" points="152.737 56.6292729 152.457 60.4425336 148.737 53.024245"></polygon>
                        <polygon id="Path" fill="#C1C1C1" points="152.457 60.4425336 152.457 60.4525447 152.018 66.4802796 148.737 53.024245"></polygon>
                        <polygon id="Path" fill="#D8D8D8" points="148.737 53.024245 152.018 66.4802796 151.067 79.612953 151.067 79.612953"></polygon>
                        <polygon id="Path" fill="#D8D8D8" points="151.067 79.612953 151.067 79.612953 140.559 78.5347483 128.627 73.7574105"></polygon>
                        <polygon id="Path" fill="#171717" points="151.067 79.612953 144.287 107.555173 144.287 100.466253 144.287 83.4382271 144.287 83.4382271 146.176 79.1113926"></polygon>
                        <polygon id="Path" fill="#D8D8D8" points="148.737 53.024245 149.063 56.7363926 143.467 53.024245"></polygon>
                        <polygon id="Path" fill="#171717" points="148.737 53.024245 148.737 53.024245 139.848 50.5524832 135.397 49.3100951 137.317 26.7048378 139.688 17.5746365"></polygon>
                        <polygon id="Path" fill="#0E0E0E" points="148.737 44.2244128 148.737 53.024245 139.688 17.5746365 139.688 17.5746365 135.947 4.61015101"></polygon>
                        <polygon id="Path" fill="#303030" points="148.737 10.1863814 148.737 44.2244128 135.947 4.61015101"></polygon>
                        <polygon id="Path" fill="#010101" points="149.063 56.7363926 147.067 76.6806767 133.247 53.024245"></polygon>
                        <polygon id="Path" fill="#A8A8A8" points="149.063 56.7363926 133.247 53.024245 143.467 53.024245"></polygon>
                        <polygon id="Path" fill="#171717" points="133.248 53.024245 147.067 76.6806767 133.248 73.7574105"></polygon>
                        <polygon id="Path" fill="#D8D8D8" points="143.467 53.024245 133.247 53.024245 135.397 49.3100951 139.848 50.5524832"></polygon>
                        <polygon id="Path" fill="#171717" points="135.947 4.61015101 139.688 17.5756376 139.688 17.5756376 139.688 17.5756376 137.367 26.5346477 137.317 26.7048378 136.338 23.3611018 129.867 1.2564038 129.707 0.685766219"></polygon>
                        <polygon id="Path" fill="#000A08" points="137.317 26.7048378 136.338 23.363104 136.338 23.3611018 136.338 23.3621029 136.337 23.3611018 135.617 20.9003523 130.147 51.4825224 135.397 49.3100951 135.398 49.3000839"></polygon>
                        <polygon id="Path" fill="#A8A8A8" points="135.397 49.3100951 133.248 53.024245 130.147 51.4825224 130.147 51.4825224"></polygon>
                        <polyline id="Path" fill="#010101" points="135.396 110.22816 132.617 77.5516499 127.707 96.2425336"></polyline>
                        <polygon id="Path" fill="#D8D8D8" points="133.248 53.024245 133.248 73.7574105 128.627 73.7574105"></polygon>
                        <polygon id="Path" fill="#FFFFFF" points="130.147 51.4825224 129.838 56.0876678 128.627 73.7574105 133.248 53.024245"></polygon>
                        <polyline id="Path" fill="#010101" points="132.617 77.5516499 140.559 78.5347483 128.627 73.7574105 132.567 77.5216163 132.617 77.5516499 132.617 77.5516499"></polyline>
                        <polyline id="Path" fill="#010101" points="132.617 77.5516499 144.287 107.555173 144.287 83.4382271 136.707 79.612953"></polyline>
                        <polyline id="Path" fill="#171717" points="132.617 77.5516499 135.396 110.22816 144.287 107.555173"></polyline>
                        <polyline id="Path" fill="#010101" points="132.567 110.798798 128.627 114.593037 75.758 165.464877 121.567 101.194066"></polyline>
                        <polyline id="Path" fill="#171717" points="127.707 96.2425336 132.617 77.5516499 132.617 77.5516499 128.627 73.7574105"></polyline>
                        <polygon id="Path" fill="#171717" points="128.627 114.593037 115.117 133.78448 96.067 154.848015 96.067 154.848015 78.59 168.103826 75.758 165.464877"></polygon>
                        <polyline id="Path" fill="#171717" points="121.567 101.194066 121.567 101.194066 130.442 101.194066 127.707 96.2425336 127.707 96.2425336"></polyline>
                        <polygon id="Path" fill="#171717" points="130.442 101.194066 121.567 101.194066 132.567 110.798798 135.396 110.22816"></polygon>
                        <polyline id="Path" fill="#0C0C0C" points="121.567 101.194066 75.758 165.464877 75.758 165.464877 71.987 161.795777 71.987 161.795777 67.067 155.849133 88.567 133.02363"></polyline>
                        <polyline id="Path" fill="#171717" points="122.309 100.607411 127.707 96.2425336 128.052 87.7260179"></polyline>
                        <polygon id="Path" fill="#000505" points="90.327 199.227601 94.567 206.235431 78.127 211.741583 59.617 183.800364 89.567 197.976202 90.317 199.227601"></polygon>
                        <polygon id="Path" fill="#171717" points="87.607 194.372176 89.567 197.976202 59.617 183.800364 63.867 182.208585 63.867 182.208585 77.748 171.44656 77.748 171.44656 87.567 194.292086"></polygon>
                        <polygon id="Path" fill="#FFFFFF" points="77.748 171.44656 61.169 179.980095 72.545 167.206823"></polygon>
                        <polygon id="Path" fill="#D8D8D8" points="78.59 168.103826 77.748 171.44656 63.067 159.484195 71.987 161.795777"></polygon>
                        <polygon id="Path" fill="#010101" points="72.545 167.206823 61.169 179.980095 63.067 171.44656"></polygon>
                        <polyline id="Path" fill="#D8D8D8" points="77.748 171.44656 61.169 179.980095 63.867 182.208585 63.867 182.208585 63.867 182.208585 77.748 171.44656"></polyline>
                        <polygon id="Path" fill="#D8D8D8" points="71.987 161.795777 63.067 159.483194 55.188 158.723345 57.737 155.849133"></polygon>
                        <polygon id="Path" fill="#FFFFFF" points="67.067 155.849133 71.987 161.795777 57.737 155.849133"></polygon>
                        <polygon id="Path" fill="#D8D8D8" points="63.867 182.208585 59.617 183.800364 56.928 176.492198"></polygon>
                        <polygon id="Path" fill="#030303" points="63.067 159.483194 53.724 168.794597 54.092 169.671577 54.607 170.952008 63.067 171.44656 72.545 167.206823"></polygon>
                        <polyline id="Path" fill="#030303" points="63.067 171.44656 61.169 179.980095 56.928 176.492198"></polyline>
                        <polygon id="Path" fill="#A8A8A8" points="63.067 159.483194 53.724 168.857668 55.188 158.723345"></polygon>
                        <polygon id="Path" fill="#010101" points="63.067 171.44656 56.928 176.492198 54.607 170.952008"></polygon>
                        <polyline id="Path" fill="#FFFFFF" points="52.359 174.995526 56.928 176.492198 56.928 176.492198 56.928 176.492198 59.617 183.800364 59.617 183.800364"></polyline>
                        <polygon id="Path" fill="#D8D8D8" points="59.617 183.800364 57.737 184.140744 52.359 174.995526"></polygon>
                        <polygon id="Path" fill="#010101" points="38.067 135.826762 57.737 155.849133 55.188 158.723345 55.188 158.723345 52.848 161.22514"></polygon>
                        <polygon id="Path" fill="#FFFFFF" points="55.188 158.723345 53.724 168.857668 53.724 168.857668 52.848 161.224139"></polygon>
                        <polygon id="Path" fill="#A8A8A8" points="52.848 161.22514 53.724 168.857668 51.765 165.382785 51.765 165.382785 52.359 163.32849"></polygon>
                        <polygon id="Path" fill="#D8D8D8" points="53.724 168.794597 56.928 176.492198 52.359 174.995526 50.178 170.865912 51.765 165.382785"></polygon>
                        <polygon id="Path" fill="#171717" points="52.848 161.22514 52.359 163.32849 24.577 141.162724 24.607 141.202768 17.907 135.856795 17.877 135.826762 17.857 135.816751 10.614 129.91816 38.067 135.826762"></polygon>
                        <polygon id="Path" fill="#010101" points="52.359 163.32849 52.359 163.32849 50.178 170.865912 37.377 156.019323 24.607 141.202768"></polygon>
                        <polygon id="Path" fill="#080808" points="38.067 135.826762 10.614 129.91816 17.857 135.816751 0.067 127.647623"></polygon>
                        <polygon id="Path" fill="#1D1D1D" points="38.067 135.826762 0.067 127.647623 11.567 116.30495"></polygon>
                        <polygon id="Path" fill="#171717" points="24.607 141.202768 37.377 156.019323 17.907 135.856795"></polygon>
                        <polygon id="Path" fill="#0E0E0E" points="129.697 0.675755034 135.947 4.61015101 148.737 10.1863814 148.737 9.87603468"></polygon>
                        <polygon id="Path" fill="#020202" points="78.59 168.103826 77.748 171.44656 96.067 154.848015"></polygon>
                        <polygon id="Path" fill="#171717" points="140.559 78.5347483 146.176 79.1113926 144.287 83.4382271 132.617 77.5516499"></polygon>
                    </g>
                </g>
            </g>
        </g>
    </g>
</svg>