<?xml version="1.0" encoding="UTF-8"?>
<svg width="2048px" height="2048px" viewBox="0 0 2048 2048" version="1.1" xmlns="http://www.w3.org/2000/svg" xmlns:xlink="http://www.w3.org/1999/xlink">
    <title>poses/portrait-2</title>
    <g id="poses/portrait-2" stroke="none" stroke-width="1" fill="none" fill-rule="evenodd" opacity="0.8">
        <path d="M802.807,469.556 L802.976678,469.725141 L805.782423,473.654237 L818.127702,473.654237 L819.25,474.776836 L831.595279,474.776836 L832.717577,475.899435 L879.854096,479.267232 L892.199374,482.635028 L897.810865,482.635028 L940.458191,491.615819 L946.069681,491.615819 L1005.55148,510.7 L1038.09812,526.416384 L1087.47924,526.416384 L1088.60154,525.293785 L1097.57992,525.293785 L1140.22725,547.745763 L1183.99687,557.849153 L1234.50028,564.584746 L1283.8814,593.772316 L1345.60779,612.856497 L1397.2335,626.327684 L1451.10381,670.10904 L1492.06769,707.716102 L1572.312,795.840113 L1695.20364,872.738136 L1707.54892,898.55791 L1718.7719,928.868079 L1723.82224,935.042373 C1732.95027,938.634689 1740.6193,943.686384 1746.82935,950.197458 L1761.41923,970.404237 L1776.0091,1042.25056 L1783.30404,1049.54746 L1819.77873,1082.66412 L1828.75711,1099.50311 L1834.3686,1116.34209 L1841.66354,1127.00678 L1850.08077,1134.30367 L1860.74261,1148.33616 L1868.59869,1150.58136 L1910.12372,1155.07175 L1911.24602,1156.19435 L1925.83589,1157.31695 L1947.15956,1161.80734 L1980.8285,1166.29774 L2048,1188.694 L2048,2048 L1123.444,2048 L1054.93259,2021.71808 L966.271047,1999.2661 L952.80347,1997.0209 L943.825085,1991.40791 L935.968999,1990.28531 L864.141923,1919.56158 L841.695961,1915.07119 L829.911832,1915.07119 L799.609784,2018.91158 L784.925,2048 L589.849,2048 L651.466439,1947.06525 L741.250284,1813.47599 L746.300626,1808.42429 L850.674346,1739.94576 L999.939989,1737.70056 L1019.01906,1741.06836 L1047.07651,1743.31356 L1111.0475,1755.66215 L1170.52929,1759.02994 L1171.65159,1760.15254 L1186.24147,1760.15254 L1190.16951,1761.27514 L1190.16951,1751.73305 L1183.43572,1725.91328 L1177.82423,1692.23531 L1154.25597,1633.86017 L1120.58703,1535.07147 L1119.46473,1524.96808 L1103.75256,1457.61215 L1085.79579,1370.04944 L1064.47213,1294.83531 L1062.22753,1261.15734 L1051.00455,1219.62119 L1047.63766,1201.6596 L961.781854,1070.87684 L909.594994,1041.68927 L884.904437,1093.89011 L848.990899,1141.03927 L812.516212,1199.97571 L795.681741,1202.2209 L793.998294,1203.9048 L798.762,1212.073 L793.569336,1203.5498 L782.837891,1192.36816 L772.703125,1181.4375 L764.298828,1171.6084 L758.195313,1165.03809 L737.881836,1139.49414 L716.952148,1117.80469 L696.540039,1096.9873 L701.875977,1086.80664 L735.563477,1018.64453 L761.056641,969.753906 L798.762695,898.783203 L827.458008,841.878906 L849.335938,799.351563 L857.904297,779.674805 L877.263672,730.302734 L874.938477,675.048828 L890.598633,673.574219 L890.598633,659.893555 L872.626953,594.644531 L857.904297,578.953125 L853.539063,578.953125 L840.430664,544.541016 L815.727539,495.571289 L802.807,469.556 Z M409.530273,1017.2627 L432.297852,1025.80078 L491.46582,1045.1377 L513.033203,1057.62793 L578.375,1095.61328 L592.092773,1104.37891 L598.975586,1120.67969 L618.387695,1136.29395 L637.232422,1147.57129 L651.836914,1161.28223 L654.03125,1161.28223 L657.932617,1155.83496 L664.511719,1150.77734 L698.022461,1183.70117 L737.881836,1224.64746 L729.466155,1230.28588 L626.775882,1309.4291 C627.224801,1313.99433 626.476602,1317.36213 624.531286,1319.53249 L636.876564,1344.22966 L636.876564,1348.72006 L621.164391,1393.62401 L614.991752,1400.9209 L570.099829,1441.33446 L554.387656,1445.82486 L518.474118,1448.07006 L517.35182,1446.94746 L502.761945,1446.94746 L501.639647,1448.07006 L483.682878,1449.19266 L480.315984,1448.07006 L475.826792,1450.31525 L462.359215,1450.31525 L461.236917,1451.43785 L447.76934,1451.43785 L446.647042,1452.56045 L433.179465,1452.56045 L432.057167,1453.68305 L412.9781,1454.80565 L379.309158,1437.96667 L369.769625,1428.42458 L350.690557,1385.76582 L345.079067,1366.68164 L330.489192,1331.88107 L330.489192,1304.9387 L327.122298,1290.34492 L326,1272.38333 L329.366894,1257.78955 L329.366894,1251.05395 L332.733788,1236.46017 L334.978385,1216.25339 L385.481797,1066.94774 L392.215586,1040.00537 L400.071672,1020.92119 L409.530273,1017.2627 Z M798.762,1212.073 L801.85438,1217.37599 L800.132,1218.545 L801.49707,1216.79785 L798.762,1212.073 Z M549.898464,312 L570.660978,326.032486 L585.812002,342.310169 L719.926621,425.382486 L741.250284,472.531638 L743.618,472.29 L743.618164,475.040039 L746.915039,487.761719 L758.195312,501.908203 L765.9375,518.767578 L779.344727,555.182617 L788.941406,584.357422 L788.941406,587.169922 L782.837891,602.303711 L782.837891,613.199219 L801.49707,682.010742 L815.727539,680.595703 L820.196289,708.18457 L820.196289,714.405273 L793.569336,769.120117 L755.512695,851.487305 L737.881836,889.023438 L709.641602,937.036133 L678.603516,987.426758 L643.774658,1045.1377 L640.647217,1043.43604 L624.362793,1044.16284 L618.387695,1053.42969 L606.839844,1047.35449 L592.092773,1040.67188 L564.229492,1027.41602 L535.530273,1011.8584 L508.607422,997.879883 L472.360352,987.426758 L444.347656,977.220703 L432.297852,972.616211 L416.906143,967.59774 L423.078783,968.720339 L427.006826,961.423446 L444.963595,903.048305 L471.898749,831.201977 L471.898749,827.272881 L467.409556,828.39548 L460.675768,796.401412 L460.675768,768.336441 L461.798066,767.213842 L462.920364,722.309887 L490.977816,651.586158 L513.423777,584.230226 L558.3157,515.751695 L563.366041,510.7 L602.085324,483.196328 L581.883959,414.717797 L583.006257,411.35 L548.215017,317.051695 L548.215017,313.683898 L549.898464,312 Z M593.962683,723.85811 L574.733498,746.376933 L570.385104,760.027914 C572.455597,763.408511 574.399113,765.987589 576.215654,767.76515 C578.962259,768.673371 581.8546,769.819886 585.527571,770.208009 C588.766545,770.13806 593.301075,769.819886 598.15024,768.673663 C601.85284,767.79846 608.219054,765.508162 617.248881,761.802769 L617.841559,761.559106 L648.320865,728.417626 L648.98295,726.308301 L593.962683,723.85811 Z" id="Combined-Shape" fill="#FFFFFF" style="mix-blend-mode: overlay;"></path>
    </g>
</svg>