<?xml version="1.0" encoding="UTF-8"?>
<svg width="2048px" height="2048px" viewBox="0 0 2048 2048" version="1.1" xmlns="http://www.w3.org/2000/svg" xmlns:xlink="http://www.w3.org/1999/xlink">
    <title>poses/portrait</title>
    <g id="poses/portrait" stroke="none" stroke-width="1" fill="none" fill-rule="evenodd" opacity="0.8">
        <path d="M1182.05902,229 L1185.22734,230.901914 L1178.89069,287.95933 L1177.62336,289.227273 L1176.35602,309.514354 L1175.08869,310.782297 L1175.08869,320.925837 L1172.55403,332.337321 L1172.55403,342.480861 L1168.75204,364.035885 L1168.75204,372.911483 L1147.2074,414.753589 L1154.17773,416.655502 L1169.3857,406.511962 C1194.09571,385.75183 1212.54451,370.20158 1224.7321,359.861213 C1236.91969,349.520845 1250.40901,337.973704 1265.20004,325.21979 L1285.98019,291.129187 L1290.41584,294.299043 L1292.95051,299.370813 C1278.67191,334.957735 1265.57615,371.72807 1253.66324,409.681818 L1233.38593,447.720096 C1245.12987,457.948166 1258.22563,466.823764 1272.67321,474.34689 L1322.09913,550.423445 L1325.90112,559.299043 L1349.98042,632.839713 L1353.55468,644.753483 L1358.85174,663.270335 L1372.79238,697.504785 L1375.32704,762.169856 L1380.39637,771.045455 L1380.39637,778.65311 L1379.12904,779.921053 L1379.12904,790.064593 L1376.59438,801.476077 L1374.05971,831.906699 L1413.34698,937.145933 L1424.75297,992.301435 L1433.8139,992.301435 L1435.61808,994.600936 L1445.05587,1020.70057 L1451.73152,1046.44426 C1448.60544,1047.03596 1448.24084,1049.31659 1448.83226,1053.79665 L1453.90159,1062.67225 L1461.50557,1090.56699 L1469.10956,1107.05024 C1482.16335,1144.71677 1492.14044,1173.15523 1499.04084,1192.3656 C1505.94124,1211.57598 1515.39656,1237.23641 1527.4068,1269.34689 L1533.74346,1306.11722 L1533.74346,1313.72488 L1537.54545,1336.2927 L1537.54545,1341.16652 L1530.62954,1380.7877 L1530.62954,1386.35343 C1529.61971,1388.28521 1528.96791,1390.74832 1528.67414,1393.74276 C1528.38036,1396.73719 1528.38036,1400.91784 1528.67414,1406.28469 L1526.13947,1413.89234 L1513.46616,1444.32297 L1507.1295,1467.14593 L1493.18886,1502.64833 L1477.09461,1526.21176 L1437.42512,1546.39234 L1415.24798,1548.92823 L1403.10847,1550.19617 L1395.2146,1550.19617 L1384.83203,1548.92823 L1340.13461,1546.39234 L1331.89833,1545.39554 L1320.19813,1547.66029 L1316.17552,1548.92823 L1254.54595,1531.85337 L1194.09866,1487.43301 L1183.96001,1443.05502 L1181.42535,1436.71531 L1180.15802,1424.03589 L1194.09866,1394.87321 L1088.2765,1314.35885 L1078.13785,1306.7512 L1074.502,1304.933 L1075.5918,1304.53906 L1055.32588,1289 L1068.65039,1274.41866 L1098.98242,1233.65234 L1108.375,1248.79492 L1126.25293,1231.3252 L1150.52734,1215.06641 L1168.75195,1198.86719 L1174.82813,1182.87109 L1174.82813,1179.08594 L1213.98633,1156.68555 L1291.31445,1108.78711 L1369.53906,1077.29688 L1397.50879,1065.18945 L1423.09668,1055.68945 L1442.19141,1048.66602 L1446.98242,1051.5 L1449.9707,1046.34961 L1443.65527,1020.34961 L1433.25098,994.701172 L1393.73145,1002.10645 L1331.59082,1031.70898 L1268.41211,1055.68945 L1234.39063,1074.13477 L1201.47461,1092.80664 L1176.74365,1107.64502 L1143.24561,1122.79297 L1136.59717,1112.37061 L1116.65381,1112.37061 L1108.375,1117.45313 L1064.75391,1048.66602 L1026.9375,998.939453 L988.064453,937.548828 L968.4375,894.658203 L954.648438,870.044922 L937.527344,839.589844 L908.851563,786.273438 L889.984375,748.654297 L894.402344,711.742188 L908.851563,713.199219 L934.648438,625.222656 L930.330078,604.626953 L926.701172,600.259766 L942.144531,557.246094 C962.511719,521.108073 972.695313,502.143229 972.695313,500.351563 C972.695313,498.559896 977.818359,489.357422 988.064453,472.744141 L996.394976,464.099609 L1001.97852,457.617188 L1001.97852,435.272461 L1009.36621,403.945312 L953.208008,427.182617 L880.686523,537.979492 L861.083984,587.46875 L852.550781,587.46875 L836.09375,604.626953 L810.318359,690.818359 L819.258789,700.250977 L834.268555,702.433594 L832.496094,767.574219 L864.830078,854.416016 L918.835938,957.466797 L1004.59766,1092.80664 L1060.72266,1173.31055 L1037.06445,1203.03711 L1024,1220.22852 L1005.98535,1250.83984 L1000.42969,1260.45313 L997.795898,1274.41866 L1021.823,1292.889 L996.394976,1274.41866 L998.929638,1264.27512 L983.087997,1261.10526 L975.484009,1261.10526 L968.513686,1257.93541 L933.662075,1197.70813 L911.483776,1237.64833 L889.939144,1279.49043 L813.899264,1429.10766 L706.176101,1650.99761 L660.552173,1737.2177 L617.462907,1884.29904 L617.462907,1889.37081 L578.633,2048 L0,2048 L0,956.642 L36.3914916,942.851675 L40.8271512,938.413876 C57.0584625,915.196714 71.6475109,897.683551 89.6194075,875.650718 L213.184212,849.023923 L232.194182,823.0311 L243.600164,795.136364 L257.540809,779.287081 L261.976469,776.751196 L306.333065,747.588517 L324.075704,732.373206 L388.709602,712.086124 L459.046491,679.119617 L475.521798,659.466507 L485.660449,637.911483 L488.828777,634.741627 L540.789362,614.454545 L585.145958,586.559809 L629.502555,547.253589 L676.393814,539.645933 L685.109486,538.044762 L697.938447,535.842105 L715.681086,524.430622 L767.64167,499.07177 L799.324954,477.516746 C820.550366,468.566788 836.541082,461.659481 847.2971,456.794826 C858.053119,451.930172 873.061519,445.130981 892.322301,436.397254 C909.414733,431.582776 922.325978,427.865396 931.056037,425.245115 C939.786096,422.624834 952.060757,418.493688 967.880021,412.851675 C970.961519,412.159363 973.496182,411.736716 975.484009,411.583732 C977.471836,411.430749 980.428942,411.430749 984.355328,411.583732 L1002.09797,402.708134 L1009.06829,401.440191 L1010.33562,391.930622 L1014.48131,387.409222 C1051.52389,352.338345 1088.2765,319.5668 1128.19743,285.423445 L1149.74207,254.992823 L1157.97972,246.751196 L1182.05902,229 Z M1048.165,1311.171 L1053.898,1312.298 L1051.52389,1313.09091 L1048.165,1311.171 Z M1142.92676,750.686523 L1118.39941,752.382812 C1104.75684,753.880208 1097.93555,754.628906 1097.93555,754.628906 C1097.93555,754.628906 1095.54077,755.450327 1090.75121,757.09317 L1090.39648,757.214844 L1081.14062,757.214844 L1081.14062,762.886719 L1085.60938,769.003906 C1089.6108,773.112446 1091.742,775.30069 1092.00296,775.568639 L1092.03027,775.59668 C1092.03027,775.59668 1120.19824,797 1120.19824,797 C1120.19824,797 1123.8557,798.639702 1131.17062,801.919107 L1131.57324,802.099609 L1150.89437,802.099042 C1151.92409,802.075958 1157.82785,801.348822 1168.60566,799.917634 L1169.13965,799.84668 L1176.81445,795.316406 L1176.81445,786.710938 L1170.41406,775.59668 L1166.61035,770.630859 L1142.92676,750.686523 Z" id="Combined-Shape" fill="#FFFFFF" style="mix-blend-mode: overlay;"></path>
    </g>
</svg>