<?xml version="1.0" encoding="UTF-8"?>
<svg width="2048px" height="2048px" viewBox="0 0 2048 2048" version="1.1" xmlns="http://www.w3.org/2000/svg" xmlns:xlink="http://www.w3.org/1999/xlink">
    <title>poses/horses_15</title>
    <g id="poses/horses_15" stroke="none" stroke-width="1" fill="none" fill-rule="evenodd" opacity="0.8">
        <path d="M666.48,535.59 C688.93,538.04 711.29,541.32 733.61,544.78 C742.44,546.16 751.02,549.05 759.74,551.17 C778.44,555.72 797.23,559.96 815.86,564.78 C841.27,571.36 866.66,578.08 891.86,585.29 C905.644528,589.148474 920.040142,590.333116 934.27,588.78 C935.27,588.68 936.27,588.6 937.27,588.58 C958.22,588.16 979.17,587.21 1000.1,587.5 C1018.34,587.75 1036.57,589.38 1054.8,590.41 C1070.41,591.28 1085.96,590.53 1101.55,589.28 C1125.05,587.39 1148.61,586.28 1172.11,584.44 C1186.66,583.3 1201.21,581.76 1215.66,579.72 C1226.50225,578.17999 1237.50775,578.17999 1248.35,579.72 C1267.1,582.34 1285.89,584.72 1304.65,587.29 C1308.25949,587.703029 1311.81153,588.518086 1315.24,589.72 C1345.42,601.06 1375.76,612.03 1405.64,624.13 C1439.52,637.86 1473.11,652.33 1505.34,669.72 C1510.02045,672.181867 1514.95216,674.133092 1520.05,675.54 C1525.51854,676.912606 1530.68564,679.285947 1535.29,682.54 C1541.43,687.1 1547.83,691.31 1554.04,695.77 C1556.52158,697.44192 1558.82677,699.36179 1560.92,701.5 C1578.26,720.31 1595.37,739.34 1612.86,758.02 C1618.19547,763.515843 1623.92394,768.615988 1630,773.28 C1636.31587,778.151546 1641.77132,784.046406 1646.14,790.72 C1655.43,805.3 1665.14,819.62 1674.47,834.15 C1676.95,838.02 1679.64,841.04 1684.59,841.15 C1685.59,841.15 1686.93,841.15 1687.45,841.73 C1695.06,850.33 1706.45,855.15 1711.26,866.73 C1715.09,875.89 1720.32,884.47 1724.8,893.38 C1726.62967,896.928913 1729.62867,899.737168 1733.29,901.33 C1745.75,907.41 1754.37,917.55 1759.99,929.78 C1768.32,947.9 1775.46,966.56 1783.51,984.78 C1785.75,989.84 1789.38,994.29 1792.43,998.98 C1795.1,1003.11 1798.43,1006.91 1800.43,1011.33 C1805.53,1022.52 1810.17,1033.93 1814.77,1045.33 C1818.29337,1054.29507 1823.12953,1062.68673 1829.12,1070.23 C1837.66473,1080.54392 1841.52737,1093.95084 1839.78,1107.23 C1838.72,1115.98 1839.59,1124.32 1845.01,1131.95 C1847.19,1135.03 1847.93,1139.24 1848.88,1143.05 C1849.89492,1146.90954 1850.56423,1150.85176 1850.88,1154.83 C1851.29,1160.83 1853.96,1165.46 1857.77,1169.83 C1860.8555,1173.3073 1863.53911,1177.12139 1865.77,1181.2 C1867.49,1184.46 1868,1188.34 1869.28,1192.72 L1869.59274,1192.89931 L1869.24,1192.74 C1867.59831,1193.95898 1875.20495,1201.73008 1875.46328,1204.40618 L1875.47,1204.54 C1875.47,1207.08 1856.17,1233.66 1853.63,1239.42 C1850.76,1239.42 1848.21,1240.43 1844.15,1242.97 C1840.09,1245.51 1825.88,1265.84 1824.35,1268.71 C1822.82,1271.58 1827.39,1272.97 1829.59,1274.97 C1828.59,1277.16 1819.11,1294.94 1817.59,1296.97 C1816.07,1299 1815.4,1318.46 1814.38,1330.66 C1813.36,1342.86 1810.49,1393.8 1809.47,1407.86 C1808.45,1421.92 1802.19,1471.52 1801.34,1476.77 C1800.49,1482.02 1800.15,1482.87 1790.84,1484.22 C1781.53,1485.57 1763.75,1491.5 1737.68,1496.41 C1711.61,1501.32 1706.87,1495.73 1698.74,1493 C1698.71493,1493.06908 1698.69111,1493.13928 1698.66852,1493.21055 C1698.70477,1492.66551 1698.76486,1492.11203 1698.85,1491.55 C1697.09,1490.04 1695.4,1488.44 1693.56,1487.04 C1690.93,1485.04 1690.08,1482.51 1690.06,1479.26 C1689.98,1469.61 1689.48,1459.97 1689.43,1450.33 C1689.35,1434.03 1688.52,1417.82 1685.7,1401.73 C1685.15,1398.58 1684.87,1395 1685.8,1392.04 C1687.21,1387.54 1686.52,1383.95 1684.6,1379.76 C1679.6,1368.9 1674.74,1357.91 1670.66,1346.68 C1661.99,1322.77 1648.89,1301.11 1637.19,1278.68 C1636.42,1277.21 1635.44,1275.84 1634.79,1274.32 C1626.21,1254.32 1611.57,1239.8 1593.94,1227.78 C1574.43,1214.47 1554.94,1201.11 1535.65,1187.48 C1531.95679,1184.71487 1528.7698,1181.33165 1526.23,1177.48 C1521.99,1171.35 1518.43,1164.75 1514.58,1158.35 L1512.58,1159.03 C1513.77,1174.47 1514.88,1189.92 1516.18,1205.35 C1516.99,1214.92 1518.63,1224.45 1518.92,1234.04 C1519.17993,1243.34834 1521.51689,1252.48092 1525.76,1260.77 C1537.95,1285.06 1544.37,1311.13 1549.76,1337.59 C1558.02,1377.96 1567.07,1418.17 1575.41,1458.52 C1582.93,1494.95 1590.35,1531.42 1597,1568.01 C1600.35092,1585.98131 1605.87131,1603.47933 1613.44,1620.12 C1618.31966,1630.71641 1621.12679,1642.14861 1621.71,1653.8 C1621.97,1659.95 1624.26,1665.26 1627.84,1670.26 C1644.13,1692.96 1660.55,1715.58 1676.28,1738.66 C1681.28,1745.94 1684.22,1754.57 1687.72,1761.76 C1685.55,1766.48 1682.25,1766.6 1679.44,1766.55 C1657.83,1766.17 1636.21,1766.01 1614.64,1764.81 C1605.88,1764.33 1597.24,1761.44 1588.06,1759.54 C1588.23,1756.64 1588.06,1754.71 1588.49,1752.94 C1589.3601,1749.04453 1590.51316,1745.21772 1591.94,1741.49 C1596.12,1731.42 1594.62,1721.3 1592.45,1711.23 C1590.55,1702.43 1584.63,1695.72 1578.45,1689.9 C1568.84314,1680.7166 1558.58654,1672.23795 1547.76,1664.53 C1538.59,1658.11 1534.36,1650.88 1533.51,1639.37 C1531.73,1615.24 1527.51,1591.3 1525,1567.22 C1522.13,1539.92 1513.07,1514.1 1507,1487.58 C1502.62,1468.46 1497.9,1449.42 1493.64,1430.28 C1492.5,1425.14 1490.41,1420.91 1486.32,1417.71 C1473.32,1407.5 1463.92,1394.57 1455.6,1380.26 C1440.68,1354.6 1428.13,1327.84 1415.39,1301.13 C1414.28957,1298.70829 1413.01629,1296.36891 1411.58,1294.13 C1394.66,1268.64 1377.68,1243.13 1360.31,1217.13 C1358.63,1218.41 1356.93,1219.31 1355.76,1220.66 C1337.22,1241.97 1318.67,1263.26 1300.33,1284.74 C1296.44774,1289.26224 1293.05548,1294.18303 1290.21,1299.42 C1282.97,1312.89 1276.21,1326.61 1269.21,1340.26 C1265.43,1347.73 1260.93,1354.55 1254.71,1360.34 C1246.43,1368.06 1238.71,1376.34 1230.59,1384.25 C1227.99516,1386.80256 1226.1603,1390.02569 1225.29,1393.56 C1218.7,1417.64 1213.73,1442 1211.39,1466.88 C1209.76,1484.23 1203.58,1500.49 1199.04,1517.12 C1193.78,1536.36 1187.86,1555.41 1182.58,1574.64 C1181.05405,1580.06327 1180.26035,1585.66628 1180.22,1591.3 C1180.22,1606.57 1180.78,1621.86 1181.42,1637.12 C1181.76,1645.29 1185.24,1652.18 1190.13,1658.88 C1207.74,1683.07 1224.85,1707.62 1242.07,1732.1 C1243.93,1734.75 1245.29,1737.76 1247.69,1742.1 C1239.74,1742.73 1233.18,1743.72 1226.63,1743.7 C1208.01,1743.61 1189.38,1743.18 1170.76,1742.7 C1166.18,1742.59 1161.61,1741.94 1156.09,1741.45 C1155.52,1736.63 1154.84,1732.45 1154.56,1728.28 C1153.8,1716.69 1153.38,1705.08 1152.42,1693.51 C1151.99696,1690.25955 1150.94034,1687.12366 1149.31,1684.28 C1142.50343,1671.26869 1133.30241,1659.65885 1122.19,1650.06 C1113.96,1643.06 1110.42,1634.58 1112.06,1623.68 C1115.91,1598.08 1119.75,1572.47 1122.98,1546.78 C1128.2,1505.1 1139.98,1464.86 1149.08,1424.02 C1150.85,1416.02 1151.62,1408.59 1148.56,1400.76 C1141.3,1382.2 1141.31,1363.86 1147.44,1344.49 C1158.98,1308.07 1168.86,1271.11 1179.22,1234.32 C1188.42,1201.69 1197.34,1168.98 1206.35,1136.32 C1207.19,1133.94 1207.55,1131.36 1208.29,1127.7 C1204.83,1127.25 1201.97,1126.31 1199.29,1126.61 C1173.72,1129.41 1148.12,1128.24 1122.51,1127.67 C1089.23,1126.91 1055.92,1126.74 1022.66,1125.38 C994.11,1124.22 965.6,1121.85 937.09,1119.71 C932.137288,1119.2593 927.278241,1118.07992 922.67,1116.21 C870.67,1095.73 818.76,1075.09667 766.94,1054.31 C759.34,1051.24 752.39,1046.41 745.39,1042.01 C733.01,1034.23 720.93,1026.01 708.5,1018.25 C697.85,1011.65 685.64,1009.69 672.99,1007.15 C663.44,1019.15 653.5,1030.78 644.57,1043.15 C627.18,1067.15 607.96,1089.64 588.22,1111.67 C579.58,1121.3 569.73,1129.85 560.31,1138.77 C551.62,1147 542.75,1155.03 534,1163.18 C523.78,1172.7 513.29,1181.96 503.52,1191.91 C497.020473,1198.55339 491.083435,1205.72466 485.77,1213.35 C462.31,1246.86 439.93,1281.26 411.77,1311.09 C399.52,1324.09 390.16,1338.75 380.02,1353.09 C377.229776,1356.77268 375.865864,1361.34036 376.18,1365.95 C376.91,1379.89 377,1393.88 377.02,1407.85 C377.02,1418.07 380.6,1427.43 383.56,1436.85 C391.56,1462.56 399.28,1488.4 408.38,1513.73 C415.55,1533.73 424.38,1553.13 432.88,1572.64 C441.76,1593.06 451.88,1612.98 457,1634.84 C458.57,1641.58 460.12,1648.54 460.08,1655.39 C460.01,1667.39 464.08,1677.99 468.73,1688.76 C478.8,1711.92 488.18,1735.37 497.79,1758.76 C498.35805,1760.56022 498.799132,1762.39806 499.11,1764.26 C492.78,1765.5 487.02,1767.44 481.2,1767.64 C460.26,1768.34 439.31,1768.67333 418.35,1768.64 C413.12,1768.64 407.91,1766.74 402.65,1765.96 C398.32,1765.31 397.27,1762.77 397.79,1758.89 C399.74,1744.43 401.6,1729.95 403.61,1715.5 C405.2,1704.03 406.96,1692.59 408.76,1680.32 L376.86,1654.69 C376.95,1631.41 366.19,1610.43 358.28,1588.63 C350.01,1565.82 341.81,1542.97 333.09,1520.33 C328.09,1507.33 322.19,1494.63 316.48,1481.9 C304.23,1454.54 289.32,1428.57 274.53,1402.54 C273.74,1401.14 272.67,1399.9 271.11,1397.72 C266.63,1404.32 263.57,1410.86 262.69,1417.94 C261.42,1428.13 261.23,1438.46 260.48,1448.72 C258.78,1472.21 256.88,1495.72 255.33,1519.2 C254.17,1536.76 253.45,1554.34 252.48,1571.92 C251.48,1590.8 249.99,1609.68 249.42,1628.58 C249.17,1637.14 250.3,1645.8 251.42,1654.34 C252.81,1665.19 255.32,1675.92 256.42,1686.79 C258.22,1704.95 264.98,1721.65 271.42,1738.34 C274.58,1746.58 280.78,1753.62 285.42,1761.34 C293,1774.06 295.42,1788.51 299.64,1802.4 C286.217323,1809.65326 271.245131,1813.56696 255.99,1813.81 C247.363333,1813.99 238.733333,1814.32333 230.1,1814.81 C213.29,1815.75 197.1,1811.68 180.16,1808.91 C180.16,1806.09 179.77,1803.51 180.23,1801.08 C182.29,1789.98 184.88,1778.97 186.7,1767.83 C187.882151,1759.96507 188.659841,1752.04465 189.03,1744.1 C189.66,1733.5 189.88,1722.88 190.34,1710.63 C180.09,1699.84 169.01,1687.92 157.6,1676.34 C154.19,1672.89 152.98,1669.64 153.96,1664.86 C158.34065,1643.37649 161.035522,1621.58347 162.02,1599.68 C163.17,1575.82 165.6,1552.03 167.48,1528.22 C168.54,1514.66 170.2,1501.12 170.48,1487.54 C170.82,1473.3 169.89,1459.02 169.48,1444.75 C169.42,1442.75 169.13,1440.75 169.08,1438.75 C168.4,1414.16 167.64,1389.57 167.18,1364.98 C167.09,1360.41 168.02,1355.78 168.89,1351.25 C175,1319.67 188.57,1290.7 200,1260.92 C210.12,1234.55 219.22,1207.67 226.74,1180.46 C232.47,1159.72 234.85,1138.07 239.02,1116.89 C245.94,1081.69 253.49,1046.6 260.02,1011.32 C262.72,996.7 263.85,981.74 264.86,966.87 C265.74,953.94 265.86,940.92 265.61,927.96 C265.08,904.38 263.96,880.81 263.1,857.24 C262.63,844.3 262.1,831.35 261.77,818.4 C261.67,814.16 262.29,809.9 262.69,804.19 C261.03,806.35 259.85,807.34 259.36,808.61 C244.7,846.44 231.25,884.68 220.42,923.8 C219.499744,926.630318 218.925566,929.561649 218.71,932.53 C217.93,967.11 217.53,1001.69 216.55,1036.26 C215.91,1058.81 214.49,1081.35 213.41,1103.9 C212.66,1119.49 212.41,1135.13 210.99,1150.66 C209.19,1170.48 206.52,1190.23 204.09,1210 C202.67,1221.52 201.09,1233 199.38,1244.51 C198.908101,1248.45233 198.033535,1252.33594 196.77,1256.1 C185.263333,1287.3 173.63,1318.45 161.87,1349.55 C160.87,1352.26 158.93,1354.66 157.23,1357.06 C156.191212,1358.36569 155.021814,1359.56189 153.74,1360.63 C148.88,1365.1 144.61,1371.8 138.93,1373.37 C132.81,1375.07 125.35,1371.96 117.76,1370.85 C114.63,1359.21 109.87,1348.43 108.95,1336.23 C107.49,1316.71 104.84,1297.23 102.62,1277.83 C101.62,1268.92 100.12,1260.07 99.39,1251.14 C99.0623571,1246.83404 99.3996417,1242.50331 100.39,1238.3 C107.03,1209.81 114.39,1181.49 120.55,1152.9 C125,1132.12 127.81,1110.99 131.43,1090.03 C138.78,1047.47 145.58,1004.81 153.79,962.42 C158.79,936.67 165.34,911.17 172.3,885.86 C181.73,851.57 192.75,817.71 202.01,783.38 C206.19,767.87 213.96,754.89 222.81,741.89 C236.46,721.82 248.99,700.99 262.24,680.63 C266.222393,674.513455 270.622884,668.679546 275.41,663.17 C282.8,654.64 290.95,646.75 298.24,638.17 C305.24,629.91 314.79,626.05 324.11,621.87 C328.937264,619.688518 333.235544,616.488687 336.71,612.49 C342.49,606.1 347.86,598.88 354.87,594.2 C363.05,588.72 372.65,585.2 381.87,581.57 C390.2,578.3 398.87,575.95 407.48,573.28 C436.05,564.41 464.55,555.28 493.27,546.91 C502.42,544.25 512.16,543.44 521.7,542.33 C548.7,539.2 575.81,536.33 602.88,533.39 C624.17,531.09 645.38,533.28 666.48,535.59 Z M1872.32,1507.41 C1888.54886,1506.92088 1903.98346,1512.17339 1909.80569,1511.07303 L1902.51,1512.99 C1899.89,1519.13 1898.75,1524.8 1900.94,1530.87 C1901.57,1532.63 1901.21,1534.87 1901.04,1536.78 C1899.11,1559.26 1897.94,1581.85 1894.93,1604.18 C1892.16,1624.72 1883.8,1642.88 1866.7,1656.18 C1859.43139,1662.0017 1852.6213,1668.37382 1846.33,1675.24 C1839.33,1682.67 1831.73,1686.52 1820.97,1686.24 C1809.87,1685.99 1800.07,1683.75 1790.8,1677.8 C1780.18,1670.98 1768.73,1665.35 1758.67,1657.8 C1749.49,1650.93 1740.41,1643.38 1735.67,1632.15 C1733.36,1626.63 1730.55,1621.32 1728.13,1615.85 C1727.35,1614.09 1726.13,1611.7 1726.73,1610.29 C1730.9,1600.45 1730.73,1588.29 1741.45,1581.84 C1741.93,1581.54 1742.11,1580.74 1742.79,1579.51 C1740,1572.94 1737.09,1565.91 1734.04,1558.94 C1729.5,1548.59 1724.75,1538.32 1720.35,1527.94 C1719.07423,1524.9252 1717.73751,1522.29137 1715.1813,1520.86397 C1715.29449,1520.89876 1715.4112,1520.93384 1715.53,1520.97 C1721.51,1522.79 1727.11,1521.48 1750.98,1520.1 C1774.85,1518.72 1789.07,1512.96 1798.38,1511.1 C1798.04,1514.31 1802.78,1517.87 1802.78,1517.87 L1802.78,1517.87 L1805.15,1517.02 C1807.52,1516.22 1828.48,1514.87 1831.4,1514.02 C1834.32,1513.17 1837.32,1508.6 1837.32,1508.6 C1837.32,1508.6 1855.73,1507.91 1872.32,1507.41 Z M1701.5723,1505.8573 C1701.70106,1506.03434 1701.83052,1506.19903 1701.96,1506.35 C1704.25,1509.02 1705.18,1512.53 1707.02,1516.29 C1707.66873,1517.61567 1708.17451,1518.36207 1708.81958,1518.85264 C1708.12345,1518.4228 1707.54971,1517.8859 1707.32,1517.33 C1705.74576,1513.51339 1703.51813,1509.9062 1701.71143,1506.14809 Z M1913.34895,1492.78934 L1913.37136,1492.98442 C1913.1584,1491.59897 1912.7609,1490.26834 1912.33,1488.93 L1912.42276,1489.21911 C1912.91177,1490.41799 1913.20488,1491.60699 1913.34895,1492.78934 Z M1968.72,1155.54 C1968.86334,1157.91117 1968.86334,1160.28883 1968.72,1162.66 C1966.86,1176.47 1965.45,1190.38 1962.72,1204.03 C1960.98785,1212.48704 1958.19581,1220.69181 1954.41,1228.45 C1951.16,1235.19 1951.34,1241.88 1951.41,1248.8 C1951.41,1249.8 1951.41,1251.26 1951.94,1251.64 C1958.94,1256.38 1956.5,1264.44 1958.45,1270.85 C1960.34,1277.04 1960.45,1283.85 1960.75,1290.44 C1961.25,1300.44 1961.35,1310.44 1961.45,1320.37 C1961.45,1323 1961.74,1326.18 1960.45,1328.15 C1956.45,1334.15 1957.22,1340.82 1956.72,1347.43 C1955.70667,1360.66333 1954.37333,1373.87 1952.72,1387.05 C1952.39,1389.72 1950.53,1392.53 1948.64,1394.62 C1944.27256,1399.65076 1939.55766,1404.369 1934.53,1408.74 C1928.17,1414.1 1925.71,1420.74 1925.28,1428.74 C1924.88,1436.35 1923.62,1443.92 1922.83,1451.51 C1921.99,1459.51 1920.38,1467.18 1916.23,1474.25 C1914.06,1477.95 1912.64,1482.09 1910.8,1486.25 C1911.31791,1486.99908 1911.74708,1487.74341 1912.09843,1488.48374 C1910.6145,1486.51175 1904.25148,1488.11 1900.4,1488.11 C1896.29,1488.11 1886.9,1485.4 1882.29,1484.05 C1877.68,1482.7 1844.15,1483.04 1842.29,1482.7 C1840.43,1482.36 1838.75,1483.88 1838.91,1479.48 C1839.07,1475.08 1832.8,1474.83 1832.8,1474.83 L1832.8,1474.83 L1836.05,1419.24 C1836.53109,1419.15203 1836.87798,1418.729 1836.87,1418.24 C1836.37,1378.96 1844.15,1304.64 1844.15,1304.64 L1844.15,1304.64 L1851.94,1292.28 C1851.94,1292.28 1856,1295.15 1857.19,1296.34 C1858.38,1297.53 1860.23,1294.64 1861.59,1293.8 C1862.95,1292.96 1877.84,1271.33 1879.03,1270.27 C1880.22,1269.21 1880.06,1263.11 1880.22,1262.27 C1880.38,1261.43 1879.88,1259.9 1878.01,1258.21 C1887.5,1249.07 1895.45,1230.61 1897.82,1226.72 C1900.19,1222.83 1902.73,1218.59 1900.7,1216.05 C1898.67,1213.51 1888.18,1205.28 1884.49,1201.51 C1884.45687,1201.47615 1884.42361,1201.44244 1884.39022,1201.40885 L1885.45,1202.02 C1896.37,1199.24 1904.35,1190.22 1915.68,1182.69 C1913.59,1194.12 1911.95,1203.13 1910.31,1212.14 L1911.77,1213 C1918.16,1206.91 1924.57,1200.85 1930.93,1194.73 C1937.29,1188.61 1944.01,1182.4 1950.24,1175.95 C1956.47,1169.5 1962.08,1162.95 1968.72,1155.54 Z M1904.61,1353.55 L1904.6107,1354.56901 C1904.64113,1354.95787 1905.65015,1367.81909 1906.31,1371.66 C1906.98,1375.56 1910.55,1376.92 1913.51,1377.76 C1916.47,1378.6 1919.18,1375.55 1923.24,1372 C1927.3,1368.45 1922.06,1362.34 1921.38,1359.3 C1920.7,1356.26 1904.61,1353.55 1904.61,1353.55 L1904.61,1353.55 Z" id="colour" fill="#FFFFFF" style="mix-blend-mode: overlay;"></path>
    </g>
</svg>