<?xml version="1.0" encoding="UTF-8"?>
<svg width="2048px" height="2048px" viewBox="0 0 2048 2048" version="1.1" xmlns="http://www.w3.org/2000/svg" xmlns:xlink="http://www.w3.org/1999/xlink">
    <title>poses/horses_01</title>
    <g id="poses/horses_01" stroke="none" stroke-width="1" fill="none" fill-rule="evenodd" opacity="0.8">
        <path d="M545.91102,347.49015 L545.908775,347.19 C546.04,365.36 548.58,382.63 548.58,385.67 C548.58,388.71 558.74,418.18 558.74,418.18 L580.98,467.43 L580.45,468.21 L584.64,480.14 C581.750652,490.374111 579.670903,500.819669 578.42,511.38 C576.5,528.14 576.02,541.5 576.02,541.5 C576.02,541.5 588.59,565.5 591.38,568.8 C594.17,572.1 610.81,591.28 635.95,603.47 C636.806808,601.54776 637.444167,599.535049 637.85,597.47 C637.85,597.47 625.54,593.79 622.24,591.25 C618.94,588.71 606.36,576.77 604.84,573.09 C603.32,569.41 593.79,552.5 593.79,552.5 L589.09,546.79 C589.09,546.79 592.4,527.99 593.92,519.87 C595.031601,514.320028 596.514943,508.851038 598.36,503.5 C598.36,503.5 605.6,497.28 608.14,494.23 C610.68,491.18 610.93,489.53 611.82,487.88 C612.71,486.23 620.2,481.88 622.49,476.32 C624.042037,472.648244 625.192068,468.819276 625.92,464.9 C626.43,462.36 647.76,444.07 652.2,439.37 C656.64,434.67 666.42,424.52 668.2,423.88 C669.98,423.24 689.28,417.79 693.34,416.39 C701.338488,414.13114 709.484976,412.433676 717.72,411.31 C723.82,410.68 743.63,406.99 749.59,409.31 C755.55,411.63 780.7,419.77 780.7,419.77 C780.7,419.77 800.89,441.05 801.91,446.51 C802.93,451.97 801.53,468.86 799.75,474.2 C802.037234,486.624255 804.433282,498.738809 804.824553,500.710871 L804.825,500.713 L804.825119,500.683955 C804.829888,500.467421 804.865915,500.142329 804.928583,499.72357 C804.78526,501.976183 804.968952,504.220059 805.73,506.53 C806.56,509.04 806.61,511.82 807.49,514.31 C813.48,531.16 812.21,548.36 809.99,565.59 C808.406775,577.548959 803.759871,588.895812 796.5,598.53 C787.79,610.13 784.06,622.95 783.13,636.45 C782.15,650.68 773.21,658.34 763.4,665.78 C758.42,669.55 752.67,672.31 747.13,675.62 C749.31,683.03 751.54,689.94 753.31,696.94 C754.149468,699.791077 754.293489,702.801811 753.73,705.72 C751.77,713.19 753.08,720.35 755.18,727.35 C757.93,736.53 760.98,745.53 760.78,755.53 C760.69,760.19 763.5,765.06 765.6,769.53 C767.735988,774.392808 770.420025,778.995931 773.6,783.25 C776.110791,786.296533 779.28504,788.728528 782.88,790.36 C796.75,796.76 810.88,802.75 824.88,808.82 C846.96,818.34 867.53,830.65 887.63,843.65 C903.43,853.87 920.71,860.86 937.93,867.77 C947.65,871.67 958.61,872.59 969.09,874.44 C997.583333,879.513333 1026.10333,884.416667 1054.65,889.15 C1059.55463,889.848616 1064.52147,890.002886 1069.46,889.61 C1093.72,888.17 1117.95,886.29 1142.21,885.01 C1158.14,884.16 1174.12,883.44 1190.05,883.85 C1203.32,884.19 1216.59,885.88 1229.77,887.62 C1247.24,889.93 1264.83,891.97 1281.99,895.8 C1301.07,900.05 1320.27,904.13 1338.36,912.29 C1353.5,919.11 1369.28,924.5 1384.73,930.66 C1388.72,932.29 1392.85,933.85 1396.32,936.29 C1416.47341,950.470841 1437.934,962.696248 1460.41,972.8 C1477.61,980.53 1491.39,993.4 1507.12,1003.31 C1524.15,1014 1537.14,1027.55 1545.44,1046.31 C1557.26,1073.02 1575.9,1095.44 1594.32,1117.8 C1599.64,1124.26 1602.63,1131.05 1603.09,1139.35 C1603.6,1148.65 1605.04,1157.9 1605.45,1167.2 C1605.69021,1173.83685 1605.42947,1180.48237 1604.67,1187.08 C1603.34,1199.65 1601.37,1212.16 1600.1,1224.74 C1599.70804,1228.314 1600.18488,1231.92981 1601.49,1235.28 C1606.57,1247.24 1612.19,1258.95 1617.49,1270.79 C1621.38,1279.47 1627.17,1286.19 1634.78,1292.19 C1661.92,1313.35 1690.83,1331.56 1720.92,1348.08 C1724.24,1349.91 1727.24,1351.14 1731.24,1350.55 C1756.34,1346.75 1778.45,1354.28 1798.93,1368.38 C1812.33,1377.61 1825.99,1386.37 1836.05,1399.67 C1839.37,1404.06 1840.26,1407.5 1837.52,1413.33 C1834.69906,1419.29407 1832.70726,1425.61601 1831.6,1432.12 C1830.91,1436.54 1828.83,1438.67 1825.39,1439.67 C1813.24,1443.13 1801.22,1447.41 1788.83,1449.55 C1780.53,1450.99 1771.49,1450.4 1763.14,1448.81 C1748.13,1445.97 1733.32,1441.89 1718.57,1437.89 C1713.48946,1436.38653 1708.65282,1434.15682 1704.21,1431.27 C1683.35,1418.2 1662.68,1404.83 1641.92,1391.6 C1640.01,1390.37 1637.93,1389.43 1634.5,1387.6 C1635,1395.2 1635.24,1401.58 1635.87,1407.92 C1636.77,1416.83 1638.38,1425.68 1638.87,1434.59 C1639.3329,1442.21296 1641.08437,1449.70233 1644.05,1456.74 C1654.74,1482.9 1664.99,1509.27 1675.99,1535.27 C1680.34,1545.61 1681.36,1556.39 1683.07,1567.2 C1685.8,1584.53 1683.91,1601.53 1680.98,1618.6 C1676.49,1644.79 1671.84,1670.97 1668.27,1697.28 C1666.17,1712.7 1666.13,1728.4 1664.98,1743.95 C1663.67,1761.83 1662.02,1779.67 1660.76,1797.55 C1659.95,1809.14 1659.32,1820.76 1659.13,1832.37 C1659.16542,1837.00084 1657.55666,1841.49404 1654.59,1845.05 C1649.84,1851.02 1645.99,1857.55 1641.29,1863.7 C1636.59,1869.85 1636.94,1876.38 1638.07,1883.54 C1641.58,1905.77 1644.63,1928.07 1647.96,1951.07 C1646.84,1952.26 1645.13,1953.84 1643.7,1955.64 C1638.33,1962.45 1631.14,1964.84 1622.7,1964.84 C1615.71974,1964.73018 1608.74013,1965.0977 1601.81,1965.94 C1594.88,1966.93 1588.67,1965.29 1582.36,1963.05 C1575.77,1960.71 1569.08,1958.68 1562.51,1956.3 C1555.22,1953.65 1552.04,1947.33 1554.04,1939.73 C1557.135,1928.45065 1561.54175,1917.57307 1567.17,1907.32 C1570.69739,1900.64159 1573.49038,1893.60046 1575.5,1886.32 C1581.78,1863.91333 1587.68667,1841.41667 1593.22,1818.83 C1594.70873,1812.02099 1595.44978,1805.06983 1595.43,1798.1 C1595.92,1774.14 1595.59,1750.17 1596.43,1726.23 C1596.82,1715 1599.09,1703.82 1600.67,1692.63 C1602.34,1680.77 1603.93,1668.89 1606.07,1657.11 C1607.25923,1650.57715 1607.19135,1643.87741 1605.87,1637.37 C1601.96,1617.46 1598.26,1597.53 1594.65,1577.53 C1593.77417,1572.99192 1591.78072,1568.74381 1588.85,1565.17 C1575.32,1547.46 1557.67,1534.32 1540.48,1520.68 C1506.33,1493.52 1471.81,1466.92 1437.89,1439.52 C1427.86,1431.38 1419.32,1421.47 1410.09,1412.38 C1409.15,1411.47 1408.15,1410.66 1407.09,1409.66 C1406.12,1410.36 1404.99,1410.75 1404.64,1411.51 C1399.32,1422.87 1389.76,1429.94 1379.89,1436.87 C1373.92,1441.06 1366.73,1444.81 1363.07,1450.63 C1359.63,1456.1 1360.26,1464.07 1358.81,1470.88 C1357.31492,1477.72328 1357.50711,1484.82756 1359.37,1491.58 C1362.16,1501.82 1364.09,1512.31 1366.87,1522.58 C1369.12,1530.73 1369.22,1538.84 1369.12,1547.23 C1368.91,1564.91 1363.56,1581.27 1357.68,1597.52 C1356.11152,1601.50876 1353.72729,1605.12598 1350.68,1608.14 C1326.6,1632.69 1302.28,1657.01 1278.17,1681.54 C1274.53249,1685.24642 1271.34389,1689.36811 1268.67,1693.82 C1256.8,1713.47 1244.67,1733.01 1233.67,1753.12 C1227,1765.29 1220.73,1777.24 1211.47,1788 C1201.33,1799.76 1202.43,1802.18 1209.7,1817.76 C1215.37,1829.92 1219.31,1842.49 1219.7,1856.03 C1219.91,1863.22 1217.13,1867.21 1209.91,1868.5 C1202.73159,1869.88876 1195.47981,1870.86702 1188.19,1871.43 C1173.61,1872.35 1158.96,1873.24 1144.24,1867.49 C1143.71,1856.33 1143.85,1844.95 1147.24,1834.19 C1150.3,1824.44 1153.53,1814.6 1160.02,1806.19 C1162.29,1803.26 1163.1,1798.95 1163.81,1795.12 C1164.63933,1790.20991 1165.12385,1785.24777 1165.26,1780.27 C1165.85,1766.25 1172.28,1754.2 1177.44,1741.61 C1183.48925,1727.10839 1192.21838,1713.8773 1203.17,1702.61 C1214.24113,1690.97514 1223.91658,1678.08797 1232,1664.21 C1242.82,1645.66 1254.34,1627.53 1265.26,1609.05 C1267.70932,1604.90741 1269.51334,1600.41589 1270.61,1595.73 C1273.6,1582.96 1275.82,1570 1278.71,1557.21 C1279.67,1552.97 1278.81,1549.53 1277.1,1545.75 C1270.15,1530.49 1260.65,1516.93 1250.55,1503.64 C1246.43514,1498.03489 1243.0042,1491.95856 1240.33,1485.54 C1236.25,1476.05 1232.84,1466.29 1229.49,1456.54 C1223.67237,1439.52149 1215.95711,1423.2121 1206.49,1407.92 C1194.57,1388.69 1181.86,1369.92 1169.64,1350.92 C1165.36,1344.22 1161.54,1337.26 1157.21,1329.92 C1153.79,1330.95 1150.63,1331.75 1147.57,1332.83 C1113.38,1344.89 1079.25,1357.1 1044.99,1368.96 C1038.43574,1371.32038 1031.60741,1372.83591 1024.67,1373.47 C991.48,1375.99 958.26,1378.28 925.03,1380.05 C915.46,1380.56 905.75,1379.4 896.18,1378.4 C873.03,1375.94 849.93,1373.03 826.79,1370.46 C819.2,1369.61 811.56,1369.1 803.92,1368.7 C797.92,1368.34 791.92,1368.73 785.92,1368.34 C774.91,1367.64 764.01,1366.17 754.49,1359.92 C747.37,1355.27 739.57,1352.83 731.37,1351 C714.84,1347.32 698.38,1343.28 681.1,1339.2 C679.26,1342.14 677.27,1345.11 675.49,1348.2 C655.95,1382.28 637.1,1416.75 616.69,1450.28 C601.8,1474.7 585.04,1497.98 568.8,1521.55 C563.24,1529.62 558.53,1537.87 557.53,1547.76 C557.068666,1552.0383 556.821691,1556.33701 556.79,1560.64 C556.77,1576.6 558.05,1592.65 556.7,1608.49 C555.050071,1629.3843 552.094296,1650.15489 547.85,1670.68 C544.06,1688.42 545.93,1705.7 547.19,1723.23 C547.67,1729.83 547.76,1736.45 548.28,1743.04 C548.98,1751.99 549.8,1760.82 556.8,1767.82 C559.970042,1771.24534 562.682648,1775.06719 564.87,1779.19 C568.18,1784.91 572.49,1787.29 578.98,1785.05 C580.54,1784.51 582.23,1784.37 583.83,1783.93 C587.87,1782.82 590.78,1784.28 593.49,1787.34 C595.87,1789.97 598.47,1793.03 601.63,1794.34 C612.29,1798.69 614.76,1808.19 615.76,1817.69 C616.9,1828.48 616.69,1839.29 611.23,1849.69 C605.58,1860.55 601.49,1872.27 596.58,1883.55 C592.58,1892.71 581.67,1898 572.25,1895.55 C571.011934,1895.06264 569.729158,1894.69756 568.42,1894.46 C549.13,1893.4 539.99,1879.63 533.66,1864.46 C524.09,1841.52 511.4,1820.62 496.72,1800.81 C491.64,1793.95 489.18,1786.38 486.77,1778.38 C480.97,1758.96 482.18,1739.83 485.68,1720.38 C486.5,1716.04 485.65,1711.13 484.5,1706.76 C472.46,1661.07 459.87,1615.54 448.2,1569.76 C444.07,1553.4 441.82,1536.5 439.07,1519.76 C438.56,1516.65 439.37,1513.12 440.28,1510 C446.79,1487.65 453.2,1465.25 460.2,1443.06 C470.613333,1410.41333 481.253333,1377.84 492.12,1345.34 C494.413033,1338.77902 497.350726,1332.46147 500.89,1326.48 C506.69,1316.41 513.09,1306.69 519.55,1296.31 C516.04,1291.29 512.46,1286.62 507.36,1283.4 C499.786667,1278.57333 492.12,1273.90667 484.36,1269.4 C482.14,1268.1 479.51,1266.73 477.05,1266.73 C458.9,1266.57 441.47,1268.68 425.64,1279.26 C391.06,1302.33 355.88,1324.59 323.06,1350.26 C318.093884,1354.17204 312.305469,1356.90726 306.13,1358.26 C298.99,1359.86 292.04,1362.29 284.87,1363.71 C278.85,1364.91 274.56,1367.97 270.68,1373.91 C277.27,1380.53 284.16,1387.1 290.68,1394.1 C294.69926,1398.50818 298.471685,1403.13525 301.98,1407.96 C318.3,1429.71 329.46,1454.28 340.3,1478.96 C350.87,1503.02 360.72,1527.4 370.94,1551.62 C373.03,1556.58 374.7,1561.56 373.8,1567.09 C373.137934,1570.4512 374.459329,1573.89459 377.2,1575.95 C377.745888,1576.33409 378.219805,1576.81139 378.6,1577.36 C389.01,1594.86 407.68,1598.05 424.74,1603.99 C429.72,1605.76 434.81,1607.15 440.81,1608.99 C439.13,1615.88 437.89,1622.33 435.98,1628.59 C430.43,1646.72 424.82,1664.81 418.76,1682.81 C416.8,1688.63 413.36,1693.96 410.27,1700.16 C402.821336,1694.45735 396.364621,1687.56479 391.16,1679.76 C374.965461,1656.13659 356.671205,1634.0235 336.5,1613.69 C330.71,1607.81 324.04,1602.77 317.5,1597.69 C303.13,1586.51 297.65,1570.78 294.55,1553.78 C294.28088,1552.81648 294.086965,1551.83353 293.97,1550.84 C293.67,1537.33 287.67,1526.03 280.67,1514.92 C268.03,1494.95 255.8,1474.73 243.55,1454.52 C231.378679,1434.64663 220.721855,1413.88454 211.67,1392.41 C210.54,1389.69 209.43,1386.69 209.43,1383.83 C209.55,1368.2 209.79,1352.55 210.55,1336.94 C210.898198,1332.99768 212.25127,1329.21046 214.48,1325.94 C224.35,1310.92 234.02,1295.71 244.92,1281.44 C253.37,1270.38 263.61,1260.7 272.86,1250.23 C277.50906,1245.04636 281.878588,1239.61867 285.95,1233.97 C303.39,1209.44 316.02,1182.23 329.13,1155.3 C335.87,1141.54 342.13,1127.55 349.13,1113.95 C351.96,1108.45 351.44,1103.77 348.65,1098.89 C345.69,1093.69 342.55,1088.6 339.24,1083.06 C350.1,1057.62 351.36,1030.18 355.36,1003.25 C356.046826,998.996012 357.159072,994.82174 358.68,990.79 C360.673534,985.138101 362.990699,979.605621 365.62,974.22 C368.45,968.56 369.53,963.25 366.68,957.15 C365.35,954.3 365.27,950.68 365.27,947.42 C365.5,927.11 365.81,906.8 366.5,886.51 C366.857592,880.534648 367.771548,874.605654 369.23,868.8 C374.8,844.2 378.14,818.99 387.23,795.2 C393.45,779.04 399.1,762.69 405.23,746.51 C416.13,717.77 422.67,687.77 431.23,658.35 C434.29,647.85 437.17,637.29 439.78,626.67 C443.45,611.73 448.5,597.39 456.5,584.16 C459.61,579.05 461.89,573.47 464.89,568.27 C475.62,549.38 483.21,529.33 489.89,508.64 C498.87,480.81 510.09,453.71 520.09,426.2 C528.14,404.04 535.78,381.73 543.57,359.48 C544.301995,357.629947 544.828488,355.705063 545.14,353.74 C545.384609,351.664315 545.63762,349.579056 545.91102,347.49015 Z M715.03,81.59 C715.41,83.24 716.04,84.51 715.93,85.7 C714.05,105.52 712.68,125.41 709.85,145.1 C708.6,153.8 704.43,162.08 701.43,170.51 C699.71,175.44 696.4,180.05 699.12,185.44 C699.6,185.75 699.92,186.06 700.12,186.06 C711.73,182.64 722.25,186 732.73,190.64 C738.19,193.02 743.95,194.8 749.51,197.02 C751.988843,197.93024 754.341224,199.153478 756.51,200.66 C768.77,209.75 781.03,218.79 793.03,228.26 C798.16,232.31 802.51,237.34 807.8,242.5 C822.07,226.8 833.92,208.5 849.3,192.74 C853.6,198.42 852.45,203.83 851.38,208.83 C849.35,218.23 846.3,227.39 843.99,236.73 C840.17,252.23 835.88,267.67 833.25,283.38 C832.13,290.05 834.4,297.43 835.72,304.38 C836.36,307.9 838.36,311.17 839.72,314.57 C840.22,315.8 841.22,317.19 840.99,318.3 C838.4,330.78 844.82,341.47 848.63,352.3 C852.86,364.3 853.12,373.91 842.63,382.3 C838.64,385.49 837.68,389.95 838.1,394.88 C838.29,397.21 837.91,399.57 838.16,401.88 C838.86,408.29 836.39,413.18 832.39,418.18 C828.94,422.49 826.64,427.74 824.1,432.74 C820.33,440.1 816.72,447.55 813.18,455.04 C812.08,457.37 810.55,460 810.74,462.37 C811.374986,470.0745 809.834643,477.40566 808.064667,484.686591 C809.305437,478.887346 810.480319,473.04267 810.71,469.99 C811.27,462.4 806.86,426.84 805.46,423.54 C804.06,420.24 783.46,402.72 782.1,401.83 C780.74,400.94 752.26,386.34 750.61,385.07 C748.96,383.8 722.42,384.94 718.99,385.32 C715.56,385.7 671.5,396.5 669.22,397.23 C666.94,397.96 615.89,441.29 615.89,441.29 C615.89,441.29 613.09,437.86 611.19,437.48 C609.29,437.1 604.08,437.73 604.08,437.73 C604.08,437.73 586.55,402.73 580.59,388.34 C574.63,373.95 573.35,370.18 573.86,365.48 C574.37,360.78 572.97,356.21 572.33,353.17 C571.69,350.13 564.66,324.85 564.18,319.9 C563.7,314.95 563.06,311.01 564.71,305.55 C566.427348,299.774854 569.090103,294.324316 572.59,289.42 C573.026206,288.827742 573.65718,288.012484 574.428472,287.037968 C569.300711,294.684117 565.736581,303.375077 564.18,310.42 C570.94,301.91 580,286.84 585.51,274.78 C584.116281,275.865819 582.775629,277.062195 581.491737,278.346738 C586.900779,271.785188 592.59,265.01 592.59,265.01 L610.806258,234.468885 C613.090705,231.989199 615.32956,229.471678 617.49,226.89 C624.49,218.5 630.39,209.15 637.49,200.82 C641.87,195.66 641.81,189.53 642.2,183.91 C642.65,177.27 644.79,171.68 647.7,166.06 C654.57,152.73 661.59,139.5 668.17,126.06 C674.88,112.37 685.52,101.73 695.35,90.53 C700.11,85.11 707.14,82.32 715.03,81.59 Z M547.136464,299.641998 L547.14,299.53 C547.045883,301.272583 547.788887,302.955488 549.14,304.06 C549.527131,304.371933 550.233844,304.956906 551.052095,305.638635 C549.96262,304.810355 548.883405,303.953405 547.93,303 C547.0287,302.099321 546.753376,300.791423 547.136464,299.641998 Z M642.08461,272.74309 L641.93,272.75 C639.65,273.01 620.85,279.1 618.06,283.93 L618.06,283.93 L626.44,290.79 C626.44,290.79 649.04,293.71 653.36,293.63 C651.31,286.98 652.34,281.9 650.31,280.63 C648.28,279.36 644.21,272.49 641.93,272.75 Z M589.75,249.3 C590.118508,248.985289 590.44071,249.025828 590.748913,249.238871 L590.79,249.22 C588.902544,250.100813 578.978816,259.552711 573.096632,265.911098 C577.924004,260.388762 583.346447,254.828696 589.75,249.3 Z M597.358167,248.542438 L597.309035,248.589378 C600.531307,245.238244 603.787274,241.911721 606.99103,238.540913 C603.486013,242.326143 599.844622,246.154728 597.358167,248.542438 Z" id="colour" fill="#FFFFFF" style="mix-blend-mode: overlay;"></path>
    </g>
</svg>