<?xml version="1.0" encoding="UTF-8"?>
<svg width="2048px" height="2048px" viewBox="0 0 2048 2048" version="1.1" xmlns="http://www.w3.org/2000/svg" xmlns:xlink="http://www.w3.org/1999/xlink">
    <title>poses/horses_10</title>
    <g id="poses/horses_10" stroke="none" stroke-width="1" fill="none" fill-rule="evenodd" opacity="0.8">
        <path d="M1676.88,389.68 C1676.88,389.68 1682.81,386.35 1685.19,386.69 C1687.57,387.03 1693.33,407.51 1695.19,412.25 C1692.99,414.09 1691.64,420.89 1693.5,424.25 C1695.36,427.61 1701.12,447.25 1701.12,447.25 L1701.12,447.25 L1707.89,444.71 C1707.89,444.71 1715.51,463.86 1718.05,465.37 C1720.59,466.88 1842.14,562.37 1842.14,562.37 C1842.14,562.37 1832.33,582 1828.77,594.87 C1825.21,607.74 1820.62,615.02 1814.89,627.21 C1809.16,639.4 1807.78,642.45 1798.16,646.64 C1798.29462,646.63333 1798.42803,646.627606 1798.56045,646.62286 C1796.80236,646.795891 1795.03618,647.265915 1793.2,648.13 C1777.41,638.59 1761.7,629.25 1746.2,619.64 C1740.6,616.18 1735.56,611.8 1729.95,608.36 C1727.09385,606.753461 1723.94562,605.733514 1720.69,605.36 C1702.99,602.89 1685.69,605.99 1668.22,608.65 C1648.15,611.71 1632.42,621.97 1617.85,635 C1593.85,656.51 1568.63,676.63 1543.64,697 C1524.79204,712.269111 1505.16574,726.551583 1484.84,739.79 C1483.2,740.86 1481.71,742.16 1479.42,743.91 C1481.66,749.86 1483.59,755.8 1486.1,761.48 C1491.28,773.23 1496.69,784.86 1502.1,796.48 C1504.43065,801.278924 1505.49767,806.59337 1505.2,811.92 C1504.48,824.52 1504.07,837.13 1503.26,849.72 C1502.91,855.02 1504.03,859.11 1508.08,863.06 C1525.96,880.49 1543.47,898.31 1561.19,915.91 C1563.25361,918.068382 1565.63431,919.899432 1568.25,921.34 C1597.67,936.43 1621.46,958.67 1644.77,981.5 C1648.59,985.23 1649.28,987.14 1651.6,997.16 C1645.24,1002.28 1644.37,1010.16 1644.02,1017.66 C1643.58,1026.93 1640.53,1034.18 1633.37,1040.2 C1628.83,1044.02 1625.07,1048.8 1621.16,1053.32 C1619.61366,1055.00911 1618.4354,1057.00126 1617.7,1059.17 C1606.11,1097.81 1589.22,1134.45 1575.15,1172.17 C1572.15,1180.33 1569.31,1188.34 1569.15,1197.17 C1569,1206.9 1566.79,1216.17 1563.45,1225.33 C1561.66,1230.24 1559.17,1233.87 1554.45,1236.57 C1542.93,1243.21 1531.45,1249.07 1518.23,1252.57 C1503.89,1256.39 1490.42,1263.46 1476.57,1269.12 C1464.88,1273.89 1453.32,1279 1441.46,1283.31 C1436.29,1285.19 1430.52,1285.44 1423.77,1286.65 C1422.77,1260.48 1431.77,1237.58 1438.05,1213.44 C1441.21,1214.02 1443.68,1213.88 1445.48,1214.9 C1456.1,1220.9 1468.14,1219.45 1479.48,1221.63 C1481.1275,1221.76372 1482.78317,1221.5032 1484.31,1220.87 C1490.31,1218.93 1496.31,1216.81 1502.31,1214.87 C1507.16,1213.29 1509.51,1210.34 1510.77,1205.06 C1515.85,1183.75 1521.63,1162.61 1527.11,1141.39 C1527.22293,1140.32298 1527.22293,1139.24702 1527.11,1138.18 C1522.82,1138.18 1522.26,1141.87 1521.2,1144.04 C1516.03,1154.62 1508.66,1163.6 1501.2,1172.55 C1499.32,1174.82 1497.2,1177.55 1494.67,1178.55 C1483.81,1182.63 1472.78,1186.24 1461.74,1189.8 C1450.7,1193.36 1439.28,1195.99 1428.5,1200.23 C1406.5,1208.86 1384.87,1218.34 1363.04,1227.37 C1358.18,1229.37 1353.15,1231 1347.54,1233.03 C1345.8378,1227.75517 1345.52777,1222.12994 1346.64,1216.7 C1350.72,1195.16 1355.35,1173.7 1359.84,1152.27 C1360.27164,1150.90711 1360.83078,1149.58794 1361.51,1148.33 C1374.51,1149.87 1387.36,1151.16 1400.12,1153.02 C1405.66689,1153.92185 1411.35252,1153.38118 1416.63,1151.45 C1423.79,1148.83 1431.16,1146.81 1438.52,1144.5 C1445.93,1131.01 1457.33,1120.65 1467.71,1109.5 C1482.48,1093.71 1497.89,1078.5 1513,1063.03 C1514.33,1061.67 1515.44,1060.11 1517.17,1058.03 C1514.57,1056.69 1512.64,1055.6 1510.64,1054.67 C1489.89579,1044.88333 1468.35853,1036.8746 1446.26,1030.73 C1413.81,1021.83 1382.48,1009.66 1351.02,997.9 C1347.91,996.74 1344.78,995.63 1341.02,994.29 C1332.35,1001.59 1321.16,999.12 1310.86,1000.85 C1299.09,1002.85 1287.22,1004.27 1275.39,1005.92 C1269.81,1006.69 1264.17,1007.16 1258.63,1008.19 C1244.94,1010.73 1231.06,1012.66 1217.63,1016.37 C1183.33,1025.87 1149,1035.37 1115.21,1046.46 C1089.02,1055.06 1063.69,1066.23 1037.87,1075.97 C1031.35715,1078.32771 1024.67017,1080.17332 1017.87,1081.49 C1007.78,1083.58 997.61,1085.23 987.43,1086.82 C982.218116,1087.7867 976.930684,1088.28867 971.63,1088.32 C953.99,1087.9 936.37,1086.67 918.73,1086.51 C905.44,1086.39 892.12,1087.1 878.85,1088.03 C857.94,1089.48 837.04,1091.3 816.17,1093.24 C811.882589,1093.739 807.683633,1094.82238 803.69,1096.46 C798.37,1098.54 793.15,1100.53 787.3,1099.85 C783.69,1099.43 781.07,1101.01 778.5,1103.5 C772.23133,1109.43452 767.168518,1116.52449 763.59,1124.38 C754.93,1143.47 745.51,1162.21 736.08,1180.93 C729.73,1193.55 719.3,1203.11 710.36,1213.79 C696.7,1230.25 678,1241 661.8,1254.64 C644.09,1269.59 624.07,1280.73 603.46,1290.85 C587.3,1298.79 574.46,1310.56 562.46,1323.52 C550.03,1336.92 537.8,1350.52 525.34,1363.89 C496.12,1395.28 461.98,1420.51 425.92,1443.38 C420.036108,1447.07832 414.657744,1451.52556 409.92,1456.61 C394.44,1473.51 379.13,1490.61 364.38,1508.14 C358.02,1515.72 353.01,1524.48 347.71,1532.91 C340.99,1543.62 334.88,1554.71 328.01,1565.31 C318.22,1580.44 305.54,1592.31 287.94,1597.92 C279.35,1600.63 272.68,1605.28 267.73,1613.02 C264.733497,1617.39974 261.01377,1621.23783 256.73,1624.37 C245.15,1633.26 233.25,1641.69 222.15,1649.83 C208.55,1645.12 204.49,1634.64 201.87,1623.46 C199.87,1615.06 198.97,1606.46 197.33,1597.94 C196.11,1591.62 198.4,1586.07 201.02,1580.74 C201.86,1579.03 204.43,1577.62 206.46,1577.13 C217.746667,1574.41667 229.08,1571.90333 240.46,1569.59 C248.24,1568 256.11,1566.85 264.63,1565.38 C266.92,1559.81 269.03,1554.27 271.49,1548.9 C272.85,1545.9 274.16,1542.43 276.57,1540.58 C285.98,1533.36 292.21,1523.39 299.9,1514.71 C310.03,1503.27 320.17,1491.82 329.74,1479.92 C335.629034,1472.74836 340.844433,1465.04911 345.32,1456.92 C359.92,1429.64 373.86,1402.02 388.32,1374.67 C390.802002,1370.34907 393.826549,1366.36339 397.32,1362.81 C402.648389,1356.89114 407.306639,1350.40179 411.21,1343.46 C418.72,1330.54 426.69,1317.9 435.27,1303.82 C429.717287,1306.09441 424.365183,1308.83067 419.27,1312 C409.06,1318.28 398.6,1324.24 389.01,1331.36 C379.42,1338.48 370.6,1346.59 361.81,1354.66 C339.03,1375.56 316.45,1396.66 293.81,1417.66 C285.27,1425.56 276.44,1433.17 268.22,1441.38 C264.53,1445.07 261.64,1449.71 259.03,1454.28 C247.33,1474.79 236.65,1495.91 224.11,1515.88 C208.55,1540.66 191.66,1564.62 175.03,1588.72 C169.63153,1596.29807 163.798417,1603.5569 157.56,1610.46 C155.49,1612.82 152.23,1614.29 149.28,1615.7 C135.486667,1622.28667 121.646667,1628.77333 107.76,1635.16 C103.38,1637.16 99.53,1639.8 97.35,1644.09 C90.69,1657.19 77,1660.48 65.64,1666.96 C64.03,1667.88 61.25,1666.96 59.05,1666.6 C58.14,1666.46 57.34,1665.6 56.46,1665.15 C40.36,1656.53 41.3,1656.3 36.85,1638.64 C32.85,1622.64 33.56,1607.91 40.85,1593.29 C42.03,1590.93 42.59,1588.29 43.51,1585.77 C43.9728188,1584.9017 44.5151395,1584.07818 45.13,1583.31 C67.62,1582.22 90.64,1579.23 114.95,1582.05 C119.098362,1578.28528 121.637424,1573.06748 122.04,1567.48 C122.35,1562.97 124.47,1559.03 127.44,1555.08 C132.8,1547.97 136.89,1539.86 141.11,1531.96 C154.77,1506.41 170.42,1482.08 185.67,1457.48 C195.67,1441.4 203.95,1424.28 212.87,1407.55 C220.38,1393.47 227.5,1379.16 235.21,1365.19 C238.193647,1360.00056 241.698422,1355.12872 245.67,1350.65 C271.22,1320.87 289.83,1286.65 308.05,1252.3 C313.26,1242.47 315.71,1231.06 318.63,1220.16 C325.98,1192.76 337.26,1166.84 347.69,1140.59 C349.64,1135.7 353.16,1133.22 357.42,1131.28 C364.691612,1127.95218 371.277834,1123.2957 376.84,1117.55 C380.36,1113.97 381.84,1110.66 381.73,1105.41 C381.18,1086.04 378.92,1067 373.61,1048.34 C369.763947,1034.835 368.8,1020.9887 368.770392,1007.03187 L368.77,973.59 L368.77,973.59 C364.63,976.59 361.86,978.25 359.52,980.38 C350.16,988.86 340.97,997.53 331.67,1006.07 C318.81,1017.86 309.56,1032.62 298.83,1046.15 C297.23,1048.15 296.51,1050.89 295.54,1053.35 C285.96,1077.47 278.03,1102.14 270.23,1126.88 C265.23,1142.68 258.49,1157.98 251.54,1173.06 C242.04,1193.7 235.6,1215.36 228.95,1236.95 C218.85,1269.72 207.55,1301.95 193.24,1333.21 C189.72,1340.88 183.29,1345.55 177.04,1350.27 C172.4,1353.78 161.5,1349.58 159.5,1343.94 C156.63,1335.82 153.79,1327.76 153.21,1318.94 C151.95,1299.75 149.84,1280.62 148.3,1261.44 C148.174838,1258.47988 148.574326,1255.52095 149.48,1252.7 C154.97,1233.87 159.89,1214.83 166.42,1196.36 C172.51,1179.17 180.01,1162.44 187.52,1145.79 C197.9,1122.79 207.92,1099.45 219.87,1077.22 C231.64,1055.33 244.55,1034.02 262.21,1015.87 C286.1,991.35 309.15,966 332.45,940.87 C336.844441,935.890166 342.595983,932.300231 349,930.54 C356.752493,928.591622 364.30291,925.912982 371.55,922.54 C379.85,918.49 387.55,913.24 395.37,908.23 C396.925373,906.984915 398.028606,905.263309 398.51,903.33 C402.91,888.33 412.85,876.41 421.23,863.75 C428.53,852.75 437.03,842.37 445.61,832.25 C449.55785,827.808107 454.177183,824.012089 459.3,821 C477.44,809.91 495.39,798.54 514.01,788.17 C536.681757,775.571809 560.735024,765.639098 585.69,758.57 C590.506883,757.306614 595.234058,755.723094 599.84,753.83 C625.17,742.72 652.33,740.22 679.25,736.5 C688.13,735.27 697,733.87 705.9,732.83 C721.06,731.06 736.27,729.65 751.43,727.83 C768.91,725.77 786.33,723.23 803.82,721.33 C827.74,718.72 850.59,711.33 873.95,706.27 C900.95,700.41 927.47,692.87 953.76,684.48 C960.074248,682.448903 966.264745,680.051504 972.3,677.3 C999.02,665.17 1023.69,649.3 1049.13,634.86 C1081.21667,616.626667 1113.49,598.716667 1145.95,581.13 C1160.54,573.21 1175.66,566.25 1190.54,558.86 C1190.85617,558.757679 1191.16378,558.630619 1191.46,558.48 C1202.18387,550.113716 1213.94894,543.175685 1226.46,537.84 C1229.61,536.5 1231.69,532.84 1234.46,530.45 C1242.82,523.45 1252.56,518.45 1259.96,509.93 C1263.04,506.4 1269.47,505.58 1274.54,504.06 C1280.63067,502.324389 1286.22569,499.175693 1290.87,494.87 C1295.70078,490.238837 1301.85744,487.232179 1308.48,486.27 C1313.08,485.58 1317.56,483.54 1322.13,483.42 C1335.53,483.07 1345.37,476.68 1353.13,466.48 C1355.77071,463.020556 1359.67681,460.750989 1363.99,460.17 C1370.2,459.05 1376.33,457.44 1382.47,455.96 C1394.8,452.96 1406.36,448.96 1416.47,440.39 C1429.76,429.05 1446.47,426.93 1463.34,426.87 C1470.47,426.87 1477.04,425.95 1483.45,422.48 C1487.32756,420.59318 1491.50258,419.392101 1495.79,418.93 C1506.96,417.34 1518.23,416.42 1529.4,414.77 C1535.25,413.9 1541.31,412.86 1546.66,410.48 C1556.9,405.93 1567.43,405.95 1577.96,407.48 C1586.6,408.69 1594.77,409.18 1603.51,407.16 C1610.41,405.58 1618.01,407.16 1625.29,407.09 C1629.19726,407.154309 1633.10086,406.819236 1636.94,406.09 C1644.7,404.38 1652.28,401.84 1660.05,400.26 C1667.42157,398.767815 1673.71532,396.612971 1676.8696,389.536613 C1676.87493,389.630532 1676.88,389.68 1676.88,389.68 Z M1910.41,511.07 C1917.22772,502.761209 1921.59159,506.673582 1923.48272,506.259131 C1922.9494,510.3578 1926.22645,512.887633 1929.57,514.38 C1947.17,522.23 1960.39,536.25 1976.14,546.65 C1984.59,552.22 1991.14,559.52 1997.64,567.22 C2004.64,575.56 2007.07,585.3 2008.64,595.56 C2009.96,604.41 2010.81,613.35 2012.55,622.11 C2014.55,632.28 2012.45,640.94 2006.25,649.29 C1999.25,658.74 1989.93,664.77 1979.57,669.49 C1971.11,673.34 1962.67,677.41 1953.86,680.27 C1942.79,683.87 1931.45,684.83 1919.54,683.95 C1907.3,683.05 1898.86,678.29 1893.22,667.95 C1891.22,664.29 1890.01,660.21 1887.98,655.16 C1885.64,654.73 1882.15,653.99 1878.63,653.44 C1864.51,651.26 1850.37667,649.126667 1836.23,647.04 C1834.33,646.76 1831.49,646.16 1830.55,647.13 C1824.54636,653.332106 1818.023,651.266561 1811.94693,649.184032 C1812.91443,649.479065 1813.96112,649.803873 1815.1,650.16 C1824.47,653.09 1827.71,649.43 1830.58,647.09 C1828.5,645.46 1836.72,632.79 1844.85,618.57 C1852.98,604.35 1862.63,576.08 1862.63,576.08 C1862.63,576.08 1869.06,578.11 1870.08,576.08 C1871.1,574.05 1876.87,563.21 1880.41,558.81 C1883.95,554.41 1881.41,548.65 1881.41,548.65 C1881.41,548.65 1904.61,518.15 1910.41,511.07 Z M1749.26,284.52 C1751.85,307.61 1757.12,328.83 1753.53,351.29 C1759.68,352.29 1765.14,353.13 1770.59,354.04 C1777.11883,354.9848 1783.2866,357.62222 1788.48,361.69 C1794.4,366.35 1801.89,368.97 1808.43,372.92 C1811.72,374.92 1814.43,377.84 1817.43,380.37 C1820.18,382.72 1822.79,385.24 1825.64,387.46 C1834.3,394.18 1842.94,400.92 1851.79,407.39 C1855.86,410.39 1857.79,414.25 1858.69,418.98 C1859.74,424.53 1861.13,430.03 1862,435.61 C1863,441.88 1865.68,446.79 1871.12,450.29 C1874.18,452.29 1876.72,455.02 1879.72,457.1 C1889.72,464.02 1898.13,472.29 1903.72,483.27 C1905.19343,486.167084 1907.69765,487.438694 1910.92677,488.910305 C1895.78666,491.66842 1863.18,533.37 1863.18,533.37 C1858.27,529.82 1853.27,535.28 1853.27,535.28 C1853.27,535.28 1735.7,448.67 1733.92,446.39 C1732.14,444.11 1729.6,437 1729.6,437 L1729.6,437 L1736.71,432.71 C1736.71,432.71 1731.88,418.23 1729.09,409.6 C1726.3,400.97 1719.95,403.25 1719.95,403.25 C1719.95,403.25 1717.67,393.34 1714.62,384.71 C1713.42303,381.323168 1711.91495,378.717197 1710.35506,376.800817 C1710.6667,377.012077 1710.99412,377.23478 1711.34,377.47 C1712.01,370.29 1712.96,363.47 1713.15,356.72 C1713.11837,352.413339 1714.22209,348.174373 1716.35,344.43 C1723.97,331.54 1731.55,318.63 1738.86,305.57 C1742.38,299.31 1745.26,292.69 1749.26,284.52 Z M1911.45686,489.163 L1910.97,488.93 C1914.14,490.381102 1916.82905,492.9066 1919.43089,495.588561 C1917.38526,493.827337 1914.66818,491.637991 1911.09,488.88 L1911.45686,489.163 Z M1820.26,419.76 C1813.74,417.56 1802.74,421.71 1799.86,424.92 C1802.91,428 1813.16,432.46 1815.65,434.32 C1818.14,436.18 1826.27,433.39 1831.43,433.39 C1830.93,430.59 1823.26,422.55 1820.26,419.76 Z" id="colour" fill="#FFFFFF" style="mix-blend-mode: overlay;"></path>
    </g>
</svg>