<?xml version="1.0" encoding="UTF-8"?>
<svg width="2048px" height="2048px" viewBox="0 0 2048 2048" version="1.1" xmlns="http://www.w3.org/2000/svg" xmlns:xlink="http://www.w3.org/1999/xlink">
    <title>poses/horses_08</title>
    <g id="poses/horses_08" stroke="none" stroke-width="1" fill="none" fill-rule="evenodd" opacity="0.8">
        <path d="M376.240028,547.31 C388.320028,551.06 400.240028,555.1 411.340028,561.45 C414.570028,563.3 419.010028,563.45 422.930028,563.58 C430.660028,563.84 438.170028,564.64 445.030028,568.58 C451.890028,572.52 459.890028,572 467.390028,572.7 C480.090028,573.87 492.090028,576.33 503.090028,583.57 C509.020028,587.46 516.460028,589.51 523.500028,591.15 C541.220028,595.28 557.660028,601.75 571.700028,613.66 C579.030028,619.88 586.700028,625.66 593.940028,632.03 C600.680028,637.95 606.940028,644.46 613.580028,650.46 C616.086256,652.627455 618.870903,654.450256 621.860028,655.88 C632.560028,661.24 643.230028,666.7 654.190028,671.51 C660.730028,674.38 665.250028,678.7 667.830028,685.16 C670.890028,692.83 675.330028,698.65 683.490028,702.04 C690.474162,704.75932 695.445349,711.038312 696.490028,718.46 C696.840028,720.74 697.930028,722.91 698.330028,725.19 C699.274749,730.829577 702.644781,735.771315 707.550028,738.71 C716.446635,744.460555 724.06187,751.983876 729.920028,760.81 C735.620028,769.24 743.770028,776.57 754.920028,779.48 C773.250028,784.27 791.390028,789.85 809.460028,795.54 C830.390028,802.14 851.070028,809.54 872.040028,816.02 C897.800028,824.02 923.870028,830.57 951.110028,831.34 C980.050028,832.16 1008.98003,833.59 1037.92003,834.4 C1047.54003,834.67 1057.20003,833.97 1066.83003,833.52 C1084.45003,832.69 1102.08003,831.82 1119.69003,830.75 C1125.33747,830.470982 1130.95274,829.731866 1136.48003,828.54 C1165.70003,821.86 1195.11003,821.62 1224.77003,824.9 C1236.98003,826.25 1249.34003,826.62 1261.64003,826.9 C1275.64003,827.17 1289.57003,826.97 1303.52003,826.59 C1310.65003,826.4 1317.32003,827.97 1324.11003,829.78 C1344.97003,835.36 1365.91003,840.59 1386.79003,846.1 C1391.58003,847.36 1396.25003,849.1 1400.92003,850.75 C1420.01003,857.53 1439.04003,864.49 1458.18003,871.15 C1466.96003,874.15 1475.99003,876.55 1484.79003,879.54 C1487.89402,880.707443 1490.82958,882.281146 1493.52003,884.22 C1500.67003,889.07 1507.81003,893.97 1514.72003,899.22 C1523.22149,905.593915 1532.60688,910.694227 1542.58003,914.36 C1552.49102,918.201916 1561.83071,923.379789 1570.34003,929.75 C1588.05003,942.75 1606.34003,954.97 1623.98003,967.98 C1630.86466,973.204324 1637.32179,978.969257 1643.29003,985.22 C1657.05003,999.22 1669.75003,1014.32 1684.16003,1027.58 C1703.82003,1045.69 1720.76003,1066.06 1737.99003,1086.3 C1743.44225,1092.57114 1749.74303,1098.05066 1756.71003,1102.58 C1786.71003,1122.39 1817.71003,1140.48 1850.49003,1155.48 C1856.23003,1158.11 1861.78003,1161.23 1867.69003,1163.42 C1872.07257,1164.88414 1876.60334,1165.86005 1881.20003,1166.33 C1898.98003,1168.73 1916.79003,1170.86 1934.57003,1173.27 C1937.86836,1173.64385 1941.08379,1174.55241 1944.09003,1175.96 C1961.92003,1184.96 1979.64003,1194.13 1997.38003,1203.27 C1998.88393,1203.98513 2000.31982,1204.83528 2001.67003,1205.81 C2014.46003,1215.81 2016.42003,1216.81 2014.81003,1234.36 C2005.93003,1239.28 1996.87003,1243.03 1985.97003,1242.99 C1965.38003,1242.92 1944.78003,1244.24 1924.18003,1244.68 C1919.54121,1244.68927 1914.9203,1244.10452 1910.43003,1242.94 C1890.72003,1238.17 1870.95003,1233.56 1851.43003,1228 C1842.24003,1225.37 1833.49003,1221 1824.77003,1217 C1801.87003,1206.32 1779.07003,1195.4 1756.27003,1184.5 C1754.1771,1183.49987 1752.24569,1182.19205 1750.54003,1180.62 C1733.07003,1164.26 1715.44003,1148.06 1698.33003,1131.33 C1687.44003,1120.67 1677.53003,1109.33 1670.03003,1095.59 C1661.43367,1079.79067 1651.48658,1064.76465 1640.30003,1050.68 C1631.73003,1039.94 1620.38003,1031.41 1609.85003,1021.51 C1608.35003,1026.96 1609.99003,1032.8 1610.27003,1038.51 C1610.90003,1051.09 1612.45003,1063.62 1613.00003,1076.2 C1613.18003,1080.38 1611.74003,1084.72 1610.58003,1088.85 C1605.43003,1107.08 1599.76003,1125.17 1595.01003,1143.5 C1593.01003,1151.14 1593.01003,1159.27 1591.84003,1167.13 C1591.07612,1172.70462 1589.87916,1178.21127 1588.26003,1183.6 C1582.85003,1200.36 1576.99003,1216.97 1571.47003,1233.7 C1569.19003,1240.62 1568.23003,1248.11 1565.11003,1254.6 C1558.92003,1267.45 1551.85003,1279.91 1544.76003,1292.31 C1535.6867,1308.19667 1526.39336,1323.95333 1516.88003,1339.58 C1513.76862,1344.30862 1512.97049,1350.19347 1514.71003,1355.58 C1518.24003,1368.04 1521.12003,1380.69 1524.10003,1393.31 C1526.47557,1403.67655 1530.17247,1413.69515 1535.10003,1423.12 C1540.10003,1432.52 1543.78003,1442.58 1548.76003,1451.97 C1555.36003,1464.4 1556.45003,1477.68 1557.49003,1491.38 C1558.60003,1505.76 1555.64003,1517.44 1543.40003,1525.96 C1541.84022,1527.21854 1540.52213,1528.75009 1539.51003,1530.48 C1533.74003,1539.02 1525.59003,1542.37 1515.51003,1541.48 C1508.91003,1540.89 1502.23003,1540.56 1495.77003,1539.24 C1479.77003,1535.98 1463.95003,1532.24 1448.04003,1528.68 C1446.44003,1528.33 1444.78003,1528.26 1442.79003,1528.01 C1434.57003,1537.55 1426.50003,1547.2 1418.07003,1556.52 C1415.21979,1559.72652 1411.83663,1562.41613 1408.07003,1564.47 C1382.18003,1578.14 1355.92003,1591.09 1330.27003,1605.17 C1315.43003,1613.32 1301.27003,1622.72 1287.27003,1632.33 C1269.66003,1644.46 1250.38003,1653.55 1231.96003,1664.19 C1223.96003,1668.81 1215.02003,1671.81 1208.25003,1678.65 C1206.74003,1680.17 1203.14003,1680.73 1200.87003,1680.19 C1193.47003,1678.42 1188.87003,1681.99 1185.20003,1686.64 C1188.30003,1694.54 1192.51003,1701.64 1193.82003,1709.27 C1197.46003,1730.46 1199.90003,1751.86 1202.82003,1773.27 C1190.21003,1779.61 1127.82003,1780.93 1103.04003,1775.13 C1107.28003,1759.81 1111.29003,1744.5 1119.76003,1730.77 C1131.84003,1711.18 1137.24003,1689.24 1141.91003,1667.06 C1142.04003,1666.41 1142.10003,1665.74 1142.18003,1665.06 C1143.59422,1653.50418 1148.47514,1642.64763 1156.18003,1633.92 C1164.75003,1624.03 1173.70003,1615.35 1184.96003,1608.32 C1231.53003,1579.32 1277.62003,1549.45 1323.96003,1519.97 C1329.12591,1516.81268 1333.15076,1512.09075 1335.45003,1506.49 C1325.18003,1504.41 1315.51003,1501.93 1305.69003,1500.69 C1301.57003,1500.17 1297.92003,1499.78 1294.91003,1496.86 C1290.78003,1492.86 1286.24003,1492.52 1280.54003,1495.25 C1283.32003,1504.45 1278.01003,1511.62 1274.05003,1519.06 C1267.94003,1530.5 1261.47003,1541.75 1255.05003,1553.06 C1253.94003,1555 1252.22003,1556.59 1250.40003,1558.81 C1237.75003,1551.69 1224.23003,1546.81 1213.97003,1536.26 C1210.73003,1532.95 1206.97003,1530.18 1203.38003,1527.17 C1194.65003,1519.76 1193.11003,1517.17 1189.78003,1504.11 C1197.90003,1498.35 1206.34003,1492.67 1215.69003,1488.35 C1224.43003,1484.35 1233.15003,1480.2 1241.69003,1475.83 C1251.77246,1470.64741 1261.00532,1463.95712 1269.07003,1455.99 C1274.71881,1450.344 1281.94678,1446.54348 1289.80003,1445.09 C1300.05003,1443.09 1309.96003,1442.27 1320.35003,1444.17 C1333.35003,1446.57 1346.64003,1447.88 1359.80003,1449.65 C1360.25231,1449.6086 1360.6966,1449.50425 1361.12003,1449.34 C1363.66003,1445.76 1362.12003,1441.65 1361.12003,1438.13 C1353.73003,1413.55 1350.04003,1388.24 1346.12003,1362.99 C1345.30144,1356.74035 1342.15968,1351.02806 1337.32003,1346.99 C1320.89003,1332.47 1304.25003,1318.13 1288.57003,1302.82 C1274.31003,1288.9 1260.74003,1274.25 1249.22003,1257.82 C1240.83003,1245.82 1231.54003,1234.47 1222.53003,1222.93 C1215.89003,1214.42 1206.32003,1211.35 1196.31003,1211.93 C1187.6683,1212.41994 1179.16859,1214.34632 1171.16003,1217.63 C1147.69003,1227.45 1123.16003,1233.31 1098.62003,1239.48 C1071.75003,1246.25 1046.12003,1256.48 1020.29003,1266.16 C1008.49453,1270.57678 996.005303,1272.85247 983.410028,1272.88 C953.360028,1273.16 923.580028,1270.08 893.750028,1267.45 C876.840028,1265.96 859.930028,1263.83 842.990028,1263.45 C816.880028,1262.83 791.350028,1258.35 765.770028,1253.95 C745.700028,1250.49 725.630028,1248.39 705.230028,1250.41 C694.330028,1251.49 683.350028,1252.15 672.410028,1252.3 C668.280028,1252.36 664.140028,1250.45 659.410028,1249.3 C650.840028,1253.92 641.840028,1258.93 632.700028,1263.66 C621.350028,1269.54 611.700028,1277.37 602.700028,1286.5 C585.440028,1304.06 567.866695,1321.31333 549.980028,1338.26 C532.730028,1354.57 517.980028,1372.92 503.640028,1391.73 C498.830028,1398.05 493.910028,1404.29 488.870028,1410.79 C490.670028,1413.73 492.180028,1416.25 493.730028,1418.79 C508.330028,1442.22 523.030028,1465.59 537.450028,1489.13 C539.908917,1493.07438 541.664949,1497.41539 542.640028,1501.96 C543.640028,1506.78 546.250028,1509.56 550.090028,1511.89 C555.480028,1515.17 560.770028,1518.61 566.160028,1521.89 C567.850028,1522.89 569.710028,1524.37 571.510028,1524.4 C582.330028,1524.6 593.140028,1529.02 604.000028,1524.64 C605.607304,1524.16213 607.253731,1523.82749 608.920028,1523.64 C613.490028,1528.28 614.480028,1533.82 614.220028,1540.03 C613.590028,1555.3 613.390028,1570.59 612.740028,1585.85 C612.513275,1590.16527 611.80556,1594.44174 610.630028,1598.6 C609.090028,1604.21 606.110028,1605.6 601.050028,1603.28 C597.42347,1601.63943 593.966867,1599.64652 590.730028,1597.33 C570.830028,1582.69 551.090028,1568 531.090028,1553.67 C527.660028,1551.22 523.340028,1549.99 519.410028,1548.25 C515.480028,1546.51 511.260028,1545.25 507.580028,1543.06 C489.430028,1532.34 489.270028,1532.06 479.780028,1510.95 C478.837011,1509.19122 478.082809,1507.33756 477.530028,1505.42 C473.370028,1486.28 459.120028,1473.52 448.020028,1457.59 C438.180028,1462.67 427.580028,1465.42 422.160028,1476.44 C419.860028,1481.11 415.910028,1484.99 412.570028,1489.11 C388.700028,1518.54 364.520028,1547.73 341.070028,1577.48 C333.500028,1587.08 327.480028,1597.98 321.340028,1608.62 C311.050028,1626.48 301.110028,1644.55 291.340028,1662.67 C289.150028,1666.67 286.600028,1669.67 282.220028,1671.24 C278.470028,1672.57 274.960028,1674.58 271.220028,1675.91 C255.510028,1681.47 244.610028,1693.1 234.220028,1705.31 C232.590028,1707.23 231.700028,1709.94 230.990028,1712.43 C229.540028,1717.55 228.690028,1722.83 227.150028,1727.91 C225.952949,1732.01807 225.767678,1736.3548 226.610028,1740.55 C227.810028,1747.35 228.680028,1754.21 229.850028,1762.12 C195.360028,1763.42 161.690028,1764.4 126.380028,1764.12 C130.660028,1755.64 133.320028,1748.38 138.590028,1742.12 C160.023362,1716.72667 181.263362,1691.17667 202.310028,1665.47 C204.550028,1662.75 205.940028,1659.21 207.240028,1655.87 C209.240028,1650.62 211.080028,1645.26 212.700028,1639.87 C217.030028,1625.38 225.920028,1613.63 236.650028,1603.71 C253.500028,1588.14 265.770028,1569.17 278.740028,1550.71 C313.900028,1500.59667 348.923362,1450.38667 383.810028,1400.08 C387.170028,1395.24 389.640028,1389.77 392.470028,1384.68 C389.240028,1379.12 386.470028,1374.25 383.580028,1369.42 C376.270028,1357.09 374.730028,1344.66 382.250028,1331.71 C389.080028,1319.92 395.500028,1307.9 402.250028,1296.04 C403.27283,1294.33781 404.53963,1292.79473 406.010028,1291.46 C419.190028,1278.78 431.800028,1265.46 445.830028,1253.74 C456.990028,1244.46 462.690028,1233.11 466.140028,1219.58 C469.250028,1207.36 473.270028,1195.34 477.430028,1183.42 C479.310028,1178.03 478.740028,1173.91 474.930028,1169.77 C472.000028,1166.6 469.610028,1162.95 466.930028,1159.59 C456.496345,1146.9501 449.265212,1131.98014 445.850028,1115.95 C444.230028,1108.06 445.070028,1099.41 446.090028,1091.27 C447.830028,1077.43 449.520028,1063.82 447.820028,1049.7 C445.820028,1033.25 446.050028,1016.55 444.700028,1000 C444.190028,993.81 442.320028,987.64 440.440028,981.66 C437.570028,972.47 434.490028,963.31 430.900028,954.37 C423.660028,936.31 420.450028,917.32 417.580028,898.27 C414.580028,878.17 410.690028,858.27 403.300028,839.27 C402.150126,836.503766 401.350592,833.604615 400.920028,830.64 C399.090028,815.57 392.090028,802.94 383.260028,791 C378.720028,784.84 374.260028,778.61 370.260028,772.06 C365.360028,763.91 358.880028,757.58 351.200028,752.06 C342.260028,745.61 332.100028,742.88 321.610028,741.31 C310.970028,739.72 301.540028,741.52 292.040028,748.53 C280.670028,756.93 266.410028,761.35 254.720028,769.41 C250.141864,772.554847 245.423555,774.762093 240.593929,776.309082 L240.410028,776.44 C251.410028,768.68 258.980028,759.7 245.610028,701.44 C269.820028,684.68 323.320028,648.44 336.350028,639.65 C349.380028,630.86 360.230028,620.52 363.780028,617.65 C367.330028,614.78 372.080028,598.18 372.080028,598.18 C372.080028,598.18 379.870028,598.52 379.700028,597.18 C379.530028,595.84 379.360028,577.04 378.700028,572.3 C378.040028,567.56 376.500028,563.49 373.450028,563.15 C372.773837,556.079821 369.259703,544.688455 367.479935,541.73903 C369.632377,544.419367 372.58429,546.171766 376.240028,547.31 Z M134.550028,626.89 C141.210028,628.24 164.550028,642.47 169.250028,644.89 C173.950028,647.31 176.700028,650.3 204.470028,684.5 C203.069462,688.636644 203.628925,693.185957 205.990028,696.86 C208.700028,701.09 216.150028,711.25 217.670028,713.12 C219.229083,714.820846 221.749519,715.234032 223.770028,714.12 C225.120028,719.54 233.250028,742.9 230.540028,754.42 C227.830028,765.94 226.310028,775.92 221.740028,773.42 C217.170028,770.92 219.200028,767.32 214.960028,768.68 C210.966791,769.96085 193.68645,773.175337 191.688587,773.545157 C189.322177,773.169273 186.886711,773.238553 184.510028,773.77 C181.587277,774.429859 178.618816,774.867774 175.630028,775.08 C170.900028,775.35 166.990028,776.31 166.930028,782.2 C166.84789,782.866151 166.528357,783.480364 166.030028,783.93 C154.180028,794.93 143.850028,807.38 125.720028,809.47 C112.910028,810.94 101.360028,808.13 89.5600285,804.94 C84.1500285,803.48 80.6300285,798.44 73.9200285,798.19 C68.4100285,797.98 62.9800285,793.74 57.6700285,790.99 C55.3834521,789.716962 53.2975817,788.112965 51.4800285,786.23 C49.3600285,784.15 47.9500285,781.18 45.5800285,779.53 C37.0700285,773.6 37.2000285,765.3 38.1400285,756.38 C38.8800285,749.49 39.0300285,742.52 39.1400285,735.59 C39.3400285,725.09 40.9800285,715.17 47.6000285,706.48 C59.3300285,691.13 70.0900285,675.06 84.2000285,661.69 C95.8207578,650.678721 107.339744,639.287601 118.896644,627.997058 C119.180913,627.921323 127.997883,625.561862 134.550028,626.89 Z M299.600028,425.57 C304.100028,427.62 307.080028,429.71 309.170028,433.39 L314.273964,442.340972 C322.782528,457.258333 331.320028,472.158333 340.170028,486.85 C343.090964,491.309337 343.906278,496.826414 342.400028,501.94 C341.210028,506.41 340.260028,510.94 339.050028,516.11 L339.100687,516.136 L339.420948,517.166044 C340.772707,521.420838 342.460975,525.561924 344.470028,529.55 C348.651365,537.662447 351.183477,546.52314 351.920028,555.62 C350.510259,557.569193 348.860611,559.333072 347.010028,560.87 L347.010028,584.41 L352.430028,587.28 L350.090028,598.63 C350.090028,598.63 300.990028,634.52 296.930028,637.06 C292.870028,639.6 238.350028,670.75 235.640028,672.44 C232.080028,670.07 227.010028,668.38 222.100028,672.44 C216.180028,663.56 192.810028,638.24 188.740028,634.86 C184.670028,631.48 150.500028,610.68 142.620028,609.86 C142.618321,609.856586 142.466877,609.945928 142.189319,610.115631 C152.569352,602.49755 161.091424,592.591828 171.210028,584.66 C173.660028,582.74 174.470028,580.22 174.910028,576.96 C177.180028,559.96 183.540028,545.09 197.620028,534.27 C208.160028,526.17 218.330028,517.6 229.000028,509.69 C233.750028,506.17 239.300028,503.69 244.530028,500.86 C248.010028,498.95 251.530028,497.18 255.430028,495.18 L255.430028,472.18 C260.850028,478.69 260.840028,485.29 264.360028,491.46 L298.650028,490.12 C298.457881,488.392051 298.123412,486.682913 297.650028,485.01 C294.352002,475.599403 293.603321,465.483584 295.480028,455.69 C297.200028,445.99 298.190028,436.16 299.600028,425.57 Z M125.703835,621.412275 L125.473541,621.590775 C125.758997,621.313731 126.044492,621.036804 126.330028,620.76 C127.925348,619.054095 129.773637,617.603795 131.810028,616.46 C132.807116,615.975207 133.783505,615.46493 134.74124,614.931689 C131.831553,616.887905 128.5514,619.18916 125.703835,621.412275 Z M266.520028,559.43 C264.870028,558.8 262.570028,558.68 256.610028,562.61 C250.650028,566.54 246.960028,570.46 248.230028,571.12 C251.710028,572.89 266.780028,575.81 269.060028,575.94 C271.340028,576.07 283.150028,572.51 287.720028,569.59 C283.280028,564.51 268.170028,560.06 266.520028,559.43 Z M353.410028,523.11 C354.583404,523.460469 355.688704,523.964482 356.702655,524.599631 C356.495999,524.490822 356.284999,524.390998 356.070028,524.3 C355.158892,523.914312 354.185991,523.484198 353.184382,523.028563 C353.258804,523.056927 353.334371,523.083597 353.410028,523.11 Z" id="colour" fill="#FFFFFF" style="mix-blend-mode: overlay;"></path>
    </g>
</svg>