<?xml version="1.0" encoding="UTF-8"?>
<svg width="2048px" height="2048px" viewBox="0 0 2048 2048" version="1.1" xmlns="http://www.w3.org/2000/svg" xmlns:xlink="http://www.w3.org/1999/xlink">
    <title>poses/horses_17</title>
    <g id="poses/horses_17" stroke="none" stroke-width="1" fill="none" fill-rule="evenodd" opacity="0.8">
        <path d="M348.62,719.64 C350.26,720.83 353.1,720.64 355.38,720.64 C375.000777,720.303957 394.608227,721.861167 413.93,725.29 C427.321763,727.706574 440.530044,731.047905 453.46,735.29 C462.24,738.2 470.65,739.65 479.69,738.12 C488.39,736.64 496.93,736.88 504.85,741.38 C515.63,747.51 527.85,747.54 539.57,749.38 C543.815557,750.159008 548.123572,750.547298 552.44,750.54 C560.462817,750.33364 568.370808,752.478357 575.19,756.71 C590.43,765.79 607.99,767.1 624.66,771.37 C626.283102,771.720476 627.926194,771.970947 629.58,772.12 C639.58,773.46 648.7,776.75 656.91,783.05 C663.74,788.29 671.36,792.54 678.8,796.95 C694.43,806.2 707.47,818.69 719.92,831.53 C733.366842,845.359888 749.080054,856.787986 766.38,865.32 C776.19,870.23 785.64,875.88 795.38,880.84 C800.96,883.67 805.31,887.26 807.7,893.21 C809.05,896.59 811.4,899.59 812.57,903.01 C815.08,910.33 819.45,915.23 826.65,918.69 C835.54,922.96 842.53,929.75 843.92,940.36 C846.22,957.98 854.84,971.24 870.31,980.18 C876.67,983.86 879.78,990.43 882.51,996.83 C886.37,1005.83 894.69,1010.7 901.12,1017.22 C903.56,1019.69 908.47,1019.91 912.34,1020.75 C926.34,1023.75 940.34,1026.45 954.34,1029.65 C962.795273,1031.45633 971.12311,1033.81472 979.27,1036.71 C1002.47,1045.33 1026.7,1049.71 1050.73,1054.99 C1059.51,1056.91 1068.39,1058.43 1077.03,1060.84 C1100.03,1067.25 1123.6,1068.08 1147.23,1068.84 C1180.83,1069.94 1214.43,1071.4 1248.03,1072.45 C1253.98778,1072.66203 1259.9502,1072.18893 1265.8,1071.04 C1296.1,1064.91 1326.14,1057.19 1356.66,1052.5 C1385.2,1048.11 1413.21,1040.41 1442.19,1038.84 C1456.77667,1038.05333 1471.36667,1037.23 1485.96,1036.37 C1491.26,1036.06 1496.54,1035.43 1501.84,1035.22 C1524.29,1034.31 1546.19,1038.3 1568.01,1042.84 C1586.88,1046.76 1605.63,1051.34 1624.61,1054.64 C1648.41,1058.78 1670.85,1066.64 1692.61,1076.7 C1720.7,1089.7 1748.8,1102.59 1776.78,1115.77 C1780.66141,1117.63842 1784.16631,1120.20439 1787.12,1123.34 C1798.25613,1135.25714 1810.75534,1145.82306 1824.36,1154.82 C1828.17919,1157.47011 1831.60328,1160.64841 1834.53,1164.26 C1853.29,1186.33 1872.99,1207.5 1894.71,1226.69 C1905.62,1236.33 1913.11,1248.53 1921.2,1260.29 C1931.56,1275.38 1941.39,1290.83 1951.99,1305.75 C1972.64,1334.85 1986.74,1366.86 1996.14,1401.14 C2002.29,1423.58 2008.98,1445.87 2015.14,1468.3 C2016.46,1473.04 2016.86,1478.07 2017.35,1482.99 C2018.15,1490.91 2018.41,1498.89 2019.35,1506.79 C2020.35,1514.95 2018.64,1522.69 2016.35,1530.32 C2010.61,1549.42 2004.58,1568.43 1998.73,1587.5 C1997.43,1591.74 1995.73,1595.28 1991.51,1597.69 C1971.9003,1608.97368 1953.06213,1621.54805 1935.12,1635.33 C1934.15914,1635.85438 1933.1384,1636.26066 1932.08,1636.54 C1928.59,1631.29 1925.63,1625.67 1921.54,1621.03 C1917.45,1616.39 1912.21,1612.56 1907.38,1608.51 C1904.53,1606.13 1903.68,1603.12 1904.01,1599.63 C1905.65,1582.12 1907.2,1564.63 1909.07,1547.13 C1909.38,1544.27 1910.97,1541.47 1912.31,1538.81 C1918.45,1526.63 1924.58,1514.45 1930.99,1502.41 C1933.24182,1498.32061 1934.25958,1493.66602 1933.92,1489.01 C1932.56,1469.15 1931.52,1449.26 1929.86,1429.42 C1928.43,1412.24 1926.37,1395.12 1924.52,1377.97 C1923.93,1372.52 1921.22,1368.09 1916.84,1363.05 C1916.33891,1364.34915 1915.94428,1365.68689 1915.66,1367.05 C1914.33,1382.93 1913.1,1398.81 1911.73,1414.68 C1911.57855,1417.32676 1911.04295,1419.93742 1910.14,1422.43 C1900.79,1445.54 1892.14,1469 1879.46,1490.59 C1877.14925,1494.60796 1874.55256,1498.45455 1871.69,1502.1 C1861.54,1514.75 1851.45,1527.49 1840.81,1539.73 C1834.29,1547.23 1826.88,1553.97 1819.75,1560.91 C1809.26,1571.12 1798.25,1580.82 1788.22,1591.47 C1777.97,1602.36 1765.22,1608.23 1751.32,1612.05 C1723.76,1619.64 1696.17,1627.19 1668.32,1633.78 C1634.37,1641.84 1600.25,1649.23 1566.07,1656.26 C1546.39,1660.26 1527.62,1666.81 1509.21,1674.52 L1502.28408,1677.42431 C1484.96841,1684.68827 1467.66235,1692.00765 1450.73,1700.09 C1435.73,1707.24 1420.13,1710.4 1403.82,1712.31 C1391.11,1713.8 1379.98,1712.09 1368.68,1705.74 C1351.88,1696.3 1334.07,1688.66 1317.07,1679.53 C1296.81583,1668.7136 1275.27957,1660.49219 1252.97,1655.06 C1218.66,1646.58 1186.05,1633.3 1153.58,1619.56 C1144.88,1615.87 1135.4,1614.04 1125.58,1611.14 C1125.08,1614.05 1124.41,1616.2 1124.38,1618.37 C1124.18004,1631.66543 1121.25652,1644.77871 1115.79,1656.9 C1109.39,1671.48 1104.85,1686.9 1099.48,1701.9 C1098.39,1704.96 1097.22,1707.98 1095.78,1711.84 C1059.5,1696.54 1025.87,1678.09 992.91,1657.05 C1009.19,1637.15 1029.38,1624.05 1050.44,1610.99 C1048.75613,1610.61442 1047.04322,1610.38357 1045.32,1610.3 C1014.32,1611.36 983.56,1608.44 952.83,1604.66 C931.41,1602.02 909.76,1601.23 888.38,1598.4 C866.32,1595.48 844.44,1591.19 822.52,1587.29 C813.04,1585.6 803.64,1583.41 794.21,1581.4 C789.29,1580.4 784.59,1578.93 780.9,1575.13 C777.61,1571.74 773.63,1571.25 769,1572.22 C763.49,1573.36 757.75,1573.36 752.25,1574.5 C741.1,1576.82 731.77,1572.58 723.56,1566.11 C719.34,1562.79 715.69,1562.06 710.81,1563.11 C702.67,1564.78 694.41,1565.89 686.25,1567.46 C671.890831,1570.32157 657.270129,1571.6623 642.63,1571.46 C622,1571.05 601.33,1570.91 580.7,1571.46 C565.79,1571.89 550.88,1573.46 536.03,1574.97 C505.63,1578.16 475.29,1581.79 444.89,1584.97 C439.64,1585.53 434.28,1585.05 428.32,1585.05 C422.03,1603.15 415.73,1621.23 409.4,1639.44 C410.26,1640.1 411,1641.14 411.79,1641.19 C422.388053,1641.95835 432.870334,1643.88312 443.05,1646.93 C445.582221,1647.54493 448.21989,1647.58593 450.77,1647.05 C460.25,1645.29 469.77,1643.49 479.08,1641.19 C484.51,1639.85 489.74,1637.61 494.99,1635.6 C497.99,1634.43 500.94,1632.92 503.82,1631.6 C511.82,1645.22 533.82,1726.8 532.36,1738.4 C524.95,1737.16 517.13,1737.06 510.24,1734.49 C472.57,1720.41 433.7,1709.58 397.1,1692.63 C388.66,1688.72 380.16,1684.92 371.82,1680.81 C369.466242,1679.57627 367.355486,1677.92629 365.59,1675.94 C355.196667,1664.72667 344.89,1653.43667 334.67,1642.07 C333.4,1640.65 331.75,1638.72 331.83,1637.07 C332.19,1629.5 332.24,1621.74 334.02,1614.45 C336.38,1604.77 340.93,1595.81 346.4,1587.36 C349.22,1583.02 351.51,1578.36 353.86,1574.12 C350.37,1570.12 346.86,1571.12 343.7,1571.42 C318.88,1573.89 294,1574.95 269.07,1575.29 C240.81,1575.67 212.56,1576.65 184.3,1577.13 C180.295455,1576.9782 176.485076,1578.85894 174.17,1582.13 C169.47,1588.13 164.17,1593.65 159.48,1599.69 C157.08783,1602.82263 155.189184,1606.30292 153.85,1610.01 C149.15,1623.13 144.79,1636.38 140.36,1649.41 C130.06,1650.19 61.83,1636.65 49.49,1631.23 L67.67,1614 C93.48,1589.51 119.43,1565.15 145.06,1540.46 C156.89,1529.06 170.58,1520.25 183.9,1510.88 C185.819837,1509.60815 188.049368,1508.88226 190.35,1508.78 C203.27,1508.26 216.35,1506.6 228.96,1510.78 C235.16,1512.78 241.36,1512.45 247.68,1511.89 C275.46,1509.46 303.24,1507.03 331.03,1504.8 C338.98,1504.16 347.03,1504.3 354.95,1503.8 C359.22,1503.55 363.45,1502.8 368.39,1502.16 C370.89,1489.89 373.29,1477.9 375.77,1465.93 C381.52,1438.24 388.57,1410.93 398.33,1384.32 C401.16,1376.63 407.25,1371.93 412.82,1366.96 C422.48,1358.34 432.95,1350.65 442.97,1342.44 C446.206494,1339.51451 450.674193,1338.36674 454.92,1339.37 C459.42,1340.26 464.18,1339.88 468.84,1339.99 C486.77,1340.42 504.79,1339.59 522.55,1342.77 C535.55,1345.09 548.55,1348 562.49,1350.85 C562.03,1345.48 561.81,1339.73 560.99,1334.07 C559.48,1323.56 558.09,1313 555.75,1302.67 C554,1294.94 551.05,1287.45 548.24,1280 C542.5,1264.75 535.85,1249.82 530.8,1234.35 C526.39,1221 523.3,1207 520.25,1193 C514.15,1165.1 509.99,1136.75 500.3,1109.71 C499.770325,1108.13185 499.477149,1106.484 499.43,1104.82 C498.82,1092.05 494.8,1080.08 490.74,1068.14 C489.902032,1065.64452 488.666083,1063.30094 487.08,1061.2 C473.78,1043.73333 460.42,1026.33333 447,1009 C445.837629,1007.38656 444.495688,1005.91042 443,1004.6 C438.65,1001.07 419.88,993.21 413.66,991.97 C400.32,1015.18 387.15,1038.24 373.79,1061.19 C370.72,1066.45 368.98,1073.19 361.32,1074.26 C360.682186,1074.41654 360.155766,1074.86511 359.9,1075.47 C359.700523,1076.11556 359.470415,1076.72728 359.212667,1077.30846 C359.217437,1077.22519 359.22,1077.14279 359.22,1077.06 C356.3,1073.65 353,1066.41 347.41,1060.83 C341.82,1055.25 330.65,1044.45 327.47,1040 C324.29,1035.55 302.21,1015.62 302.21,1014.48 C304.74,1009.91 333.7,943.79 348.26,916.71 C362.82,889.63 382.79,845.26 382.79,838.49 C382.79,831.72 380.87,812.84 380.87,812.84 C380.87,812.84 387.87,812.27 388.1,810.84 C388.33,809.41 387.45,804.57 386.1,800.26 C384.75,795.95 379.67,777.65 378.49,775.11 C377.31,772.57 374.25,770.97 369.68,769.27 C368.68,763.52 349.95,723.21 347.5,718.99 C344.5,717.87 343,717.24 339.03,717.99 C337.74712,718.232358 334.957432,718.678338 331.768729,719.171035 C333.26262,718.937915 334.753164,718.689288 336.24,718.42 C340.54,717.64 344.53,716.67 348.62,719.64 Z M1462.32,1501.77 C1460.76283,1502.60076 1459.25982,1503.52928 1457.82,1504.55 C1444.48,1515.42 1428.98,1522.05 1413.02,1527.99 C1395.27333,1534.61 1377.66,1541.57667 1360.18,1548.89 C1335.68,1559.18 1312.38,1572.23 1287.04,1580.6 C1285.54,1581.09 1284.22,1582.13 1281.71,1583.53 C1284.99,1584.53 1287.03,1585.4 1289.15,1585.89 C1306.95,1590.02 1324.81,1593.96 1342.58,1598.22 C1351.639,1600.30903 1361.01365,1600.64845 1370.2,1599.22 C1372.5215,1598.91615 1374.85888,1598.74919 1377.2,1598.72 C1393.52,1598.25 1393.69,1598.13 1396.89,1581.57 C1398.64,1572.57 1401.89,1564.41 1409.23,1558.29 C1411.8561,1556.23357 1414.18193,1553.82023 1416.14,1551.12 C1421.74,1542.71 1431,1540.2 1439.39,1536.56 C1445.01,1534.14 1450.13,1538.7 1455.54,1539.8 C1456.54,1539.99 1457.47,1540.07 1458.63,1540.23 L1479.81,1518.23 L1462.32,1501.77 Z M455.44,1412.86 L453,1413.7 C453.76,1420.56667 454.516667,1427.43667 455.27,1434.31 C456.07,1441.56 457.36,1448.8 457.54,1456.06 C457.69,1462.73 456.64,1469.42 456.14,1475.97 L499.89,1461.55 C498.07,1460.16 497.17,1458.94 496.07,1458.72 C483.41,1456.25 476.43,1447.41 470.96,1436.72 C469.70352,1434.38154 468.318051,1432.11471 466.81,1429.93 C463.05,1424.23 459.23,1418.55 455.44,1412.86 Z M164.04,987.71 C167.85,988.6 198.96,994.18 201.5,995.45 C204.04,996.72 246.83,1017.04 251.5,1020.45 C253.02,1025.14 253.5,1027.94 257.09,1029.84 C260.68,1031.74 279.09,1042.79 280.58,1045.21 C282.07,1047.63 285.58,1039.37 286.58,1038.48 C288.35,1041.48 300.93,1055.24 304.23,1057.78 C307.53,1060.32 330.13,1081.78 330.38,1084.19 C327.21,1085.97 322.38,1088.97 322.38,1088.97 C322.38,1088.97 322.394032,1088.97804 322.42121,1088.9935 L322.44,1088.98 C318.64,1092.06 314.58,1095.38 310.44,1098.65 C300.05,1106.93 289.59,1115.12 279.23,1123.46 C272.98,1128.46 272.49,1129.02 276.1,1135.85 C279.71,1142.68 279.32,1148.92 277.03,1155.85 C272.24,1170.37 271.72,1169.7 260.15,1180.58 C248.89,1191.16 235.03,1195.31 221.15,1196.02 C206.28,1196.78 191.41,1198.02 176.53,1198.77 C167.26,1199.23 160.09,1194.18 152.43,1190.39 C151.13,1189.75 150.36,1187.91 149.43,1186.54 C140.56,1172.78 134.17,1157.8 127.98,1142.74 C127.201695,1140.91928 126.705982,1138.99038 126.51,1137.02 C125.77,1128.1 124.18,1119.09 124.82,1110.25 C125.64,1098.73 127.16,1087.02 130.35,1075.96 C138.17,1048.82 147.21,1022.04 155.59,995.06 C156.048266,993.580557 156.484072,992.094278 156.904877,990.603396 C157.339288,990.131213 160.504509,986.884124 164.04,987.71 Z M339.7,1093.38 C338.825136,1094.1667 337.080984,1094.34628 335.431398,1094.20571 L335.38,1094.21 C338.68,1093.89 339.03,1093.28 342.59,1091.06 C343.128765,1090.72403 343.664781,1090.39813 344.194548,1090.08104 C342.601228,1091.07647 341.070976,1092.14057 339.7,1093.38 Z M350.251343,1086.4765 L350.11294,1086.56207 C350.761511,1086.15112 351.361464,1085.74866 351.9,1085.35 C352.490463,1084.9129 353.257336,1084.39675 354.071855,1083.80939 C352.876372,1084.78376 351.583832,1085.65232 350.251343,1086.4765 Z M219.49,651.88 C224.05,652.63 227.3,653.99 229.54,656.63 C235.54,663.76 244.06,667.06 251.86,671.38 C266.99,679.74 282.18,688.02 297.5,696.01 C302.44,698.59 306.08,701.83 308.5,706.92 C310.74,711.71 313.7,716.15 316.71,721.37 C320.7975,720.745 324.881094,720.205938 328.946133,719.603887 L327.454404,719.830295 C321.940612,720.665128 316.66,721.44 316.66,721.44 C317.512782,724.244341 318.868139,726.870345 320.66,729.19 C323.37,732.41 325.4,737.99 329.12,746.63 C332.84,755.27 339.28,775.41 339.28,775.41 C336.177591,778.080097 335.033714,782.381552 336.4,786.24 C338.77,792.85 343.85,811.13 344.4,813.67 C344.95,816.21 346.09,818.24 348.13,817.9 C349.731482,817.598626 351.314139,817.204631 352.87,816.72 C352.87,816.72 356.42,829.25 354.73,832.8 C353.04,836.35 329.83,891.35 318.66,913 C307.49,934.65 281.24,981.08 276,991.24 C272.54,990.9 265.68,990.24 263.47,995.64 C246.21,988.7 219.63,977.86 213.02,974.14 C206.41,970.42 203.54,970.75 199.14,969.91 C194.74,969.07 169,965.57 167.66,962.24 C167.66,962.24 167.61717,962.244046 167.538448,962.262238 C167.573994,962.243979 167.611833,962.226907 167.65,962.21 C169.33,961.47 170.49,958.7 171.14,956.62 C176.82,938.54 182.41,920.44 187.79,902.28 C188.473899,899.811091 188.435725,897.197878 187.68,894.75 C182.68,879.47 184.68,863.75 184.55,848.19 C184.55,845.95 185.55,843.66 186.27,841.47 C192.33,823.47 198.27,805.53 204.63,787.7 C206.85,781.49 210.07,775.63 213.03,769.7 C214.21,767.34 216.11,765.35 217.37,763.01 C224.47,749.92 233.88,739.01 246.51,730.9 C248.091192,729.717561 249.600533,728.441968 251.03,727.08 C241.88,701.96 229.03,678.3 219.49,651.88 Z M163.06695,967.96187 L163.018072,968.102866 C163.51511,966.474558 164.147445,964.900341 165.447517,963.657748 C164.676041,964.497597 163.815379,965.835452 163.06695,967.96187 Z M274.3,841.41 L246.87,841.41 C246.87,841.41 233.5,853.94 238.75,861.89 C243,868.34 258.55,859.69 258.55,859.69 L274.3,841.41 Z" id="colour" fill="#FFFFFF" style="mix-blend-mode: overlay;"></path>
    </g>
</svg>