<?xml version="1.0" encoding="UTF-8"?>
<svg width="2048px" height="2048px" viewBox="0 0 2048 2048" version="1.1" xmlns="http://www.w3.org/2000/svg" xmlns:xlink="http://www.w3.org/1999/xlink">
    <title>poses/horses_02</title>
    <g id="poses/horses_02" stroke="none" stroke-width="1" fill="none" fill-rule="evenodd" opacity="0.8">
        <path d="M929.79,218.12 C934.54,228.36 939.79,238.32 944.88,248.37 C955.04,268.49 964.88,288.99 969.34,311.37 C970.151142,316.292421 970.422749,321.288656 970.15,326.27 C969.849117,331.934527 971.089803,337.574639 973.74,342.59 C979.62,353.37 980.87,365.09 981.74,377.15 C982.53,388.01 984.92,398.81 987.25,409.49 C988.82,416.67 990.25,423.68 989.71,431.13 C989.39,435.36 990.48,439.7 990.89,443.99 C992.01,455.55 993.25,467.1 994.13,478.67 C994.53,483.95 994.39,489.19 991.56,494.19 C990.45,496.19 990.56,499.43 991.36,501.72 C996.89,518.41 999.44,536.07 1007.43,551.98 C1008.18577,553.462072 1008.53105,555.119426 1008.43,556.78 C1006.75,574.96 1012.23,592.29 1014.5,610 C1015.12,614.85 1014.56,619.83 1014.84,624.74 C1015.31,633.01 1015.84,641.29 1016.67,649.54 C1017.53,658.54 1019.1,667.37 1019.67,676.33 C1020.42,688 1024.95,698.33 1030.67,708.08 C1032.78109,711.428394 1035.87069,714.046699 1039.52,715.58 C1048,719.1 1054,724 1056.33,733.53 C1057.28,737.41 1060.41,741.12 1063.33,744.08 C1085.96333,766.66 1108.72333,789.103333 1131.61,811.41 C1135.46616,815.08337 1138.52909,819.507612 1140.61,824.41 C1148.94,844.01 1157.31,863.61 1166.14,882.98 C1171.52,894.78 1177.7,906.22 1183.71,917.72 C1184.96734,920.062729 1186.66506,922.140739 1188.71,923.84 C1205.04,937.51 1221.1,951.55 1238.05,964.4 C1246.16,970.56 1255.91,974.65 1265.13,979.25 C1286.60118,989.977801 1306.46136,1003.66449 1324.13,1019.91 C1340.4,1034.82 1358.74,1046.97 1377.13,1058.91 C1384.71379,1063.72301 1391.33916,1069.90081 1396.67,1077.13 C1407.1,1091.35 1417.92,1105.29 1428.47,1119.43 C1430.20391,1121.86672 1431.71024,1124.45761 1432.97,1127.17 C1440.97,1143.29 1448.56,1159.56 1456.8,1175.53 C1461.04,1183.77 1466.15,1191.53 1471.16,1199.4 C1474.16,1204.15 1477.99,1208.4 1481.16,1213.11 C1499.32,1239.8 1521.91,1262.19 1547.65,1281.47 C1555.42,1287.3 1559.19,1295.83 1564.17,1303.61 C1584.51,1335.46 1593.65,1371.83 1605.78,1406.96 C1607.91,1413.13 1608.09,1419.96 1608.95,1426.56 C1610.28,1436.76 1611.57,1446.97 1612.54,1457.21 C1612.95189,1461.50054 1612.88817,1465.82346 1612.35,1470.1 C1610.87,1481.62 1608.63,1493.1 1607.43,1504.61 C1606.34,1515.15 1606.01,1525.79 1605.79,1536.4 C1605.88992,1539.68822 1606.63042,1542.92536 1607.97,1545.93 C1613.87,1560.75 1620.11,1575.44 1625.97,1590.3 C1627.27,1593.62 1627.55,1597.38 1628.06,1600.98 C1630.38,1617.4 1632.19,1633.9 1635.06,1650.23 C1637.7,1665.45 1631.55,1675.85 1619.06,1683.99 C1609.95,1679.79 1602.86,1673.51 1598.45,1664.66 C1587.26,1642.2 1572.19,1622.28 1558.1,1601.66 C1555.87548,1598.37377 1554.03354,1594.84423 1552.61,1591.14 C1547.18,1577.14 1542.47,1562.94 1536.55,1549.21 C1532.02,1538.68 1531.8,1527.95 1532.23,1516.96 C1532.56,1508.68 1533.23,1500.4 1533.38,1492.11 C1533.57816,1483.14305 1534.83691,1474.23106 1537.13,1465.56 C1542.13,1446.27 1546.53,1426.82 1551.13,1407.42 C1552.36224,1402.2312 1551.91042,1396.78482 1549.84,1391.87 C1543.77,1376.4 1538.26,1360.71 1532.49,1345.12 C1531.86801,1343.225 1531.03971,1341.40408 1530.02,1339.69 C1523.02,1328.79 1515.88,1317.92 1508.63,1307.16 C1506.81015,1304.54025 1504.17774,1302.59318 1501.14,1301.62 C1501.54,1306.4 1501.25,1311.37 1502.46,1315.95 C1506.15,1329.95 1502.16,1342.15 1494.46,1353.65 C1485.94,1366.35 1477.37,1379.02 1468.98,1391.81 C1467.59209,1394.03387 1466.63858,1396.50079 1466.17,1399.08 C1465.42,1402.99 1465.53,1407.08 1464.72,1410.96 C1463.61,1416.25 1463.72,1420.6 1468.9,1424.05 C1470.8,1425.31 1471.8,1428.4 1472.52,1430.86 C1480.93,1459.59 1489.3,1488.33 1497.39,1517.15 C1498.39,1520.79 1498.09,1524.92 1497.8,1528.78 C1496.71,1543.78 1497.66,1558.7 1501.86,1573.2 C1506.86,1590.32 1504.86,1607.66 1502.31,1624.54 C1497.08,1659 1489.74,1693.14 1484.11,1727.54 C1481.92,1740.92 1481.95,1754.66 1481.11,1768.25 C1479.9,1786.79 1480.01,1805.53 1477.26,1823.83 C1474.77,1840.4 1473.52,1857.55 1465.54,1872.98 C1462.11,1879.62 1461.65,1886.55 1462.9,1894.21 C1465.83,1912.21 1467.63,1930.42 1469.9,1948.54 C1470.84,1956.17 1464.54,1965.48 1456.9,1966.91 C1447.76,1968.63 1438.53,1969.91 1429.3,1971.07 C1427.09,1971.35 1424.71,1970.65 1422.45,1970.16 C1416.28,1968.81 1410.18,1967.04 1403.96,1966 C1396.81,1964.83 1391.43,1961.77 1388.55,1954 C1392.28,1944.43 1396.37,1934.26 1400.2,1924 C1403.68,1914.66667 1407.01333,1905.27667 1410.2,1895.83 C1415.06,1881.34 1419.77,1866.83 1424.49,1852.25 C1425.2,1850.06 1426.19,1847.78 1426.14,1845.56 C1425.84,1829.46 1430.14,1813.96 1432.14,1798.18 C1434.36,1781.06 1436.98,1764 1439.56,1746.94 C1440.18661,1742.32599 1441.14917,1737.76387 1442.44,1733.29 C1446.13,1721.29 1446.28,1709.15 1444.58,1696.8 C1443.86,1691.56 1444.26,1686.17 1444.25,1680.8 C1444.25,1664.15 1444.32,1647.5 1444.18,1630.8 C1444.07239,1626.5118 1443.67818,1622.2356 1443,1618 C1442.23,1612.62 1441.06,1607.42 1434.37,1606.16 C1433.21,1605.94 1432.19,1604.69 1431.23,1603.78 C1420.88,1594.01 1409.1,1585.68 1401.62,1573.05 C1398.53,1567.84 1390.46,1562.18 1382.29,1558.15 C1383.29,1560.01 1383.57,1561.22 1384.29,1562.07 C1391.29,1569.96 1394.73,1579.56 1398.65,1589.17 C1403.65,1601.39 1403.65,1613.39 1402.65,1626.17 C1401.78,1637.53 1397.78,1645.77 1389.7,1653.71 C1373.11,1670.01 1358.04,1687.85 1341.46,1704.16 C1329.89,1715.55 1321.23,1728.82 1312.73,1742.31 C1305.11,1754.4 1298.12,1766.89 1290.83,1779.19 C1289.3,1781.76 1287.04,1784.08 1286.2,1786.85 C1282.2,1799.9 1272.7,1808.61 1262.82,1816.85 C1257.24,1821.52 1257.26,1826.47 1258.67,1832.85 C1262.03,1848.07 1264.77,1863.43 1267.67,1878.74 C1267.78823,1880.07071 1267.78823,1881.40929 1267.67,1882.74 C1263.98,1888.51 1257.88,1889.42 1251.99,1889.81 C1241.05,1890.55 1230.07,1890.67 1219.1,1890.98 C1211.3,1891.2 1204.1,1888.83 1196.44,1885.72 C1197.28579,1876.16698 1199.33536,1866.75913 1202.54,1857.72 L1203.10021,1856.12632 C1206.65537,1846.03015 1210.396,1835.906 1217.16,1827.28 C1221.06,1822.28 1221.64,1816.34 1221.67,1810.28 C1221.78,1790.16 1229.57,1772.81 1241.5,1757.21 C1250.17,1745.86 1259.3,1734.83 1268.78,1724.14 C1280.18,1711.27 1287.48,1695.93 1295.99,1681.3 C1300.51,1673.54 1304.58,1665.51 1309.25,1657.85 C1314.84137,1648.7796 1318.83908,1638.81914 1321.07,1628.4 C1322.77,1620.32 1325.07,1612.4 1327.21,1603.78 C1324.51,1601.97 1322.03,1599.43 1319.03,1598.43 C1302.97,1593.08 1289.64,1582.91 1275.86,1573.76 C1248.99,1555.9 1222.57,1537.36 1196.2,1518.76 C1185.89,1511.48 1176.33,1503.14 1166.2,1495.56 C1151.2,1484.27 1139.89,1469.28 1126.82,1456.07 C1124.25,1453.46 1121.99,1450.53 1119.34,1448.02 C1099.93,1429.65 1088.34,1406.34 1080.07,1381.67 C1074.92,1366.35 1072.83,1349.9 1070.37,1333.8 C1068.48,1321.38 1068.15,1308.73 1067.02,1294.95 C1057.09,1293.59 1046.63,1292.4 1036.26,1290.66 C1025.89,1288.92 1015.16,1287.44 1005.06,1284.35 C967.58,1273 930.21,1261 892.83,1249 C888.41119,1247.57444 884.206184,1245.55603 880.33,1243 C866.73,1234 853.266667,1224.79333 839.94,1215.38 C836.433551,1212.89722 833.387771,1209.82098 830.94,1206.29 C811.53,1178.02 792.47,1149.52 773.02,1121.29 C767.616276,1113.69803 763.482383,1105.27826 760.78,1096.36 C755.85,1079.36 748.78,1063.49 738.13,1049 C729.72,1037.55 721.9,1025.35 719.37,1010.79 C719.259567,1010.13034 719.029088,1009.49652 718.69,1008.92 C706.13,988.81 702.46,965.43 694.89,943.5 C692.38,936.24 688.51,930.94 683.13,925.68 C670.38,913.18 655.44,905.75 638.2,901.57 C618.5,896.79 599.11,890.77 579.56,885.36 C577.307259,884.884957 575.030654,884.531116 572.74,884.3 C572.74,887.18 572.53,889.7 572.74,892.18 C574.65,911.66 576.68,931.13 578.59,950.61 C580.01,965.11 581.15,979.61 582.78,994.1 C583.09,996.89 584.87,999.63 586.4,1002.1 C590.9,1009.47 595.46,1016.83 600.34,1023.96 C602.366764,1026.9521 604.88573,1029.57926 607.79,1031.73 C619.37,1040.11 631.17,1048.21 642.91,1056.38 C648.91,1060.55 650.2,1062.86 648.25,1069.67 C646.597194,1075.41692 644.390168,1080.98975 641.66,1086.31 C636.8,1095.77 630.99,1104.75 626.27,1114.31 C619.27,1128.38 607.97,1136.62 592.78,1141.2 C586.84,1133.97 581.69,1126.2 578.32,1117.64 C565.13,1084.07 547.62,1052.83 529.49,1021.75 C519.64,1004.86 513.43,985.85 509.65,966.57 C507.76,956.94 508.93,946.66 509.13,936.68 C509.268831,929.694991 508.1406,922.742645 505.8,916.16 C501.21,902.96 496.99,889.64 492.8,876.31 C491.26,871.44 489.8,867.26 483.8,865.79 C480.54,865 477.85,861.87 473.29,858.67 C474,863.57 474.14,866.99 475.02,870.19 C477.5261,879.17703 478.539581,888.514568 478.02,897.83 C476.44,926.89 481.39,955.47 484.27,984.2 C485.39,995.43 486.83,1006.65 488.89,1017.74 C490.077567,1024.05745 489.382077,1030.58463 486.89,1036.51 C487.96732,1038.1008 488.920154,1039.77244 489.74,1041.51 C496.1,1057.78 510.51,1063.99 525.22,1069.51 C529.43,1071.09 534.39,1070.62 538.99,1071.22 C542.46,1071.66 545.9,1072.3 549.94,1072.95 C549.94,1094.89 542.82,1114.31 537.14,1133.95 C535.01,1141.35 530.01,1147.26 524.52,1153.12 C516.76,1149.98 510.23,1145.97 505.19,1139.32 C488.523333,1117.32 471.7,1095.45667 454.72,1073.73 C452.549618,1070.80048 449.926812,1068.23505 446.95,1066.13 C434.11,1057.59 426.28,1044.67 417.3,1032.76 C416.041528,1030.83373 415.316858,1028.60796 415.2,1026.31 C414.220405,1015.05395 414.411428,1003.72662 415.77,992.51 C417.12,981.71 416.6,970.65 416.38,959.71 C416.2,951.1 415.11,942.51 414.64,933.9 C413.1,905.69 411.36,877.45 413.28,849.2 C414.45,832 414.88,814.68 419.11,797.82 C422.19,785.56 430.62,778.21 441.9,773.82 C446.2,772.15 450.9,771.49 455.39,770.31 C456.152497,769.954343 456.865207,769.500495 457.51,768.96 C456.59,759.08 455.8,748.96 454.65,738.82 C453.84,731.82 455.42,726.38 460.82,721.07 C469.7,712.36 479.72,705.31 489.82,698.35 C492.35,696.61 495.91,695.83 499.06,695.61 C518.28,694.29 537.51,692.41 556.74,692.38 C573.354423,692.524496 589.8981,694.564357 606.05,698.46 C610.76,699.55 615.77,699.39 620.34,699.77 C629.34,684.34 640.91,672.42 652.82,660.89 C663.02,651.02 668.82,638.04 677.72,627.33 C678.87,625.96 679.03,623.62 679.28,621.68 C679.637486,619.029243 679.774622,616.353415 679.69,613.68 C678.69,586.83 684.95,560.87 689.2,534.68 C691.93,517.8 698.37,502.08 703.98,486.12 C713.78,458.21 724.11,430.48 734.2,402.67 C734.65,401.43 734.88,400.12 735.46,397.91 C722.57,394.57 709.84,391.29 697.12,387.98 C695.84,387.65 693.99,387.56 693.44,386.69 C689.31,380.23 682.11,380.33 675.97,378.43 C664.9,375.02 653.67,372.14 642.82,369.12 C636.14,377.7 626.92,380.92 618.3,384.92 C616.55,385.72 613.82,384.61 611.6,384.15 C595.95,380.96 582.49,373.09 569.6,364.15 C566.06,361.72 562.97,358.61 559.34,356.35 C545.7,347.85 540.34,333.73 534.57,319.98 C533.851639,317.830946 533.751159,315.523361 534.28,313.32 C537.493732,298.04615 542.407682,283.180195 548.93,269 C550.12,266.33 552.22,264 554.05,261.69 C558.13,256.45 562.4,251.35 566.41,246.07 C573.95,236.13 584.34,230.17 595.78,226.51 C610.01,221.96 624.65,218.66 639.12,214.84 C641.04,214.33 643.21,213.21 644.91,213.67 C649.208028,214.815354 652.359299,213.736904 655.007919,211.685822 C655.288817,211.561519 663.368725,207.9933 668.35,208.74 C673.42,209.5 688.68,222.18 693.23,226.26 C697.78,230.34 705.66,252.68 710.23,263.34 C707.43,265.88 707.68,269.18 707.94,276.29 C708.2,283.4 713.01,293.59 714.54,296.86 C716.07,300.13 720.39,298.86 720.39,298.86 C720.39,298.86 719.12,331.62 719.12,337.46 C719.12,343.3 712.51,366.17 709.21,373.52 C705.91,380.87 700.07,382.66 689.85,382.87 C691.405358,383.770849 692.679507,385.086545 693.53,386.67 C693.53,386.67 700.51,388.81 722.86,394.61 C747.17,370.76 745.27,300.89 744.77,292.76 C748.07,290.22 790.47,277.77 802.92,274.22 C815.37,270.67 883.42,253.69 885.37,253.14 C887.32,252.59 893.08,251.59 894.26,250.14 C895.44,248.69 906.96,237.69 906.96,237.69 L906.96,237.69 L911.36,241.25 C913.008206,240.040206 914.514428,238.648041 915.85,237.1 C918.568221,232.035982 921.024785,226.835811 923.21,221.52 C924.06,219.07 924.31,213.31 923.97,212.38 C923.444482,211.423152 922.791894,210.541821 922.03,209.76 C922.03,209.76 922.79,207.98 924.9,203.52 L924.832564,203.662765 C925.74104,208.544686 927.580132,213.321145 929.79,218.12 Z M911.11,76.43 C912.49,80 914,81.89 913.62,83.27 C910.09,96.27 914.44,109.05 914.52,121.93 C914.52,128.2 915.61,134.47 916.26,140.74 C917.46,152.21 912.47,162.16 908.35,172.88 L908.398106,172.923265 C908.026448,173.667666 905.329447,179.190511 906.28,180.84 C907.3,182.61 905.22,185.41 902.22,191.5 C899.93,191.25 895.87,193.58 894.6,195.85 C893.33,198.12 884.69,213.29 884.44,215.12 C884.19,216.95 888.5,219.95 888.5,219.95 C887.162389,222.630719 885.452095,225.108626 883.42,227.31 C881.14,227.31 869.96,230.36 855.74,234.93 C841.52,239.5 793.27,250.19 785.4,251.69 C777.53,253.19 746.65,261.51 742.65,262.19 C739.71,256.87 730.71,257.87 730.71,257.87 C729.53,255.42 710.22,216.21 709.04,214.27 C707.86,212.33 689.23,199.21 684.65,195.9 C687.336298,195.586773 689.707816,194.897203 691.94,193.21 C702.51,185.21 714.79,181.14 727.4,177.94 C731.936398,176.865966 736.122505,174.648982 739.56,171.5 C747.63,164.08 756.08,157.06 763.95,149.43 C767.282035,146.230316 771.347177,143.895606 775.79,142.63 C787.51,139 799.1,134.94 810.79,131.29 C814.288383,130.333983 817.866446,129.698032 821.48,129.39 C825.1,128.97 828.82,129.26 832.39,128.64 C841.05,127.12 849.2,124.16 858.44,128.21 C863.44,130.4 870.16,128.6 877.22,128.6 C883.45,108.9 898.82,94.81 911.11,76.43 Z M679.470868,196.296563 C674.407745,197.290234 669.034263,199.676375 666.65,200.53 C666.627253,200.538144 666.604416,200.546563 666.581492,200.555253 C670.340968,198.193727 674.573858,196.872531 679.038368,196.34583 Z M803.79,168.09 C801.42,169.44 791.43,175.59 791.43,175.59 L806.5,181.68 L817.17,182.36 L825.96,180.36 L825.959798,180.339602 C825.953324,179.908411 825.739697,172.769091 818.69,171.14 C812.69,169.76 806.16,166.74 803.79,168.09 Z" id="colour" fill="#FFFFFF" style="mix-blend-mode: overlay;"></path>
    </g>
</svg>