<?xml version="1.0" encoding="UTF-8"?>
<svg width="2048px" height="2048px" viewBox="0 0 2048 2048" version="1.1" xmlns="http://www.w3.org/2000/svg" xmlns:xlink="http://www.w3.org/1999/xlink">
    <title>poses/horses_07</title>
    <g id="poses/horses_07" stroke="none" stroke-width="1" fill="none" fill-rule="evenodd" opacity="0.8">
        <path d="M442.33,304.88 C455,315.61 467.08,327 479.52,338 C487.73,345.27 495.66,353 504.52,359.32 C510.06,363.32 517.21,364.95 523.47,367.98 C527,369.68 530.91,371.41 533.47,374.22 C545.02,387.1 559.35,396.1 574.47,403.89 C582.39,407.98 588.47,413.78 594.4,420.14 C597.502902,423.578898 600.902709,426.737774 604.56,429.58 C612.26,435.38 619.83,441.58 628.21,446.21 C643,454.4 651.64,468.55 663.13,479.91 C677.31,493.91 686.44,511.31 695.59,528.66 C699.520611,536.353132 704.651561,543.371056 710.79,549.45 C721.04,559.45 730.88,569.82 740.64,580.28 C742.78,582.57 743.88,585.86 745.35,588.74 C745.7556,589.653222 746.012188,590.625557 746.11,591.62 C747.8,603.39 751.64,613.78 761.75,621.38 C768.16,626.2 770.34,633.75 770.7,641.67 C771.21,653.03 774.76,663.09 782.75,671.48 C788.22239,677.325052 792.141894,684.448923 794.15,692.2 C795.15,695.85 797.9,699.03 799.95,702.37 C806.15,712.48 815.3,719.64 824.37,726.93 C828.63,730.36 832.68,733.22 838.59,732.93 C841.241067,732.896741 843.806395,733.868564 845.77,735.65 C855.43,745.36 867.77,750.28 879.91,755.72 C891.43,760.88 902.61,766.84 914.26,771.72 C921.620277,774.719987 929.26616,776.964835 937.08,778.42 C941.639455,779.169904 946.014186,780.782005 949.97,783.17 C966,793.2 982.09,803.25 998.36,813 C1001.76497,814.986431 1005.57131,816.185735 1009.5,816.51 C1031.68,818.23 1053.88,819.67 1076.09,821 C1092.33,822 1108.6,822.61 1124.85,823.46 C1130.49,823.75 1136.14,824.84 1141.73,824.53 C1156.95,823.68 1172.14,821.53 1187.36,821.28 C1205.26,820.96 1223.36,820.78 1241.08,822.81 C1271.13631,826.241671 1301.38155,827.744748 1331.63,827.31 C1341.58261,827.22694 1351.47692,828.83654 1360.89,832.07 C1374.12,836.45 1387.46,840.84 1401.07,843.7 C1418,847.27 1432.91,854.93 1447.87,862.99 C1470.43,875.16 1493.77,885.54 1518.34,893.18 C1531.34,897.18 1543.98,902.36 1556.66,907.33 C1558.91,908.2 1560.91,910.33 1562.37,912.42 C1565.88168,917.273335 1569.14261,922.30325 1572.14,927.49 C1585.44,950.77 1603.64,970.3 1620.78,990.59 C1642.45,1016.25 1662.28,1043.31 1682.98,1069.71 C1702.34,1094.41 1717.98,1121.48 1735.3,1147.47 C1738.59428,1152.41644 1742.5284,1156.90537 1747,1160.82 C1761.55,1173.46 1776.45,1185.71 1791.25,1198.06 C1793.78549,1200.19433 1796.42898,1202.19697 1799.17,1204.06 C1816.81,1216 1834.56,1227.77 1852.11,1239.84 C1856.20049,1242.67754 1860.9755,1244.36933 1865.94,1244.74 C1888.1,1246.74 1910.24667,1248.85 1932.38,1251.07 C1936.67323,1251.49009 1940.88517,1252.51699 1944.89,1254.12 C1965.48,1262.61 1986.08,1271.12 2006.4,1280.19 C2013.9,1283.56 2020.61,1288.68 2027.6,1292.95 C2028.27,1299.34 2028.88,1305.22 2029.53,1311.47 C2018.53,1317.74 2007.72,1322.47 1994.8,1322.78 C1973.56,1323.26 1952.35,1325.01 1931.13,1326.26 C1921.81,1326.8 1912.62,1326.84 1903.42,1324.42 C1882.19,1318.84 1860.8,1313.87 1839.58,1308.24 C1834.13579,1306.79898 1828.95706,1304.49658 1824.24,1301.42 C1800.11,1285.42 1776.18,1269.19 1752.3,1252.85 C1748.7745,1250.37886 1745.59328,1247.44986 1742.84,1244.14 C1731.45,1230.69 1721.03,1216.34 1708.84,1203.66 C1696.65,1190.98 1686.57,1176.38 1676.13,1162.22 C1673.21149,1158.19547 1670.73078,1153.87098 1668.73,1149.32 C1661.54,1133.23 1654.58,1117.03 1647.64,1100.83 C1645.38314,1095.21 1641.56648,1090.35244 1636.64,1086.83 C1635.85,1087.78 1634.97,1088.39 1634.74,1089.19 C1630.59,1103.55 1626.42,1117.91 1622.49,1132.33 C1621.32305,1136.1246 1620.71994,1140.07007 1620.7,1144.04 C1621.23,1160.28 1620.8,1176.48 1619.91,1192.69 C1619.78,1195.01 1619.36,1197.52 1620.02,1199.69 C1623.77,1211.84 1619.59,1223.35 1617.44,1234.99 C1609.28,1279.08 1600.88,1323.12 1592.81,1367.22 C1591.88505,1372.80629 1591.62324,1378.48228 1592.03,1384.13 C1593.11,1403.01 1595.03,1421.86 1595.73,1440.75 C1596.38,1458.04 1596.73,1475.42 1595.53,1492.66 C1594.92,1501.66 1591.47,1510.78 1588.14,1519.4 C1583.04252,1532.77479 1574.23005,1544.41489 1562.74,1552.95 C1537.89,1571.85 1514.24,1592.32 1490.14,1612.2 C1487.29992,1614.50835 1484.62659,1617.01459 1482.14,1619.7 C1458.62,1645.6 1433.05,1669.35 1406.75,1692.37 C1399.75,1698.46 1392.5,1704.5 1388.82,1713.49 C1387.36,1717.03 1384.47,1717.93 1380.82,1718.31 C1373.23,1719.1 1366.82,1722.31 1362.14,1729.6 C1363.93,1733.22 1365.53,1737.22 1367.78,1740.83 C1371.90903,1747.63645 1374.62946,1755.20263 1375.78,1763.08 C1378.64,1780.08 1382.47,1796.94 1385.9,1813.85 C1386.49,1816.76 1387.06,1819.66 1387.9,1823.71 C1350.96,1827.33 1314.51,1830.58 1276.69,1825.71 C1277.56,1819.86 1278.36,1815.08 1278.97,1810.27 C1280.5,1798.21 1284.1,1787 1291.84,1777.35 C1293.49,1775.29 1294.42,1772.64 1296.1,1770.62 C1304.63,1760.33 1306.19,1748.01 1307.4,1735.29 C1308.89,1719.78 1311.4,1704.36 1313.4,1688.9 C1313.4017,1688.55786 1313.4661,1688.21893 1313.59,1687.9 C1321.89,1673.98 1327.47,1658.31 1339.68,1646.9 C1363.49,1624.66 1387.83,1602.96 1411.05,1580.12 C1432.14,1559.37 1452.05,1537.44 1472.38,1515.91 C1474.56452,1513.41697 1476.34907,1510.60014 1477.67,1507.56 C1483.51,1495.24 1488.96,1482.74 1494.96,1470.5 C1497.04,1466.26 1497.58,1462.68 1495.42,1458.32 C1492.48,1452.37 1490.15,1446.12 1487.57,1439.99 C1487.05,1438.77 1486.81,1437.33 1486.01,1436.34 C1469.54,1416.02 1459.84,1391.69 1446.32,1369.63 C1444.45,1366.58 1442.5,1363.58 1440.32,1360.09 C1434.32,1366.09 1431.81,1372.61 1430.81,1380 C1428.26,1398.74 1425.56,1417.46 1423.06,1436.21 C1422.77158,1438.84901 1422.85912,1441.51559 1423.32,1444.13 C1425.77,1459.55 1427.97,1475.02 1431.03,1490.31 C1433.03,1500.59 1432.14,1510.48 1431.25,1520.79 C1429.74,1538.18 1422.75,1551.9 1411.58,1565.13 C1403.58,1574.63 1394.92,1579.3 1383.09,1580.38 C1352.66333,1583.16667 1322.25667,1586.16667 1291.87,1589.38 C1282.62489,1590.39884 1273.45793,1592.03246 1264.43,1594.27 C1237.82,1600.79 1210.6,1602.44 1183.5,1605.17 C1178.63,1605.66 1173.7,1605.56 1168.79,1605.62 C1164.33,1605.68 1162.66,1608.99 1161.06,1611.72 C1166.06,1636.56 1176.16,1660.33 1170.82,1685.49 C1164.14,1691.63 1156.82,1691.29 1149.42,1691.1 C1131.47704,1690.54751 1113.6376,1688.16177 1096.18,1683.98 C1090.32,1682.61 1085.46,1680.54 1083.27,1673.98 C1091.21,1653.8 1100.52,1633.98 1114.59,1616.86 C1120.84,1609.23 1125.45,1600.93 1126.8,1591.1 C1129.55,1571.1 1143.08,1558.97 1158.26,1548.28 C1161.57,1545.95 1166.35,1545.45 1170.55,1544.68 C1196.37,1539.94 1222.28,1535.68 1248.04,1530.62 C1271.51,1526.02 1294.83,1520.62 1318.2,1515.52 C1326.44,1513.74 1333,1508.58 1341.25,1503.5 C1334.55,1492.67 1328.46,1482.78 1322.31,1472.93 C1320.61862,1470.06269 1318.74476,1467.30701 1316.7,1464.68 C1301.49,1446.07 1295.39,1423.95 1290.27,1400.97 C1281.81,1362.97 1271.12,1325.63 1253.95,1290.41 C1249.53703,1281.10535 1244.25348,1272.23916 1238.17,1263.93 C1226.23,1247.93 1214.55,1231.79 1202.69,1215.76 C1200.93,1213.37 1198.77,1211.27 1196,1208.15 C1191,1209.77 1185.49,1211.05 1180.42,1213.25 C1167.93,1218.68 1155.42,1224.13 1143.28,1230.32 C1130.89,1236.64 1117.46,1238.82 1104.19,1241.83 C1063.65,1251.01 1023.10333,1260.15667 982.55,1269.27 C979.015244,1270.08764 975.382532,1270.40075 971.76,1270.2 C956.52,1269.2 941.29,1267.96 926.08,1266.61 C921.799079,1266.2879 917.561227,1265.53748 913.43,1264.37 C887.63,1256.6 861.9,1248.64 836.15,1240.74 C833.892609,1240.20485 831.668748,1239.53703 829.49,1238.74 C815.4,1232.57 800.65,1228.74 785.59,1225.85 C780.701309,1224.87661 776.012064,1223.08476 771.72,1220.55 C755.57,1210.91 737.65,1205.63 720.41,1198.62 C704.11,1191.99 687.98,1184.77 672.41,1176.62 C663.35,1171.9 655.46,1164.93 647.12,1158.88 C636.61,1151.27 626.04,1143.74 615.74,1135.88 C604.74,1127.45 592.2,1120.62 586.08,1107.53 C569.89,1108.66 555.29,1106.21 540.68,1102.53 C535.54,1101.25 529.38,1102.53 524.02,1103.95 C484.47,1114.26 444.49,1123.07 406.08,1137.46 C397.46,1140.69 388.3,1139.22 379.49,1137.83 C369.66,1136.27 359.99,1133.73 350.23,1131.69 C347.1,1131.04 343.88,1129.57 340.11,1132.69 C341.479505,1135.20563 342.988525,1137.64277 344.63,1139.99 C349.53,1146.28 354.35,1152.67 359.69,1158.58 C368.76,1168.58 373.92,1180.83 380.12,1192.58 C390.47,1212.19 396.44,1233.2 402.19,1254.39 C411.24,1287.77 419.6,1321.29 425.43,1355.39 C426.411333,1360.94875 425.95698,1366.66602 424.11,1372 C420.54,1382.47 420.01,1392.76 423.62,1403.25 C424.323695,1405.09986 424.787471,1407.03226 425,1409 C425.83,1422.29 432.35,1432.68 440.94,1442.37 C449.3,1451.8 456.94,1461.87 464.62,1471.32 C462.87,1482.07 456.54,1489.54 450.08,1496.63 C439.78,1507.93 428.97,1518.78 418.16,1529.63 C415.16,1532.63 411.41,1534.91 407.98,1537.5 C399.67,1543.78 390.34,1544.5 379.49,1542.41 C376.87,1532.16 374.49,1521.57 373.59,1510.74 C370.95,1479.62 367.8,1448.58 360.66,1418.11 C358.85,1410.4 356.89,1402.53 353.51,1395.44 C346.88,1381.54 345.9,1366.66 344.34,1351.85 C343.27,1341.62 343.15,1331.29 342.1,1321.06 C341.61366,1316.45043 340.458186,1311.93634 338.67,1307.66 C325.46,1276.42 311.61,1245.44 298.81,1214.03 C289.3,1190.67 279.81,1167.21 274.93,1142.23 C273.6,1135.48 273.35,1129.04 275.19,1122.55 C278.71,1110.13 282.45,1097.79 286.48,1084.14 C275.73,1079.14 263.15,1075.48 249.78,1070.4 C250.12,1072.98 249.9,1074.66 250.56,1075.86 C260.86,1094.5 262.22,1115.08 263.91,1135.64 C266.58,1168.18 265.33,1200.77 265,1233.33 C264.86,1246.86 262.83,1260.39 261.1,1273.85 C260.55,1278.15 262.43,1280.85 264.57,1283.75 C268.73,1289.33 273.07,1294.75 277.4,1300.25 C278.62,1301.79 279.81,1303.73 281.47,1304.49 C293.71,1310.12 305.1,1318.2 319.4,1318.18 C321.058769,1318.26701 322.705856,1318.50805 324.32,1318.9 C325.344549,1319.19993 326.346972,1319.57083 327.32,1320.01 C314.11,1347.53 304.6,1376.59 290.11,1404.29 C282.87,1399.69 277.35,1394.8 272.8,1387.94 C256.63,1363.56 239.87,1339.57 222.99,1315.67 C219.99,1311.43 215.59,1308.11 211.5,1304.77 C201.13,1296.33 196.01,1284.11 188.62,1273.53 C187.975515,1272.36024 187.739733,1271.00889 187.95,1269.69 C189.15,1258.85 188.67,1247.69 192.95,1237.37 C195.77,1230.48 196.51,1223.37 196.55,1215.93 C196.79,1174.68 197.29,1133.44 197.76,1092.19 C197.92,1078.19 198.2,1064.25 198.49,1050.27 C198.49,1048.27 198.44,1046.1 199.25,1044.41 C204.25,1033.98 208.55,1023.41 218.25,1015.64 C231.25,1005.13 245.09,996.04 259.11,987.13 C262.240858,985.250524 265.602218,983.784971 269.11,982.77 C287.52,977.01 305.81,970.77 324.46,965.95 C344.7,960.72 365.18,956.41 386.35,956.3 C395.88,956.25 405.35,954.3 415.09,953.22 C414.04,941.62 412.93,930.85 412.19,920.07 C412.060227,917.141185 412.494781,914.214733 413.47,911.45 C417.09,900.77 420.97,890.18 424.8,879.57 C431.8,860.12 435.19,839.87 437.86,819.48 C439.56,806.42 437.11,793.55 435.18,780.8 C432.05231,761.123892 430.324638,741.25066 430.01,721.33 C429.85,703.46 427.43,685.6 426.01,667.74 C425.21,657.81 424.89,647.82 423.42,637.99 C422.025741,629.822537 420.06093,621.762802 417.54,613.87 C412.99,598.58 407.98,583.43 403.31,568.17 C401.170169,561.172482 397.918633,554.56474 393.68,548.6 C389.68,542.91 386.08,536.89 382.16,531.12 C378.79,526.12 374.59,524.95 370.49,528.88 C357.77,541.09 341.02,546.88 327,556.97 C321.88,560.65 316.11,563.45 311.09,567.26 C305.201601,571.654191 298.129832,574.179822 290.79,574.51 C286.79,574.79 282.89,575.51 278.94,576.05 C274.920206,576.557145 270.971658,576.59692 267.276917,575.712922 C269.400819,575.788508 278.987972,575.875746 300.47,572.69 C321.62,557.76 294.81,487.82 294.81,487.82 C294.81,487.82 421.28,393.11 428.71,382.11 C433.221294,375.440706 435.158152,360.762055 435.246801,360.074988 L435.25,360.05 L442.17,363.32 L445.91,358.56 C445.91,358.56 446.03,334.81 445.91,331.13 C445.79,327.45 442.36,322.24 439.18,320.34 C439.56,308.27 434.07,299.97 432.44,293.69 C432.410208,293.574654 432.380431,293.459807 432.350667,293.345456 C434.781445,297.744234 438.237528,301.42803 442.33,304.88 Z M155.152593,404.306122 C156.273945,403.988511 163.372295,402.060492 169.67,402.29 C176.53,402.54 206.24,423.11 210.81,426.41 C215.38,429.71 247.13,469.33 247.13,469.33 C247.13,469.33 243.82,475 246.87,480 C249.92,485 265.16,504.58 265.92,504.58 C266.68,504.58 271,502.29 271,502.29 C271,502.29 281.6,536.02 282.62,540.38 C283.64,544.74 282.61,558.38 280.84,563.74 C279.07,569.1 274.24,561.74 274.24,561.74 C274.24,561.74 267.38,564.07 253.67,567.07 C257.799283,571.20785 264.497326,574.582413 266.332217,575.464604 C263.458065,574.641374 260.750902,573.220705 258.3,570.98 C254.63,567.63 250.9,567.49 246.4,568.41 C236.04,570.54 225.6,572.31 214.47,574.41 C216.78,582.9 211.55,587.62 206.7,592.51 L204.58,594.63 C187.47,611.79 187.48,611.84 163.27,614.87 C160.306353,615.139132 157.319026,614.95706 154.41,614.33 C148.53,613.24 142.7,611.8 136.86,610.49 C135.24,610.13 133.04,610.24 132.11,609.22 C125.83,602.36 116.55,602.86 108.83,599.65 C99.3226062,595.657906 90.6131911,589.983744 83.12,582.9 C74.95,575.4 72.26,566.9 72.4398084,556.5 C72.64,545.93 72.68,535.34 72.4398084,524.78 C72.3,518.95 73.82,513.85 76.07,508.49 C86.4,483.91 101.75,462.92 120.01,443.69 C132.097294,430.93555 143.106499,417.21852 155.077514,404.323823 Z M369.44,150.46 C372.74,154.17 374.5,157.75 375.09,161.29 C377.9,178.01 386.76,192.29 392.91,207.7 C396.25,216.04 399.91,224.26 403.62,232.42 C405.88423,237.275546 406.413716,242.761023 405.12,247.96 C403.94,253.1 403.05,258.32 401.91,264.14 L402.024905,264.188 L401.8,264.15 C401.8,264.15 401.609194,266.993007 401.12508,271.859 L401.09,272.21 C403.38,273.1 405.15,272.98 408.2,280.85 C411.25,288.72 412.14,310.05 412.14,310.05 L412.14,310.05 L406.55,316.78 C406.55,316.78 406.93,339.11 406.93,343.57 C406.93,348.03 408.07,347.51 410.99,349.03 C411.76,354.11 409.98,362.1 408.58,363.63 C407.18,365.16 386.49,381.53 365.03,398.55 C343.57,415.57 324.14,428.14 315.51,433.73 L315.51,433.73 L281.1,455.95 C279.14924,454.297868 277.065507,452.809487 274.87,451.5 C272.59,450.36 270.68,452.52 267,454.3 C264.37,450.49 227.94,411.26 225,408.97 C222.112443,406.720849 181.488071,383.731883 180.039688,382.912452 C183.403751,380.304451 186.79983,377.723238 189.91,374.81 C198.14,367.04 205.99,358.87 213.98,350.81 C216.430719,348.675439 217.691264,345.483054 217.36,342.25 C216.934931,334.567356 218.648404,326.917305 222.31,320.15 C226.84,311.76 228.87,302.06 236.48,295.29 C249.15,284.02 261.58,272.47 273.99,260.91 C282.16,253.3 292.38,249.12 301.89,243.74 C304.74,242.12 307.64,240.59 310.13,239.23 C311.51,233.63 308.28,228.43 311.19,221.61 L318.67,236.61 C320.74,236.49 322.95,236.41 325.16,236.23 C332.71,235.62 340.07,233.51 347.87,235.23 C353.46,236.46 355.26,234.66 355.44,229.17 C355.66,222.52 356.07,215.76 355.16,209.23 C354.577108,204.98393 354.918219,200.662054 356.16,196.56 C359.97,183.13 363.67,169.67 367.44,156.24 C367.87,154.7 368.44,153.24 369.44,150.46 Z M179.319195,383.475071 L155.278723,404.107264 C155.442299,403.931353 155.606056,403.755597 155.77,403.58 C161.64,397.33 168.71,392.2 175.33,386.67 C176.63694,385.580883 177.973535,384.523645 179.319195,383.475071 Z M310.36,319.5 C307.57,319.5 302.24,322.04 297.41,325.34 C292.58,328.64 292.58,333 294.87,336 C294.87,336 308.08,339.04 313.41,339.81 C318.74,340.58 324.33,336.51 336.26,331.69 C332.2,327.37 313.15,319.5 310.36,319.5 Z" id="colour" fill="#FFFFFF" style="mix-blend-mode: overlay;"></path>
    </g>
</svg>