<?xml version="1.0" encoding="UTF-8"?>
<svg width="2048px" height="2048px" viewBox="0 0 2048 2048" version="1.1" xmlns="http://www.w3.org/2000/svg" xmlns:xlink="http://www.w3.org/1999/xlink">
    <title>poses/horses_12</title>
    <g id="poses/horses_12" stroke="none" stroke-width="1" fill="none" fill-rule="evenodd" opacity="0.8">
        <path d="M1439.87,1575.33 C1441.15,1582.51 1441.73,1588.41 1443.29,1594.03 C1448.45,1612.7 1450.44,1631.85 1451.82,1651.03 C1452.51,1660.48 1448.47,1669.23 1445.02,1677.85 C1443.3932,1681.86144 1441.30587,1685.67031 1438.8,1689.2 C1436.97098,1691.87461 1434.58253,1694.11976 1431.8,1695.78 C1408.8,1708.49 1385.66,1720.9 1362.65,1733.57 C1356.7942,1736.72105 1351.16103,1740.26935 1345.79,1744.19 C1325.47,1759.31 1304.13,1772.82 1282.37,1785.73 C1277.56,1788.58 1273.46,1792.59 1268.87,1795.84 C1266.48792,1797.50662 1263.92908,1798.90509 1261.24,1800.01 C1257.37,1801.63 1253.35,1802.88 1248.79,1804.51 C1250.39,1808.23 1251.7,1810.85 1252.66,1813.6 C1254.08,1817.65 1255.78,1821.7 1256.44,1825.89 C1258.61,1839.66 1260.37,1853.49 1262.26,1867.3 C1262.33214,1868.43886 1262.33214,1869.58114 1262.26,1870.72 C1253.15879,1878.00796 1241.65264,1881.61256 1230.02,1880.82 C1217.77956,1879.82498 1205.60624,1878.12886 1193.56,1875.74 C1185.66,1874.27 1183.86,1870.56 1185.41,1862.74 C1187.51994,1851.93876 1192.01986,1841.74647 1198.58,1832.91 C1204.65,1824.69 1208.49,1815.73 1209.42,1805.49 C1209.75,1801.87 1210.86,1798.32 1211.42,1794.72 C1213.8,1780.43 1218.22,1767.18 1228.22,1756.05 C1232.01,1751.83 1235.56,1747.66 1240.35,1744.48 C1261.13,1730.66 1282.08,1717.09 1302.41,1702.63 C1319.48,1690.5 1335.81,1677.33 1352.35,1664.47 C1355.21294,1662.22081 1357.75041,1659.58575 1359.89,1656.64 C1366.34,1647.82 1371.61,1638.08 1380.89,1631.49 C1378.82659,1625.67079 1374.54512,1620.90401 1368.98,1618.23 C1360.98,1614.33 1354.79,1608.52 1349.23,1601.81 C1312.15,1557.01 1274.79,1512.44 1238.14,1467.28 C1224.96,1451.03 1213,1433.71 1201.4,1416.28 C1188.09,1396.28 1178.26,1374.47 1170.9,1351.53 C1164.78091,1332.90087 1160.02831,1313.85036 1156.68,1294.53 C1155.86,1289.66 1153.33,1286.35 1149.43,1283.24 C1130.09465,1267.99705 1108.71627,1255.54232 1085.92,1246.24 C1066.58,1238.24 1048,1228.24 1031.13,1215.72 C993.13,1187.4 951.38,1165.11 910.4,1141.6 C904.680467,1138.26078 899.431008,1134.17488 894.79,1129.45 C872.07,1106.51 849.79,1083.18 829.08,1058.34 C821.22,1048.89 813.28,1039.47 805.95,1029.61 C800.35,1022.06 794.45,1015.05 786.72,1009.61 C782.11,1006.36 777.32,1003.07 773.58,998.92 C766.92,991.55 760.92,983.76 760.5,972.86 C760.07,961.64 754.96,951.74 749.31,942.3 C741.03,928.49 735.14,913.61 730.42,898.4 C728.02,890.65 728.42,882 727.84,873.74 C726.44,852.55 725.1,831.35 724.06,810.14 C723.81,805.22 724.92,800.25 725.28,795.29 C725.44,793.04 725.28,790.76 725.28,788.09 C704.43,781.43 684.08,774.39 662.64,771.18 C655.08,770.05 647.52,768.73 640.08,767 C636.567724,766.119255 633.228057,764.655615 630.2,762.67 C624.06,758.67 618.05,754.49 612.31,749.96 C606.12,745.07 599.31,743.81 590.86,744.56 C588.57,749.86 585.99,755.19 583.93,760.71 C577.69,777.42 568.27,792.41 557.2,806.07 C539.51,828 520.58,849 502.15,870.34 C501.09,871.58 500.15,872.9 499.09,874.17 C504,882.37 508.59,890.4 513.59,898.17 C514.97,900.3 517.47,901.75 519.59,903.38 C527.95,909.93 536.36,916.43 544.52,922.77 C545.73,928.11 543.91,932.45 541.52,936.46 C535.41,946.74 529.33,957.07 522.72,967.03 C518.08,974.03 511.02,977.61 501.72,978.51 C499.16,973.51 496.04,968.39 493.85,962.93 C482.96,935.77 471.68,908.74 461.92,881.18 C458.23,870.78 457.25,859.09 457.08,847.96 C457.01,843.12 461.56,837.76 465,833.42 C468.598574,829.051861 472.761681,825.181315 477.38,821.91 C484.49,816.7 489.84,810.22 494.66,802.91 C509.473333,780.39 524.526667,758.03 539.82,735.83 C545.82,727.1 552.82,718.97 559.5,710.73 C566.64,701.98 576.26,696.57 586.5,692.44 C596.356944,688.463809 606.413835,685.002476 616.63,682.07 C622.385791,680.546404 628.306558,679.733684 634.26,679.65 C652.52,679.04 670.8,678.85 690,678.48 C688.47,675.48 686.64,673.16 686.22,670.64 C685.8,668.12 686.65,665.39 687.22,662.81 C689.64,652.26 685.22,644.54 678.3,636.81 C663.72,620.44 649.46,603.73 635.92,586.5 C620.6,567.01 602.01,550.92 583.92,534.35 C579.38,530.2 575.69,525.9 573.56,520.05 C571.07,513.19 568.16,506.45 565.09,499.82 C563.61,496.63 561.35,493.82 559.09,490.23 C549.49,495.07 540.52,499.29 531.85,504.04 C519.85,510.62 507.43,516.1 494.1,519.38 C464.56,526.65 436.75,538.52 409.29,551.32 C404.493033,553.594542 399.819828,556.12141 395.29,558.89 C390.42,561.82 385.29,562.89 380.02,560.96 C365.84,555.69 352.1,559.86 339.02,564.08 C330.57,566.81 325.2,575.08 322.46,584.08 C320.63,590.08 319.13,596.17 317.16,603.38 C297.22,596.21 280.09,585.38 262.76,575.38 C255.38,571.09 247.14,566.38 242.94,557.01 C249.824794,551.293859 257.592687,546.734443 265.94,543.51 C288.913333,534.656667 311.866667,525.76 334.8,516.82 C336.910457,515.865031 338.862909,514.593745 340.59,513.05 C346.73,508.05 352.65,502.7 358.91,497.82 C365.75,492.47 374.42,491.28 382.42,490.37 C399.54,488.44 415.23,482.24 431.19,476.67 C449.09,470.43 466.73,463.4 484.82,457.81 C498.43,453.61 512.58,451.13 526.49,447.89 C536.49,445.54 546.76,443.81 556.49,440.67 C566.49,437.47 576.75,437.24 586.93,436.08 C589.64,435.77 592.81,437.01 595.37,438.31 C607.53,444.49 619.87,450.39 631.53,457.42 C644.083676,464.867061 656.16962,473.075752 667.72,482 C685.34,495.84 704.4,507.22 723.95,517.95 C730.35,521.46 736.41,525.56 742.6,529.44 C744.79,530.81 746.91,532.3 750.46,534.67 C749.85,529.23 749.86,525.35 748.93,521.67 C743.6,500.67 744.98,479.35 745.39,458.11 C745.68,443.51 746.7,428.91 747.94,414.35 C748.82,404.11 750.63,393.95 751.94,383.75 C753.65,370.92 755.14,358.07 757.07,345.27 C758.35,336.76 759.96,328.27 761.88,319.87 C764.88,306.87 761.47,300.4 749.28,296.17 C731.7,290.07 714.18,283.79 696.65,277.56 C691.65,275.79 687.5,273.78 684.24,268.63 C680.83,263.23 674.77,259.47 669.75,255.13 C665.9,251.81 662.75,248.32 662.25,242.83 C661.903694,240.903336 660.929768,239.145347 659.48,237.83 C649.73,228.33 639.83,218.97 629.56,209.17 C620.13,216.79 609.84,211.29 599.87,211.45 C598.880804,211.376556 597.954181,210.938192 597.27,210.22 C591.14,203.71 584.14,197.75 579.21,190.42 C569.92,176.63 565.08,160.66 559.53,145.08 C557.71,139.98 559.18,135.22 559.43,130.38 C560.14,116.54 560.2,116.38 570.84,106.93 C578.04,100.55 585.55,94.46 593.33,88.81 C596.4,86.58 600.52,85.68 604.33,84.55 C610.02,82.84 615.85,81.55 621.55,79.9 C632.01,76.8 642.78,77.1 653.15,78.9 C669.81,81.79 686.2,86.21 702.75,89.81 C705.990819,90.3366563 709.266828,90.6174571 712.55,90.65 C719.8,91.09 727.06,91.45 734.31,91.91 C735.31,91.97 736.65,92.05 737.14,92.67 C741.83,98.67 748.47,96.78 754.59,97.39 C762.18,98.14 769.85,98.88 777.24,100.67 C783.04,102.07 788.24,102.21 793.73,99.83 C796.12,98.83 798.88,98.63 801.47,98.03 C810.867986,95.8168821 820.640499,95.7212406 830.08,97.75 C842.38,100.35 854.99,101.59 867.49,103.19 C882.39,105.09 895.49,111.05 907.55,119.8 C909.43,121.17 911.39,122.4 913.63,123.91 L927.33,119.37 L919.05,131.81 C920.44,133.28 921.75,134.66 924.05,137.11 C934.33,115.9 954.18,108.83 970.84,96.61 C973.14,100.61 973.1,103.93 971.6,106.78 C962.6,123.78 960.15,142.84 954.1,160.78 C952.35,165.97 949.84,169.44 945.38,172.14 C941.38,174.52 937.7,177.32 933.57,180.14 C935.4,184.99 937,189.63 938.89,194.14 C941.35,199.99 942.61,205.53 937.19,210.6 C936.04,211.67 935.55,213.45 934.19,215.89 C937.77,222.82 941.33,230.29 945.41,237.47 C950.22,245.94 954.41,254.6 955,264.47 C955.35,269.8 958.12,273.86 961.24,277.79 C966.03,283.79 970.4,290.05 970.88,298.13 C971.17,303.07 974.65,306.01 978.29,308.13 C986.14,312.76 988.24,319.98 988.7,328.24 C988.79,329.9 989.26,331.59 989.05,333.24 C987.55,344.85 993.28,354.55 997.46,364.6 C998.4,366.86 1000.63,368.82 1002.71,370.32 C1009.71,375.38 1016.84,380.16 1024.71,385.59 C1025.35,389.51 1023.01,392.59 1019.41,395.59 C1012.1,401.59 1011.53,405.29 1016.95,412.99 C1019.79,416.99 1019.56,421.4 1018.81,425.43 C1017.66,431.7 1019.81,436.28 1023.54,440.88 C1027.54,445.78 1030.73,451.32 1034.88,456.05 C1038.79,460.5 1039.64,465.33 1038.94,470.82 C1038.73,472.47 1038.56,474.12 1038.39,475.82 C1037.57,483.68 1038.89,490.99 1043.7,497.5 C1045.08,499.37 1045.84,501.76 1047.4,503.41 C1056.29,512.79 1057.4,524.57 1058.4,536.59 C1058.93394,541.154023 1059.98399,545.642731 1061.53,549.97 C1063.05195,554.721577 1064.89967,559.362579 1067.06,563.86 C1069.76234,569.608338 1070.87426,575.976009 1070.28,582.3 C1069.88,588.07 1071.19,593.43 1073.23,598.82 C1074.97,603.43 1075.84,608.37 1076.97,613.2 C1077.73,616.42 1077.97,619.81 1078.97,622.92 C1089.1,652.47 1099.61,681.92 1109.5,711.54 C1117.87,736.61 1130.73,759.54 1142.29,783.08 C1149.95,798.69 1161.53,810.84 1172.83,823.41 C1189.97,842.46 1206.64,861.98 1224.67,880.15 C1239.39,894.98 1255.78,908.15 1271.49,921.99 C1277.23,926.99 1282.92,932.19 1289.02,936.78 C1297.5,943.14 1306.29,949.12 1315.02,955.08 C1325.45,962.17 1335.91,969.23 1346.55,976 C1359.46,984.21 1372.7,991.9 1385.55,1000.19 C1394.46,1005.94 1403.28,1011.93 1411.55,1018.53 C1426.14,1030.15 1440.95,1041.43 1457.11,1050.75 C1466.52,1056.17 1474.19,1063.48 1481.28,1071.41 C1501.19,1093.68 1520.81,1116.22 1540.63,1138.75 C1541.20771,1138.93368 1541.81804,1138.99164 1542.42,1138.92 C1564.14,1131.67 1585.6,1134.29 1606.87,1140.86 C1629.42,1147.86 1651.87,1155.29 1674.43,1162.04 C1683.43,1164.72 1690.43,1170.31 1697.3,1175.86 C1711.53,1187.32 1725.67,1199 1738.87,1211.6 C1753.54,1225.6 1767.53,1240.36 1781.04,1255.48 C1793.2,1269.09 1804.55,1283.48 1815.79,1297.85 C1820.90216,1304.38151 1825.37284,1311.39059 1829.14,1318.78 C1838.31,1336.88 1847.06,1355.2 1855.59,1373.61 C1858.84,1380.61 1864.79,1384.89 1870.04,1389.82 C1882.88,1401.82 1896.22,1413.38 1909.14,1425.35 C1912.26944,1428.30991 1914.93893,1431.72093 1917.06,1435.47 C1927.79,1454.24 1938.58,1472.98 1948.67,1492.09 C1952.81,1499.93 1955.23,1508.67 1958.47,1517.09 L1948.11,1528.9 C1937.02,1527.2 1926.58,1525.02 1917.43,1517.98 C1902.14,1506.22 1886.43,1494.98 1870.82,1483.65 C1859.26,1475.2 1848.4,1466.12 1839.28,1454.89 C1830.7,1444.32 1821.19,1434.51 1812.08,1424.37 C1800.43,1411.42 1792.08,1396.21 1783.21,1381.42 C1779.43,1375.16 1776.43,1368.42 1772.45,1362.3 C1765.24,1351.3 1761.45,1338.98 1757.94,1326.44 C1753.64,1311.08 1748.88,1295.84 1743.86,1280.69 C1742.5462,1276.61246 1740.26451,1272.91372 1737.21,1269.91 C1716,1250.23 1694.37,1230.99 1670.21,1214.86 C1663.07228,1210.00932 1655.50377,1205.82505 1647.6,1202.36 C1630.51,1195.03 1613.3,1187.88 1595.76,1181.76 C1582.31,1177.07 1568.03,1175.54 1553.56,1174.13 C1551.16,1179.42 1553.27,1183.99 1554.81,1188 C1563.46,1210.55 1561.21,1232.89 1554.96,1255.46 C1552.70291,1263.1112 1551.36022,1271.00287 1550.96,1278.97 C1550.56,1291.74 1545.37,1302.75 1540.42,1313.97 C1539.21,1316.71 1537.86,1319.39 1536.81,1322.19 C1533.05,1332.19 1528.41,1341.71 1521.46,1349.99 C1513.4,1359.62 1507.55,1370.99 1497.66,1379.27 C1493.89,1382.45 1492.39,1388.33 1489.79,1393.11 C1493.94,1400.11 1498.55,1406.11 1506.43,1408.34 C1510.43,1409.49 1511.07,1412.65 1511.9,1415.86 C1517.29333,1436.78 1522.68333,1457.70333 1528.07,1478.63 C1530.46,1487.97 1532.89,1497.3 1535,1506.7 C1536.46055,1512.48131 1537.43065,1518.37555 1537.9,1524.32 C1538.63,1538.84 1542.67,1552.71 1548.14,1565.74 C1557.22,1587.32 1555.98,1608.89 1553.36,1631.26 C1550.63,1654.56 1543.94,1676.81 1537.9,1699.26 C1530.01,1728.49 1523.9,1758.06 1518.39,1787.79 C1515.48,1803.47 1511.87,1819.01 1509.03,1834.7 C1507.09,1845.46 1505.71,1856.34 1504.57,1867.21 C1504.17,1871.08 1503.2,1874.12 1500.48,1876.95 C1497.48,1880.05 1495.25,1883.85 1492.32,1887.01 C1486.38,1893.4 1485.78,1900.63 1486.55,1909.07 C1488.32,1928.59 1490.29,1948.07 1494.23,1967.25 C1494.35976,1968.81064 1494.35976,1970.37936 1494.23,1971.94 C1482.23,1977.29 1471,1984.64 1456.71,1981.2 C1453.74334,1980.61006 1450.69467,1980.55925 1447.71,1981.05 C1431.35,1983.26 1418.17,1975.53 1403.94,1967.67 C1406.12,1958.16 1407.27,1948.44 1410.75,1939.67 C1413.07,1933.8 1418.27,1928.8 1422.98,1924.21 C1427.69,1919.62 1429.56,1914.59 1430.4,1908.47 C1431.34649,1900.54663 1432.72858,1892.68139 1434.54,1884.91 C1437.95,1871.36 1441.89,1857.91 1450.65,1846.57 C1457.87,1837.24 1459.45,1826 1462.1,1815.05 C1466.73,1795.94 1468.9,1776.51 1470.63,1756.99 C1471.1394,1752.05165 1472.14446,1747.17709 1473.63,1742.44 C1476.11,1734.17 1478.92,1725.98 1481.83,1717.85 C1484.89,1709.29 1485.47,1700.38 1486.18,1691.45 C1487.84,1670.61 1489.3,1649.75 1491.53,1628.97 C1493.26,1612.86 1488.87,1608.32 1475.3,1602.53 C1471.34336,1600.91078 1467.71172,1598.59019 1464.58,1595.68 C1458.28,1589.78 1451.76,1584.11 1445.24,1578.46 C1444.33,1577.39 1442.74,1576.87 1439.87,1575.33 Z" id="colour" fill="#FFFFFF" style="mix-blend-mode: overlay;"></path>
    </g>
</svg>