<?xml version="1.0" encoding="UTF-8"?>
<svg width="2048px" height="2048px" viewBox="0 0 2048 2048" version="1.1" xmlns="http://www.w3.org/2000/svg" xmlns:xlink="http://www.w3.org/1999/xlink">
    <title>poses/horses_16</title>
    <g id="poses/horses_16" stroke="none" stroke-width="1" fill="none" fill-rule="evenodd" opacity="0.8">
        <path d="M340.27,391.92 C349.82,391.92 359.44,393.54 368.89,395.21 C375.57,396.39 381.95,397.02 388.49,394.81 C398.21,391.54 407.82,391.37 417.65,395.16 C427.79,399.08 438.65,398.16 449.22,397.79 C461.31,397.41 472.67,398.72 484.31,402.89 C494.08,406.39 505.15,406.4 515.68,407.65 C522.26,408.43 528.93,408.52 535.52,409.21 C538.133161,409.538259 540.683807,410.249205 543.09,411.32 C551.66,414.93 559.96,419.32 568.72,422.32 C585.14,428.05 598.36,438.76 611.44,449.45 C620.712486,456.993249 631.348908,462.683209 642.77,466.21 C653.85,469.74 664.77,473.87 675.77,477.48 C679.46,478.69 682.31,480.48 684.21,483.92 C685.34,485.92 686.99,487.7 688.02,489.77 C692.48,498.77 698.59,504.85 709.08,507.46 C717.08,509.46 723.92,514.98 725.9,524.2 C725.97,524.52 726.13,524.82 726.23,525.14 C729.77,537.28 736.77,546.37 748.87,551.14 C757.61,554.55 763.57,561.04 768.51,568.81 C770.06,571.24 772.51,573.16 774.83,575.01 C778.095594,577.803096 781.583857,580.324812 785.26,582.55 C788.94,584.62 792.92,586.66 797.01,587.41 C815.96,590.89 835.01,593.75 854.01,597.18 C863.48,598.89 872.74,601.8 882.23,603.39 C903.84,607.01 925.51,610.2 947.18,613.39 C954.08,614.39 961.09,614.73 967.95,615.94 C987.38,619.36 1006.82,620.28 1026.46,617.68 C1033.35,616.76 1040.4,617.07 1047.37,616.73 C1074.91,615.41 1102.48,614.43 1129.97,612.48 C1138.79,611.85 1147.54,609.04 1156.11,606.48 C1187.35,597.23 1218.42,587.41 1249.71,578.35 C1275.55,570.87 1301.37,563.02 1327.65,557.43 C1355.55,551.49 1383.98,548 1412.18,543.5 C1416.77,542.76 1421.45,542.55 1426,541.63 C1434.58,539.91 1443.21,540.46 1451.8,540.89 C1480.33,542.32 1508.86,543.83 1537.36,545.65 C1548.92,546.38 1560.36,547.65 1571.67,551.15 C1604.4,561.15 1637.46,570.15 1670.12,580.42 C1682.06,584.18 1693.57,589.75 1702.32,599.54 C1710.07333,608.206667 1717.97333,616.743333 1726.02,625.15 C1732.92,632.37 1739.63,639.88 1747.25,646.28 C1764.76,660.99 1776.09,680.08 1786.25,699.95 C1793.65,714.44 1800.1,729.44 1806.59,744.39 C1809.51143,751.433734 1812.06815,758.623257 1814.25,765.93 C1822.67667,792.563333 1831.01,819.23 1839.25,845.93 C1841.87,854.48 1843.89,863.22 1846.25,871.85 C1853.44,898.15 1860.43,924.5 1867.93,950.7 C1875.43,976.9 1883.77,1002.88 1891.11,1029.12 C1896.75,1049.3 1901.88,1069.64 1906.36,1090.12 C1909.87107,1106.69402 1915.30101,1122.8026 1922.54,1138.12 C1930.30667,1154.3 1937.76,1170.63333 1944.9,1187.12 C1946.87172,1192.04149 1948.17987,1197.20345 1948.79,1202.47 C1951.49,1221.47 1954.47,1240.57 1956.11,1259.72 C1957.01,1270.16 1955.45,1280.82 1954.98,1291.72 L1934.9,1301.01 C1931.35,1299.29 1928.36,1297.85 1925.38,1296.39 C1919.12157,1293.31594 1913.7673,1288.67143 1909.84,1282.91 C1895.12,1261.91 1879.92,1241.34 1865.06,1220.47 C1862.51756,1217.00653 1860.4961,1213.18935 1859.06,1209.14 C1851.27,1185.79 1843.29,1162.49 1836.39,1138.88 C1833.06,1127.47 1831.78,1115.43 1829.88,1103.63 C1823.4,1063.31 1818.43,1022.80667 1814.97,982.12 C1813.13,960.31 1809.97,938.61 1807.34,916.87 C1807.22758,914.882054 1806.89214,912.913035 1806.34,911 C1799.94,893.16 1793.46667,875.343333 1786.92,857.55 C1786.63,856.75 1785.72,856.18 1784.2,854.55 C1783.67,857.92 1783.06,860.35 1782.94,862.8 C1782.16,878.39 1781.57,893.98 1780.76,909.57 C1779.76,927.8 1778.46,946.01 1777.76,964.24 C1777.65159,969.884627 1778.26318,975.520049 1779.58,981.01 C1781.6745,990.407505 1782.81031,999.993239 1782.97,1009.62 C1783.36,1028.87 1784.67,1048.1 1785.49,1067.34 C1786.87,1099.87 1788.1,1132.4 1789.58,1164.92 C1789.96259,1169.88715 1790.70454,1174.82007 1791.8,1179.68 C1794.46,1193.38 1797.68,1206.98 1799.96,1220.74 C1804.96,1251.12 1816.41,1279.57 1826.17,1308.49 C1832.39565,1326.35511 1836.17331,1344.98102 1837.4,1363.86 C1838.84,1388.37 1841.52,1412.81 1842.92,1437.32 C1844.3,1461.64 1849.46,1485.32 1853.55,1509.2 C1858.42,1537.69 1863.45,1566.2 1868.86,1594.53 C1871.77,1609.86 1875.62,1625 1879.17,1640.82 C1869.23,1652.55 1859.36,1664.62 1848.98,1676.23 C1844.9,1680.79 1842.62,1685.42 1843.43,1691.48 C1843.46496,1691.81242 1843.46496,1692.14758 1843.43,1692.48 C1841.23,1718.69 1846.43,1744.09 1851.78,1769.48 C1852.43,1772.62 1852.87,1775.81 1853.57,1779.9 C1846.2,1781.06 1839.64,1781.71 1833.25,1783.16 C1815.12,1787.27 1796.83,1784.53 1778.62,1784.84 C1775.62,1784.84 1772.62,1783.97 1769.7,1784.17 C1757.7,1785.02 1747.1,1779.84 1735.4,1776.87 C1735.86,1773.96 1736.05,1771.73 1736.58,1769.57 C1741.21,1750.68 1749.84,1733.62 1759.14,1716.57 C1768.36192,1699.60218 1774.45885,1681.11491 1777.14,1661.99 C1778.92,1649.49 1780.48,1636.99 1782.92,1624.57 C1784.99,1614.01 1782.33,1604.02 1780.6,1593.94 C1770.66,1536.01 1760.85,1478.07 1753.17,1419.78 C1752.72,1416.32 1751.84,1412.91 1750.72,1407.21 C1748.35,1412.21 1746.61,1414.97 1745.65,1418 C1738.31,1441.13 1730.36,1464.11 1724.11,1487.53 C1719.11,1506.44 1716.24,1525.93 1712.22,1545.12 C1708.61,1562.36 1704.28,1579.46 1701.13,1596.77 C1699.27936,1607.87617 1698.13706,1619.0888 1697.71,1630.34 C1697.44,1635.34 1696.37,1638.97 1692.31,1642.28 C1683.31,1649.61 1674.77,1657.51 1665.8,1665.38 C1669.47,1691.71 1673.17,1718.22 1676.8,1744.52 C1663.34,1751.06 1598.99,1752.19 1577.8,1746.22 C1579.11,1742.22 1580.2,1738.22 1581.8,1734.29 C1590.32,1713.36 1598.53,1692.29 1607.8,1671.67 C1611.96,1662.39 1615.06,1653 1615.06,1643.08 C1615.06,1625.79 1620.16,1609.61 1624.43,1593.25 C1631.07,1567.85 1639,1542.77 1645.03,1517.25 C1650.15,1495.62 1653.39,1473.54 1657.39,1451.64 C1659.39,1440.54 1660.72,1429.28 1663.39,1418.33 C1666.2,1406.63 1663.9,1395.21 1663.01,1383.72 C1662.24,1373.8 1660.39,1363.97 1659.5,1354.05 C1658.8572,1347.45074 1656.83702,1341.05975 1653.57,1335.29 C1641.97,1313.86 1627.27,1294.51 1613.78,1274.29 C1594.92,1246.1 1576.78,1217.38 1558.21,1189.02 C1554.47423,1183.15232 1550.19182,1177.65116 1545.42,1172.59 C1521.05,1147.59 1495.77,1123.34 1472.06,1097.68 C1453.83,1077.94 1437.38,1056.54 1420.28,1035.76 C1411.41,1024.97 1402.93,1013.88 1394.16,1003.01 C1388.98,996.59 1388.64,996.88 1380.67,999.51 C1356.58,1007.45 1335.67,1021.12 1316.14,1036.67 C1299.54,1049.9 1281.51,1059.67 1261.96,1067.67 C1218.22,1085.48 1174.84,1104.19 1131.36,1122.67 C1125.56017,1125.14971 1119.3365,1126.48748 1113.03,1126.61 C1044.13,1128.35 975.24,1130.37 906.34,1132.05 C894.72,1132.34 883.06,1131.59 871.44,1130.96 C845.193333,1129.54667 818.953333,1128 792.72,1126.32 C781.77,1125.61 770.86,1124.21 759.93,1123.21 C754,1122.66 748.34,1122.21 742.6,1125.6 C736.09,1129.44 732.74,1133.85 731.42,1141.73 C723.09,1191.18 713.87,1240.46 707.57,1290.26 C705.76,1304.58 707.3,1318.77 705.91,1332.98 C704.97,1342.55 705.2,1352.23 704.35,1361.8 C703.862275,1365.39777 702.669498,1368.86396 700.84,1372 C697.21,1378.73 692.97,1385.13 689.29,1391.84 C687.89026,1394.4152 686.987876,1397.23091 686.63,1400.14 C684.63,1417.6 682.99,1435.14 680.87,1452.57 C677.62,1479.27 673.2,1505.86 670.95,1532.63 C669.57,1549.1 671.29,1565.83 671.66,1582.43 C671.84,1590.74 672,1599.06 672.39,1607.36 C672.83,1618 673.57,1628.56 674.23,1639.57 C663.56,1648.57 652.72,1657.38 642.39,1666.71 C635.28,1673.13 628.84,1680.31 622.17,1687.21 C617.8,1691.73 616.73,1697.42 615.57,1703.46 C613.57,1713.9 613.82,1723.83 617.64,1733.77 C619.04,1737.43 619.58,1741.41 620.76,1746.24 C615.2,1747.64 610.24,1749.55 605.14,1750.06 C594.24,1751.15 583.27,1751.65 572.32,1752.14 C561.7,1752.63 551.07,1752.91 540.43,1753.08 C534.53,1753.17 528.43,1754 522.35,1750.76 C524.08,1742.36 526.18,1734.21 531.41,1727.05 C548.08,1704.21 564.6,1681.27 581.25,1658.42 C583.81,1654.9 585.92,1651.5 586.68,1646.94 C589.68,1628.94 593.32,1611.04 596.44,1593.06 C598.03,1583.94 599.62,1574.74 600.12,1565.52 C601.4,1541.96 602.03,1518.38 602.99,1494.81 C604.276667,1463.27667 605.61,1431.75 606.99,1400.23 C607.46,1389.62 608.15,1379.02 608.89,1368.43 C609.68,1357.03 608.04,1345.88 605.89,1334.76 C603.563333,1322.69333 601.296667,1310.61 599.09,1298.51 C598.638519,1295.88523 598.3712,1293.23208 598.29,1290.57 C597.8,1277.96 597.11,1265.34 597.02,1252.73 C596.94,1240.34 592.02,1229.56 587.02,1217.91 C581.02,1220.07 576.48,1223.91 571.75,1227.25 C565.013435,1232.12198 557.354022,1235.56888 549.24,1237.38 C542.44,1238.87 535.84,1241.33 529.02,1242.78 C511.75,1246.47 505.96,1257.78 507.07,1274.58 C509.07,1305.01 508.21,1334.93 500.42,1364.58 C493.32,1391.58 486.78,1418.73 479.75,1445.74 C478.26,1451.47 479.98,1456.18 482.68,1460.8 C486.68,1467.68 490.79,1474.53 495.14,1481.21 C496.77324,1483.67925 498.82784,1485.84217 501.21,1487.6 C510.3,1494.33 519.38,1501.11 528.84,1507.28 C534.84,1511.21 536.3,1516.28 534.6,1522.58 C533.326186,1527.74022 531.502416,1532.74888 529.16,1537.52 C523.62,1548.13 517.81,1558.62 511.57,1568.83 C505.45,1578.83 495.57,1582.08 483.71,1582.24 C478.673065,1575.82693 474.742347,1568.6178 472.08,1560.91 C462.08,1531.91 448.98,1504.27 434.95,1477.04 C432.203801,1472.11169 430.527353,1466.65983 430.03,1461.04 C429.42,1452.11 427.8,1443.26 426.78,1434.36 C425.7,1424.97 426.53,1415.88 430.55,1407.08 C436.88,1393.24 439.06,1378.68 438.62,1363.39 C438.1,1345.78 438.62,1328.12 439.24,1310.5 C440,1289.93 441.02,1269.36 442.64,1248.85 C444.54,1224.85 453.78,1203.33 465.64,1182.61 C475.36,1165.61 487.07,1150.61 502.29,1138.34 C505.64,1135.64 508.51,1132.34 511.53,1129.23 C519.91,1120.65 528.3,1112.11 538.46,1105.56 C540.11236,1104.33076 541.682391,1102.99457 543.16,1101.56 C540.6,1093.05 538.06,1084.84 533.41,1077.47 C530.56,1072.97 527.89,1068.3 524.54,1064.19 C509.21,1045.39 501.21,1022.72 490.78,1001.31 C489.464355,998.627436 489.305336,995.522952 490.34,992.72 C491.6,988.59 492.15,984.25 493.46,980.15 C499.04,962.66 499.34,944.89 496.46,926.95 C493.98,911.22 491.46,895.49 488.71,879.81 C488.018184,875.891188 486.683538,872.113633 484.76,868.63 C476.425047,853.477513 469.328603,837.676054 463.54,821.38 C455.54,799.53 446.63,778.02 437.85,756.47 C427.55,731.23 416.94,706.12 406.53,680.93 C404,674.73 401,669 396,664.23 C391.28,659.68 387.16,654.49 381.8,648.49 C380.54,652.34 379.41,654.92 378.85,657.61 C376.583333,668.676667 374.416667,679.763333 372.35,690.87 C371.733969,694.750327 369.995876,698.365561 367.35,701.27 L366.692927,702.008746 L366.692927,702.008746 L366.15,702.64 L366.15,702.64 C363.69,697.83 345.85,676.64 296.75,653.4 C298,630 302.91,571.2 305.45,556 C307.99,540.8 312.73,485.91 310.53,480.66 L302.53,461.66 L308.29,458.27 C307.512486,455.994795 306.549241,453.78736 305.41,451.67 C304.06,449.47 290.17,431.36 287.97,430.34 C285.77,429.32 281.88,427.12 279.34,427.97 C273.41,421.54 251.76,402.7 251.76,402.7 L251.468339,402.515531 C255.172039,403.741486 259.165493,403.08092 263.42,401.92 C288.492578,395.257761 314.32739,391.896042 340.27,391.92 Z M166.57,658.31 C167,663.69 169.32,679.31 168.99,681.82 C172.72,673.71 173.06,673.12 178.31,671.17 C183.56,669.22 203,665 209,665.33 C215,665.66 255.13,671.17 255.13,671.17 C255.13,671.17 258.94,675.07 260.81,676.51 C262.68,677.95 270.88,679.05 279.6,681.33 C288.32,683.61 289.6,685.39 289.5,683.02 C289.4,680.65 288.16,677.69 289.5,678.28 C290.84,678.87 312.86,688.78 320.64,693.86 C328.42,698.94 343.33,709.35 344.52,712.74 C345.678037,716.038946 338.966484,726.421471 338.605111,726.97683 C338.208656,727.035736 337.813355,727.107747 337.42,727.19 L311.73,765.75 C318.19,776.07 319.36,787.18 319.83,798.36 C319.920226,801.307338 319.1823,804.220935 317.7,806.77 C310.58,818.55 302.18,829.31 289.16,835.08 C276.89,840.53 264.71,846.57 251.88,850.21 C244.6,852.28 236.09,850.21 228.16,849.61 C226.44,849.47 224.64,847.82 223.25,846.48 C212.243333,835.893333 201.3,825.226667 190.42,814.48 C189.201101,813.334285 188.283958,811.905328 187.75,810.32 C183.15,794.75 174.75,780.42 172.75,764 C172.2,759.39 171.57,754.78 171.41,750.15 C170.64,728.9 170.16,707.63 169.26,686.39 C168.94,678.79 167.58,671.25 166.96,663.66 C166.799534,661.695375 166.492359,659.683728 166.53933,657.729472 C166.543746,657.918526 166.55419,658.112188 166.57,658.31 Z M355.4,718.4 C353.924771,720.907889 352.223628,722.841582 350.22959,724.21333 C350.314054,724.143084 350.397558,724.07237 350.48,724 C352.84266,721.925991 354.522422,719.694829 355.841556,717.656277 C355.692631,717.904131 355.546101,718.152083 355.4,718.4 Z M118.1,372.85 C123.1,373.56 126.67,373.18 129.29,374.62 C140.42,380.76 152.91,381.11 164.87,383.62 C175.92,385.95 187.07,387.83 198.19,389.85 C202.792425,390.713916 207.019153,392.968637 210.3,396.31 C214.58,400.46 219.17,404.31 224.36,408.92 L245.97,398.92 C246.065646,399.019732 246.161534,399.117401 246.257662,399.213039 L245.92,399 L224.31,409 C224.31,409 243.83,425.46 254.66,439.51 C255.34,445.44 254.66,448.82 256.35,451.19 C258.04,453.56 269.05,468.12 271.25,471.34 C273.45,474.56 274.13,473.88 275.49,473.2 C276.580251,472.709231 277.711196,472.314404 278.87,472.02 C278.87,472.02 284.8,478.96 284.97,482.02 C285.14,485.08 280.56,575.47 266.97,639.3 C260.2,640.82 259.35,640.48 257.49,647.93 C241.24,646.41 210.59,643.19 204.67,644.04 C198.75,644.89 169.68,650.62 169.68,650.62 C169.68,650.62 169.564629,650.695284 169.378073,650.850324 C169.465645,650.767075 169.556501,650.683283 169.65,650.6 C170.41,649.92 170.52,648.09 170.36,646.87 C168.245642,631.409521 167.173224,615.82437 167.15,600.22 C167.15,597.22 165.15,594 163.6,591.22 C154.6,575.46 148.07,559.15 148.52,540.42 C148.87,525.82 147.17,511.18 147.52,496.6 C147.98,478.6 151.15,460.98 160.42,445.03 C161.42,443.33 162.3,441.57 163.61,439.13 L152.51,424 C160.22,423.34 164.44,433 172.51,428.91 C171.21,424.39 167.65,423.52 164.98,421.91 C158.06,417.91 151.67,413.36 146.48,407.07 C139.3,398.36 131.58,390.07 124.2,381.55 C122.32,379.37 120.86,376.82 118.1,372.85 Z M219.25,515.5 C219.25,515.5 204.52,520.07 201.98,520.07 C199.44,520.07 192.62,526.57 193,531.08 C193.35,534.82 192.67,539.2 197.58,540.22 C202.49,541.24 205.87,540.73 208.24,538.02 C210.61,535.31 214.17,534.12 215.01,529.72 C215.85,525.32 219.25,515.5 219.25,515.5 Z" id="colour" fill="#FFFFFF" style="mix-blend-mode: overlay;"></path>
    </g>
</svg>