<?xml version="1.0" encoding="UTF-8"?>
<svg width="2048px" height="2048px" viewBox="0 0 2048 2048" version="1.1" xmlns="http://www.w3.org/2000/svg" xmlns:xlink="http://www.w3.org/1999/xlink">
    <title>poses/horses_18</title>
    <g id="poses/horses_18" stroke="none" stroke-width="1" fill="none" fill-rule="evenodd" opacity="0.8">
        <path d="M493.773963,227.090719 C524.61,235.17 553.11,249.82 579.22,267.09 C588.932186,273.525968 597.685503,281.302954 605.22,290.19 C612.63,299.01 621.6,304.44 631.75,308.6 C637.46,310.94 642.34,313.95 645.75,319.2 C655.64,334.2 669.54,345.05 684.15,354.94 C690.38,359.16 695.67,363.94 699.21,370.5 C703.36,378.24 709.39,384.4 715.78,390.23 C724.13,397.85 732.5,405.45 740.97,412.92 C751.47,422.16 757.5,432.68 756.33,447.68 C754.99,464.76 760.07,481.16 765.96,497.19 C770.88,510.58 778.96,521.68 788.49,532.05 C797.04,541.34 804.94,551.21 813.25,560.72 C816.44,564.37 818.4,568.33 818.34,573.28 C818.28,577.93 818.56,582.59 818.54,587.28 C818.54,592.28 818.41,597.21 821.16,601.79 C823.38,605.48 822.92,609.46 821.27,613.32 C817.21,622.78 813.55,632.45 808.9,641.62 C806.32,646.71 806.61,650.91 808.9,655.72 C811.42,661.09 813.52,666.66 816.25,673.22 C823.64,672.61 831.79,671.75 839.97,671.37 C843.18,671.22 846.79,671.37 849.63,672.71 C878.3,685.82 909,692 939.37,699.35 C953.58,702.82 967.71,706.61 981.92,710.06 C986.734979,711.284602 991.635589,712.143713 996.58,712.63 C1009.15,713.74 1021.76,714.39 1034.33,715.42 C1056.17,717.213333 1078.00333,719.09 1099.83,721.05 C1111.73,722.13 1123.65,723.2 1135.49,724.78 C1147.59,726.41 1159.36,723.78 1171.18,722.5 C1205.53,718.74 1239.89,715.57 1274.46,714.5 C1288.36,714.09 1302.21,711.75 1316.08,710.36 C1318.68691,710.081795 1321.3116,710.008237 1323.93,710.14 C1337.85,710.93 1351.76,712.14 1365.69,712.62 C1403.69,713.82 1441.27,717.13 1477.9,728.13 C1504.9,736.26 1532.19,743.77 1559.27,751.82 C1564.96292,753.669341 1570.50303,755.959611 1575.84,758.67 C1612.15333,776.003333 1648.43667,793.376667 1684.69,810.79 C1693.37,814.94 1699.25,822.29 1705.79,828.86 C1708.9,831.98 1711.6,834.75 1716.57,834.94 C1719.69,835.05 1722.89,836.86 1725.78,838.42 C1734.55,843.17 1743.07,848.42 1751.92,852.99 C1758.7338,856.465402 1764.83848,861.182968 1769.92,866.9 C1789.71,889.32 1810.13,911.23 1829.01,934.39 C1839.23,946.94 1847.01,961.52 1855.52,975.39 C1866.31,992.98 1878.1,1009.87 1889.84,1026.83 C1904.6,1048.13 1917.62,1070.64 1931.42,1092.61 C1951.16,1124.05 1963.77,1158.9 1979.14,1192.43 L1981.63243,1197.87064 C1987.02991,1209.66147 1992.38533,1221.47933 1997.23,1233.5 C2004.47,1251.5 2009.23,1269.98 2009.57,1289.63 C2009.94,1309.53 2011.78,1329.4 2012.51,1349.29 C2012.7756,1355.2419 2012.10064,1361.19844 2010.51,1366.94 C2005.3,1384.81 1999,1402.36 1993.94,1420.27 C1990.66,1431.91 1983.41,1440.8 1976.67,1450.13 C1974.67,1450.23 1973.06,1450.37 1971.4,1450.39 C1952.4,1450.67 1952.32,1450.71 1940.86,1435.79 C1939.0682,1433.45756 1937.81798,1430.75557 1937.2,1427.88 C1931.98,1401.5 1926.54,1375.14 1922.2,1348.6 C1920.89,1340.6 1922.6,1332.1 1923.2,1323.85 C1924.2,1310.62 1925.75,1297.43 1926.58,1284.19 C1926.82,1280.36 1925.81,1276.32 1924.75,1272.56 C1914.8,1237.38 1904.87,1202.2 1894.62,1167.11 C1887.91,1144.11 1880.62,1121.34 1873.73,1098.42 C1872.0162,1092.70002 1869.28222,1087.33708 1865.66,1082.59 C1843.93,1053.59 1822.37,1024.46 1800.72,995.38 C1799.56,993.82 1798.16,992.38 1796.14,990.13 C1795.21,995.27 1797.14,998.81 1798.72,1002.13 C1804.15,1013.76 1804.25,1026.06 1803.4,1038.36 C1802.23,1055.24 1800.54,1072.09 1798.65,1088.91 C1797.96348,1093.50063 1796.65128,1097.97557 1794.75,1102.21 C1788.19,1118.21 1781.54,1134.21 1774.62,1150.02 C1770.07,1160.42 1766.34,1171.02 1764.38,1182.2 C1761.09,1200.99 1753.55,1218.49 1747.28,1236.35 C1742.43,1250.14 1737.39,1263.78 1735.58,1278.45 C1734.11,1290.39 1729.86,1301.45 1724.58,1312.45 C1701.52,1360.45 1679.04,1408.63 1656.11,1456.65 C1652.11,1464.98 1651.63,1473.94 1649.63,1482.65 C1647.43361,1491.67426 1647.18814,1501.06331 1648.91,1510.19 C1650.34,1517.67 1647.83,1525.93 1646.91,1533.83 C1646.39,1538.44 1645.49,1543.02 1644.98,1547.64 C1644.16,1555.03 1642.69,1561.92 1636.19,1566.85 C1634.24,1568.32 1633.3,1571.17 1632.05,1573.47 C1631.65353,1574.3904 1631.41356,1575.37055 1631.34,1576.37 C1628.82,1593.12 1619.78,1606.26 1609,1618.82 C1590.48,1640.41 1590.69,1640.52 1563.48,1654.6 C1538.08,1667.74 1512.78,1681.07333 1487.58,1694.6 C1481.48782,1698.03511 1475.61939,1701.85276 1470.01,1706.03 C1438.24,1728.69 1404.08,1747.33 1369.85,1765.88 C1368.39,1766.67 1366.48,1767.04 1365.47,1768.21 C1359.82,1774.72 1352.89,1776.83 1344.32,1776.47 C1338.92,1776.24 1336.32,1781.57 1333.73,1785.01 C1336.55,1791.27 1339.73,1796.76 1341.5,1802.67 C1343.47693,1808.98717 1344.61665,1815.53637 1344.89,1822.15 C1345.4,1840.88 1350.42,1858.9 1352.89,1877.31 C1352.89324,1877.64652 1352.85632,1877.98223 1352.78,1878.31 C1345.56,1881.96 1324.36,1886.98 1315.4,1887.04 C1304.75,1887.11 1294.05,1886.43 1283.4,1887.21 C1268.4,1888.31 1255.6,1882.21 1241.4,1876.36 C1246.99,1861.61 1247.7,1845.36 1258.32,1833.01 C1270.95,1818.28 1275.77,1800.45 1279.92,1782.21 C1282.42,1771.21 1285.36,1760.27 1287.6,1749.21 C1288.81478,1742.32656 1291.99215,1735.94058 1296.75,1730.82 C1301.3,1725.98 1305.22,1720.54 1309.89,1715.82 C1314.56,1711.1 1319.38,1706.48 1324.82,1702.82 C1377.01,1667.72 1429.39,1632.92 1483.07,1600.11 C1489.81,1596 1496.74,1591.88 1499.53,1582.84 C1489.96,1581.65 1480.85,1580.2 1471.68,1579.47 C1462.4118,1578.57771 1453.09831,1578.24377 1443.79,1578.47 C1421.04,1579.38 1398.69,1575.93 1376.25,1573.3 C1364.73,1571.95 1353.18,1570.93 1341.65,1569.73 C1340.66853,1569.71775 1339.70327,1569.47815 1338.83,1569.03 C1332.64,1564.82 1329.1,1568.96 1325.14,1573.25 C1326.61,1583.25 1328.53,1593.35 1329.46,1603.51 C1330.88,1619.13 1330.69,1634.72 1324.93,1650.39 C1318.57196,1652.86997 1311.66339,1653.59192 1304.93,1652.48 C1283.2941,1648.68651 1262.23511,1642.12952 1242.27,1632.97 C1235.52,1629.91 1233.91,1625.22 1237.33,1618.53 C1246.98,1599.67 1259.41,1582.9 1276.13,1569.76 C1283.18877,1564.18283 1288.64669,1556.83775 1291.95,1548.47 C1295.52,1539.93 1299.22,1531.47 1306.53,1525.02 C1315.30733,1517.37612 1325.40154,1511.3921 1336.32,1507.36 C1339.79565,1506.23334 1343.45473,1505.7819 1347.1,1506.03 C1371.01,1506.79 1394.91,1508.03 1418.83,1508.6 C1446.76,1509.3 1474.7,1509.6 1502.64,1509.94 C1510.64,1510.05 1518.54,1509.94 1527.55,1509.94 C1526.66,1507.21 1526.19,1505.48 1525.55,1503.8 C1521.02333,1492.03333 1516.46667,1480.26667 1511.88,1468.5 C1511.04,1466.35 1510.46,1463.99 1509.14,1462.17 C1492.97,1439.8 1482.59,1414.63 1474.04,1388.69 C1470.71842,1378.24361 1465.64626,1368.43742 1459.04,1359.69 C1439.04,1333.53 1419.23333,1307.23333 1399.62,1280.8 C1381.62,1256.47 1363.92,1231.96 1348.47,1205.87 C1342.38,1195.59 1335.24,1185.87 1328.39,1176.1 C1324.05,1169.88 1323.75,1169.83 1316.95,1171.67 C1269.1,1184.58 1221.18,1197.37 1175.95,1218.22 C1159.4,1225.86 1141.53,1228.22 1124.15,1232.56 C1095.95,1239.66 1067.08,1241.87 1038.29,1244.88 C1012.76,1247.55 987.29,1249.5 961.56,1248.66 C934.56,1247.77 907.62,1247.66 880.71,1246.14 C867.18,1245.35 853.81,1241.86 840.32,1239.88 C832.43,1238.71 824.46,1237.41 816.52,1237.38 C798.44,1237.31 780.75,1234.18 762.96,1231.75 L759.632695,1231.29433 C736.340682,1228.10599 713.016364,1225.00545 688.79,1225.75 C684.41,1232.85 679.95,1240.23 675.35,1247.51 C658.81,1273.65 642.77,1300.14 625.49,1325.78 C609.64,1349.29 595.88,1373.93 582.49,1398.83 L581.950481,1399.83203 C578.471354,1406.27904 574.846393,1412.47574 565.11,1415.68 C569.48,1416.92 571.42,1417.81 573.43,1417.99 C627.35,1422.87 679.16,1437.93 731.43,1450.62 C737.72,1452.14 741.85,1456.51 745.93,1460.71 C750.23,1465.12 754.75,1467.59 760.93,1466.71 C761.921188,1466.52226 762.938812,1466.52226 763.93,1466.71 C786.82,1472.3 805,1460.77 823.48,1450.35 L824.086432,1449.99618 C825.604567,1449.10723 827.165294,1448.16882 829.38,1446.81 C838.82,1459.07 844.09,1473.52 851.79,1486.5 C859.49,1499.48 866.98,1512.92 871.53,1528.04 C864.837265,1529.74608 857.844048,1529.9068 851.08,1528.51 C823.56,1523.46 795.7,1521.66 767.88,1519.51 C762.912482,1519.16317 757.92239,1519.6774 753.13,1521.03 C742.77,1523.93 732.24,1524.91 721.61,1525.22 C718.650928,1525.40304 715.685889,1524.97412 712.9,1523.96 C703.72,1520.08 694.45,1516.27 685.75,1511.47 C678.209442,1507.2838 670.106715,1504.20234 661.69,1502.32 C612.423333,1491.12667 563.186667,1479.79333 513.98,1468.32 C508.8,1467.12 503.74,1465.32 498.54,1464.32 C489.06,1462.32 481.54,1457.22 474.86,1450.53 C470.49,1446.15 467.29,1441 467.26,1434.76 C467.2,1420.16 467.75,1405.55 467.76,1390.94 C467.76,1375.58 473.98,1361.77 478.71,1347.72 C489.04,1317.09 497.07,1285.86 504.58,1254.48 C507.05,1244.16 508.58,1233.61 510.42,1223.14 C510.74,1221.3 510.42,1219.35 510.42,1216.2 C496.01,1220.89 482.14,1224.43 469.05,1229.87 C439.89,1241.99 411,1254.78 382.26,1267.87 C370.194889,1273.47429 358.462174,1279.76802 347.12,1286.72 C329.81,1297.17 310.66,1302.57 291.7,1308.72 C281.31,1312.1 271.37,1316.85 261.16,1320.79 C255.4,1323.01 253.72,1327.41 252.74,1333.07 L251.660285,1339.30453 C248.957232,1354.8936 246.192353,1370.49412 242.61,1385.9 C239.75,1398.17 234.76,1409.9 231.54,1422.14 C226.29,1442.04 221.47,1462.06 216.92,1482.14 C211.27,1507.14 206.03,1532.14 200.77,1557.14 C200.339101,1560.0814 198.836118,1562.7597 196.55,1564.66 C190.89,1569.29 185.64,1574.43 179.9,1578.94 C175.636466,1582.1608 172.291929,1586.44318 170.2,1591.36 C166.91,1599.36 163.94,1607.44 160.85,1615.5 C160.585823,1616.13228 160.466244,1616.81559 160.5,1617.5 C161.69,1630.31 161.5,1643.43 168.57,1654.99 C171.69,1659.89 174.69,1664.63 178.68,1671.06 C146.68,1685.13 114.36,1694.33 82.68,1705.28 C80.29,1706.11 77.56,1705.98 74.6,1706.28 C73.1,1696.67 73.5,1688.14 76.77,1679.4 C87.49,1650.73 97.48,1621.8 108.22,1593.15 C111.4,1584.69 111.16,1576.49 110.61,1567.76 C109.75,1554.28 109.29,1540.59 115.61,1527.9 C121.13,1516.9 126.61,1505.9 132.05,1494.9 C133.506355,1491.92273 134.700861,1488.82438 135.62,1485.64 C145.83,1449.5 155.48,1413.18 166.32,1377.23 C171.49,1360.08 178.76,1343.56 185.32,1326.84 C194.62,1302.98 204.2,1279.23 213.44,1255.35 C215.957408,1248.48027 220.299704,1242.42664 226,1237.84 C233.742735,1231.54187 241.0123,1224.68341 247.75,1217.32 C261.41,1202.45 277.38,1190.32 294.42,1180.06 C313.58,1168.49 328.98,1153.76 342.42,1135.95 C364.2,1106.95 387.07,1078.87 409.83,1050.68 C414.43,1044.98 416.29,1039.42 414.83,1032.37 C413.67,1026.86 413.17,1021.21 412,1015.7 C411,1010.83 411.36,1006.6 414.92,1002.77 C420.39,996.89 422.43,989.55 422.92,981.77 C423.3,975.46 423.6,969.13 423.48,962.82 C422.92,933.91 424.48,905.1 426.63,876.28 C427.11,869.7 426.26,863.03 425.98,856.4 C425.65,848.77 425.26,841.14 424.92,833.51 C424.23,817.58 422.77,801.63 423.15,785.73 C423.39,775.9 426.25,766.1 428.25,756.35 C434.79,724.45 442.55,692.75 447.78,660.64 C452.28,633.08 459.32,606.09 463.78,578.55 C464.965004,571.700878 464.965004,564.699122 463.78,557.85 C461.49,544.85 459.97,531.68 457.96,517.39 C455.23,518.8 453.1,519.39 451.58,520.76 C441.58,529.53 431.79,538.51 421.82,547.3 C417.9,550.75 414.22,555.05 407.82,552.71 C406.82,552.34 405.28,553.13 404.09,553.62 L404.037993,553.156265 C402.141196,537.609504 382.4794,498.1386 378.46,489.09 C374.4,479.95 361.45,464.2 365,458.87 C374.259834,446.277038 384.156026,434.164633 394.65,422.58 C413.97,401.18 438.05,377.34 446.97,367.73 C463.22,350.22 486.84,323.03 487.6,319.22 C488.36,315.41 492.68,298.65 492.68,298.65 L492.68,298.65 L499.28,299.92 L502.1,294.59 C502.1,294.59 501.6,270.22 502.1,266.15 C502.6,262.08 495.16,257 495.16,257 L495.16,257 L495.16,242.38 L493.773963,227.090719 Z M249.67,409.09 C253.98,407.57 271.72,415.48 278.36,418.74 C284.8008,421.9022 313.221024,450.4687 314.920441,452.179844 L315,452.26 L316,460.39 L335.54,483.18 L340.11,484.18 C340.11,484.18 339.86,482.95 342.4,481.18 C347.48,486.51 373.9,546.19 376.18,550.25 C378.46,554.31 374.65,553.81 369.29,559.81 C369.299365,559.817765 369.308727,559.825517 369.318089,559.833256 C367.981095,559.606241 366.59955,559.654972 365.26,559.99 C347.26,565.76 329.37,571.89 311.9,577.76 C311.32,578.96 310.69,579.64 310.81,580.12 C312.71,587.77 310.81,594.36 305.88,600.42 C303.85382,603.061241 302.120334,605.91462 300.71,608.93 C299.228007,611.954964 296.468519,614.156683 293.19,614.93 C286.5,616.93 279.92,619.39 273.12,620.77 C268.36,621.77 263.29,621.05 258.37,621.34 C241.45,622.34 225.5,617.09 209.65,612.71 C198.11,609.53 188.84,601.16 180.98,591.91 C179.58,590.26 179.07,587.78 178.41,585.6 C174.103806,570.904397 171.944808,555.663426 172,540.35 C171.87,515.04 177.77,491.11 195.06,471.12 C205.93,458.56 216.06,445.36 226.66,432.55 C228.96,429.77 231.86,427.5 234.36,424.88 C237.292219,421.7988 240.086863,418.763459 241.784346,414.951029 L241.73,415.09 C241.73,415.09 245.36,410.61 249.67,409.09 Z M399.891306,555.345836 L404.09,553.62 C397.656667,556.253333 391.253333,558.92 384.88,561.62 L385.38233,561.399784 C390.40437,559.202555 394.123391,557.707888 399.891306,555.345836 Z M407.02,120.26 C412.68,133.44 423.57,142.62 432.21,153.49 C439.44,162.6 447.4,171.12 454.61,180.24 C457.15271,183.662086 459.059689,187.513304 460.24,191.61 C462.19,197.94 463.36,204.5 465.11,212.05 L465.134968,212.052411 C465.394375,213.294954 464.13,219.36 464.13,219.36 C464.13,219.36 466.04,219.48 466.29,220.5 C466.535,221.4996 465.809996,251.147932 465.780898,252.333465 L465.78,252.37 L460.07,258.09 C460.07,258.09 458.93,284.34 458.42,286.91 C457.91,289.48 458.32,291.91 460.32,292.91 C461.790721,293.476201 463.419279,293.476201 464.89,292.91 C464.89,292.91 464.51,303.54 462.1,308.27 C459.69,313 440.52,332.27 432.01,342.43 C423.5,352.59 395.82,380.64 387.31,388.66 C378.8,396.68 350.49,426.23 345.15,431.57 C343.5,429.79 336.9,429.16 335.63,429.92 C334.36,430.68 335.63,430.55 331.69,433.22 C328.9,431.69 291.19,399.32 291.19,399.32 C291.19,399.32 263.13,385.34 255.7,389.4 C255.662414,389.420538 255.624914,389.441198 255.5875,389.461976 C257.013,388.353111 258.532466,387.300506 260.13,386.31 C261.709524,385.12484 262.925465,383.520907 263.64,381.68 C270.84,365.35 281.52,351.38 293.02,337.98 C296.657829,333.731467 299.183438,328.645886 300.37,323.18 C303.12,311.58 307.32,300.32 310.98,288.94 C311.341474,287.665407 311.964737,286.480186 312.81,285.46 C326.46,270.29 335.07,251.58 347.74,235.76 C361.32,218.82 378.13,206.14 398.85,199.11 C402.22,197.96 405.94,197.83 410.65,197.04 C399.33,170.91 402.19,143.5 400.72,116.46 C404.72,115.37 406.1,118.11 407.02,120.26 Z M243.843778,405.955484 L243.82,406.17 C243.694728,407.614447 243.471598,409.046831 243.15289,410.457423 C243.240892,409.946265 243.310561,409.420741 243.36,408.88 C243.451679,407.891409 243.614367,406.916116 243.843778,405.955484 Z M364.41,288.21 C360.26,288.89 353.49,293.54 350.78,298.11 C348.07,302.68 346.34,305.39 346.34,307.17 C346.34,308.46 346.93,309.54 354.34,308.44 C361.75,307.34 366.53,307.68 369.15,305.65 C371.77,303.62 384.56,293.46 384.56,293.46 C384.56,293.46 368.56,287.53 364.41,288.21 Z M492.805963,216.405719 L492.77,216.25 C493.246969,218.105411 493.268939,219.831147 493.269951,221.522697 L492.805963,216.405719 Z" id="colour" fill="#FFFFFF" style="mix-blend-mode: overlay;"></path>
    </g>
</svg>