<?xml version="1.0" encoding="UTF-8"?>
<svg width="2048px" height="2048px" viewBox="0 0 2048 2048" version="1.1" xmlns="http://www.w3.org/2000/svg" xmlns:xlink="http://www.w3.org/1999/xlink">
    <title>poses/horses_06</title>
    <g id="poses/horses_06" stroke="none" stroke-width="1" fill="none" fill-rule="evenodd" opacity="0.8">
        <path d="M549.868079,230.397286 L549.913353,230.462699 C553.38816,235.431595 557.191954,240.16473 561.3,244.63 C573,257.79 585,270.67 597,283.55 C599.155555,286.043744 601.718593,288.153685 604.58,289.79 C611.67,293.42 616.87,298.95 620.93,305.48 C628.82,318.2 640.19,327.48 651.58,336.58 L652.831922,337.58296 C660.74585,343.9339 668.343,350.3065 673.72,359.17 C681.93,372.73 694.1,382.83 705.47,393.5 C714.47,401.96 722.95,410.5 729.07,421.5 C734.86,431.93 742.29,441.44 748.92,451.41 C750.75,454.17 752.76,456.97 753.86,460.05 C759.73,476.53 769.38,490.79 779.17,505.05 C785.72,514.62 791.17,524.95 796.99,535.05 C801.32,542.52 805.62,550.05 809.63,557.67 C811.93,562.06 813.39,566.88 815.63,571.29 C824.12,587.87 832.42,604.57 841.48,620.83 C850.12,636.35 855.3,653.19 861.58,669.62 C867.86,686.05 873.78,702.7 880.03,719.19 C881.44,722.9 883.81,726.19 885.33,729.92 C887.65,735.51 891.73,739.03 897.14,741.39 C908.14,746.17 918.93,751.39 930.03,755.78 C935.32,757.9 939.32,760.65 941.21,766.15 C943.36,772.42 947.89,776.44 953.4,780 C967.67,789.2 981.51,799 995.72,808.32 C1007.72,816.16 1020.3,822.91 1034.06,827.32 C1037.43,828.4 1040.43,830.72 1043.46,832.69 C1045.13016,833.795266 1046.6409,835.124309 1047.95,836.64 C1063.95,854.93 1085.43,857.3 1103.07,856.35 C1124.34,855.2 1145.53,852.82 1166.79,851.5 C1179.39,850.72 1192.06,851.06 1204.69,850.67 C1213.69,850.4 1222.63,849.55 1231.62,849.36 C1236.9284,849.305289 1242.23427,849.616023 1247.5,850.29 C1265.01,852.34 1282.5,854.66 1300,856.72 C1310.24,857.93 1320.5,859.11 1330.79,859.84 C1349.52,861.16 1367.46,865.91 1385.17,871.78 C1390.54,873.56 1395.86,875.5 1401.31,877.03 C1419.17,882.03 1434.85,890.86 1449.62,902.08 C1468.69285,916.597408 1489.10111,929.270954 1510.57,939.93 C1526.05,947.59 1540.95,956.43 1555.99,964.93 C1558.54758,966.383116 1560.70787,968.443809 1562.28,970.93 C1582.73,1004.81 1602.95,1038.83 1623.41,1072.7 C1625.68889,1076.32856 1626.94324,1080.50626 1627.04,1084.79 C1627.4,1096.06 1628.12,1107.33 1629.1,1118.57 C1629.35,1121.39 1630.88,1124.18 1632.19,1126.81 C1641.19,1144.94 1650.97,1162.81 1659.31,1181.21 C1665.72,1195.4 1674.71,1207.37 1684.97,1218.84 C1704.74,1240.94 1726.38,1261.03 1748.72,1280.43 C1753.22152,1284.33172 1758.73918,1286.87379 1764.63,1287.76 C1781,1290.58 1797.27,1294.02 1813.51,1297.53 C1817.7089,1298.47343 1821.75028,1300.01588 1825.51,1302.11 C1839.21,1309.61 1852.75,1317.43 1866.34,1325.11 C1867.5,1325.76 1868.54,1326.6 1869.66,1327.32 C1877.46,1332.32 1882.82,1338.48 1880,1348.66 C1879.75135,1350.08289 1879.63419,1351.52564 1879.65,1352.97 C1873.25,1357.74 1866.56,1360.97 1857.96,1360.9 C1837.68,1360.75 1817.39,1361.52 1797.1,1361.66 C1792.79949,1361.7545 1788.5126,1361.14306 1784.41,1359.85 C1765.82,1353.58 1747.34,1346.99 1728.88,1340.35 C1725.76027,1339.26832 1722.83338,1337.69516 1720.21,1335.69 C1699.64,1319.4 1679.01,1303.19 1659.44,1285.69 C1652.26889,1279.29872 1646.18897,1271.77989 1641.44,1263.43 C1631.88,1246.74 1621.67,1230.43 1611.16,1213.01 C1607.66266,1217.58275 1605.93337,1223.2642 1606.29,1229.01 C1606.87,1241.94 1607.7,1254.87 1608.56,1267.79 C1608.89,1272.79 1609.98,1277.67 1609.98,1282.61 C1610.00771,1286.57675 1609.37576,1290.52051 1608.11,1294.28 C1594.06,1334.1 1580.4,1374.08 1565.34,1413.52 C1559.56,1428.66 1558.8,1443.88 1558.34,1459.44 C1558.07,1468.09 1558.71,1476.78 1558.21,1485.44 C1557.21,1503.32 1555.75,1521.19 1554.21,1539.03 C1553.9,1542.59 1552.43,1546.1 1551.21,1549.51 C1549.6,1553.87 1547.67,1558.12 1545.87,1562.41 C1536.48,1584.73 1536.43,1584.68 1520.3,1602.11 C1505.63,1617.97 1490.89,1633.76 1476.6,1649.95 C1469.8,1657.66 1464.14,1666.36 1457.71,1674.41 C1440.9,1695.41 1423.95,1716.41 1407.05,1737.31 C1405.17,1739.64 1402.73,1741.67 1401.41,1744.31 C1397.87,1751.31 1393.97,1757.03 1385.23,1758.83 C1381.86,1759.52 1379.4,1764.68 1377,1767.3 C1377,1768.95 1376.76,1769.74 1377,1770.23 C1384.61,1783.85 1387.13,1798.78 1389.13,1814.02 C1390.65,1825.51 1393.7,1836.8 1396.03,1848.19 C1396.43,1850.11 1396.69,1852.05 1397.03,1854.34 C1389.96645,1859.4537 1381.48983,1862.24896 1372.77,1862.34 C1363.47,1862.52 1354.1,1863.84 1344.89,1863.09 C1331.34,1861.99 1317.89,1859.72 1304.45,1857.48 C1299.67,1856.68 1298.83,1854.48 1299.8,1849.36 C1302.44,1835.28 1305.59,1821.46 1314.7,1809.72 C1320.89,1801.72 1320.7,1791.55 1322.7,1782.24 C1326.14,1765.99 1328.53,1749.52 1331.76,1733.24 C1332.57,1729.12 1334.66,1725.17 1336.59,1721.36 C1345.48,1703.8 1357.2,1688.04 1368.14,1671.76 C1390.64,1638.3 1416.3,1607.36 1442.35,1576.69 C1445.14494,1573.44634 1447.39731,1569.77231 1449.02,1565.81 C1455.82,1548.48 1462.19,1530.98 1468.87,1513.6 C1470.49,1509.39 1471.04,1505.45 1469.47,1501.05 C1466.02333,1491.37 1462.76333,1481.62333 1459.69,1471.81 C1456.69,1462.3 1454.1,1452.68 1451.26,1443.13 C1448.02667,1432.32333 1444.75333,1421.53333 1441.44,1410.76 C1436.77333,1395.51333 1432.10667,1380.27 1427.44,1365.03 C1426.44,1361.88 1425.68,1358.69 1424.73,1355.22 C1420.1,1361.31 1416.63,1373.77 1417.19,1381.11 C1418.54,1398.65 1419.7,1416.19 1421.19,1433.71 C1421.53028,1437.98375 1422.43481,1442.19365 1423.88,1446.23 C1429.61,1461.83 1435.57,1477.35 1441.63,1492.83 C1444.00267,1498.67741 1445.21846,1504.92956 1445.21,1511.24 C1445.21,1519.85 1446.21,1528.47 1446.21,1537.08 C1446.18933,1540.34855 1445.387,1543.56473 1443.87,1546.46 C1439.68,1554.4 1434.75,1561.94 1430.54,1569.87 C1428.64509,1573.80377 1424.97786,1576.58953 1420.68,1577.36 C1407,1580.14 1393.36,1583.17 1379.6,1585.52 C1361.26,1588.65 1342.72,1590.7 1324.46,1594.2 C1310.77,1596.83 1297.46,1601.59 1283.84,1604.35 C1265.95,1607.97 1247.84,1610.56 1229.84,1613.56 C1224.95,1614.37 1219.78,1614.35 1215.23,1616.03 C1211.88,1617.26 1209.31,1620.64 1206.23,1623.23 C1214.97,1646.42 1224.89,1668.55 1218.16,1694.23 C1202.23,1694.92 1186.16,1692.64 1170.16,1690.95 C1159.47,1689.83 1148.5,1689.22 1138.3,1685.44 C1140.9,1667.31 1146.08,1650.32 1157.06,1637.05 C1166.61,1625.49 1169.53,1612.41 1172.8,1599.05 C1176.97,1582.05 1187.8,1570.51 1201.27,1560.82 C1203.35,1559.32 1206.11,1558.6 1208.67,1557.98 C1231.29,1552.56 1254.03,1547.62 1276.55,1541.78 C1299.68,1535.78 1322.65,1529.11 1345.55,1522.28 C1350.43,1520.82 1354.72,1517.38 1360.49,1514.19 C1356.63,1510.26 1353.78,1507.19 1350.73,1504.28 C1341.3,1495.39 1332.1,1486.21 1322.22,1477.83 C1309.14,1466.74 1300.7,1452.45 1293.81,1437.32 C1286.73,1421.79 1278.13,1407.26 1268.89,1393.02 C1243.51667,1353.94 1218.14,1314.86333 1192.76,1275.79 C1188.63,1269.41 1184.99,1262.71 1180.76,1255.62 C1177.34,1256.57 1174.17,1257.3 1171.1,1258.32 C1151.83,1264.67 1132.48,1270.8 1113.36,1277.58 C1096.65,1283.51 1079.44,1286.82 1062.01,1289.69 C1032.01,1294.62 1001.64,1294.27 971.41,1295.83 C965.88,1296.11 960.18,1294.68 954.66,1293.56 C929.57,1288.46 904.56,1282.93 879.42,1278.11 C869.01,1276.11 858.33,1275.51 847.77,1274.28 C836.39,1272.96 825.54,1270.06 816.23,1263.05 C801.14,1251.71 783.48,1245.46 766.53,1237.79 C762.9,1236.14 759.16,1234.73 755.53,1233.15 C740.19,1226.51 725.75,1218.42 712.83,1207.67 C706.96,1202.77 700.46,1198.67 694.53,1193.79 C682.53,1184.02 669.17,1176.79 655.29,1170.21 C650.785,1168.0792 646.478089,1165.55262 642.42,1162.66 C638.82,1160.08 635.5,1159.36 631.31,1161.01 C618.96,1165.9 606.31,1170.15 594.16,1175.39 C581.02,1181.04 568.02,1187.09 555.41,1193.82 C547.41,1198.1 539.88,1198.34 531.46,1195.82 C521.6,1192.82 511.52,1190.6 501.46,1188.19 C498.98,1187.59 496.36,1187.58 492.93,1187.19 C493.25,1196.55 494.27,1205.06 498.06,1212.71 C509.5,1235.84 516.57,1260.44 523.13,1285.21 C524.56,1290.62 524.91,1296.39 525.22,1302.02 C526.71,1329.28 527.86,1356.56 529.45,1383.81 C530.32,1398.73 532.38,1413.6 532.82,1428.52 C533.14,1438.97 533.52,1449.64 530.82,1459.94 C528.82,1467.56 529.77,1474.85 530.82,1482.55 C532.522593,1496.46147 538.266096,1509.56861 547.34,1520.25 C553.09,1527.14 558.12,1534.62 563.78,1541.59 C569.44,1548.56 570.71,1556.34 567.9,1564.89 C565.19,1573.17 561.43,1580.65 555.36,1587.19 C547.01,1596.19 539.65,1606.11 531.36,1615.19 C523.6,1623.72 513.85,1627.9 502.04,1625.82 C495.19,1624.62 488.34,1623.4 480.61,1622.03 C478.14,1609.11 472.44,1597.3 473.53,1583.41 C475.88,1553.34 470.81,1523.79 465.06,1494.41 C460.15,1469.29 456.5,1443.97 455.92,1418.36 C455.68,1408.1 457.1,1397.82 457.42,1387.55 C457.463978,1384.24797 456.981253,1380.96004 455.99,1377.81 C445.24,1341.47 434.19,1305.21 423.58,1268.81 C417.17,1246.81 410.83,1224.81 405.58,1202.47 C403.02,1191.58 402.98,1180.08 401.87,1168.86 C401.47,1164.75 402.87,1161.27 404.92,1157.61 C417.19,1136.19 432.19,1116.76 448.87,1097.11 C445.73,1096.3 443.41,1095.33 441.02,1095.11 C415.866667,1092.99667 390.706667,1090.96667 365.54,1089.02 C358.34,1088.46 351.12,1088.21 343.06,1087.78 C345.06,1097.78 347.13,1106.41 348.37,1115.21 C349.473875,1122.06448 349.83263,1129.01831 349.44,1135.95 C348.23,1151.49 345.71,1166.95 344.67,1182.48 C344.05,1191.68 345.34,1201.01 345.55,1210.29 C345.97,1228.29 348.65,1245.98 351.34,1263.7 C352.29,1269.98 352.74,1276.31 349.74,1282.29 C347.74,1286.29 348.32,1289.95 350.54,1293.64 C351.89779,1295.93392 353.094022,1298.31971 354.12,1300.78 C356.85,1307.19 361.12,1311.87 367.78,1314.43 C372.158572,1316.04592 376.341525,1318.14914 380.25,1320.7 C385.46,1324.22 391.25,1325.29 397.18,1326.06 C401.44,1326.61 405.68,1327.3 410.12,1327.95 C412.12,1333.81 411.77,1339.25 410.4,1344.79 C405.73,1363.55 399.24,1381.68 392.03,1399.6 C388.74,1407.79 381.75,1412.34 375.63,1418.54 C367.11,1413.54 359.52,1408.29 354.18,1399.71 C339.6,1376.29 324.53,1353.17 309.45,1330.06 C306.95,1326.23 303.96,1322.32 300.29,1319.71 C288,1311 280.86,1298 272.51,1286.12 C270.6,1283.39 270.06,1279.17 270.14,1275.66 C270.44,1262.39 271.26,1249.14 271.85,1235.87 C271.98,1232.87 271.99,1229.87 271.99,1226.87 C271.99,1196.23 271.89,1165.6 272.07,1134.96 C272.134982,1127.99007 272.686322,1121.03316 273.72,1114.14 C276.625169,1094.41994 277.035061,1074.4125 274.94,1054.59 C274.054985,1047.30679 274.054985,1039.94321 274.94,1032.66 C276.05,1024.66 280.4,1017.89 286.89,1012.72 C296.77096,1004.81549 308.079559,998.8845 320.2,995.25 C336.39,990.37 351.82,982.81 368.92,981.25 C376.84,980.51 384.83,980.42 392.76,979.67 C398,979.18 403.49,978.89 408.33,977.08 C433.300437,967.9292 458.971034,960.815944 485.09,955.81 C485.991721,955.556414 486.868633,955.221715 487.71,954.81 C488.03,954.05 488.71,953.24 488.47,952.89 C482.22,941.59 487.17,929.7 486.74,918.11 C486.51,911.87 488.22,905.58 488.32,899.3 C488.348852,894.309577 489.851785,889.438962 492.64,885.3 C495.92,880.3 498.87,875.07 502.04,869.99 C506.04,863.61 506.81,857.18 503.41,850.16 C500.51,844.16 498.54,837.76 495.57,831.83 C491.587296,823.76907 489.794016,814.802668 490.37,805.83 C490.84,795.53 490.37,785.19 490.5,774.83 C490.86,751.23 490.66,727.59 492.04,704.05 C492.91,689.14 494.85,674.31 494.53,659.3 C494.07,637.67 494.7,615.99 493.53,594.42 C492.81,581.58 489.53,568.86 487.25,556.13 C484.97,543.4 482.13,530.72 480.04,517.94 C478.35,507.58 474.21,498.31 469.04,488.39 C466.47,490.65 464.24,492.47 462.16,494.46 C453.5,502.72 444.92,511.07 436.22,519.3 C434.83,520.61 432.76,522.6 431.4,522.3 C427.539067,521.512573 424.529804,522.647855 421.74026,524.29248 C421.746717,521.405465 426.820165,510.426468 427.07,505.09 C427.32,499.75 424.78,476.9 420.46,456.33 C479.89,411.89 526.12,361.11 534.24,351.45 C542.36,341.79 550.23,328.34 552.77,320.72 C555.219286,313.372143 555.074298,299.533954 555.060818,298.554884 L555.06,298.5 C555.06,298.5 559.31,301.36 561.6,302.5 C563.89,303.64 565.2,301.09 567,299.38 C568.8,297.67 566,287.19 566,286.75 C566,286.31 563.87,270.22 563.19,262.27 C562.51,254.32 556.42,250.25 553.71,248.9 C553.54,246.53 551.02,235.86 549.96,230.75 C549.9388,230.6478 549.908032,230.530012 549.868079,230.397286 Z M250.01,349.98 C252.48,348.75 268.73,351.54 274.48,352.98 C280.23,354.42 330.28,388.37 335,391.58 C339.72,394.79 369.45,434.05 370.72,436.79 C371.99,439.53 371.31,446.22 373.09,450.79 C374.87,455.36 391.84,477.96 392.99,479.06 C394.14,480.16 397.14,477.54 397.14,477.54 C397.14,477.54 401.76,506.19 402.77,511.08 C403.78,515.97 397.68,524.17 394.7,527.78 C393.111778,529.703987 388.257016,528.565949 384.068717,527.08326 C386.512644,527.771722 388.950862,528.518638 391.44,528.75 C392.57,528.86 393.89,527.04 396.26,525.24 L382.48,525.24 L382.245568,526.403257 C379.411423,525.295214 377.24,524.22 377.24,524.22 L377.24,524.22 L349.31,533 C349.31,533 349.381542,533.01798 349.519253,533.051705 C348.476845,533.190804 347.44605,533.457084 346.45,533.85 C338.09,536.91 329.58,539.57 320.67,542.54 C328.58,549.25 326.21,557.22 325.79,564.79 C325.708808,565.115422 325.591409,565.430722 325.44,565.73 C320.81,580.84 320.82,580.86 305.8,586.11 C297.32,589.11 288.8,591.81 280.33,594.89 C275.957034,596.530916 271.194039,596.830344 266.65,595.75 C257.25,593.65 247.72,592.11 238.31,590.03 C233.6,588.98 228.31,589.21 224.9,584.51 C224.1,583.4 222.03,583.12 220.5,582.63 C216.39,581.34 212.32,579.77 208.11,578.98 C193.89,576.32 183.81,567.47 174.88,556.98 C172.88,554.6 171.66,551.39 170.5,548.4 C169.81,546.59 169.88,544.48 169.7,542.5 C168.07,524.67 166.23,506.86 164.92,489.01 C164.19,479.01 166.63,469.5 170.32,460.01 C176.08,445.14 185.49,432.83 194.97,420.43 C205.656667,406.39 216.333333,392.346667 227,378.3 C228.21,376.72 229.18,374.82 230.71,373.63 C234.725851,370.479568 236.741963,366.816235 237.768933,362.211263 C237.539773,363.356992 237.146237,364.690221 236.48,366.29 C242.93,361.33 247.54,351.21 250.01,349.98 Z M359.312927,535.160541 L359.14302,535.096843 C368.745006,536.889821 383.175289,538.868877 392.08,536.73 C394.638652,536.115422 396.975782,535.479655 399.13465,534.821778 C386.217774,538.898706 372.998314,540.245137 359.312927,535.160541 Z M413.68,529.22 L412.584396,529.700224 C411.058122,530.364027 409.528292,531.007178 407.994625,531.623287 C412.753235,529.600079 416.649457,527.395349 420.611443,524.989252 C418.329936,526.451339 416.140842,528.13334 413.68,529.22 Z M488.75,46.77 C494.681562,55.3212357 498.220293,65.3021813 499,75.68 C500.16,91.45 505.23,106.22 509.7,121.17 C510.75,124.67 511.49,128.27 512.56,131.76 C515.68,141.95 516.03,151.86 511.12,161.76 C509.41,165.19 509.04,169.29 508.12,172.82 L508.222479,172.878397 C508.12293,172.84016 508.07,172.82 508.07,172.82 C508.07,172.82 507.8,177.39 508,181.63 C508.2,185.87 526.71,221.93 528.39,225.32 C530.07,228.71 531.27,240.05 529.07,243.1 C526.728328,246.25291 525.807763,250.239606 526.53,254.1 C527.21,258.67 529.41,282.2 529.41,284.4 C529.41,286.6 531.44,289.15 533.64,290.67 C535.84,292.19 534.65,302.39 533.64,305.56 C532.63,308.73 496.07,346.55 484.55,358.73 C473.03,370.91 415.72,416.84 408.61,422.55 C404.97,418.74 399.14,416.7 397.61,417.85 C396.08,419 393.29,421.28 393.29,421.28 L393.29,421.28 L346.18,367.7 C346.18,367.7 308.59,342.93 305.42,341.41 C302.25,339.89 284.1,329.45 281.68,329.22 C279.26,328.99 268.83,329.87 266.06,329.99 C263.29,330.11 264.19,331.26 256.06,333.67 C255.108736,333.951986 254.19512,334.362664 253.318449,334.875345 C255.769619,332.932818 257.637284,331.000463 258.22,327.75 C259.22,322.43 262.01,317.98 265.37,313.75 C270.72,306.95 275.52,299.75 280.83,292.91 C283.71,289.22 285.29,285.57 283.33,281.03 C278.33,269.54 280.12,260.66 291.11,252.84 C297.65,248.18 302.05,240.45 307.2,233.92 C308.69487,232.117101 309.685162,229.950191 310.07,227.64 C311.5,215.64 319.19,206.53 324.65,196.46 C333.31,180.46 344.37,166.39 360.21,156.81 C365.95,153.34 367.46,148.71 365.94,142.46 C363.1,130.85 360.3,119.22 357.78,107.54 C356.46,101.4 355.62,95.14 354.92,88.9 C354.79,87.72 356.31,86.36 357.92,83.64 L388.92,141.42 C412.42,133.93 434.99,137.1 458.62,140.27 C461.23,137.68 461.51,133.42 461.77,129.18 C462.01,125.18 462.67,121.18 462.31,117.25 C461.41,107.54 464.69,99.01 468.63,90.47 C474.05,78.7 479.09,66.76 484.38,54.92 C485.47,52.49 486.88,50.24 488.75,46.77 Z M248.873929,338.549547 C244.621089,343.103697 241.533685,349.396265 239.48,352.44 L239.554236,352.327662 C241.246849,347.081291 244.627107,342.492012 248.80894,338.610666 Z M435.65,258.92 C435.65,258.92 414.15,264.68 416.65,273.31 C418.45,279.42 426.22,280.59 433.83,281.86 C441.44,283.13 455.67,279.66 462.45,273.65 C452.33,268 441.24,260.7 435.65,258.92 Z" id="colour" fill="#FFFFFF" style="mix-blend-mode: overlay;"></path>
    </g>
</svg>