<?xml version="1.0" encoding="UTF-8"?>
<svg width="2048px" height="2048px" viewBox="0 0 2048 2048" version="1.1" xmlns="http://www.w3.org/2000/svg" xmlns:xlink="http://www.w3.org/1999/xlink">
    <title>poses/horses_04</title>
    <g id="poses/horses_04" stroke="none" stroke-width="1" fill="none" fill-rule="evenodd" opacity="0.8">
        <path d="M1587.01081,371.919869 L1586.25,372.33 C1580.54,375.57 1577.2,379.65 1572.87,383.57 C1572.87,383.57 1586.18,375.29 1592.49,378.71 C1597.57,381.5 1612.94,408.42 1612.94,408.42 C1612.94,408.42 1611.04,417.44 1612.43,420.23 C1613.82,423.02 1624.13,443.34 1625.25,444.48 C1626.37,445.62 1629.21,443.84 1631.37,443.14 C1632.93,446.44 1642.81,462.63 1646.37,465.68 C1649.8588,468.669 1668.45469,481.16596 1684.73621,492.902475 L1685.73,493.62 C1702.24,505.56 1728.87,524.94 1735.51,529.68 C1742.15,534.42 1776.57,564.86 1781.51,568.96 C1786.45,573.06 1789.21,574.51 1788.45,576.96 C1787.69,579.41 1781.08,596.17 1779.05,602.35 C1777.02,608.53 1775.85,612.09 1773.81,619.62 C1771.77,627.15 1760.68,643.32 1755.94,651.45 C1751.2,659.58 1740.54,669.23 1731.72,674.29 C1731.89329,674.320402 1732.13949,674.36542 1732.44869,674.423069 C1731.12009,674.269897 1729.7624,674.269247 1728.63,674.71 C1724.08,676.41 1720.44,675.23 1716.43,672.83 C1693.04,658.83 1668.74,646.33 1646.61,630.25 C1645.54206,629.648987 1644.42465,629.140465 1643.27,628.73 C1641.37,630.73 1639.27,632.73 1637.39,634.91 C1613.72,661.91 1596.74,693.1 1579.21,724.11 C1557.74,762.11 1539.73,801.8 1519.68,840.49 C1516.93,845.8 1514.27,851.18 1511.26,856.35 C1503.71,869.35 1498.19,883.15 1492.87,897.17 C1488.57374,908.365657 1483.28607,919.155194 1477.07,929.41 C1462.36,953.85 1455.3,980.41 1451.46,1008.41 C1447.59,1036.73 1445.32,1065.15 1442.88,1093.58 C1441.24,1112.72 1433.88,1130.22 1425.63,1147.34 C1424.57756,1149.40741 1423.12635,1151.24607 1421.36,1152.75 C1412.61,1160.42 1403.36,1167.54 1395.02,1175.63 C1388.88,1181.63 1383.78,1188.63 1378.44,1195.42 C1376.31,1198.1 1377.36,1201.05 1378.85,1203.85 C1383.53,1212.66 1388.05,1221.54 1392.76,1230.32 C1408.76,1260.22 1424.56,1290.26 1441.04,1319.91 C1451.32,1338.39 1454.42,1358.64 1457.69,1378.91 C1458.84,1386.1 1458.54,1393.56 1460.07,1400.64 C1461.17,1405.72 1459.54,1409.51 1457.86,1413.9 C1449.69,1435.21 1434.86,1451.9 1420.21,1468.68 C1406.66,1484.2 1392.54,1499.22 1378.63,1514.42 C1363.83,1530.6 1348.76,1546.56 1334.29,1563.04 C1330.46,1567.4 1328.35,1573.29 1325.55,1578.53 C1319.77,1589.37 1314.28,1600.38 1308.23,1611.08 C1305.23,1616.41 1303.04,1621.43 1303.71,1627.9 C1304.71,1637.11 1303.61,1646.6 1305.07,1655.7 C1307.39,1670.1 1311.07,1684.27 1314.19,1698.54 C1314.61,1700.54 1315.4,1702.43 1315.42,1704.38 C1315.58,1719.06 1322.16,1730.82 1330.86,1742.21 C1343.16,1758.33 1354.48,1775.21 1366.14,1791.81 C1371.77,1799.81 1373.04,1803.43 1375.32,1816.22 C1368.62,1818.77 1361.65,1820.8 1354.32,1820.07 C1337.14,1818.33667 1319.98333,1816.35667 1302.85,1814.13 C1298.05,1813.51 1293.42,1811.7 1288.68,1810.43 C1288.68,1808.51 1288.39,1807.43 1288.68,1806.62 C1294.75,1791.62 1290.68,1776.38 1289.21,1761.3 C1288.9,1758.12 1286.12,1754.71 1283.62,1752.3 C1273.36,1742.3 1262.8,1732.7 1252.28,1723.02 C1248.62,1719.65 1244.78,1716.5 1241.04,1713.27 L1241.04,1674.89 C1237.44,1678.62 1234.82,1680.96 1232.64,1683.65 C1226.99,1690.65 1221.23,1697.55 1216.1,1704.9 C1210,1713.64 1202.26,1719.08 1191.38,1719.61 C1186.03,1715.8 1183.25,1710.44 1181.65,1704.1 C1178.89,1693.1 1175.38,1682.36 1172.77,1671.38 C1170.16,1660.4 1167.83,1649.47 1169.45,1638.03 C1169.98,1634.32 1170.26,1631.03 1173.35,1628.27 C1175.2,1626.61 1176.07,1623.86 1177.64,1621.14 C1179.16895,1621.25991 1180.69088,1621.45683 1182.2,1621.73 C1194.72,1624.62 1205.75,1619.31 1216.87,1615.16 C1220.08,1613.97 1222.67,1610.84 1225.23,1608.28 C1229.23,1604.28 1232.68,1599.72 1236.87,1595.96 C1240.49616,1592.92688 1242.284,1588.22624 1241.59,1583.55 C1240.04,1568.36 1238.5,1553.17 1237.08,1537.97 C1236.08,1527.07 1235.08,1516.16 1234.39,1505.24 C1234.3028,1501.27851 1233.19363,1497.40674 1231.17,1494 C1215.68,1468.7 1215.66,1468.66 1214.33,1439.22 C1213.85,1428.62 1214.72,1417.89 1213.48,1407.39 C1208.99,1369.5 1204,1331.66 1198.94,1293.83 C1196.29,1274.08 1193.11,1254.4 1190.15,1234.7 C1189.91,1233.1 1189.51,1231.52 1189.09,1229.49 C1186.77409,1229.1297 1184.43377,1228.94916 1182.09,1228.95 C1143.59667,1231.86333 1105.10667,1234.82333 1066.62,1237.83 C1059.62,1238.37 1052.68,1239.14 1045.7,1239.19 C1004.42,1239.46 963.12,1240.02 921.85,1239.46 C908.66,1239.28 895.49,1236.09 882.34,1234.1 C871.16,1232.41 859.99,1230.6 848.86,1228.59 C821.29,1223.59 794.36,1216.23 768.56,1205.27 C737.95,1192.27 707.56,1178.74 677.05,1165.46 C674.05,1164.16 670.96,1163.05 667.48,1161.67 C661.89,1168.94 656.95,1176 651.38,1182.51 C634.225464,1202.45338 614.796753,1220.32149 593.49,1235.75 C570.92,1252.22 548.4,1268.75 526.34,1285.94 C516.67,1293.46 508.15,1302.47 499.18,1310.88 C487.05,1322.25 475.23,1333.95 462.81,1344.99 C456.72,1350.39 450.74,1356.38 441.95,1357.85 C439.95,1358.19 437.95,1360.2 436.33,1361.79 C431.53,1366.4 427.11,1371.44 422.12,1375.79 C418.56,1378.9 418.24,1382.31 418.89,1386.51 C420.29,1395.69 421.89,1404.89 422.57,1414.14 C423.39,1424.81 428.57,1433.77 432.96,1442.99 C441.26,1460.41667 449.903333,1477.67667 458.89,1494.77 C462.27,1501.19 466.97,1506.92 471.16,1512.91 C482.23,1528.72 493.47,1544.4 504.33,1560.35 C506.880085,1564.21189 508.781821,1568.46462 509.96,1572.94 C514.05,1588.07 514.38,1603.11 507.57,1617.76 C505.9,1621.36 505.05,1625.35 503.36,1628.95 C500.83,1634.31 501.09,1639.53 501.77,1645.35 C503.36,1658.91 503.37,1672.53 498.11,1685.61 C495.65,1691.73 493.58,1698.02 491.24,1704.48 C483.551591,1705.36162 475.764444,1704.33112 468.57,1701.48 C454.57,1695.74 442.89,1686.16 430.71,1677.48 C425.71,1673.9 425.15,1666.21 428.16,1660.61 C434.73,1648.39 444.81,1639.12 454.11,1629.19 C457.11,1626.03 460.24,1623.08 463.28,1619.99 C469.36,1613.78 470.42,1607.99 464.51,1601.82 C458.99,1596.1 456.23,1589.16 452.42,1582.61 C446.06,1571.71 438.95,1561.23 432.66,1550.29 C426.66,1539.91 421.15,1529.29 415.83,1518.56 C409.05,1504.88 397.93,1494.66 388.3,1483.28 C372.2,1464.28 355.69,1445.58 339.3,1426.77 C337.39,1424.58 335.3,1422.5 332.3,1419.29 C328.38,1426.93 324.63,1433.46 321.6,1440.29 C311.366667,1463.40333 301.31,1486.58667 291.43,1509.84 C289.744198,1513.80096 288.710828,1518.00873 288.37,1522.3 C286.72,1544.15 285.88,1566.06 283.83,1587.86 C282.52,1601.72 279.83,1615.46 277.37,1629.19 C274.62,1644.9 271.6,1660.55 268.54,1676.19 C267.549066,1681.05117 267.620702,1686.0691 268.75,1690.9 C273.61,1711.61 278.65,1732.28 283.12,1753.08 C284.914418,1761.25126 288.645802,1768.87179 294,1775.3 C301.08,1784.05 302.43,1794.69 304.44,1805.05 C305.71,1811.58 303.28,1814.62 296.56,1816.63 C287.96,1819.21 279.29,1821.56 270.64,1823.98 C269.378734,1824.4138 268.062262,1824.66632 266.73,1824.73 C253.43,1824.54 240.04,1825.15 226.9,1823.62 C220.76,1822.91 215.11,1818.04 208.66,1814.76 C211.18,1802.56 214.19,1791.01 215.81,1779.27 C217.67,1765.81 218.49,1752.19 219.29,1738.61 C219.45,1735.93 217.89,1732.89 216.44,1730.4 C211.77,1722.35 206.99,1714.34 201.82,1706.61 C199.01,1702.41 198.39,1698.32 199.08,1693.43 C205.573333,1647.43 211.933333,1601.40333 218.16,1555.35 C219.21,1547.48 218.84,1539.43 219.16,1531.46 C219.86,1513.2 220.81,1494.95 221.21,1476.69 C221.52,1462.69 222.92,1448.93 226.49,1435.32 C231.13,1417.63 235.49,1399.85 239.14,1381.93 C241.76,1368.93 242.96,1355.68 244.81,1342.54 C245.31,1338.93 245.68,1335.28 246.42,1331.71 C249.19,1318.5 247.76,1305.31 246.26,1292.14 C245.32,1283.94 244.13,1275.77 242.86,1266.14 C240.51,1268.51 238.91,1269.84 237.66,1271.43 C224.37,1288.43 211.23,1305.64 197.8,1322.57 C194.69631,1326.44408 191.106811,1329.90251 187.12,1332.86 C174.87,1342.02 162.03,1350.42 150.05,1359.93 C140.45,1367.55 131.61,1376.18 122.75,1384.69 C118.39,1388.89 114.28,1392.76 107.87,1393.69 C104.35,1394.22 100.87,1395.95 97.69,1397.69 C92.56,1400.49 88.22,1399.55 84.01,1395.97 C82.51,1394.68 80.86,1393.56 78.92,1392.1 C79.92,1379.29 80.65,1366.7 86.28,1354.47 C94.34,1336.98 101.11,1318.87 108.01,1300.86 C111.200226,1292.82732 115.867434,1285.46358 121.77,1279.15 C136.023333,1263.37 150.19,1247.51 164.27,1231.57 C166.42,1229.13 167.88,1226.02 169.38,1223.08 C193.96,1175.08 215.01,1125.49 235.06,1075.46 C236.168035,1072.32318 237.460283,1069.25451 238.93,1066.27 C241.29,1061.93 241.53,1057.48 240.93,1052.73 C239.21,1040.23 237.23,1027.73 236.15,1015.19 C235.35178,1005.28075 235.178103,995.331074 235.63,985.4 C235.96,977.48 238.33,969.61 238.37,961.72 C238.37,953.05 241.86,946.72 247.47,940.57 C255.32,932 263.25,923.37 269.95,913.91 C279.52,900.36 288,886 297,872.08 C301,865.96 305.08,859.94 309.25,853.95 C315.25,845.31 323.77,839.44 332.16,833.44 C343.25,825.51 354.72,818.03 365.29,809.44 C375.65,801.03 388.05,797.16 399.79,791.81 C419.44,782.87 439.16,774.07 459.04,765.67 C466.972315,762.250442 475.204086,759.572355 483.63,757.67 C511.56,751.6 539.63,746.11 567.63,740.4 C568.258945,740.182049 568.904344,740.014847 569.56,739.9 C587.14,739.16 604.72,738.17 622.31,737.85 C630.58,737.7 638.87,739.41 647.14,739.31 C667.29,739.05 686.62,744.31 706.33,747.04 C735,751.04 763.15,757.46 791.42,763.34 C796.62,764.42 801.91,765.24 807,766.7 C817.45,769.7 828,769.55 838.67,768.7 C866.15,766.59 893.62,764.29 921.14,762.78 C944.025015,761.4811 966.685991,757.56559 988.68,751.11 C1001.12,747.51 1013.87,744.9 1026.24,741.11 C1043.38,735.83 1060.24,729.66 1077.32,724.19 C1097.57,717.69 1117.94,711.53 1138.24,705.19 C1145.87,702.8 1153.54,700.55 1158.87,693.83 C1160.26,692.08 1162.69,691.2 1164.41,689.66 C1168.09,686.37 1172.21,683.34 1175.06,679.42 C1179.64,673.1 1184.87,667.63 1191.65,663.9 C1203.8294,657.42379 1213.03151,646.487326 1217.33,633.38 C1218.56173,629.180141 1221.54739,625.716931 1225.52,623.88 C1226.71,623.32 1227.67,622.2 1228.88,621.74 C1243.37,616.22 1252.73,605.43 1259.17,591.88 C1261.69,586.59 1265.74,583.88 1270.92,581.94 C1280.86,578.18 1290.55,573.69 1300.6,570.29 C1307.91,567.81 1313.88,563.81 1317.49,557.29 C1325.55,542.72 1339.86,533.71 1349.43,520.51 C1351.43,517.73 1355.18,516.08 1358.31,514.24 C1371.22,506.66 1384.31,499.35 1397.11,491.64 C1400.73254,489.373971 1404.03524,486.632934 1406.93,483.49 C1413.18,476.91 1419.77,471.09 1428.55,467.91 C1434.78,465.66 1440.6,462.29 1446.7,459.64 C1453.16291,456.943497 1458.9833,452.912159 1463.78,447.81 C1467.65923,443.644257 1472.73635,440.785971 1478.31,439.63 C1483.17317,438.504576 1487.97603,437.132808 1492.7,435.52 C1495.23225,434.797904 1497.60662,433.607326 1499.7,432.01 C1519.7,414.73 1542.44,401.56 1565.47,388.86 C1569.1886,386.85472 1572.51786,384.19944 1575.3,381.02 C1578.6808,377.189964 1582.73906,374.072399 1587.23554,371.80107 L1587.01081,371.919869 L1587.01081,371.919869 Z M1312.45,1364.36 C1311.38,1367.75 1310.67,1369.61 1310.21,1371.53 C1309.95261,1372.84715 1309.83862,1374.1883 1309.87,1375.53 C1309.58,1400.53 1304.66,1424.97 1300.32,1449.53 C1298.13,1461.84 1298.72,1474.17 1300.89,1487.83 C1323.89,1459.06 1346.89,1432.5 1379.89,1418.53 C1380.77,1412.89 1377.52,1411.24 1374.13,1409.53 C1362.22,1403.63 1350.43,1397.46 1338.41,1391.8 C1332.2,1388.88 1327.16,1385.11 1323.5,1379.18 C1320.6,1374.38 1316.85,1370.15 1312.45,1364.36 Z M1859.02,516.26 C1862.41,520.34 1866.35,524.18 1872.46,526.37 C1878.26,528.46 1883.31,532.72 1888.6,536.17 C1901.98,544.9 1915.18,553.92 1928.7,562.42 C1939.1,568.96 1946.87,578.15 1953.7,587.87 C1957.95,593.93 1960.25,601.69 1962.12,609.02 C1965.3,621.55 1967.28,634.38 1970.12,647.02 C1971.52,653.28 1970.85,658.62 1966.61,663.71 C1962.61,668.56 1959.41,674.14 1955.32,678.93 C1952.59791,682.241098 1949.29363,685.026859 1945.57,687.15 C1931.81,694.54 1918.14,702.25 1903.78,708.28 C1893.2,712.72 1881.78,716.17 1869.78,714.15 C1868.50381,713.779886 1867.18764,713.565001 1865.86,713.51 C1846.52,715.28 1838.1,703.28 1832.95,687.34 C1831.65,683.34 1828.65,682.75 1825.26,682.34 C1812.4,680.7 1799.55,679 1786.7,677.34 C1783.4,676.92 1780.05,676.81 1776.8,676.17 C1773.1577,675.44154 1769.64807,675.185362 1766.20538,676.217106 C1766.48866,676.106946 1766.78984,675.997524 1767.11,675.89 C1767.18,673.33 1775.14,665.92 1781,658.05 C1786.86,650.18 1798,630.96 1801,624.53 C1804,618.1 1812.58,591.99 1812.58,591.99 C1812.58,591.99 1821.38,592.61 1821.89,589.99 C1822.4,587.37 1831.03,569.85 1831.03,569.85 L1831.03,569.85 L1830.87,562.48 C1830.39842,561.605509 1830.0613,560.66495 1829.87,559.69 C1830.38,558.42 1844.47,534.38 1845.7,531.84 C1846.93,529.3 1853.66,518.97 1854.93,516.94 C1856.2,514.91 1858.4,515.58 1859.38,514.47 C1859.43636,514.40616 1859.49111,514.331635 1859.54417,514.247561 C1859.34216,514.918701 1859.15677,515.597329 1859.02,516.26 Z M1742.2042,676.303727 C1746.71353,677.180145 1751.45961,678.10411 1753.87,678.56 C1758.60333,679.455238 1759.98066,678.808526 1761.39685,678.338901 L1761.61,678.27 C1761.7505,678.225977 1761.88968,678.177129 1762.02874,678.124014 C1760.06961,679.048084 1757.86745,679.33887 1755.73,678.95 C1751.74111,678.288889 1747.78,677.47037 1743.81923,676.641907 Z M1664.1,263.03 C1666.94,276.21 1666.87,288.21 1667.37,300.03 C1667.89,312.19 1667.49,324.39 1667.49,337.3 L1703.04,346.59 L1701.55,351.33 C1702.62,352.11 1704,353.6 1705.72,354.33 C1713.4,357.456667 1721.14333,360.456667 1728.95,363.33 C1732.61649,364.488359 1735.97356,366.460891 1738.77,369.1 C1743.41,373.6 1749.77,376.51 1755.77,379.41 C1767.71,385.24 1776.77,394.48 1785.94,403.64 C1788.83,406.51 1789.52,410.01 1789.35,413.69 C1788.92,423.05 1792.55,430.91 1796.83,439.02 C1803.37,451.44 1812.42,460.86 1823.96,468.73 C1832.76,474.73 1839.24,483.23 1841.45,494.21 C1841.68931,494.21 1841.92574,494.214469 1842.15935,494.223284 C1842.85601,497.563152 1835.51682,505.951358 1832.49,508.56 C1829.45,511.18 1811.65,539.69 1808.92,542.8 C1806.44,540.64 1802.89,542.67 1799.23,544.96 C1793.47,536.66 1663.78,444.56 1663.78,444.56 L1663.78,444.56 L1658.87,432.71 L1664.8,430 L1664.8,424.08 C1664.8,424.08 1654.29,403.58 1651.8,399.19 C1649.31,394.8 1641.31,395.8 1641.31,395.8 C1636.57,380.9 1614.9,363.63 1614.9,363.63 C1611.28813,363.953494 1607.71419,364.543486 1604.20648,365.391379 C1605.82748,363.82685 1606.78047,361.663035 1607.33,358.91 C1608.17,355.06 1609.49,351.35 1611,346.05 L1617.89,354.19 C1618.64,351.48 1619.29,349.99 1619.43,348.46 C1620.43,337.46 1625.58,328.36 1631.58,319.46 C1640.1,306.75 1648.42,293.89 1656.35,280.81 C1659.35,275.81 1661.09,270.06 1664.1,263.03 Z M1860.62,507.47 C1861.24361,508.286761 1860.90787,509.83141 1860.36238,511.629978 C1860.6346,510.066297 1860.70895,508.314732 1860.53,507.42 C1860.52332,507.386585 1860.51565,507.352899 1860.50701,507.318938 C1860.54352,507.368952 1860.58176,507.419492 1860.62,507.47 Z M1856.66473,502.418416 L1856.80096,502.580247 C1856.12431,501.865003 1855.39065,501.084467 1854.63,500.23 C1854.53286,500.121663 1854.43454,500.014614 1854.33508,499.908865 L1854.11859,499.68247 C1855.00924,500.540031 1855.85246,501.461397 1856.66473,502.418416 Z M1850.36844,496.72332 L1850.38667,496.734109 C1848.40318,495.549491 1846.20325,494.744846 1843.90036,494.375184 C1846.35066,494.712355 1848.47344,495.55174 1850.36844,496.72332 Z M1748.14,414.04 C1744.39,413.66 1740.91,414.94 1738.3,415.5 C1735.69,416.06 1733.98,417.98 1733.85,419.06 L1733.85,419.06 L1733.85,419.5 C1734.55,420.68 1749.73,429.6 1752.14,430.68 C1754.55,431.76 1759.18,430.68 1762.55,430.04 C1761.87828,426.857629 1760.58341,423.839654 1758.74,421.16 C1757.02,419.04 1751.89,414.42 1748.14,414.04 Z" id="colour" fill="#FFFFFF" style="mix-blend-mode: overlay;"></path>
    </g>
</svg>