<?xml version="1.0" encoding="UTF-8"?>
<svg width="2048px" height="2048px" viewBox="0 0 2048 2048" version="1.1" xmlns="http://www.w3.org/2000/svg" xmlns:xlink="http://www.w3.org/1999/xlink">
    <title>poses/horses_05</title>
    <g id="poses/horses_05" stroke="none" stroke-width="1" fill="none" fill-rule="evenodd" opacity="0.8">
        <path d="M1670.76,308.35 C1665.06721,314.692236 1660.10292,321.652314 1655.96,329.1 C1649.2,330.2 1646.58,331.1 1646.07,332.4 C1645.56,333.7 1643.45,335.95 1642.01,337.22 C1640.57,338.49 1635.49,348.4 1632.61,353.31 C1629.73,358.22 1621.86,373.12 1620.76,374.64 C1619.66,376.16 1619.66,377.26 1620.76,378.45 C1621.86,379.64 1621.69,383.36 1629.9,381.92 C1629.9,381.92 1623.81,405.62 1623.3,410.87 C1622.79,416.12 1624.99,447.61 1627.03,452.52 C1629.07,457.43 1635.66,486.38 1636.17,488.92 C1636.68,491.46 1638.54,496.03 1640.06,499.75 C1641.58,503.47 1680.36,584.57 1683.57,592.75 C1679,602.81 1668.87,642.86 1668.87,642.86 C1668.87,642.86 1673.65836,650.244362 1679.16235,657.467588 C1675.81924,653.593938 1674.43425,653.263827 1666.69,651.05 C1665.06,654.12 1663.42,657.34 1661.69,660.48 C1645.33,689.63 1633.92,720.85 1623.19,752.36 C1620.41,760.55 1617.19,768.6 1614.58,776.83 C1611.86,785.35 1609.7,794.04 1607.11,802.6 C1603.56,814.34 1599.71,826 1596.22,837.76 C1584.27333,877.906667 1572.37333,918.066667 1560.52,958.24 C1559.52,961.41 1558.75,964.84 1556.93,967.49 C1552.3,974.21 1551.48,981.49 1551.93,989.33 C1552.61,1001.26 1553.23,1013.19 1553.57,1025.12 C1553.54268,1028.42532 1553.03745,1031.70932 1552.07,1034.87 C1550.4498,1040.32019 1550.67835,1046.15329 1552.72,1051.46 C1553.31,1053.01 1553.48,1054.74 1554.17,1056.23 C1559.11,1066.91 1558.91,1077.23 1552.77,1087.48 C1548.69,1094.29 1547.89,1101.88 1548.71,1109.61 C1549.47,1116.68 1547.4,1122.35 1542.46,1127.61 C1535.91,1134.61 1534.26,1142.48 1537.54,1152.23 C1549.77,1188.47 1561.31,1224.93 1573.01,1261.34 C1576.01,1270.61 1580.07,1279.1 1586.44,1286.68 C1604.59,1308.27 1617.38,1333.07 1628.55,1358.79 C1630.13,1362.45 1631.43,1366.33 1633.55,1369.64 C1639.35,1378.53 1637.13,1387.42 1634.02,1396.29 C1631.17,1404.44 1627.47,1412.29 1625.02,1420.56 C1623.50389,1425.68224 1620.45769,1430.21839 1616.29,1433.56 C1599.99,1447.24 1583.79,1461.03 1567.23,1474.38 C1563.23,1477.61 1562.3,1480.52 1563.35,1485.38 C1565.35755,1495.14687 1568.90158,1504.53349 1573.85,1513.19 C1586.14,1534.51 1598.38,1555.89 1609.56,1577.8 C1619.08,1596.44 1627.2,1615.8 1635.72,1634.94 C1644.1,1653.77 1652.04,1672.8 1660.57,1691.56 C1662.6801,1696.04127 1665.57967,1700.10609 1669.13,1703.56 C1690.13,1724.14 1704.01,1749.67 1717.7,1775.07 C1736.87,1810.62 1759.7,1843.68 1782.7,1876.72 C1789.34,1886.25 1795.27,1896.27 1801.7,1906.26 C1797.19,1912.89 1791.78,1917.35 1783.91,1918.12 C1779.63,1918.55 1775.22,1919.49 1771.03,1918.92 C1749.31,1915.98 1727.35,1914.54 1706.03,1908.92 C1704.42,1908.49 1702.83,1908.01 1701.23,1907.53 C1694.1,1905.38 1690.65,1901.03 1690.11,1893.15 C1689,1876.94 1687.11,1860.78 1685.05,1844.64 C1684.40824,1840.44177 1683.05553,1836.38364 1681.05,1832.64 C1676.51,1823.77 1671.57,1815.09 1666.59,1806.45 C1664.95,1803.61 1663.16,1800.55 1660.67,1798.56 C1645.61,1786.5 1636.29,1770.02 1625.67,1754.45 C1614.81,1738.54 1603.29,1723.08 1591.76,1707.64 C1581.76,1694.31 1571.08,1681.56 1561.41,1668.05 C1554.77345,1658.49479 1548.67079,1648.57963 1543.13,1638.35 C1529.93,1614.75 1514.78,1592.63 1496.2,1572.88 C1490.53,1566.88 1485.55,1560.19 1479.48,1552.88 C1476.37,1556.01 1473.38,1558.49 1471.03,1561.48 C1465.95,1567.93 1460.03,1572.48 1451.74,1574.57 C1440.45,1577.47 1429.44,1580.89 1417.53,1580.67 C1412.71,1580.59 1407.72,1582.38 1403.04,1583.99 C1380.41,1591.77 1357.85,1599.77 1335.28,1607.72 C1328.4195,1610.09517 1321.28631,1611.59371 1314.05,1612.18 C1310.94,1607.18 1309.71,1602.36 1310.76,1597.37 C1315.5,1574.95 1319.76,1552.37 1328.96,1531.18 C1329.67495,1529.83275 1330.47664,1528.53335 1331.36,1527.29 L1354.57,1532.42 C1356.84,1532.92 1359.26,1533.06 1361.36,1533.95 C1373.48,1539.06 1385.36,1537.43 1397.18,1532.95 C1399.52,1532.07 1402.55,1530.82 1403.53,1528.87 C1409.29,1517.38 1420.53,1511.23 1428.78,1502.23 C1430.96,1499.85 1433.47,1497.78 1436.14,1495.23 C1429.03,1485.44 1422.5,1476.23 1415.77,1467.23 C1404.06,1451.5 1392.77,1435.36 1380.29,1420.31 C1367.96,1405.5 1354.54,1391.56 1341.11,1377.71 C1320.63,1356.6 1303.8,1332.59 1285.75,1309.54 C1277.95,1299.54 1270.43,1289.41 1262.59,1279.48 C1260.33327,1276.61652 1257.73386,1274.04062 1254.85,1271.81 C1236.92,1257.99 1218.85,1244.41 1200.93,1230.53 C1196.69,1227.24 1192.5,1225.53 1187.15,1226.63 C1184.19997,1227.17975 1181.19943,1227.41108 1178.2,1227.32 C1139.2,1226.46 1100.4,1230.71 1061.45,1230.77 C1052.13,1230.77 1042.79,1230.93 1033.45,1231.39 C1018.05,1232.15 1002.93,1230.17 987.79,1227.73 C959.23,1223.14 930.41,1219.96 902.57,1211.67 C893.99,1209.12 885.48,1206.19 877.17,1202.87 C849.99,1192 822.93,1180.87 795.8,1169.87 C793.7,1169.01 791.49,1168.43 789.19,1167.68 C783.19,1174.24 781.99,1181.9 781.14,1189.96 C778.35,1216.25 780.63,1242.49 780.99,1268.77 C781.339246,1287.73932 780.611409,1306.71318 778.81,1325.6 C777.49,1338.74 772.81,1351.5 770.51,1364.6 C768.15,1378.01 766.82,1391.6 765.14,1405.14 C764.912215,1406.79221 765.04527,1408.47416 765.53,1410.07 C769.62,1422.37 773.7,1434.68 778.14,1446.85 C779.405549,1449.92798 781.248732,1452.73519 783.57,1455.12 C796.57,1469.35 809.37,1483.8 822.99,1497.43 C830.46,1504.9 839.25,1511.08 847.69,1517.54 C859.83,1526.85 871.83,1536.41 884.55,1544.88 C899.69,1554.97 908.95,1569.22 915.31,1585.52 C918.17,1592.83 918.99,1600.93 920.6,1608.71 C921.41,1612.61 921.6,1616.71 922.66,1620.48 C923.468269,1623.61854 924.822225,1626.59048 926.66,1629.26 C936.39,1642.62 943.29,1657.08 945.1,1673.71 C945.59,1678.28 946.3,1682.83 947.02,1688.2 C940.33,1689.2 934.21,1690.69 928.02,1690.96 C911.75,1691.66 895.45,1691.86 879.16,1692.16 C877.164365,1692.1744 875.178203,1691.8844 873.27,1691.3 C868.1,1689.71 866.9,1688.13 867.07,1682.62 C867.49,1668.24 869.07,1654.1 876.07,1641.12 C876.253932,1640.83855 876.411277,1640.5406 876.54,1640.23 C878.42,1634.33 883.54,1628.73 880.87,1622.32 C877.821719,1615.16995 872.165111,1609.44898 865.05,1606.32 C859.23,1603.68 855.46,1599.73 851.68,1594.98 C847.9,1590.23 843.32,1586.5 839.15,1582.25 C826.816667,1569.67667 814.513333,1557.08333 802.24,1544.47 C796.44,1538.47 790.62,1532.74 783.38,1528.31 C754.73,1510.77 726.38,1492.79 697.74,1475.16 C694.115122,1472.85914 691.140472,1469.66759 689.1,1465.89 C679.78,1450.03 671.97,1433.59 668.52,1415.39 C667.29,1408.9 665.63,1402.24 665.96,1395.75 C667.43,1366.67 663.4,1338.75 650.74,1312.28 C646.68,1293.13 634.17,1279.34 621.26,1265.8 C620.35,1264.8 619.26,1264.01 618.26,1263.13 C603.8,1250.37 589.18,1237.78 574.94,1224.78 C570.1,1220.37 566.2,1214.91 561.61,1209.64 C556.13,1211.82 550.99,1214.09 545.69,1215.92 C539.13,1218.19 532.45,1220.09 525.82,1222.16 C523.92,1222.75 521.82,1223.05 520.17,1224.03 C498.24,1236.83 474.36,1245.21 451.04,1254.88 C425.04,1265.64 397.38,1270.18 370.49,1277.59 C364.08,1279.35 357.62,1281.04 351.1,1282.29 C345.265886,1283.50798 339.343643,1284.25704 333.39,1284.53 C326.94,1284.71 320.81,1285.53 314.39,1289.09 C314.12,1293.25 313.99,1297.85 313.48,1302.41 C311.61,1319.22 310.54,1336.2 307.4,1352.78 C304.26,1369.36 305.66,1385.26 308.45,1401.26 C311.24,1417.26 310.3,1432.9 308.45,1448.71 C306.33,1466.55 305.45,1484.42 308.45,1502.2 C309.58,1508.78 309.02,1514.81 305.88,1520.52 C303.53,1524.8 303.27,1529.27 302.99,1533.97 C302.826288,1538.24439 301.929934,1542.45894 300.34,1546.43 C297.426792,1553.51156 293.868473,1560.31019 289.71,1566.74 C281.848879,1578.30685 276.20324,1591.23248 273.06,1604.86 C270.46,1615.96 264.15,1624.72 255.81,1632.28 C253.03,1634.8 250.52,1635.66 246.81,1634.43 C239.88,1632.12 232.72,1630.43 225.81,1628.03 C223.068731,1627.07254 220.680952,1625.30872 218.96,1622.97 C213.42,1614.67 208.29,1606.1 203.23,1597.5 C202.009866,1595.57136 201.37107,1593.3321 201.39,1591.05 C201.928526,1583.4304 202.859764,1575.84365 204.18,1568.32 C204.59,1566.08 206.7,1563.64 208.71,1562.32 C219.46,1555.09 230.21,1547.82 241.4,1541.32 C246.4,1538.4 252.49,1537.24 258.78,1535.04 C261.08,1530.89 261.04,1526.15 260.32,1520.54 C258.08,1503.12 256.4,1485.54 255.64,1468.02 C254.44,1440.13 254.64,1412.18 253.36,1384.29 C252.41,1363.09 249.95,1341.97 248.52,1320.79 L248.400628,1319.0174 C247.86975,1311.04259 247.47069,1303.08931 249.1,1294.98 C251.31,1283.98 252.1,1272.64 253.5,1261.45 C254.194492,1255.15318 256.801475,1249.22029 260.97,1244.45 C268.97,1235.11 276.68,1225.45 283.97,1215.63 C288.440806,1209.45567 292.480394,1202.9803 296.06,1196.25 C313.76,1163.87 331.346667,1131.43 348.82,1098.93 C350.6,1095.63 352.93,1093.93 356.67,1093.93 C358.334892,1093.93085 359.993718,1093.72937 361.61,1093.33 C369.02,1091.51 374.93,1088.11 377.61,1080.15 C380.29,1072.19 383.33,1064.57 381.3,1054.92 C378.63,1056.62 376.3,1057.7 374.49,1059.33 C357.08,1074.95 337.88,1088.08 317.67,1099.71 C295.75,1112.33 273.24,1123.82 249.39,1132.45 C247.185513,1133.16174 244.918808,1133.66396 242.62,1133.95 C227.51,1136.25 212.42,1138.84 197.24,1140.6 C191.43,1141.27 185.34,1140.45 179.48,1139.6 C162.05,1137 144.71,1133.87 127.28,1131.3 C119.05,1130.09 113.49,1124.87 108.35,1119.37 C104.13,1114.84 105.7,1106.45 110.6,1102.65 C116.39,1098.15 122.5,1094.32 129.71,1092.22 C138.95,1089.51 148.11,1086.45 157.15,1083.12 C170.76,1078.12 184.86,1076.5 199.21,1076.25 C199.543033,1076.23 199.876967,1076.23 200.21,1076.25 C224.03,1078.78 246.21,1073.31 267.83,1063.54 C278.37,1058.78 289.63,1055.45 300.83,1052.31 C313.7,1048.68 324.55,1042.81 332.69,1031.71 C340.15,1021.53 348.54,1012.02 356.91,1002.55 C362.61,996.09 368.84,990.09 375.08,984.14 C377.57,981.75 379.78,979.66 379.44,975.82 C378.24,962.29 384.11,951.82 392.69,941.71 C401.657548,930.944805 409.975624,919.654795 417.6,907.9 C422.009131,901.253732 425.560604,894.076867 428.17,886.54 C433.27,871.77 440,859.09 454.24,850.54 C469.01,841.64 482.43,830.54 496.57,820.54 C500.158182,818.140227 503.92601,816.020615 507.84,814.2 C526.62,804.88 545.11,795.12 562.43,783.2 C568.767515,778.948903 575.667429,775.603286 582.93,773.26 C614.8,762.54 647.16,753.43 680.24,747.36 C692.382628,745.250172 704.676089,744.126504 717,744 C737.62,743.62 758.27,743.87 778.88,744.57 C787.46,744.86 795.95,747.42 804.55,748.18 C842.06,751.47 878.81,759.54 915.91,765.37 C919.50561,765.901738 923.161557,765.87813 926.75,765.3 C962.24,759.68 997.75,754.16 1033.15,748 C1042.67411,746.439761 1051.95297,743.639296 1060.75,739.67 C1112.94,715.31 1167.18,695.88 1219.92,672.83 C1227.92,669.33 1235.71,665.9 1240.92,658.37 C1242.38,656.26 1245.08,655.07 1246.92,653.19 C1250.4,649.67 1253.82,646.07 1257.02,642.31 C1261.74,636.77 1266.25,631.06 1270.85,625.42 C1271.68,624.42 1272.85,623.5 1273.29,622.32 C1276.29,614.08 1282.86,608.86 1289.29,603.62 C1293.01332,600.82096 1295.84164,596.998906 1297.43,592.62 C1301.74,580.08 1310.56,571.19 1321.67,564.62 C1328.32,560.69 1332.54,555.14 1335.96,548.51 C1346.26,528.51 1346.33,528.63 1366.03,517.3 C1374.39,512.49 1382.46,507.14 1391.03,502.71 C1402.28,496.89 1410.59,487.71 1418.65,478.56 C1433.04,462.24 1449.31,448.14 1466.27,434.71 C1467.10901,434.169029 1467.88689,433.538678 1468.59,432.83 C1480.59,417.9 1497.06,409.12 1513.33,400.12 C1526.2,393.01 1538.25,384.95 1548.47,374.21 C1551.1,371.45 1554.98,369.7 1558.54,368.05 C1566.98,364.13 1575.54,360.53 1584.11,356.83 C1593.31,352.83 1601.93,347.94 1609.32,341.08 C1614.56,336.22 1620.45,332.76 1627.66,331.78 C1636.13,330.64 1643.5,326.65 1650.47,322.13 C1660.02213,315.89679 1669.38144,309.379388 1678.53558,302.587166 C1675.59096,304.856425 1672.92919,306.839967 1670.76,308.35 Z M1525.9,1377.54 C1530.68,1389.37 1536.02,1400.69 1541.56,1412.04 L1576.08,1401.13 C1575.95,1395.83 1572.96,1393.62 1568.83,1392.49 C1565.01,1391.49 1561.08,1390.74 1557.32,1389.49 C1546.8,1386.12 1534.94,1386.11 1525.9,1377.54 Z M1885.94,536.07 C1891.01,536.56 1900.17,543.94 1902.2,547.5 C1904.23,551.06 1901.69,558.16 1903.98,560.2 C1906.27,562.24 1911.53,569.68 1910.42,575.48 C1913.37719,570.877872 1914.93761,569.004753 1915.68857,566.453631 C1914.93012,569.700317 1913.36439,572.751799 1910.43,575.53 C1915.55,595.62 1919.83,615.81 1925.96,635.43 C1931.74,653.94 1932.83,672.56 1931.5,691.56 C1931.14128,694.503439 1930.42258,697.391708 1929.36,700.16 C1924.45,715.09 1917.05,728.84 1909.43,742.51 C1903.93,752.38 1898.78,762.41 1896.26,773.61 C1895.74,775.91 1893.62,777.86 1892.15,779.91 C1891.79,780.4 1890.95,780.53 1890.48,780.97 C1876.97,793.58 1860.33,793.06 1843.65,791.97 C1839.96,791.73 1836.54,791.2 1833,793.03 C1831.45,793.84 1829.17,793.6 1827.29,793.35 C1814.11,791.66 1800.74,790.75 1787.85,787.8 C1774.96,784.85 1762.31,780.24 1752.56,770.35 C1748.82,766.56 1745.24,762.57 1741.21,759.11 C1736.86,755.37 1735.58,751.64 1737.92,746.03 C1741.76,736.84 1744.8,727.32 1748.49,717.03 C1739.57079,706.579493 1730.10419,696.608853 1720.13,687.16 C1719.08525,686.332498 1717.8578,685.766772 1716.55,685.51 L1716.57,685.53 C1706.68,675.78 1705.41,671.72 1701.1,669.69 C1696.79,667.66 1687.64,655.47 1687.64,655.47 C1687.64,655.47 1690.18,652.17 1689.92,649.63 C1689.66,647.09 1693.48,627.53 1697.54,624.49 C1701.6,621.45 1712.54,615.09 1716.08,611.49 C1719.62,607.89 1730.55,597.49 1731.32,590.92 C1732.09,584.35 1749.32,575.69 1749.32,575.69 C1749.32,575.69 1774.2,554.35 1782.84,552.07 C1791.48,549.79 1836.42,536.83 1846.58,535.07 C1856.74,533.31 1880.87,535.58 1885.94,536.07 Z M1688.81,668.53 C1691.66817,671.085585 1694.40673,673.678383 1697.36193,676.072431 C1694.32053,673.792298 1691.47188,671.241325 1688.76413,668.488414 C1688.77955,668.502744 1688.79478,668.516394 1688.81,668.53 Z M1809.54,138 C1808.06,151.16 1806.87,162.29 1805.54,173.39 C1804.39,182.95 1803.41,192.54 1801.75,202 C1800.76712,207.838826 1799.10934,213.543722 1796.81,219 C1793,227.82 1788.39,236.3 1783.46,246.25 C1786.34,246.53 1789.18,247.58 1789.95,246.74 C1792.95,243.39 1796.71,243.93 1800.17,244.52 C1813.57,246.83 1826.88,249.69 1840.29,251.96 C1850.15148,253.468546 1859.42178,257.614785 1867.12,263.96 C1876.12,271.34 1879.88,270.71 1887.89,261.43 C1899.39,248.1 1910.57,234.5 1921.89,220.99 C1927,214.88 1932,208.66 1937.15,202.59 C1938.38,201.14 1940.05,200.07 1942.31,198.15 C1943.12,200.66 1944.4,202.5 1944.08,204.01 C1942.73,210.47 1941.87,217.28 1939.08,223.14 C1927.8,246.95 1919.72,271.95 1910.6,296.57 C1908.88,301.21 1908.74,305.19 1911.25,309.8 C1914.81,316.32 1917.85,322.89 1918.92,330.8 C1919.99,338.71 1924.84,346.21 1927.92,353.92 C1929.31,357.38 1931.98,360.64 1928.38,364.7 C1927.45,365.75 1928.78,369.06 1929.44,371.22 L1931.82779,379.063841 C1934.61272,388.217037 1937.41444,397.368889 1940.44,406.43 C1943.2,414.61 1942.1,422.9 1941.86,431.16 C1941.8,433.24 1940.11,435.39 1938.86,437.29 C1936.46,440.89 1933.57,444.17 1931.37,447.88 C1929.9,450.35 1928.21,453.41 1928.43,456.06 C1929.26,466.12 1925.93,475.06 1922.29,484.06 C1919.12,491.86 1918.05,499.9 1918.04,508.37 C1918.04,517.6 1916.33,526.81 1915.78,536.06 C1915.66958,537.751559 1915.59405,539.444721 1915.5534,541.138411 C1915.31785,536.852596 1914.06703,533.589339 1913.69,531.31 C1913.25,528.65 1916.23,523.24 1909.88,521.02 C1903.53,518.8 1879.6,505.6 1859.53,505.6 C1839.46,505.6 1790.2,521.34 1785.12,522.1 C1780.04,522.86 1741.19,546.48 1720.87,560.96 C1720.87,560.96 1718.33,557.34 1705.57,558.86 C1698.27,545.97 1667.63,484.01 1665.94,477.24 C1664.25,470.47 1653.07,431.69 1650.87,424.75 C1648.67,417.81 1640.2,402.91 1645.45,391.4 C1650.7,379.89 1653.24,374.3 1658.32,364.99 C1663.4,355.68 1673.55,338.92 1673.55,338.92 C1673.55,338.92 1673.05,332.14 1674.23,328.76 C1675.41,325.38 1686.59,307.93 1690.65,305.76 C1694.71,303.59 1705.61,296.58 1717.76,270.43 C1717.76,270.43 1717.68055,270.497712 1717.52782,270.627633 C1719.02064,268.860896 1720.17433,266.82016 1720.92,264.61 C1727.67,241.67 1740.74,221.98 1752.09,201.32 C1761.96,183.32 1774.37,167.51 1787.39,151.96 C1793,145.3 1801.3,143.49 1809.54,138 Z M1742.83,384.04 C1738.94,379.72 1735.38,379.9 1733.01,380.4 C1730.64,380.9 1720.14,385.47 1718.28,386.15 C1715.8833,386.793413 1713.45294,387.304188 1711,387.68 C1710.65,393.6 1715.92,397.5 1719.13,399.53 C1722.34,401.56 1731.48,404.95 1735.21,404.78 C1738.84675,404.61425 1755.50706,408.469644 1756.33781,408.662517 L1756.37,408.67 C1754,403.25 1746.72,388.36 1742.83,384.04 Z" id="colour" fill="#FFFFFF" style="mix-blend-mode: overlay;"></path>
    </g>
</svg>