<?xml version="1.0" encoding="UTF-8"?>
<svg width="2048px" height="2048px" viewBox="0 0 2048 2048" version="1.1" xmlns="http://www.w3.org/2000/svg" xmlns:xlink="http://www.w3.org/1999/xlink">
    <title>poses/horses_09</title>
    <g id="poses/horses_09" stroke="none" stroke-width="1" fill="none" fill-rule="evenodd" opacity="0.8">
        <path d="M1050.8,202.78 C1050.8,202.78 1065.87,217 1072.98,223.26 C1080.09,229.52 1110.9,265.08 1118.86,272.7 C1126.82,280.32 1149.5,306.41 1151.5,308.1 C1153.5,309.79 1169.1,316.57 1169.1,316.57 L1169.1,321.65 C1169.1,321.65 1190.44,328.76 1194.67,329.1 C1198.9,329.44 1200.59,327.1 1200.59,327.1 L1224.59,338.27 C1224.59,338.27 1224.31,350.43 1227.16,354.59 C1228.70125,352.087727 1229.92162,350.317986 1230.87021,348.84486 C1229.95879,350.513068 1228.90055,352.151553 1227.76,353.78 C1224.16,358.92 1222.59,365.18 1220.58,371.12 C1215.98,384.64 1211.25,398.12 1207.45,411.88 C1205.99,417.16 1207.02,423.1 1206.68,428.72 C1206.51,431.59 1206.45,434.72 1205.28,437.22 C1202.82503,442.684105 1201.63545,448.631991 1201.8,454.62 C1201.8,464.24 1201.44,473.8 1195.15,482.08 C1193.46,484.31 1192.94,487.58 1192.32,490.47 C1190.24,500.21 1188.16,509.96 1186.46,519.78 C1185.58633,525.416505 1182.20745,530.354293 1177.27,533.21 C1173.89,535.33 1170.27,537.16 1167.27,539.73 C1160.77,545.3 1156.27,551.61 1157.72,561.23 C1158.72,568.06 1157.32,575.23 1158.09,582.16 C1159.03,590.55 1155.44,596.46 1149.36,601.06 C1144.97623,604.115908 1141.91103,608.717285 1140.78,613.94 C1139.77967,619.675836 1135.56264,624.321197 1129.95,625.87 C1127.76,626.56 1125.86,628.21 1123.66,628.87 C1119.66,630.08 1117.96,633.1 1116.79,636.72 C1115.07,642.06 1113.26,647.37 1111.25,653.39 C1115.25,658.66 1119.25,664.31 1123.62,669.74 C1134,682.74 1144.62,695.48 1154.85,708.62 C1157.83732,712.560609 1160.13333,716.980177 1161.64,721.69 C1166.23,735.94 1170.64,750.27 1174.42,764.69 C1178.76,781.23 1185.42,796.77 1193.33,811.8 C1195.40372,815.558937 1197.95857,819.031526 1200.93,822.13 C1205.68,827.25 1210.78,832.05 1215.86,836.86 C1227.95,848.32 1239.28,860.25 1248.41,874.45 C1255.38835,885.460404 1264.43529,895.013347 1275.05,902.58 C1280.76,906.58 1286.05,911.25 1291.75,915.24 C1309.61,927.68 1325.05,942.82 1340.29,958.18 C1342.18593,960.044567 1343.93763,962.050326 1345.53,964.18 C1363.03,988.24 1383.46,1009.67 1404.96,1030.09 C1411.84,1036.62 1416.96,1044.09 1421.35,1052.43 C1430.41,1069.43 1440.12,1086.12 1449.46,1102.99 C1451.0581,1105.89992 1452.39661,1108.94504 1453.46,1112.09 C1460.01,1131.28 1465.9,1150.73 1473.14,1169.66 C1478.14,1182.66 1484.75,1195.04 1491.01,1207.52 C1492.01,1209.61 1494.68,1211.38 1497.01,1212.27 C1510.18,1217.39 1521.74,1225.12 1533.01,1233.49 C1547.72,1244.43 1563.25,1254.18 1580.07,1261.49 C1589.91,1265.77 1597.42,1272.34 1603.79,1280.65 C1614.3,1294.36 1625.28,1307.79 1632.95,1323.39 C1640.13,1338.01 1646.34,1353.12 1653.69,1367.64 C1666.02,1392.01 1671.91,1418.25 1676.37,1444.8 C1678.11351,1455.30681 1678.33579,1466.00986 1677.03,1476.58 C1675.34,1490.05 1677.77,1503.08 1678.55,1516.27 C1678.72,1519.27 1681.11,1522.27 1682.99,1524.92 C1692.99,1539.01 1703.43,1552.82 1713.22,1567.07 C1716.70655,1572.32807 1719.49017,1578.01971 1721.5,1584 C1727.79,1601.88 1734.02,1619.81 1739.37,1638 C1741.49,1645.18 1741.48,1653 1741.91567,1660.62 C1742.02,1662.55 1740.51,1664.94 1739.08,1666.52 C1737.08,1668.67 1734.54,1670.26 1732.22,1672.1 C1720.86007,1668.00491 1710.78586,1660.97711 1703.02,1651.73 C1689.65875,1636.0469 1675.21684,1621.31762 1659.8,1607.65 C1654.12148,1602.53302 1649.1028,1596.72828 1644.86,1590.37 C1634.65,1575.2 1625.1,1559.58 1615.26,1544.16 C1612.35248,1539.70977 1610.44841,1534.68002 1609.68,1529.42 C1607,1511.03 1603,1492.8 1601.11,1474.34 C1600.11,1464.27 1602.37,1453.88 1603.11,1443.63 C1604.36,1425.42 1605.68,1407.22 1606.62,1389 C1606.77,1385.9 1605.62,1382.48 1604.23,1379.6 C1596.63,1363.68667 1588.86333,1347.85667 1580.93,1332.11 C1579.22503,1328.86662 1577.12944,1325.84414 1574.69,1323.11 C1570.35,1318.11 1565.74,1313.28 1561.16,1308.47 C1553.58,1300.47 1545.5,1293.29 1535.95,1287.47 C1522.59,1279.39 1509.87,1270.25 1496.86,1261.58 C1495.28,1260.52 1493.6,1259.58 1492.23,1258.78 C1491.23,1259.7 1490.4,1260.1 1490.36,1260.56 C1489.47,1271.74 1483.25,1280.33 1476.8,1288.83 C1475.6,1290.42 1474.16,1292.07 1473.68,1293.91 C1470.12,1307.52 1459.45,1316.11 1450.68,1325.72 C1439.06,1338.41 1426.15,1349.91 1413.75,1361.97 C1426.02,1386.84 1439.06,1412.25 1451.05,1438.13 C1455.69012,1447.76444 1457.60594,1458.48476 1456.59,1469.13 C1455.59728,1478.39465 1455.26311,1487.71805 1455.59,1497.03 C1455.97568,1503.66552 1457.07537,1510.24015 1458.87,1516.64 C1462.58,1530.9 1463.5,1545.49 1464.28,1560.05 C1465.4,1580.95 1465.37,1601.91 1466.53,1622.8 C1467.53,1640.02 1469.43,1657.18 1471.01,1674.36 C1471.79,1682.94 1473.29,1691.51 1473.48,1700.1 C1473.92,1719.87 1478.76,1738.9 1482.48,1758.1 C1483.99,1765.93 1486.7,1773.65 1487.15,1781.52 C1488.09,1797.67 1489.39,1813.87 1487.66,1830.06 C1487.44098,1832.38485 1486.89562,1834.66726 1486.04,1836.84 C1477.04,1858.77 1479.66,1881.12 1483.43,1903.53 C1484.8,1911.67 1486.15,1919.82 1487.43,1927.64 C1479.14,1936.13 1469.29,1939 1458.27,1938.93 C1455.27764,1938.92481 1452.28916,1939.14543 1449.33,1939.59 C1434.66,1941.69 1421,1936.93 1407.18,1933.4 C1402.9,1932.3 1401.63,1928.32 1402.44,1924.6 C1404.56,1914.94 1405.05,1904.7 1411.39,1896.38 C1418.19,1887.46 1422.1,1877.38 1424.1,1866.38 C1426.98,1850.55 1433.65,1836 1439.85,1821.29 C1441.21,1818.07 1442.28,1814.29 1441.93,1810.88 C1440.16,1793.38 1437.59,1775.97 1435.93,1758.47 C1435.06668,1748.54149 1434.73287,1738.57403 1434.93,1728.61 C1435.14417,1705.31952 1431.97786,1682.12119 1425.53,1659.74 C1419.88,1639.95 1415.68,1619.74 1410.53,1599.8 C1407.53,1588.23 1403.98,1576.8 1400.44,1565.36 C1399.69943,1562.81756 1398.36626,1560.48708 1396.55,1558.56 C1391.34838,1553.30374 1385.60658,1548.61109 1379.42,1544.56 C1382.03,1552.97 1384.07,1561.56 1387.36,1569.74 C1394.49,1587.39 1392,1605.03 1388.01,1622.62 C1387.23,1626.08 1383.9,1629.26 1381.14,1631.94 C1362.56,1650.02 1343.39,1667.5 1326.43,1687.15 C1321.88,1692.42 1318.05,1698.31 1313.77,1703.82 C1301.94,1719.04 1290.03,1734.2 1278.18,1749.4 C1275.73,1752.55 1272.41,1755.4 1271.18,1759.02 C1266.5,1772.37 1255.86,1780.02 1245.18,1787.72 C1244.38123,1788.37317 1243.66586,1789.12213 1243.05,1789.95 C1244.95,1805.47 1246.75,1820.24 1248.58,1835.02 C1249.15,1839.63 1249.73,1844.24 1250.45,1848.83 C1251.17,1853.42 1249.04,1856.76 1244.88,1858.21 C1240.2,1859.84 1235.28,1861.72 1230.46,1861.76 C1216.51,1861.86 1202.54,1861.32 1188.6,1860.52 C1184.5,1860.28 1180.49,1858.33 1176.02,1857.05 C1178.77,1845.05 1183.18,1834.75 1187.72,1824.47 C1191.22,1816.57 1194.85,1808.72 1198.49,1800.88 C1203.02622,1790.87658 1205.70644,1780.13196 1206.4,1769.17 C1206.95219,1763.22164 1208.59277,1757.42538 1211.24,1752.07 C1216.73203,1739.9735 1224.08443,1728.81163 1233.03,1718.99 C1260.46,1689.28 1281.87,1655.13 1304.09,1621.59 C1305.23533,1619.96322 1306.17261,1618.19952 1306.88,1616.34 C1310.88,1604.79 1314.88,1593.19 1318.88,1581.43 C1314.23741,1575.86415 1308.13075,1571.70761 1301.25,1569.43 C1298.14943,1568.2408 1295.26457,1566.55178 1292.71,1564.43 C1263.17,1541.21 1233.38,1518.31 1204.37,1494.43 C1188.74,1481.57 1174.59,1466.92 1159.6,1453.27 C1143.77,1438.84 1130.67,1422.11 1117.99,1404.99 C1111.86,1396.7 1105.46,1388.61 1099.26,1380.36 C1084.4,1360.61 1075.26,1338.01 1070.04,1314.28 C1066.67,1298.88 1066.98,1282.59 1066.46,1266.67 C1066.08,1254.67 1066.79,1242.67 1067.46,1230.74 C1067.92,1222.04 1065.1,1214.34 1061.29,1206.89 C1060.14961,1204.90808 1058.48543,1203.2785 1056.48,1202.18 C1046.11,1196.24 1035.92,1190.04 1024.54,1185.91 C1017.08765,1183.08965 1009.94645,1179.50732 1003.23,1175.22 C966.076667,1152.36 929.063333,1129.28667 892.19,1106 C888.555282,1103.66687 885.114179,1101.04508 881.9,1098.16 C871.9,1089.35 861.97,1080.49 852.27,1071.37 C849.38075,1068.67248 847.008491,1065.46993 845.27,1061.92 C827.11,1023.78 809.08,985.573333 791.18,947.3 C789.64,944.01 788.79,940.4 787.41,937.03 C786.280467,933.944133 784.857271,930.973839 783.16,928.16 C780,923.38 777.29,918.54 776.56,912.74 C774.56,896.48 766.4,882.58 758.66,868.74 C750.6,854.3 747.15,838.32 741.81,822.97 C741.571152,821.988676 741.466863,820.979429 741.5,819.97 C740.57,801.06 739.7,782.14 738.72,763.23 C738.44,757.61 737.64,752 737.52,746.37 C737.33,737.44 736.52,728.37 741.64,719.81 C739.52,717.35 737.75,714.98 735.64,712.94 C712.06,689.94 688.8,666.6 664.64,644.23 C652.5,633 638.79,623.35 625.5,613.35 C621.021843,609.935944 617.222975,605.713095 614.3,600.9 C608.64,591.9 602.63,583.08 596.58,574.33 C595.089471,572.182359 593.202298,570.33931 591.02,568.9 C587.41,566.54 583.93,566.46 580.09,569.45 C569.66,577.6 558.91,585.33 547.5,593.79 C555.01,605.43 564.1,617.15 573.22,628.63 C571.997462,634.30215 568.511747,639.229109 563.57,642.27 C545.47,654.07 527.57,666.17 509.33,677.8 C506.22,679.8 501.98,680 496.98,681.39 C495.07,659.26 493.24,638.19 491.34,616.14 C487.95,616.9 485.16,617.35 482.47,618.14 C469.4,621.99 456.41,626.08 443.29,629.75 C438.51082,631.106321 433.592188,631.911555 428.63,632.15 C422.932977,632.326306 417.526734,634.706774 413.55,638.79 C410.067443,642.346027 406.370533,645.685602 402.48,648.79 C393.31,655.79 390.4,664.95 391.84,675.99 C392.43,680.56 392.84,685.17 393.33,689.99 C383.13,695.25 372.89,696.99 362.26,693.94 C346.32,689.273333 330.47,684.35 314.71,679.17 C311.49,678.1 308.87,675.23 305.85,673.11 C310.12,662.58 315.85,654.96 324.8,648.64 C342.45,636.22 359.03,622.29 375.91,608.8 C378.168074,606.842508 379.996442,604.438731 381.28,601.74 C384.84,594.74 390.11,589.19 396,584.33 C399.500012,581.316149 403.585605,579.058859 408,577.7 C419.51,574.6 431.15,571.18 442.94,570.05 C457.83,568.62 469.85,561.25 482.94,555.15 C482.94,543.71 483.19,532.73 482.84,521.77 C482.509003,515.811816 484.401188,509.942835 488.15,505.3 C495.07,496.3 502.04,487.56 511.15,480.55 C514.15,478.21 516.56,474.68 518.49,471.27 C529.8,451.27 540.6,431.05 552.14,411.27 C561.34,395.47 571.31,380.11 581.04,364.62 C583.4,360.86 586.62,358.01 591.31,357.4 C600.55,356.2 607.17,351.19 611.82,343.3 C612.33,342.45 613.05,341.73 613.61,340.9 C615.99,337.38 619.06,336.22 623.07,338.01 C626.71,339.62 630.62,340.79 633.99,342.84 C655.87,356.1 678.66,368.04 698.29,384.7 C715.58,399.38 734.57,411.7 752.93,424.84 C769.65,436.84 785.75,449.73 802.11,462.24 C804.22,463.86 806.2,465.66 808.35,467.24 C813.41,470.88 814.46,470.92 819.79,467 C822.46,465 824.79,462.62 827.33,460.49 C834.45,454.49 841.593333,448.543333 848.76,442.65 C851.669568,440.463476 854.463348,438.126982 857.13,435.65 C869.32,423.16 882.96,412.92 898.91,405.5 C908.81,400.89 917.7,394.18 927.41,389.11 C941.26,381.86 955.88,376.02 969.41,368.19 C985.77,358.69 1001.61,348.19 1017.01,337.19 C1023.01,332.89 1027.18,326.05 1032.76,319.72 C1030.18,316.78 1027.97,314.42 1025.95,311.92 C1012.97,295.92 1000.02333,279.89 987.11,263.83 C986.29,262.83 985.11,261.52 985.11,260.44 C985.307766,257.488723 984.845499,254.723515 984.067378,252.048613 C984.302341,252.776598 984.477625,253.366006 984.569856,253.769875 L984.596,253.892235 C984.494877,253.32947 983.0359,243.9195 997.13,232.91 C1011.66,221.56 1014.06,219.54 1024.9,215.48 C1035.74,211.42 1050.8,202.78 1050.8,202.78 Z M617.69,426.89 C608.69,459.82 589.25,485.14 573.07,513.89 C578.4,512.73 581.99,512.16 585.44,511.15 C598.86841,507.175393 613.092236,506.714006 626.75,509.81 C645.26,513.92 663.84,517.6 679.9,528.66 C684.2,531.66 689.06,533.91 694.3,536.85 C694.3,535.29 694.65,534.19 694.3,533.62 C678.3,510.75 662.3,487.84 646.07,465.13 C637.3,452.87 625.96,442.58 617.69,426.89 Z M1109.01,149.86 C1110.33,152.03 1111.37,153.41 1113.7,154.19 C1122.26269,156.979953 1129.83429,162.189766 1135.5,169.19 C1139.54216,174.064179 1144.08359,178.501707 1149.05,182.43 C1156.42,188.28 1165.52,189.15 1174.53,189.24 C1179.15,189.29 1182.87,190.35 1186.09,193.79 C1192.45,200.57 1199.19,206.99 1205.47,213.79 C1209.47,218.13 1212.12,223.49 1217.82,226.47 C1220.38,227.81 1221.52,231.79 1223.43,234.47 C1227.74,240.58 1229.84,248.4 1237.51,251.96 C1238.93,252.62 1239.51,255.27 1240.26,257.11 C1242.89,263.87 1245.35,270.71 1248.37,279 C1266.15,274.13 1284.26,273.79 1302.95,274 C1292.15,283 1281.81,291.46 1271.72,300.19 C1266.23,304.94 1261.32,310.34 1255.85,315.11 C1253.51866,316.935098 1250.89483,318.35183 1248.09,319.3 C1239.71,322.56 1234.02,327.36 1234.09,337.47 C1234.10342,339.061845 1233.91292,340.603968 1233.55736,342.107783 C1233.58063,341.899026 1233.60178,341.683217 1233.62,341.46 C1234.02,336.56 1233.23,332.68 1234.62,328.96 C1236.01,325.24 1234.28,316.6 1229.71,314.91 C1225.14,313.22 1205,304.91 1205,304.91 C1205,304.91 1205.67,298.47 1200.09,296.91 C1194.51,295.35 1181.09,287.91 1175.54,289.63 C1174.86,292.51 1174.54,294.71 1174.54,294.71 L1163.87,291.83 C1163.87,291.83 1079.05,195.5 1072.96,192.45 C1074.82,189.91 1076.18,187.88 1074.82,186.69 C1074.01061,185.966166 1073.33378,185.106598 1072.82,184.15 C1072.82,184.15 1087.38,170.44 1093.14,165.87 C1098.9,161.3 1099.74,160.11 1100.42,158.08 C1101.08928,156.081995 1106.12752,150.81938 1108.56494,149.15706 C1108.7182,149.389834 1108.86633,149.623642 1109.01,149.86 Z M978.05,234.57 C978.884594,237.632225 980.973246,243.277885 982.578044,247.760761 C980.799281,243.216794 978.627737,238.789172 977.89,233.97 L977.884151,233.941931 C977.935422,234.143222 977.990675,234.35233 978.05,234.57 Z M977.509461,232.214275 L977.539362,232.383143 C977.237138,231.153615 976.95581,229.9117 977.44,229.22 L977.529936,229.084032 C977.320546,230.035323 977.29861,230.954102 977.509461,232.214275 Z M973.3,61.56 C984.84,62.72 996.363333,64.0366667 1007.87,65.51 C1022.12,67.34 1033.39,75.24 1042.87,85.07 C1055.57,98.18 1067.2,112.33 1079.21,126.12 C1080.93,128.12 1081.97,130.68 1083.71,132.65 C1085.87551,135.094934 1087.66529,138.476782 1090.76325,139.134527 L1090.85,139 C1086.2,146.23 1086.35,147.57 1058.59,168.4 C1055.73503,168.360517 1052.88728,168.696734 1050.12,169.4 L1034.21,179.4 L1036.58,185.33 C1036.58,185.33 1024.73,190.24 1014.91,195.33 C1005.09,200.42 981.13,219.13 979.3,224.11 L979.274584,224.181818 C979.531298,220.756753 978.042306,217.438439 977.05,214.07 L965.39,174.43 C960.86,172.99 956.88,172.31 953.48,170.53 C940.27,163.6 940.68,163.36 936.02,148.53 C932.02,135.9 933.09,123.8 937.24,111.53 C940.32,102.4 942.99,93.13 945.6,83.85 C948.6,73.24 957.8,68.44 965.53,62.39 C967.28,61.01 970.71,61.3 973.3,61.56 Z M1098.88916,138.74536 L1096.45364,138.007812 C1097.24056,138.007253 1098.23484,138.31444 1098.88916,138.74536 Z" id="colour" fill="#FFFFFF" style="mix-blend-mode: overlay;"></path>
    </g>
</svg>