<?xml version="1.0" encoding="UTF-8"?>
<svg width="2048px" height="2048px" viewBox="0 0 2048 2048" version="1.1" xmlns="http://www.w3.org/2000/svg" xmlns:xlink="http://www.w3.org/1999/xlink">
    <title>poses/horses_11</title>
    <g id="poses/horses_11" stroke="none" stroke-width="1" fill="none" fill-rule="evenodd" opacity="0.8">
        <path d="M1620.87137,589.26242 C1621.88367,588.44551 1625.63429,585.658571 1628.54,586.67 C1631.93,587.85 1642.77,611.05 1646.15,619.34 C1644.12,621.2 1644.11,623.74 1645.64,628.82 C1647.17,633.9 1654.11,647.78 1655.97,650.32 C1657.83,652.86 1658.71,652.86 1660.71,652.19 L1660.71,652.19 L1664.27,651 C1664.27,651 1674.42,667.26 1677.98,669.29 C1681.54,671.32 1694.43,679.27 1733.68,699.08 C1772.93,718.89 1813.93,744.29 1813.93,744.29 C1813.93,744.29 1811.04,758.85 1803.93,789.66 C1797.9576,815.5404 1791.60418,818.319456 1789.72397,818.546216 L1789.704,818.548 L1789.73362,818.549251 C1790.67315,818.587792 1792.12047,818.73046 1793.84991,818.908047 C1792.291,818.792471 1790.73076,818.689399 1789.17,818.61 C1787.00135,818.380289 1784.80986,818.703681 1782.8,819.55 C1779.45,821.32 1776.62,820.86 1773.37,819.42 C1753.31,810.58 1733.12,802 1713.13,793.01 C1708.61,791.01 1704.7,790.83 1699.8,791.75 C1679.06,795.64 1662.65,808 1646.35,819.75 C1634.63,828.17 1624.69,839.4 1615.09,850.37 C1584.81,884.93 1553.10333,918.103333 1519.97,949.89 C1505.39,963.95 1490.03,977.23 1474.58,990.34 C1458.43,1004.05 1449.63,1021.01 1449.28,1042.22 C1449.13,1051.16 1449.35,1060.12 1449.14,1069.06 C1448.7,1088.68 1447.65,1108.2 1440.21,1126.76 C1438.73,1130.43 1438.21,1134.45 1437.09,1138.29 C1435.77,1143.02 1434.36,1147.72 1432.64,1153.61 C1438.64,1164.38 1443.81,1177.05 1453,1187.4 C1454.54,1189.13 1455.79,1191.12 1457.21,1192.96 C1467.76,1206.63 1478.37,1220.26 1488.88,1233.96 C1502.22,1251.37 1515.81,1268.61 1528.66,1286.38 C1534.79553,1295.04179 1541.89801,1302.97629 1549.83,1310.03 C1595.09667,1349.63 1640.38333,1389.21333 1685.69,1428.78 C1691.69,1433.94 1698.69,1437.86 1705.44,1442.08 C1710.19003,1445.14354 1715.1375,1447.88953 1720.25,1450.3 C1734.32,1456.73 1742.94,1468.48 1750.37,1481.19 C1753.81679,1487.24415 1758.46944,1492.52646 1764.04,1496.71 C1785.34,1512.64 1806.61,1528.61 1827.7,1544.83 C1832.38669,1548.50682 1836.63763,1552.70743 1840.37,1557.35 C1843.61,1561.35 1842.66,1564.69 1838.25,1567.28 C1835.67305,1568.78268 1832.89989,1569.92021 1830.01,1570.66 C1812.93,1575.04 1795.85,1579.41 1778.69,1583.43 C1771.28,1585.17 1763.63,1586.62 1756.12,1581.96 C1755.74,1580.66 1754.8,1579.07 1754.88,1577.52 C1755.59,1563.26 1745.88,1552.85 1741.22,1540.61 C1740.56,1538.9 1738.71,1537.61 1737.22,1536.26 C1735.22,1534.49 1732.79,1533.18 1731.03,1531.26 C1721.11,1520.26 1708.72,1515.01 1694.03,1514.68 C1688.96,1514.57 1685.35,1511.68 1681.84,1508.54 C1652.48,1482.54 1623.26,1456.41 1593.76,1430.54 C1573,1412.36667 1552.02667,1394.45 1530.84,1376.79 C1527.5916,1373.99059 1523.61958,1372.16402 1519.38,1371.52 C1500.15,1369.52 1484.07,1361.7 1469.91,1348.52 C1458.74,1338.14 1446.18,1329.27 1434.71,1319.18 C1423.24,1309.09 1412.42,1298.35 1401.28,1287.92 C1399.84175,1286.53849 1398.28959,1285.2807 1396.64,1284.16 C1378.33333,1272.02 1360,1259.91667 1341.64,1247.85 C1339.73,1246.59 1337.64,1245.62 1335.06,1244.21 C1333.42983,1245.79933 1331.91593,1247.50372 1330.53,1249.31 C1312.35,1276.79 1294.13,1304.23 1276.24,1331.89 C1273.00986,1336.90269 1270.59961,1342.39834 1269.1,1348.17 C1262.99274,1371.32416 1255.202,1394.00119 1245.79,1416.02 C1241.71,1425.71 1239.89,1436.41 1237.53,1446.76 C1227.53,1490.5 1217.94,1534.33 1207.79,1578.03 C1204.18,1593.56 1205.58,1609.14 1205.73,1624.72 C1205.73,1629.95 1208.15,1634.79 1211.53,1639.23 C1223.63,1655.11 1235.32,1671.3 1247.25,1687.3 C1251.72406,1693.03228 1254.43104,1699.94394 1255.04,1707.19 C1241.12,1710.27 1195.62,1708 1183.73,1703.63 C1183.54999,1702.39653 1183.54999,1701.14347 1183.73,1699.91 C1187.01,1689.41 1185.48,1678.97 1184.21,1668.34 C1183.48,1662.2 1180.91,1657.82 1176.83,1653.67 C1167.29,1643.97 1157.98,1634.03 1148.38,1624.38 C1144,1619.97 1142.59,1615.71 1144.44,1609.25 C1151.87,1583.37 1159.15,1557.43 1165.38,1531.25 C1169.6,1513.52 1172,1495.36 1175.16,1477.38 L1176.30947,1470.83945 C1177.6484,1463.20753 1178.96111,1455.56889 1180.05,1447.9 C1180.49,1444.77 1180.69,1441.1 1179.51,1438.32 C1172.51,1422 1172.65,1405.63 1176.91,1388.63 C1183.15,1363.72 1183.52,1338.01 1185.91,1312.63 C1188.32,1286.85 1189.12,1260.87 1195.04,1235.49 C1195.85,1232 1196.04,1228.36 1196.65,1223.77 C1192.71,1223.77 1189.48,1223.67 1186.26,1223.77 C1161.26,1224.66 1136.36,1226.23 1111.4,1226.32 C1090.13,1226.39 1068.84,1224.92 1047.57,1223.9 C1026.96,1222.9 1006.32,1222.07 985.76,1220.31 C975.55,1219.44 965.5,1216.71 955.39,1214.72 C926.67,1209.06 898.15,1202.72 870.33,1193.28 C857.55,1188.95 846.33,1181.93 834.33,1176.17 C809.17,1164.02333 784.076667,1151.73 759.05,1139.29 C753.57,1136.56 749.18,1136.88 744.5,1140.66 C741.41,1143.15 737.66,1144.81 734.5,1147.21 C715.73,1161.39 694.43,1171.02 672.84,1179.56 C659.35,1184.89 644.67,1187.26 630.45,1190.63 C622.018249,1192.52866 613.328062,1193.00188 604.74,1192.03 C592.825014,1190.85701 580.844232,1190.49285 568.88,1190.94 C551.07,1191.6 533.81,1187.94 516.36,1185.7 C510.1,1184.9 503.87,1183.83 497.63,1182.9 C493.63,1182.3 490.57,1183.44 488.5,1187.26 C486.43,1191.08 483.87,1194.56 481.62,1198.26 C472.97,1212.48 464.01,1226.47 452.94,1238.98 C442.07,1251.27 433.87,1265.29 425.89,1279.54 C412.19,1303.98 396.45,1326.99 376.11,1346.54 C363.88,1358.3 351.67,1370.09 339.67,1382.09 C336.12711,1385.58048 333.057573,1389.52079 330.54,1393.81 C322.46,1407.96 315.3,1422.66 306.82,1436.55 C297.82,1451.28 287.82,1465.42 278.06,1479.65 C271.46,1489.24333 264.606667,1498.65333 257.5,1507.88 C254.788994,1511.27535 253.403115,1515.53959 253.6,1519.88 C253.95,1539.17 253.88,1558.48 254.53,1577.77 C254.700715,1582.74394 256.029243,1587.6095 258.41,1591.98 C265.41,1604.27 264.19,1616.75 261.01,1629.9 C259.915013,1630.52901 258.736725,1631.00033 257.51,1631.3 C244.66,1632.56 231.83,1635.06 219.02,1630.69 C213.995467,1628.91301 208.811567,1627.62373 203.54,1626.84 C193.23,1625.46 186.23,1619.24 179.1,1611.65 C181.76,1605.57 184.1,1599.36 187.1,1593.55 C194.49,1579.55 198.2,1564.38 200.61,1548.9 C201.2,1545.1 200.55,1540.99 199.81,1537.15 C198.26,1528.99 196.32,1520.91 194.46,1512.81 C193.157148,1507.63144 194.20749,1502.14184 197.33,1497.81 C209.33,1479.81 220.66,1461.37 232.89,1443.54 C257.19,1408.07 278.3,1370.75 298.04,1332.62 C305.38,1318.43 313.21,1304.55 323.29,1292.05 C332,1281.24 336.87,1268.37 340.93,1255.46 C346.09,1239 349.7,1222.05 353.93,1205.3 C354.053599,1204.02298 354.053599,1202.73702 353.93,1201.46 C348.120151,1203.75535 343.345701,1208.08898 340.5,1213.65 C330.64,1231.77 321.39,1250.24 310.74,1267.87 C300.85,1284.23 298.15,1302.76 292.26,1320.33 C285.59,1340.25 277.75,1359.63 262.14,1374.68 C256.57,1380.05 253.4,1386.42 251.26,1394.22 C248.5,1404.28 244.34,1414.32 236.62,1422.22 C232.02,1426.92 227.89,1432.09 223.82,1436.75 C210.07,1433.75 201.7,1424.91 194.47,1414.75 C190.47,1409.06 186.71,1403.12 183.15,1397.12 C178.69,1389.61 179.64,1384.12 187.34,1379.49 C197.549124,1373.28841 208.095426,1367.65971 218.93,1362.63 C225.31,1359.69 229.19,1355.81 230.14,1348.9 C230.64,1345.28 232.35,1341.6 231.95,1338.14 C230.79,1328.14 235.44,1320.71 240.54,1312.63 C249.76,1298.03 256.82,1282.08 266,1267.46 C275.38,1252.54 280.75,1236.46 284.89,1219.55 C290.66,1195.99 297.24,1172.62 303.34,1149.14 C304.540771,1144.67238 306.864426,1140.58619 310.09,1137.27 C322.09,1124.12 335.51,1112.96 352.09,1105.94 C354.385527,1104.7897 356.612582,1103.50756 358.76,1102.1 C358.76,1097.68 358.61,1093.1 358.76,1088.42 C359.106667,1079.46667 359.57,1070.52 360.15,1061.58 C360.313935,1059.59195 360.828543,1057.64863 361.67,1055.84 C367.38,1043.47 373.03,1031.07 379.05,1018.84 C382.45,1011.94 385.46,1005.06 386.76,997.37 C388.41,987.64 390.76,978.03 393.09,967.37 C387.01,967.89 383.2,970.53 379.43,972.82 C358.11,985.82 336.95,998.98 315.6,1011.88 C303.37,1019.28 290.93,1026.36 278.47,1033.37 C275.536131,1034.93254 272.399517,1036.08017 269.15,1036.78 C250.04,1041.2 231,1045.96 211.74,1049.62 C196.14,1052.62 180.41,1055.19 164.38,1054.96 C158.400415,1054.73 152.412595,1055.07829 146.5,1056 C132.89,1058.49 120.13,1054.77 107.23,1051.66 C97.53,1049.33 87.88,1046.72 78.09,1044.83 C69.760061,1043.27598 62.2064006,1038.93492 56.67,1032.52 C57.74,1027.46 58.82,1022.34 60.09,1016.35 C63.95,1014.35 68.16,1011.58 72.77,1009.92 C87.16,1004.75 101.63,999.74 116.24,995.24 C121.004349,993.960657 125.950961,993.49744 130.87,993.87 C146.45,994.59 162.02,995.87 177.6,996.7 C179.917499,996.690207 182.219007,996.315621 184.42,995.59 C213.91,987.49 243.53,979.82 272.79,970.97 C286.492791,966.841228 299.77243,961.420215 312.45,954.78 C336.34,942.21 361.89,933.44 386,921.45 C390.09325,919.237375 394.329286,917.299755 398.68,915.65 C405.77,913.24 410.14,909.27 412.38,901.59 C414.09,895.76 419.33,891.06 421.92,885.37 C427.82,872.37 438.2,864.89 450.71,859.37 C467.39,852.02 481.15,840.3 494.28,828.13 C515.12,808.81 539.95,799.94 567.63,798.97 C580.8,798.51 593.29,795.63 605.95,792.97 C609.53,792.22 613.09,791.32 616.58,790.24 C630.37,785.95 644.58,785.24 658.89,784.54 C674.47,783.83 690.06,782.54 705.52,780.54 C719.92,778.69 734.13,780.22 748.16,782.17 C775.16,785.92 801.81,791.42 828.47,797.32 C857.03,803.65 885.24,811.46 913.93,817.07 C923.93,819.02 934.45,818.38 944.73,818.38 C963.73,818.38 982.73,817.29 1001.65,817.85 C1023.5,818.5 1044.65,814.95 1065.91,810.69 C1099.86401,804.04891 1133.0404,793.915031 1164.91,780.45 C1179.83,774.08 1195.86,770.34 1211.4,765.45 C1212.38455,765.298227 1213.35462,765.064072 1214.3,764.75 C1227.98,757.49 1243.11,753.28 1255.98,744.18 C1261.97016,740.051153 1268.51524,736.792081 1275.42,734.5 C1284.77,731.31 1293.05,726.78 1300.02,719.87 C1305.9,714.04 1312.79,710.54 1321.1,709.96 C1322.1,709.89 1323.1,709.65 1324.1,709.56 C1336.49,708.47 1347.33,704.45 1355.1,693.97 C1358.85,688.89 1363.92,686.54 1370.48,686.28 C1378.41,685.95 1386.28,684.12 1394.22,683.75 C1398.5719,683.742859 1402.69633,681.805186 1405.48,678.46 C1411.04166,671.698551 1419.3056,667.738594 1428.06,667.64 C1431.98,667.53 1434.79,665.64 1437.82,663.34 C1441.71326,660.317649 1445.99913,657.838305 1450.56,655.97 C1458.56,652.81 1466.87,650.23 1475.13,647.72 C1485.06,644.72 1494.47,641.03 1502.63,634.22 C1508.71,629.13 1516.8,628.58 1524.3,627.82 C1533.3,626.92 1541.67,625.13 1549.8,620.51 C1554.68,617.74 1561.25,617.51 1567.13,617.1 C1572.40481,616.631572 1577.50704,614.984366 1582.06,612.28 C1590.75,607.47 1599.92,603.49 1608.93,599.28 C1613.85806,596.967742 1618.14849,594.089594 1620.82647,589.300713 Z M1880.43,664.36 C1881.82,665.49 1881.19,669.13 1881.53,672.04 C1884.15,673.6 1886.81,675.72 1889.85,676.92 C1911.3,685.4 1930.5,698.09 1950.11,709.92 C1965.87,719.38 1977.18,733.05 1981.11,752.01 C1982.86,760.38 1986.4,768.41 1989.47,776.46 C1991.65,782.17 1990.9,787.26 1988.35,792.67 C1983.81,802.27 1977.79,809.87 1967.75,814.59 C1959.75,818.36 1952.68,824.25 1944.89,828.65 C1933.63,835 1922.31,841.59 1908.46,839.23 C1907.46689,839.06403 1906.45311,839.06403 1905.46,839.23 C1895.35,840.89 1887.83,836.82 1880.65,829.85 C1876.4,825.72 1875.1,821.08 1874,815.74 C1872.6,815.23 1871.41,814.46 1870.2,814.42 C1855.2,813.96 1840.28,813.64 1825.33,813.21 C1821.74329,813.106537 1818.52083,813.404495 1815.97027,815.99461 C1818.94994,811.635371 1821.68639,803.47082 1826.28,793.17 C1832.55,779.11 1836.28,755.75 1836.28,755.75 C1838.9595,755.2494 1841.67492,754.96515 1844.4,754.9 C1843.9,748.81 1848.14,741.54 1849.48,737.3 C1850.82,733.06 1851.52,730.35 1849.82,723.92 C1858.36,708.42 1865.06,692.83 1870.82,682.92 C1874.19,677.11 1878.59,673.36 1879.28,672.42 C1881.14,669.88 1882.16,666.67 1880.34,664.31 C1880.32949,664.293655 1880.31896,664.277354 1880.30842,664.261097 C1880.34964,664.294515 1880.38984,664.327254 1880.43,664.36 Z M1809.8,819.96 C1808.88122,819.934627 1807.96262,819.898197 1807.04415,819.853281 C1809.32603,819.841029 1811.28418,819.656147 1812.51,819.17 C1813.04647,818.957241 1813.55835,818.636929 1814.05362,818.21541 C1812.8915,819.268313 1811.38931,819.892736 1809.8,819.96 Z M1672.67,483.16 C1678.5,494.4 1681.47,504.45 1684.51,514.37 C1687.59,524.44 1689.71,534.8 1692.44,545.77 C1694.6,545.77 1697.18,545.58 1699.73,545.77 C1722.73,547.77 1744.01,554.31 1761.73,569.85 C1770.35,577.41 1780.62,582.28 1790.73,587.31 C1798.58,591.22 1804.73,596.11 1807,604.82 C1810,616.17 1817.16,623.42 1827.63,628.65 C1839.21,634.44 1850.2,641.45 1858.7,651.65 C1860.59,653.91 1863.18,654.79 1866.15,655.76 C1867.53908,656.215876 1868.90227,656.79472 1870.23611,657.465099 C1868.57435,656.83166 1866.76088,656.161374 1864.79,655.31 C1864.68,657.81 1858.47,667.02 1856.43,669.73 C1854.39,672.44 1849.99,676.85 1845.59,685.31 C1841.19,693.77 1833.23,707.66 1829.84,713.24 C1824.77,712.4 1822.19,713.8 1820.19,716.8 C1798.19,708 1694.73,651.61 1692.02,650.07 C1689.31,648.53 1686.26,641.39 1685.08,640.07 C1683.9,638.75 1689.99,638.07 1689.99,638.07 C1689.99,638.07 1691.85,634.64 1689.99,633.16 C1688.13,631.68 1681.7,618.1 1678.48,612.68 C1675.26,607.26 1671.37,607.26 1669.17,607.26 C1668.49,603.2 1658.33,588.8 1654.27,582.54 C1650.21,576.28 1651.27,577.29 1651.27,572.97 L1651.27067,573.043365 C1651.2971,573.038888 1651.32355,573.034432 1651.35,573.03 C1654.55,569.26 1653.65,564.85 1653.11,560.64 C1652.45,555.52 1653.5,550.86 1655.2,546.04 C1660.39,531.3 1665.46,516.52 1670.04,501.59 C1671.62,496.41 1671.64,490.76 1672.67,483.16 Z M1767.41,609.59 C1763.48,608.45 1753.45,611.49 1749.64,618.73 C1756.37,622.41 1763.48,624.83 1767.04,625.08 C1770.6,625.33 1771.87,624.83 1782.41,621.02 C1778.84,616.32 1771.34,610.73 1767.41,609.59 Z" id="colour" fill="#FFFFFF" style="mix-blend-mode: overlay;"></path>
    </g>
</svg>