<?xml version="1.0" encoding="UTF-8"?>
<svg width="2048px" height="2048px" viewBox="0 0 2048 2048" version="1.1" xmlns="http://www.w3.org/2000/svg" xmlns:xlink="http://www.w3.org/1999/xlink">
    <title>poses/horses_13</title>
    <g id="poses/horses_13" stroke="none" stroke-width="1" fill="none" fill-rule="evenodd" opacity="0.8">
        <path d="M722.17,293.66 C729.22,303.34 735.36,313.72 742.74,323.14 C760.84,346.21 771.95,373 784.07,399.25 C787.97,407.68 790.89,416.55 794.47,425.14 C796.018378,429.155237 797.954185,433.010105 800.25,436.65 C828.51,478.65 855.1,521.65 877.34,567.25 C880,572.62 883,577.8 885.91,583 C891.74,593.53 896.33,604.45 898.45,616.45 C899.457722,621.301067 901.378488,625.916334 904.11,630.05 C909.041341,637.953051 914.423579,645.565646 920.23,652.85 C928.08,662.58 933.67,673.45 937.99,685.01 C944.99,703.72 951.82,722.47 958.38,741.33 C960.38,747.2 963.74,750.65 969.75,752.56 C982.75,756.67 995.51,761.56 1008.45,765.84 C1012.63098,767.003702 1016.08536,769.953099 1017.89,773.9 C1021.16,780.79 1024.68,787.59 1028.49,794.21 C1029.97605,796.748331 1032.02969,798.908074 1034.49,800.52 C1060.56,817.2 1086.49,834.17 1115.86,844.8 C1119.25005,846.104641 1122.31957,848.1237 1124.86,850.72 C1132.35333,858.293333 1139.62333,866.08 1146.67,874.08 C1149.36953,877.459326 1153.47506,879.406965 1157.8,879.36 C1175.43,879.8 1193.11,880.08 1210.68,881.46 C1250.81,884.61 1290.68,888.95 1329.36,901.46 C1340.98,905.23 1353.36,906.57 1365.43,909.07 C1375.52,911.16 1385.66,913.07 1395.67,915.56 C1399.85861,916.576878 1403.87024,918.218612 1407.57,920.43 C1424.67,930.78 1442.08,940.48 1460.37,948.6 C1464.26729,950.457349 1467.91862,952.791912 1471.24,955.55 C1480.37,962.79 1489.57,969.97 1498.24,977.75 C1523.7,1000.64 1552.95,1017.95 1582.79,1034.09 C1599.86,1043.33 1611.61,1055.84 1621.17,1072.7 C1635.76,1098.41 1652.9,1122.7 1669.24,1147.38 C1672.83,1152.82 1675.24,1158.14 1675.55,1164.8 C1675.91,1173.43 1677.46,1182 1678.12,1190.63 C1678.73599,1197.24095 1678.92305,1203.88486 1678.68,1210.52 C1677.41,1234.78 1675.24,1259.01 1674.54,1283.28 C1674.12,1298.11 1677.95,1312.28 1687.73,1324.16 C1689.43985,1326.17853 1691.41045,1327.9608 1693.59,1329.46 C1721.73,1349.19 1751.71,1365.72 1782.59,1380.66 C1786.72,1382.66 1790.59,1383.37 1795.05,1381.92 C1799.78,1380.37 1804.88,1379.77 1809.44,1377.86 C1827.11,1370.43 1844.65,1373.86 1862.25,1377.86 C1863.54,1378.16 1864.81,1378.64 1866.12,1378.86 C1889.47,1382.15 1906.48,1396.37 1923.83,1412.22 C1920.57,1423.09 1917.4,1434.22 1913.77,1445.22 C1913.15,1447.09 1910.77,1448.75 1908.86,1449.75 C1894.66,1457.05 1880.44,1464.32 1866.03,1471.21 C1862.42505,1472.90969 1858.49535,1473.81024 1854.51,1473.85 C1830.55,1473.89 1806.58667,1473.68 1782.62,1473.22 C1778.83,1473.14 1774.88,1471.43 1771.34,1469.75 C1756.01,1462.48 1740.82,1454.92 1725.55,1447.52 C1722.01,1445.8 1718.37,1444.29 1713.27,1442 C1714.27,1452.51 1715.1,1461.64 1716.09,1470.74 C1718.32,1491.12 1724.93,1510.2 1732.81,1529.03 C1747.54,1564.19 1746.9,1564.32 1749.2,1602.3 C1750.29,1620.2 1746.93,1637.48 1744.29,1654.85 C1737.95,1696.67 1732.84,1738.58 1730.86,1780.85 C1729.86,1801.45 1726.86,1821.96 1726.08,1842.56 C1725.41,1859.42 1723.83,1875.4 1712.88,1889.34 C1707.09,1896.71 1707.2,1905.34 1708.63,1914.86 C1711.75,1935.57 1713.93,1956.42 1718.01,1977 C1719.24,1983.19 1713.5,1989.09 1706.23,1990.07 C1685.97,1992.79 1665.82,1993.07 1645.68,1988.62 C1639.2,1987.21 1632.51,1987.01 1626.68,1981.28 C1629.13,1974.05 1631.16,1966.36 1634.29,1959.14 C1645.48,1933.34 1652.16,1906.23 1658.46,1878.98 C1659.74584,1872.79211 1661.48042,1866.70602 1663.65,1860.77 C1668.36,1848.77 1669.51,1836.38 1669.03,1823.58 C1668.33,1804.95 1668.72,1786.28 1667.84,1767.66 C1666.94,1748.77 1671.72,1730.66 1674.23,1712.26 C1674.99,1706.66 1675.94,1701.06 1677.17,1695.55 C1679.04,1687.25 1678.17,1679.02 1677.17,1670.76 C1674.5,1648.28 1671.73,1625.82 1669.17,1603.33 C1668.51699,1598.0603 1666.53491,1593.04315 1663.41,1588.75 C1650.89,1570.34 1633.68,1556.57 1617.41,1541.96 C1599.82,1526.19 1581.14,1511.6 1563.86,1495.51 C1548.78,1481.51 1534.86,1466.17 1520.69,1451.17 C1516.92008,1446.9842 1512.21607,1443.74655 1506.96,1441.72 C1494.88,1437.15 1483.05,1431.86 1469.51,1429.06 C1465.34,1435.06 1460.76,1440.82 1457.17,1447.06 C1445.89704,1466.76964 1429.79546,1483.28761 1410.38,1495.06 C1404.17,1498.9 1398.72,1503.97 1392.53,1507.85 C1386.92,1511.36 1385.15,1516.4 1383.4,1522.4 C1378.46,1539.4 1380.4,1555.99 1384.1,1572.7 C1384.39,1574 1384.66,1575.31 1385.1,1576.58 C1391.27,1596.85 1390.02,1617.44 1387.02,1637.91 C1385.73,1646.7 1381.89,1655.1 1379.72,1663.8 C1377.16636,1674.46654 1371.78815,1684.24886 1364.15,1692.12 C1341.83,1715.45 1320.06,1739.32 1298.22,1763.12 C1294.82076,1766.75417 1291.86968,1770.78295 1289.43,1775.12 C1277.89667,1796.12667 1266.53667,1817.22333 1255.35,1838.41 C1249.06,1850.29 1246.35,1863.98 1235.93,1873.8 C1233.05,1876.51 1232.48,1881.61 1230.71,1885.56 C1228.94,1889.51 1229.41,1893 1231.28,1896.94 C1235.13,1905.02 1238.46,1913.35 1241.85,1921.64 C1245.46,1930.44 1245.85,1939.79 1246.13,1949.11 C1246.37,1956.2 1244.99,1958.11 1238.05,1959.23 C1215.29,1962.92 1192.41,1964.23 1169.4,1962.08 C1168.07657,1961.9577 1166.77335,1961.6722 1165.52,1961.23 C1164.34062,1960.64524 1163.21611,1959.95581 1162.16,1959.17 C1163.77,1950.05 1164.6,1940.4 1167.31,1931.32 C1170.63,1920.22 1175.69,1909.65 1179.69,1898.74 C1181.39,1894.11 1183.23,1889.24 1183.47,1884.41 C1184.81,1856.82 1196.3,1832.28 1205.99,1807.19 C1207.26895,1804.12462 1209.07263,1801.30573 1211.32,1798.86 C1230.41,1777.29 1245.76,1753.25 1259.18,1727.86 C1266.65,1713.74 1274.86,1700.02 1282.56,1686.03 C1284.57266,1682.58871 1286.10361,1678.88752 1287.11,1675.03 C1290.2,1661.41 1292.77,1647.67 1295.74,1634.03 C1296.99,1628.26 1296.69,1622.97 1293.69,1617.7 C1287.43,1606.7 1282.32,1595.01 1275.17,1584.7 C1264.59,1569.45 1257.71,1552.7 1251.17,1535.57 C1244.5883,1518.13397 1240.10674,1499.97608 1237.82,1481.48 C1236.7,1472.92 1234.9,1464.42 1232.99,1455.99 C1230.41,1444.6 1226.63,1433.72 1220.41,1423.61 C1208.05,1403.49 1196.25,1383.01 1184.14,1362.73 C1181.95,1359.06 1179.37,1355.62 1176.78,1351.73 C1173.78,1352.33 1171.21,1352.65 1168.73,1353.38 C1162.02,1355.38 1155.3,1357.28 1148.73,1359.58 C1123.5,1368.39 1097.3,1373.07 1071.11,1377.75 C1067.46481,1378.23891 1063.78674,1378.43953 1060.11,1378.35 C1037.8,1378.67 1015.5,1379.15 993.19,1379.09 C985.553477,1379.06542 977.938682,1378.2748 970.46,1376.73 C951.52,1372.91 932.68,1368.66667 913.94,1364 C904.63,1361.7 895.57,1358.36 885.94,1355.37 C885.043006,1356.24673 884.244898,1357.21921 883.56,1358.27 C869.08,1386.37 854.73,1414.54 840.16,1442.59 C837.48,1447.74 835.79,1452.87 835.89,1458.73 C836.01,1465.05 835.27,1471.4 835.6,1477.73 C836.19,1488.91 833.89,1499.4 830.37,1509.97 C818.78,1544.68 807.11,1579.39 796.6,1614.43 C791.75,1630.61 789.42,1647.56 786.13,1664.2 C782.91,1680.52 780.32,1696.98 776.69,1713.2 C774.09,1724.8 777.76,1735.58 779.36,1746.64 C779.66,1748.69 781.41,1750.86 783.06,1752.32 C789.3,1757.81 795.55,1763.32 802.22,1768.32 C812.94,1776.32 819.22,1786.15 820.53,1799.84 C821.27,1807.76 820.53,1814.84 817.53,1822.09 C812.7,1833.77 808.17,1845.58 803.8,1857.44 C802.214309,1861.78505 799.171621,1865.44617 795.19,1867.8 C786.89,1873.16 778.38,1875.07 768.67,1873.24 C763.423748,1872.28423 758.088673,1871.90531 752.76,1872.11 C746.95,1872.3 743.5,1869.68 740.76,1864.95 C737.76,1859.76 734.59,1854.67 731.16,1849.77 C728.510708,1846.28828 727.620977,1841.77687 728.75,1837.55 C729.75,1833.68 730.26,1829.71 731.03,1825.79 C732.706247,1817.617 732.258659,1809.1507 729.73,1801.2 C725.37,1787.2 721.73,1773.06 717.45,1759.05 C715.550687,1752.68874 715.136727,1745.97643 716.24,1739.43 C719.98,1714.75 723.95,1690.12 731,1666.11 C732.723968,1660.02966 733.320464,1653.68512 732.76,1647.39 C729.05,1597.6 725.63,1547.78 721.93,1497.98 C720.52,1479.06 718.69,1460.17 716.83,1441.29 C716.23872,1435.66641 716.779345,1429.98135 718.42,1424.57 C724.42,1404.5 730.53,1384.44 736.08,1364.23 C738.298593,1355.55706 739.968568,1346.75295 741.08,1337.87 C744.59,1313.16 747.62,1288.39 751.23,1263.69 C752.02,1258.29 750.64,1254.78 746.23,1251.88 C731.56,1242.18 717.36,1232.17 699.95,1226.97 C683.79,1222.14 668.4,1214.59 652.95,1207.71 C644.396702,1203.83707 634.771301,1203.02495 625.69,1205.41 C612.463333,1208.69 599.29,1212.2 586.17,1215.94 C582.029423,1217.12217 578.057158,1218.82937 574.35,1221.02 C548.58,1236.28 522.6,1251.24 497.35,1267.27 C481.92,1277.05 467.35,1288.27 452.85,1299.42 C445.25,1305.27 437.28,1309.3 427.8,1310.68 C422.22,1311.5 416.75,1313.04 411.22,1314.24 C399.33,1316.81 394.56,1320.5 388.61,1331.93 C389.430198,1333.27766 390.377878,1334.54346 391.44,1335.71 C406.84,1350.02 416.94,1367.98 426.38,1386.4 C427.644811,1388.73756 428.705417,1391.17996 429.55,1393.7 C436.32,1415.7 445.97,1436.53 456.08,1457.16 C466.19,1477.79 476,1498.55 486.33,1519 C489.68,1525.6 491.33,1532 489.53,1539.08 C488.28,1544.08 489.93,1547.88 492.3,1552.2 C497.7,1562.04 504.91,1568.2 516.3,1570.94 C526.7,1573.43 536.82,1576.33 547.62,1576.01 C550.91,1575.91 554.21,1576.36 557.81,1576.57 C560.81,1584.3 562.51,1591.96 561.81,1600.02 C560.54,1615.27 558.64,1630.41 556.2,1645.55 C554.11,1658.83 548.36,1669.27 537.78,1678.61 C526.34,1673.17 516.05,1667.47 507.84,1657.42 C491.01,1636.83 473.05,1617.14 455.16,1597.42 C451.072343,1593.09511 446.22095,1589.56251 440.85,1587 C428.29,1580.85 419.23,1570.5 408.85,1561.71 C407.418753,1560.3328 406.365109,1558.61116 405.79,1556.71 C401.46,1544.15 396.7,1531.71 394.55,1518.48 C393.351049,1511.27552 391.338163,1504.23042 388.55,1497.48 C376.95,1469.15 364.35,1441.21 353.28,1412.69 C343.817599,1388.51163 336.916535,1363.40771 332.69,1337.79 C331.04,1327.7 327.81,1317.79 324.28,1308.11 C320.09,1296.65 322.35,1285.7 328.38,1276.67 C346.09,1250.13 362.67,1222.67 385.38,1199.76 C385.803936,1199.24669 386.254557,1198.75601 386.73,1198.29 C401,1186.67 409.62,1170.84 418.83,1155.42 C442.37,1115.98 466.18,1076.7 489.52,1037.14 C494.21,1029.14 498.73,1020.58 500.68,1011.69 C502.981168,1001.62688 503.465447,991.233501 502.11,981 C499.71,964.86 503.53,949.88 507.28,934.76 C510.48,921.87 514.36,909.12 518.41,896.47 C520.73,889.23 523.98,882.29 526.87,875.25 C528.13,872.18 529.42,869.11 530.87,866.14 C532.71,862.44 532.74,858.95 529.46,856.2 C525.6,852.96 525.7,849.06 526.08,844.5 C528.29,817.57 533.78,791.23 538.95,764.75 L539.913981,759.811294 C546.980851,723.59051 553.934348,687.282609 556.67,650.38 C557.32,641.51 556.54,632.52 556.42,623.56 C554.779415,623.036915 553.319028,622.873342 551.986595,622.973458 C560.877215,621.136247 563.529145,617.995139 571.99,612.03 C580.94,605.72 588.89,597.81 594.99,591.72 C597.84,584.6 596.99,540.08 596.99,540.08 C596.99,540.08 602.07,530.43 603.76,528.9 C604.221645,528.606333 604.501222,528.097134 604.501222,527.55 C604.501222,527.002866 604.221645,526.493667 603.76,526.2 C603.76,526.2 644.09,473.2 647.27,468.29 C650.45,463.38 669.78,432.23 671.27,429.52 C672.76,426.81 690.74,382.29 691.76,377.21 C692.78,372.13 699.72,345.72 699.55,343.01 C699.38,340.3 699.72,311.18 699.72,311.18 L699.72,311.18 L703.44,311.86 L711.44,306.95 C711.44,306.95 701.29,272.58 697.56,260.73 C697.14287,259.404802 696.727491,258.247438 696.314241,257.235459 C705.811004,268.713074 713.401391,281.634479 722.17,293.66 Z M396.4,438.81 C400.68,439.82 430.62,442.19 435.68,442.87 C440.74,443.55 512.71,479.95 514.74,481.47 C516.77,482.99 550.46,524.47 550.46,524.47 C550.46,524.47 549.78,535.48 552.66,540.22 C555.54,544.96 559.64,549.18 562.82,555.79 C566,562.4 569.09,563.24 574,567.31 C574,579.83 575.04,602.38 572.84,604.75 C570.64,607.12 562.01,613.22 550.38,623.28 L550.459715,623.210711 C548.020394,623.789503 545.996641,625.242878 543.99,626.84 C530.43,637.6 516.99,648.47 503.18,658.96 C498.89,662.24 497.52,665.72 498.47,670.91 C500.14,680.07 501.38,689.31 502.74,698.53 C502.98,700.13 502.94,701.78 503.06,703.85 C494.13,710.28 485.26,716.71 476.35,723.07 C475.32741,723.925029 474.118266,724.527888 472.82,724.83 C460.32,726.46 447.82,728.83 435.28,729.25 C422.74,729.67 410.03,727.92 397.41,727.13 C396.08,727.04 394.51,727.38 393.46,726.8 C382.91,721.02 370.94,721.95 359.68,719.63 C354.83,718.63 350.9,717.04 347.76,713.24 C345.742878,710.584056 343.427745,708.168265 340.86,706.04 C333.99,700.82 331.86,693.97 333.31,685.83 C335.14,675.31 332.64,665.3 329.73,655.41 C325.297701,640.751945 322.300282,625.697867 320.78,610.46 C320.259843,605.207308 320.30007,599.914179 320.9,594.67 C321.96,586.1 323.53,577.56 325.31,569.1 C326.215975,565.219341 327.578819,561.459772 329.37,557.9 C339.3,537.19 349.26,516.5 359.48,495.9 C360.534892,493.782224 361.468439,491.707557 362.038206,489.612839 L362.05,489.7 C362.05,489.7 366.91,479.1 368.66,475.54 C370.425192,471.970493 370.847569,467.885145 369.85,464.03 C368.83,459.63 367.5,450.31 373.4,446.25 C379.3,442.19 390.3,440.81 396.4,438.81 Z M445.76,24.1 C447.49,27.92 448.98,30.8 450.13,33.82 C458.81,56.5 467.28,79.27 476.13,101.89 C478.988078,109.298213 482.397636,116.481685 486.33,123.38 C489.1,128.17 493.89,130.38 499.88,129.98 C512.17,129.14 524.48,128.49 536.79,128.17 C547.16,127.9 557.05,130.62 566.79,133.87 C569.25,134.69 572.18,134.07 576.08,134.14 C574.52,126.46 573.47,119.98 571.84,113.65 C569.829366,106.280612 569.295799,98.5863757 570.27,91.01 C573.27,68.93 575.75,46.78 578.45,24.56 C586.09,27 596.69,35.34 600,41.71 C605.4,52.03 610.64,62.44 615.84,72.86 C616.864335,74.9481641 617.626776,77.1548765 618.11,79.43 C624.05,106.763333 629.95,134.08 635.81,161.38 C635.353287,166.901333 636.296686,171.779147 638.14656,176.251445 C637.923421,178.247236 638.252897,179.910125 638.81,183.78 C639.37,187.67 646.43,201.13 648.37,206.89 C659.55,219.33 666.74,237.28 667.84,241.26 C668.94,245.24 668.57,247.36 667.42,249.81 C666.27,252.26 667.34,259.46 668.27,262.42 C669.2,265.38 678,299.5 679.78,303.14 C681.56,306.78 682.74,307.29 685.87,307.29 C685.2,311.35 682.83,334.41 680.12,340.81 C677.41,347.21 659.47,380.73 655.74,385.81 C652.01,390.89 646.3,410.19 643.89,413.58 C641.48,416.97 632.34,431.53 624.89,445.41 C617.44,459.29 582.39,496.54 582.39,496.54 C582.39,496.54 573.93,494.17 571.39,494.17 C568.85,494.17 568,498.57 568,498.57 C568,498.57 526.22,452 522.16,450 C518.1,448 480.01,427.65 474.42,425.11 C468.83,422.57 440.9,411.89 437.34,410.89 C433.78,409.89 407.88,410.38 404.83,410.89 C401.8715,411.3847 375.983267,414.269286 374.432636,414.441916 L374.36,414.45 C371.756473,420.703814 368.784597,426.797831 365.46,432.7 C365.443621,432.725453 365.42727,432.750896 365.410947,432.776329 C365.830934,429.438531 365.501364,426.015152 363.74,422.53 C363.274445,421.284579 363.235752,419.919797 363.63,418.65 C369.45,397.37 365.8,376.46 361.34,355.56 C361.06,354.26 361.06,352.89 360.66,351.63 C358.45565,344.931519 358.642962,337.675819 361.19,331.1 C363.32,325.43 363.19,319.97 360.19,314.77 C354.37,304.64 354.91,293.62 355.77,282.66 C356.05,279.2 357.72,275.66 359.43,272.52 C365.43,261.41 371.96,250.52 377.95,239.4 C380.21,235.2 384.13,231.62 383.22,225.91 C382.99,224.48 385.11,222.57 386.35,221.03 C392.35,213.5 398.64,206.13 404.52,198.48 C407.24,194.93 409.28,190.86 412.76,185.19 L401.41,190.29 C402.95,186.86 403.31,184.94 404.41,183.76 C411.06,176.76 417.61,169.63 424.75,163.15 C428.69,159.57 430.61,155.48 432.13,150.6 C439.6,126.66 439.13,102.01 439,77.39 C438.95,67.74 437.89,58.08 438.15,48.44 C438.32,41.88 439.78,35.31 441.15,28.83 C441.46,27.33 443.63,26.21 445.76,24.1 Z M597.46,298.66 C595.55,298.66 586.8,305.3 584,307.3 C581.2,309.3 577.9,318.3 577.9,318.3 C579.884889,326.620889 598.992622,326.241728 602.215276,326.220768 L602.41,326.22 C604.95,326.22 620.82,317.46 620.82,317.46 C620.82,317.46 622.24,309.88 620.82,309.07 C617.61,307.26 604.06,298.66 597.46,298.66 Z M685.27,245.6 C686.856893,247.031009 688.383954,248.507378 689.859838,250.02254 C688.897472,249.77978 687.962234,249.690745 687.06,249.39 C684.241698,248.450566 684.43954,248.241604 681.318877,239.727541 C682.291575,241.9486 683.597977,244.08585 685.27,245.6 Z M664.43,210.85 C671.124245,218.511735 676.758395,226.698742 680.091126,236.419014 L679.94,236.02 C675.34,223.84 672.07,220.68 660.34,205.95 C660.268318,205.859985 660.196801,205.770187 660.12545,205.680605 C661.528603,207.430426 662.951299,209.163548 664.43,210.85 Z" id="colour" fill="#FFFFFF" style="mix-blend-mode: overlay;"></path>
    </g>
</svg>