<?xml version="1.0" encoding="UTF-8"?>
<svg width="2048px" height="2048px" viewBox="0 0 2048 2048" version="1.1" xmlns="http://www.w3.org/2000/svg" xmlns:xlink="http://www.w3.org/1999/xlink">
    <title>poses/horses_19</title>
    <g id="poses/horses_19" stroke="none" stroke-width="1" fill="none" fill-rule="evenodd" opacity="0.8">
        <path d="M1648.78,368.13 C1648.78,368.13 1662.07,368.88 1663.43,379.72 C1664.79,390.56 1667.15,412.9 1667.15,412.9 C1667.15,412.9 1661.4,420.35 1663.43,424.41 C1665.46,428.47 1667.15,450.15 1667.15,450.15 C1667.15,450.15 1668.85,452.52 1674.6,452.52 C1674.6,459.97 1679,471.52 1682.39,476.9 C1685.78,482.28 1719.3,520.9 1731.15,534.46 C1743,548.02 1781.6,592.02 1783.29,599.81 C1778.55,607.94 1771.1,619.45 1768.06,625.21 C1765.02,630.97 1762.98,637.4 1757.56,641.12 C1752.14,644.84 1755,656 1731.05,668.38 C1734.76346,670.688802 1737.56781,672.614736 1739.95889,674.041404 C1737.58741,673.209263 1735.42094,672.149512 1733.78,670.57 C1729.12,666.07 1724.66,666.25 1719.4,667.15 C1701.14,649.81 1682.02,633.76 1666.03,614.49 C1661.92,609.49 1660.26,609.25 1655.31,613.26 C1649.12,618.26 1643.39,623.85 1637.41,629.13 C1619.17,645.23 1603.23,663.5 1587.3,681.82 C1564.2,708.41 1540.61,734.58 1517.52,761.19 C1511.88,767.69 1507.35,775.19 1502.41,782.25 C1488.91,801.63 1475.97,821.42 1461.85,840.33 C1451.05,854.81 1447.19,871.14 1444.41,888.39 C1440.91,910.19 1440.23,932.03 1440.71,953.99 C1440.90304,959.969279 1439.85783,965.9239 1437.64,971.48 C1431.96,985.68 1426.54,999.983333 1421.38,1014.39 C1419.92089,1018.80447 1416.95411,1022.56428 1413,1025.01 C1402.37,1031.85 1392.11,1039.29 1381.29,1045.81 C1376.4255,1048.68371 1372.76382,1053.21907 1370.98,1058.58 C1360.18,1087.58 1349.1,1116.41 1338.33,1145.38 C1333.58,1158.15 1329.68,1171.24 1324.73,1183.93 C1320.11,1195.78 1320.17,1208.18 1320.38,1220.33 C1320.82,1245.49 1315.62,1269.88 1312.15,1294.52 C1311.20136,1300.4174 1310.78302,1306.38794 1310.9,1312.36 C1311.98,1339.22 1313.47,1366.07 1314.69,1392.93 C1315.5,1410.85 1315.99,1428.79 1316.83,1446.71 C1317.81,1467.59667 1318.93667,1488.48 1320.21,1509.36 C1320.46,1513.28 1321.69,1517.19 1322.84,1520.99 C1327.73,1537.23 1332.63,1553.42 1334.42,1570.41 C1334.98134,1574.00388 1336.41291,1577.406 1338.59,1580.32 C1353.17,1600.98 1368.09,1621.4 1382.59,1642.09 C1385.80294,1646.69981 1388.40148,1651.70865 1390.32,1656.99 C1392.83,1663.84 1390.87,1667.08 1383.53,1667.79 C1375.56714,1668.44171 1367.57051,1668.57866 1359.59,1668.2 C1346.97,1667.77 1334.36,1667.02 1321.77,1666.2 C1313.34,1665.56 1310.86,1664.4 1302.55,1658.16 C1309.31,1645.32 1305.98,1632.09 1304.55,1618.95 C1304.32,1616.67 1304.2,1614.06 1303.01,1612.27 C1296.26,1602.05 1290.52,1591.06 1280.26,1583.5 C1273.04,1578.18 1266.46,1572.01 1259.39,1566.5 C1256.46,1564.21 1255.07,1561.64 1255.27,1558.01 C1255.4,1555.68 1255.27,1553.35 1255.27,1551.01 C1255.04,1527.72 1255.27,1504.41 1254.45,1481.13 C1253.59,1454.92 1252.07,1428.73 1250.45,1402.55 C1249.51,1387.32 1247.96,1372.13 1246.45,1356.94 C1245.86,1351.01 1244.51,1345.32 1240.6,1340.31 C1236.7913,1335.2635 1233.35553,1329.94608 1230.32,1324.4 C1227.74,1319.87 1225.77,1314.99 1223.22,1309.59 C1222.76253,1311.92407 1222.42873,1314.28069 1222.22,1316.65 C1221.48,1336.58 1220.76,1356.5 1220.22,1376.43 C1219.48,1401.35 1218.93,1426.27 1218.22,1451.19 C1217.95,1460.48 1216.95,1469.77 1217.11,1479.04 C1217.36296,1485.64829 1218.22325,1492.21931 1219.68,1498.67 C1222.48,1512.33 1225.57,1525.93 1228.84,1539.48 C1229.66585,1543.32967 1231.18016,1546.99854 1233.31,1550.31 C1245.43,1567.8 1257.96,1585.01 1270.13,1602.47 C1274.65,1608.94 1278.56,1615.83 1283.66,1623.98 C1277.06,1624.88 1271.96,1626.23 1266.89,1626.13 C1248.95,1625.8 1231.02,1624.97 1213.09,1624.3 C1210.16,1624.19 1207.24,1623.89 1203.81,1623.64 C1203.32628,1621.29675 1202.96248,1618.93034 1202.72,1616.55 C1202.2,1606.28 1201.81,1595.99 1201.35,1585.72 C1201.13,1580.98 1199.43,1576.89 1197.12,1572.66 C1191.02,1561.52 1181.36,1553.92 1172.19,1545.77 C1168.72,1542.69 1165.12,1539.77 1161.19,1536.43 C1161.04,1533.72 1160.75,1530.77 1160.75,1527.83 L1160.75,1396.97 L1160.75,1396.97 C1160.75,1379.34 1161.15,1361.7 1161.46,1344.07 C1161.53,1339.64 1160.95,1335.57 1158.32,1331.77 C1156.43,1329.06 1155.5,1325.69 1153.6,1323 C1144.98,1310.76 1144.39,1296.9 1145.6,1282.84 C1148.03,1254.32 1151.03,1225.84 1153.41,1197.34 C1155.68,1170.14 1157.51,1142.91 1159.41,1115.68 C1160.13,1105.43 1160.55,1095.16 1161.16,1083.78 C1157.53,1083.72 1154.69,1083.49 1151.89,1083.67 C1125.32,1085.42 1098.77,1088.12 1072.17,1088.81 C1036.91,1089.73 1001.6,1088.61 966.32,1089.27 C933.17,1089.88 900.56,1085.16 868.02,1080.27 C853.02,1078.03 838.58,1072.05 823.74,1068.4 C798.05,1062.1 774,1051.99 750.54,1039.87 C717.74,1022.87 684.46,1006.87 651.28,990.67 C642.65,986.45 633.63,983.01 624.22,978.97 C622.17,981.29 620.1,983.37 618.31,985.68 C608.95,997.78 599.87,1010.1 590.31,1022.04 C574.385602,1042.07028 556.886616,1060.7965 537.98,1078.04 C523.213333,1091.43333 508.493333,1104.88 493.82,1118.38 C487.44,1124.20667 481.076667,1130.05667 474.73,1135.93 C472.918843,1137.39439 471.245224,1139.02115 469.73,1140.79 C452.93,1163.11 435.29,1184.88 419.82,1208.09 C410.51,1222.09 404.49,1238.24 397.25,1253.54 C394.99,1258.33 393.65,1263.54 391.74,1268.54 C387.257147,1279.64526 385.171589,1291.57247 385.62,1303.54 C386.26,1317.54 385.55,1331.54 385.9,1345.54 C385.978063,1350.50352 386.876868,1355.41992 388.56,1360.09 C410.053333,1416.66333 431.676667,1473.18667 453.43,1529.66 C454.02,1531.21 454.59,1532.78 455.3,1534.28 C461.899194,1548.06595 466.324913,1562.79024 468.42,1577.93 C470.328709,1590.41483 473.508568,1602.67186 477.91,1614.51 C480.43,1621.51 485.49,1627.75 490.09,1633.82 C498.44,1644.82 499.97,1658.16 504.52,1671.55 C471.3,1683.72 438.84,1682.38 404.98,1674.65 C406.14,1667.05 406.98,1660.2 408.26,1653.43 C410.602842,1641.70142 411.994036,1629.8027 412.42,1617.85 C412.61,1610.36 415.17,1602.93 416.77,1594.98 C410.07,1587.89 402.77,1581.16 393.77,1576.72 C388.56,1574.16 386.13,1570.72 385.07,1564.72 C383.197279,1554.94874 380.456411,1545.36407 376.88,1536.08 C364.8,1503.32 352.466667,1470.65333 339.88,1438.08 C336.45,1429.19 331.82,1420.77 326.95,1410.45 C323.13,1419.35 322.05,1426.82 321.32,1434.18 C319.61,1451.35 318.78,1468.6 317.06,1485.76 C315.56,1500.68 314.52,1515.54 315.83,1530.52 C316.66,1540.11 316.71,1549.8 318.15,1559.29 C318.81,1563.62 321.51,1567.88 324.07,1571.64 C337.26,1590.97 343.58,1612.89 349.17,1635.19 C324.5,1641.28 277.37,1640.94 262.11,1634.19 C263.74,1624.43 265.24,1614.34 267.11,1604.32 C268.543299,1596.13541 270.388983,1588.02842 272.64,1580.03 C274.42,1574.03 272.75,1570.03 268.47,1565.9 C259.83,1557.57 252.29,1548.4 247.58,1537.07 C245.58,1532.33 244.32,1528.25 245.74,1522.87 C256.02,1483.87 260.57,1443.93 266.17,1404.15 C267.88394,1392.33682 268.955516,1380.43932 269.38,1368.51 C269.73,1357.59 268.74,1346.63 268.28,1335.69 C267.66,1321.09 266.87,1306.5 266.41,1291.9 C266.282018,1288.26166 266.717155,1284.62541 267.7,1281.12 C273.93,1259.75 280.45,1238.46 286.7,1217.12 C287.558313,1213.93159 288.064668,1210.65872 288.21,1207.36 C289.36,1189.29 286.99,1171.56 283.21,1153.91 C274.23,1111.66333 265.393333,1069.38667 256.7,1027.08 C254.85,1018 254.39,1008.64 252.97,999.47 C250.08,980.76 246.58,962.14 244.07,943.39 C242.01,927.95 241.07,912.39 239.55,896.86 C237.72,878.35 232.2,860.76 225.21,842.98 C224.15,845.58 222.72,848.08 222.1,850.78 C218.1,867.94 214.253333,885.126667 210.56,902.34 C209.998795,905.615094 209.77762,908.939425 209.9,912.26 C209.85,943.56 210.22,974.86 209.77,1006.16 C209.37,1034.06 208.1,1061.95 207.22,1089.85 C206.53,1111.76 206.22,1133.7 205.03,1155.59 C204.36,1168.12 203.97,1180.66 200.13,1192.97 C193.3,1214.85 187.37,1236.97 181.37,1259.15 C178.78,1268.7 171.63,1274.82 165.6,1281.8 C164.6,1283 161.96,1283.46 160.18,1283.3 C155.26,1282.84 150.39,1281.86 145.49,1281.09 C140.31,1270.09 136.2,1259.46 134.25,1247.82 C131.08,1228.82 127.25,1209.94 123.25,1191.11 C121.872544,1184.94927 121.621834,1178.59005 122.51,1172.34 C129.13,1126.67 135.51,1080.96 142.39,1035.34 C150.86,979.54 159.23,923.7 168.83,868.09 C173.34,841.94 181.2,816.39 186.45,790.34 C189.92,773.13 195.86,757.47 205.66,742.83 C218.04,724.33 229.24,705.04 241.09,686.18 C242.962257,683.060338 245.287647,680.23617 247.99,677.8 C257.05,669.98 266.14,662.16 275.71,655.01 C279.56,652.13 284.53,650.43 289.25,649.15 C296.996635,647.227578 304.011497,643.080536 309.43,637.22 C316.83,629.22 324.05,620.71 334.33,615.98 C340.05,613.35 345.75,610.58 351.65,608.39 C381.25,597.39 410.77,586.17 440.65,576.02 C450.56,572.65 461.43,571.9 471.93,570.55 C496.3,567.41 520.71,564.55 545.11,561.74 C569.51,558.93 593.47,560.81 617.51,564.16 C633.63,566.4 649.77,568.5 665.79,571.29 C674.93,572.87 683.79,575.99 692.89,577.94 C736.79,587.33 779.79,600.16 823.07,611.94 C826.910967,612.967302 830.864408,613.514805 834.84,613.57 C868.1,614.08 901.38,614.03 934.63,614.98 C958.07,615.64 981.04,612.98 1003.97,608.59 C1021.25,605.26 1038.7,602.76 1055.97,599.45 C1064.76,597.77 1073.38,595.11 1082.06,592.87 L1179.59,567.68 C1180.59,567.44 1181.7,567.54 1182.5,567.05 C1194.3,559.86 1208.5,557.17 1219.04,547.62 C1223.99,543.13 1229.28,539.29 1235.87,537.33 C1239.98,536.1 1243.75,533.72 1247.87,532.44 C1255.53,530.05 1261.38,525.3 1266.05,519.07 C1271.88,511.27 1278.96,505.82 1289.05,505.01 C1303.44,503.86 1314.98,497.61 1323.05,485.48 C1326.44,480.41 1331.35,478.42 1337.21,477.72 C1347.11,476.53 1356.94,474.87 1366.83,473.72 C1371.83042,473.272974 1376.50736,471.056832 1380.02,467.47 C1381.18,466.28 1382.39,465.13 1383.57,463.96 C1389.78,457.76 1396.65,452.91 1405.68,451.52 C1411.64684,450.658494 1417.16046,447.84542 1421.36,443.52 C1423.54,441.3 1426.97,440.04 1430.06,439.05 C1442.06,435.21 1454.13,431.34 1466.33,428.05 C1473.55,426.12 1480.17,423.33 1485.88,418.6 C1490.97,414.38 1496.88,412.7 1503.25,411.81 C1508.52,411.08 1513.76,410.19 1519,409.27 C1525.88,408.05 1532.53,406.34 1538.49,402.27 C1543.15,399.08 1548.32,397.06 1554.39,397.79 C1564.57,399.01 1573.72,396.52 1582.9,391.39 C1591.79,386.39 1601.9,383.71 1611.62,380.16 C1623.85379,375.663447 1636.76631,373.326515 1648.84703,368.08921 C1648.82382,368.100632 1648.8019,368.115299 1648.78,368.13 Z M1870.04,550.18 C1871.85,552.45 1873.8,555.59 1876.38,558.06 C1893.77,574.69 1907.49,594.41 1921.89,613.42 C1930.75292,624.849437 1935.45484,638.958733 1935.22839,653.42 C1934.86,667.65 1933.22,681.86 1932.43,696.09 C1932.24144,699.757065 1930.53052,703.178911 1927.71,705.53 C1924.29,708.7 1921.31,712.36 1917.71,715.3 C1915.0004,717.681154 1911.84653,719.502785 1908.43,720.66 C1895.67,724.32 1882.83,727.73 1869.9,730.76 C1853.29,734.66 1837.56,731.24 1822.56,723.76 C1820.87619,722.759075 1819.49415,721.321749 1818.56,719.6 C1816.19,715.6 1813.48,711.6 1812.16,707.23 C1810.84,702.86 1811.16,698.23 1810.63,692.35 C1808.82557,691.264372 1806.95151,690.298943 1805.02,689.46 C1793.02,684.7 1780.83,680.16 1768.79,675.34 C1765.25757,673.927026 1761.93635,672.600706 1758.5912,673.72054 C1760.60147,672.427062 1762.93445,670.496094 1766.03,667.53 C1774.16,659.74 1784.31,647.53 1789.03,639.09 C1793.75,630.65 1802.57,617.09 1802.57,617.09 L1806.98,622.17 C1806.98,622.17 1818.49,606.26 1821.54,602.87 C1824.59,599.48 1823.23,591.7 1823.23,591.7 C1823.23,591.7 1844.23,568.33 1851.67,562.91 C1858.70654,557.783918 1868.23869,552.675726 1870.37698,549.074343 C1870.2552,549.438147 1870.14195,549.807271 1870.04,550.18 Z M1754.97,675.98 C1753.82,677.05 1751.06,677.25 1749.38,676.73 C1749.4004,676.72659 1749.42518,676.723336 1749.45,676.72 C1751.90696,676.389764 1753.83851,676.078915 1755.92503,675.169395 C1755.60753,675.410835 1755.28924,675.680839 1754.97,675.98 Z M1741.97,280.18 C1745.54,287.98 1742.33,295.56 1742.22,303.08 C1742.10062,311.377772 1741.40898,319.657425 1740.15,327.86 C1738.94,335.64 1736.65,343.26 1734.86,350.86 C1740.86,353.8 1746.48,356.57 1752.09,359.23 C1767.28,366.42 1777.68,379 1788.3,391.31 C1789.00839,392.02217 1789.59909,392.842401 1790.05,393.74 C1796.68,410.14 1809.05,422.5 1820,435.74 C1824.05,440.64 1826.57,445.61 1825.56,451.97 C1823.14,467.22 1828.25,479.68 1838.62,490.83 C1846.81,499.63 1853.12,509.83 1856.44,521.63 C1856.9853,523.577507 1857.99417,525.103593 1859.48027,526.481832 L1859.52,526.36 C1856.12,537.18 1844.15,544.21 1840.34,546.36 C1836.53,548.51 1817.48,567.95 1808.47,574.81 C1806.16362,572.374316 1802.34131,572.206206 1799.83,574.43 C1792.72,566.55 1782.18,555.13 1762.37,532.52 C1742.56,509.91 1713.23,476.15 1708.03,469.16 C1702.83,462.17 1700.79,463.07 1699.9,448.59 C1703.84,447.32 1706,448.97 1705.74,445.04 C1705.48,441.11 1703.84,421.93 1702.44,417.1 C1701.04,412.27 1698,409.48 1695.84,409.36 C1695.53877,402.29408 1694.34255,395.294897 1692.28,388.53 C1689.87,379.9 1687.2,366.69 1685.28,364.91 C1683.37442,363.143371 1679.67609,361.92836 1678.3106,362.330589 C1680.30221,361.544459 1681.949,360.192892 1683.42,358.03 C1689.54,348.98 1696.06,340.19 1702.25,331.19 C1703.72,329.06 1704.35,326.67 1707.72,326.31 C1709.25,326.14 1710.63,323.76 1711.9,322.24 C1714.25,319.43 1716.56,316.59 1718.71,313.64 C1726.71,302.72 1737.37,293.71 1741.97,280.18 Z M1869.04231,536.536739 L1869.13567,536.697472 C1867.67488,534.324128 1866.20506,532.19441 1864.35441,530.271692 C1866.16458,531.997279 1867.68374,534.206463 1869.04231,536.536739 Z M1665.23102,363.420348 L1665.09439,363.420378 C1666.51914,363.366159 1667.9561,363.350501 1669.3792,363.334114 C1668.1004,363.386747 1666.71233,363.418462 1665.23102,363.420348 Z" id="colour" fill="#FFFFFF" style="mix-blend-mode: overlay;"></path>
    </g>
</svg>