<?xml version="1.0" encoding="UTF-8"?>
<svg width="2048px" height="2048px" viewBox="0 0 2048 2048" version="1.1" xmlns="http://www.w3.org/2000/svg" xmlns:xlink="http://www.w3.org/1999/xlink">
    <title>poses/horses_14</title>
    <g id="poses/horses_14" stroke="none" stroke-width="1" fill="none" fill-rule="evenodd" opacity="0.8">
        <path d="M372.21,562.88 C386.63,566.88 401.1,570.48 414.67,577.15 C418.26,578.92 423.1,578.59 427.35,578.48 C436.73,578.25 445.76,578.72 454.35,583.42 C457.64,585.22 461.99,585.32 465.91,585.68 C469.83,586.04 473.91,585.76 477.91,585.78 C488.05,585.78 497.53,587.67 506.25,593.56 C510.51,596.44 515.9,597.95 521,599.23 C534.22,602.53 547.59,605.23 560.86,608.43 C563.71,609.1 567.01,609.82 569.02,611.69 C574.87,617.15 582.02,618.58 589.3,618.26 C599.08,617.85 606.77,621.62 613.58,627.9 C619.69,633.52 626.33,636.73 635.02,636.78 C643.93,636.78 652.81,638.88 661.73,639.49 C665.703948,639.740077 669.431853,641.500278 672.15,644.41 C688.07,659.81 688.15,659.96 710.15,662.25 C719.3,663.2 727.74,665.11 734.5,671.82 C744.22,681.48 756.25,686.82 769.29,690.26 C776.018227,692.12828 782.291122,695.358327 787.72,699.75 C792.08,703.11 797.44,705.24 802.5,707.6 C805.19,708.85 808.6,708.84 810.99,710.43 C827.4,721.33 846.68,724.63 864.82,730.84 C880.527356,736.331242 895.888665,742.766294 910.82,750.11 C930.77221,759.958706 951.586159,767.955573 973,774 C991.29,779 1009.45,784.51 1027.81,789.23 C1036.15694,791.394487 1044.68101,792.806799 1053.28,793.45 C1087.76,795.93 1121.99,800.4 1156.17,805.45 C1160.02,806.02 1164.11,805.45 1168.04,804.99 C1194.77,801.99 1221.43,798.13 1248.23,796.14 C1263.51,795.01 1278.58,792.81 1293.72,790.89 C1295.37678,790.667612 1297.04954,790.58732 1298.72,790.65 C1311.33,791.23 1323.93,792.34 1336.53,792.37 C1364.3,792.45 1391.53,795.97 1418.11,804.01 C1429.25,807.37 1440.52,810.32 1451.8,813.18 C1487.8,822.31 1520.8,839.07 1554.37,854.18 C1558.92,856.18 1563.37,858.5 1567.99,860.38 C1577.31,864.19 1585.99,868.8 1592.78,876.57 C1595.78,880 1600.42,881.12 1604.65,882.98 C1618.27,888.98 1632.52,893.92 1644.42,903.41 C1659.76,915.65 1675.15,927.83 1690.85,939.6 C1702.2,948.1 1710.68,959.15 1719.75,969.74 C1736.61,989.41 1753.83,1008.74 1770.44,1028.67 C1778.75,1038.67 1785.79,1049.6 1793.92,1059.67 C1797.86372,1064.56229 1802.44824,1068.90127 1807.55,1072.57 C1819.19,1080.88 1830.91,1089.2 1843.27,1096.35 C1859.37,1105.67 1875.91,1114.35 1892.71,1122.3 C1898.13,1124.86 1904.96,1124.57 1911.18,1125.3 C1921.42,1126.41 1931.71,1127.01 1941.93,1128.3 C1951.48,1129.48 1960.83,1131.24 1969.57,1136.02 C1978.88,1141.12 1988.82,1145.02 1998.39,1149.69 C2002.27455,1151.56217 2005.99728,1153.75299 2009.52,1156.24 C2017.38,1161.85 2020,1168.36 2015.99,1176.78 C2013.1,1182.84 2006.99,1186.07 1999.82,1186.78 C1981.31,1188.65 1962.82,1190.5 1944.34,1192.85 C1937.76263,1193.71416 1931.08027,1193.29991 1924.66,1191.63 C1913.07,1188.63 1901.46,1185.69 1889.73,1183.43 C1875.73,1180.72 1863.49,1174.34 1851.37,1167.28 C1835.29,1157.91 1818.9,1149.07 1802.82,1139.69 C1797.96439,1136.84235 1793.43711,1133.46868 1789.32,1129.63 C1778.32,1119.42 1767.43,1109.18 1757.09,1098.36 C1745.42,1086.15 1734.2,1073.75 1726.99,1057.82 C1720.57,1043.66 1711.61,1030.63 1703.46,1017.3 C1701.24,1013.67 1697.99,1010.63 1695,1007.52 C1688.59,1000.85 1682,994.3 1675.56,987.7 L1674.17,988.63 C1679.84,999.83 1685.33,1011.14 1691.26,1022.21 C1694.35,1027.96 1696.01,1033.76 1695.55,1040.31 C1695.18846,1044.96966 1695.18846,1049.65034 1695.55,1054.31 C1697.45,1076.62 1692.21,1097.67 1686.04,1118.91 C1679.33744,1141.88803 1670.80688,1164.29287 1660.53,1185.91 C1653.9,1199.91 1650.44,1214.62 1647.14,1229.56 C1644.46483,1241.56893 1641.12638,1253.42043 1637.14,1265.06 C1635.38,1270.23 1631.55,1274.79 1628.23,1279.32 C1612.12,1301.32 1595.86,1323.23 1579.68,1345.19 C1578.31,1347.05 1577.1,1349.03 1575.81,1350.97 C1581.28,1363.65 1586.89,1376.07 1591.96,1388.7 C1593.55684,1393.0174 1594.48749,1397.55263 1594.72,1402.15 C1595.33,1410.43 1595.2,1418.76 1595.57,1427.07 C1595.81146,1430.72108 1594.59195,1434.31843 1592.18,1437.07 C1586.92,1443.5 1581.87,1450.13 1577.26,1457.07 C1574.921,1460.77628 1570.87198,1463.05456 1566.49,1463.13 C1561.49,1463.42 1556.49,1463.35 1551.49,1463.36 L1521.49,1463.36 L1521.49,1463.36 C1518.88,1469.42 1516.06,1476.47 1512.84,1483.36 C1511.11204,1487.28786 1508.89808,1490.98338 1506.25,1494.36 C1499.66,1502.28 1492.74,1509.94 1485.72,1517.47 C1483.42538,1519.85524 1480.78192,1521.87829 1477.88,1523.47 C1454.99,1536.35 1431.88,1548.9 1409.14,1562.01 C1400.85196,1566.95604 1392.87987,1572.41326 1385.27,1578.35 C1365.55,1593.26 1343.84,1604.89 1322.54,1617.22 C1319.95,1618.72 1316.91,1619.83 1314.95,1621.93 C1311.95,1625.12 1308.79,1626.71 1304.45,1626.46 C1299.36,1626.18 1296.9,1629.89 1294.07,1633.76 C1295.49,1636.65 1296.98,1639.56 1298.36,1642.52 C1301.18245,1648.52088 1302.90315,1654.98027 1303.44,1661.59 C1304.44,1673.13 1306.81,1684.59 1308.56,1696.03 C1309.05,1699.24 1309.38,1702.48 1309.89,1706.6 C1280.89,1714.66 1252.63,1715.6 1224.18,1708.04 C1223.65,1696.04 1227.36,1681.54 1234.65,1673.6 C1244.57,1662.78 1248.85,1650.33 1250.53,1635.97 C1251.91,1624.18 1255.74,1612.68 1258.53,1601.07 C1258.83431,1599.77054 1259.45232,1598.56542 1260.33,1597.56 C1269.79,1587.34 1277.97,1576 1289.79,1567.97 C1304.91,1557.69 1319.22,1546.2 1334.35,1535.97 C1354.98,1521.97 1375.82,1508.23 1397.04,1495.14 C1410.28,1486.97 1417.97,1474.32 1427.58,1462.89 C1426.23,1462.07 1425.7,1461.49 1425.14,1461.45 C1408.25,1460.45 1391.33,1459.21 1374.49,1461.55 C1370.67,1462.08 1367.49,1462.68 1364.3,1460.1 C1359.78,1456.48 1355.12,1457.01 1350.46,1460.29 C1349.19,1467.1 1348.14,1473.99 1346.59,1480.76 C1344.43,1490.18 1341.34,1499.24 1336.04,1507.52 C1331.2,1515.08 1323.95,1517.31 1315.72,1513.33 C1300.34,1505.87 1286.87,1495.8 1274.31,1484.27 C1269.95,1480.27 1270.31,1475.56 1269.79,1470.44 C1283.54,1459.09 1297.89,1448.99 1314.3,1442.2 C1321.06168,1439.42993 1327.03011,1435.02491 1331.67,1429.38 C1344.53,1414.1 1361.4,1406.38 1381.32,1406.04 C1398.32,1405.71 1415.32,1405.97 1432.26,1405.97 L1443.2,1405.97 C1443.2,1397.12 1443.62,1389.22 1443.2,1381.36 C1442.34,1364.14 1441.22,1346.93 1439.84,1329.73 C1439.56458,1326.83672 1438.30435,1324.12565 1436.27,1322.05 C1419.19,1306.26333 1401.95333,1290.64 1384.56,1275.18 C1364.85,1257.76 1346.12,1239.38 1329.56,1218.99 C1322.44,1210.24 1316.44,1200.58 1309.93,1191.34 L1300.36,1177.75 C1287.5,1181.67 1274.94,1185.81 1262.2,1189.3 C1243.2,1194.51 1225.39,1202.85 1207.45,1210.73 C1180.2,1222.73 1152.05,1231.35 1122.55,1235.59 C1109.72,1237.44 1096.9,1239.46 1084.19,1241.99 C1072.02,1244.42 1059.81,1244.99 1047.47,1244.83 C1028.15,1244.67 1008.84,1244.77 989.53,1244.83 C965.21,1244.83 941.07,1243.5 917.22,1238.06 C897.74,1233.61 877.82,1232.06 857.9,1231.06 C849.64,1230.64 841.31,1231.61 833.01,1232 C828.84,1232.2 826.76,1235.36 824.49,1238.25 C810.91,1255.49 797.37,1272.76 783.69,1289.93 C779.35,1295.38 774.77,1300.67 770.04,1305.8 C756.54,1320.47 742.54,1334.71 729.44,1349.74 C721.38,1358.99 714.66,1369.41 707.28,1379.26 C690.72,1401.34 674.14,1423.40333 657.54,1445.45 C655.98,1447.53 654.22,1449.45 652.12,1451.96 C663.12,1459.35 673.66,1466.24 687.58,1465.31 C696.07,1464.74 704.58,1465.21 713.23,1465.21 C717.44,1485.01 717.6,1528.79 712.99,1540.83 C707.69,1538.17 702.18,1536.01 697.32,1532.83 C677.82,1520.11 658.8,1506.64 639.02,1494.38 C631.02,1489.38 621.47,1486.82 611.69,1482.75 C606.81,1490.75 601.99,1498.23 597.69,1505.95 C572.4,1550.95 543.9,1593.95 515.87,1637.18 C512.8248,1641.97016 508.240159,1645.58145 502.87,1647.42 C494.23,1650.56 489.45,1657.04 484.5,1664.49 C476.03,1677.25 473.01,1691.01 472.66,1705.8 C472.53,1711.1 472.48,1716.4 472.56,1721.7 C472.68,1729.38 471.04,1731.89 462.99,1732.84 C450.14,1734.36 437.21,1735.33 424.31,1736.33 C417.02,1736.89 409.7,1737.33 402.4,1737.33 C396.48,1737.33 390.4,1736.96 384.92,1731.45 C387.6,1726.84 390.15,1721.9 393.21,1717.3 C408.1,1694.84 423.14,1672.48 438.09,1650.06 C441.600144,1644.82036 444.037088,1638.93703 445.26,1632.75 C446.98,1624.33 449.26,1615.75 453.01,1608.13 C456.18,1601.77 461.28,1595.98 466.63,1591.13 C481.18,1578.13 491.93,1562.41 501.78,1545.69 C524.24,1507.58 547.43,1469.89 570.31,1432.01 C571.16,1430.6 571.88,1429.11 573.12,1426.79 C570.88,1423.15 568.52,1419.24 566.12,1415.37 C547.5,1385.83 528.87,1356.29 510.23,1326.75 C505.58,1319.35 502.23,1311.63 502.84,1302.42 C503.07,1298.73 501.44,1294.6 499.69,1291.16 C495.839696,1283.8438 497.013261,1274.89586 502.62,1268.82 C515.5,1254.13 527.43,1238.34 543.25,1226.46 C552.25,1219.68 561.68,1213.46 570.81,1206.8 C573.795655,1204.75289 576.54571,1202.38181 579.01,1199.73 C592.41,1184.52 605.64,1169.16 618.91,1153.83 C619.566208,1152.92624 620.157684,1151.97721 620.68,1150.99 C609.91,1137.79 604.98,1122.22 602.07,1105.6 C599.07,1088.29 594.5,1071.26 593.18,1053.6 C592.41,1043.36 590.97,1033.16 590.49,1022.92 C589.88,1009.77 586.21,998.11 576.55,988.76 C575.637077,987.794176 574.81058,986.750179 574.08,985.64 C560.68,966.71 543.2,952.23 525.08,937.92 C497.99,916.5 472.18,893.43 446.22,870.62 C430.75,857.02 416.28,842.28 400.87,828.62 C389.8396,818.998409 377.744227,810.670887 364.82,803.8 C351.71,796.69 337.92,792.8 323.49,790.27 C320.31,789.71 317.77,789.93 315.29,792.33 C297.51,809.63 274.53,819.81 255.7,835.65 C248.753491,841.492111 240.506842,843.254474 232.200438,844.781255 C238.066201,843.689422 244.187991,841.619857 250.82,838.87 C254.78,821.77 242.11,789.26 235,771.06 C255.17,752 299.43,717.87 329.7,690.22 C339.6447,681.253429 349.057384,671.713863 357.89,661.65 C360.94,657.71 364.11,640.44 364.11,640.44 C365.463212,640.552923 366.769676,640.988411 367.92,641.71 C369.57,642.86 372.24,641.45 373.13,638.79 C374.02,636.13 374.27,615.43 373.89,610.73 C373.51,606.03 371.86,604 369.06,602.22 C369.06,586.48 364.21,573.41 363.06,563.88 C362.775222,561.520053 362.416243,559.700356 362.017536,558.285455 C364.526155,561.214395 368.445271,561.84043 372.21,562.88 Z M641.3,1274.38 C636.51,1276.05 633.72,1276.69 631.23,1277.95 C616.44,1285.41 601.68,1292.95 587.01,1300.63 C582.71,1302.89 578.68,1303.82 573.75,1302.63 C566.75,1300.86 559.4,1300.09 552.26,1298.63 C547.79,1297.75 544.54,1298.63 542.81,1304.31 C554.81,1310.91 566.33,1318.48 574.65,1330.02 C582.65,1341.15 591.15,1352.02 600.04,1363.76 C613.79,1334 627.07,1305.22 641.3,1274.38 Z M115.389755,699.849351 C116.706703,699.698612 122.716981,699.066981 126.14,699.67 C130,700.35 152.7,715.21 160,721 C167.3,726.79 191.79,757.6 191.79,757.6 C192.146322,760.852876 192.943636,764.042135 194.16,767.08 C196.02,771.32 206.51,785.54 207.7,787.57 C208.89,789.6 210.58,787.23 214.14,785.88 C219.72,795.86 226.85,821.43 227.85,831.25 C225.18,831.25 219.09,833.62 207.85,836.88 C207.925084,836.982054 208.001302,837.08328 208.078627,837.183673 C208.007668,837.132303 207.934024,837.081187 207.86,837.03 L167.56,848.03 C166.95,849.11 166.28,849.72 166.36,850.22 C167.73,858.63 163.02,864.29 158.54,870.75 C149.72,883.49 136.47,888.1 122.85,890.13 C111.938462,891.786091 100.785584,889.785464 91.13,884.44 C89.1157056,883.472643 86.9990944,882.73468 84.82,882.24 C71.08,878.24 57.19,874.66 47.42,862.79 C44.95,859.79 43.32,856.9 43.1,853.08 C42.61,844.8 42.4,836.48 41.44,828.25 C39.35,810.32 46.92,795.2 54.93,780.25 C65.19,761.07 79.09,744.5 92.93,727.84 C100.517176,718.631065 107.807531,709.116315 115.355543,699.850227 Z M219.349012,844.537473 C222.262811,845.385782 225.285406,845.688299 228.08,845.39 C229.276034,845.262333 230.480533,845.089518 231.695773,844.874208 C229.790335,845.222072 227.883602,845.562013 225.99,845.94 C223.998889,846.336667 221.584321,845.547654 219.409712,844.565734 Z M363.26,470.99 C363.55,472.83 364.11,473.99 363.76,474.48 C357.25,484.48 355.66,496.18 352.52,507.32 C350.09,515.96 348.2,524.75 345.7,533.32 C344.45,537.65 342.39,541.74 340.39,546.67 C344.82,548.1 349.52,549.5 354.12,551.16 C356.048237,551.84801 358.951709,552.642557 359.788642,553.892334 C359.214867,553.331695 358.675622,553.071743 358.25,552.8 C356.95,551.97 345,548.26 340.41,546.8 C339.82,548.24 334.11,548.3 334.11,548.3 L334.11,548.3 L333.73,551.85 C333.73,551.85 338.17,553.17 340.58,559.47 C342.8454,565.392 342.981324,591.37172 342.989479,594.467967 L342.99,594.77 C340.958676,596.676536 339.321089,598.963043 338.17,601.5 C336.39,605.57 337.16,624.87 337.03,629.31 C336.9,633.75 341.72,633.25 341.72,633.25 C341.85,640.5 340.83,645.18 336.01,649.5 C331.19,653.82 296.66,684.79 285.86,695.59 C275.06,706.39 226.56,740.54 221.99,743.21 C217.939667,738.425 213.889333,740.517511 210.408077,742.378591 L210.05,742.57 C207.76,740.12 174.65,706.35 172.85,704.57 C171.05,702.79 159.25,696.05 154.05,693.01 C148.85,689.97 139.58,684.12 135.67,680.55 L135.805937,680.672175 C139.181518,677.83178 142.006925,674.089669 145.01,670.76 C152.57,662.36 159.87,653.76 167.48,645.38 C170.1,642.5 171.01,639.67 171.16,635.65 C171.421016,629.618186 172.618665,623.663676 174.71,618 C179.14,605.86 184.66,594.63 193.98,584.81 C211.44,566.41 228.73,548.07 250.98,535.39 C254.91,533.15 259.46,531.88 263.86,530.64 C267.99,529.47 272.31,528.94 277.23,528 C282.51,510.27 299.01,502.83 312.1,489.78 L312.1,513.07 C321.31,505 329.22,497.74 337.51,490.93 C345.8,484.12 354.26,477.93 363.26,470.99 Z M262.36,619.79 C255.76,618.27 247.46,619.28 242.13,621.06 C236.8,622.84 232.19,629.54 233.41,630.71 C237.05,634.18 248.37,634.02 252.83,633.76 C257.29,633.5 270.41,625.97 270.83,624.88 C271.25,623.79 268.96,621.31 262.36,619.79 Z" id="colour" fill="#FFFFFF" style="mix-blend-mode: overlay;"></path>
    </g>
</svg>