<?xml version="1.0" encoding="UTF-8"?>
<svg width="1892px" height="1562px" viewBox="0 0 1892 1562" version="1.1" xmlns="http://www.w3.org/2000/svg" xmlns:xlink="http://www.w3.org/1999/xlink">
    <title>colour</title>
    <g id="Images" stroke="none" stroke-width="1" fill="none" fill-rule="evenodd">
        <path d="M1508.09081,108.889869 L1507.33,109.3 C1501.62,112.54 1498.28,116.62 1493.95,120.54 C1493.95,120.54 1507.26,112.26 1513.57,115.68 C1518.65,118.47 1534.02,145.39 1534.02,145.39 C1534.02,145.39 1532.12,154.41 1533.51,157.2 C1534.9,159.99 1545.21,180.31 1546.33,181.45 C1547.45,182.59 1550.29,180.81 1552.45,180.11 C1554.01,183.41 1563.89,199.6 1567.45,202.65 C1570.9388,205.639 1589.53469,218.13596 1605.81621,229.872475 L1606.81,230.59 C1623.32,242.53 1649.95,261.91 1656.59,266.65 C1663.23,271.39 1697.65,301.83 1702.59,305.93 C1707.53,310.03 1710.29,311.48 1709.53,313.93 C1708.77,316.38 1702.16,333.14 1700.13,339.32 C1698.1,345.5 1696.93,349.06 1694.89,356.59 C1692.85,364.12 1681.76,380.29 1677.02,388.42 C1672.28,396.55 1661.62,406.2 1652.8,411.26 C1652.97329,411.290402 1653.21949,411.33542 1653.52869,411.393069 C1652.20009,411.239897 1650.8424,411.239247 1649.71,411.68 C1645.16,413.38 1641.52,412.2 1637.51,409.8 C1614.12,395.8 1589.82,383.3 1567.69,367.22 C1566.62206,366.618987 1565.50465,366.110465 1564.35,365.7 C1562.45,367.7 1560.35,369.7 1558.47,371.88 C1534.8,398.88 1517.82,430.07 1500.29,461.08 C1478.82,499.08 1460.81,538.77 1440.76,577.46 C1438.01,582.77 1435.35,588.15 1432.34,593.32 C1424.79,606.32 1419.27,620.12 1413.95,634.14 C1409.65374,645.335657 1404.36607,656.125194 1398.15,666.38 C1383.44,690.82 1376.38,717.38 1372.54,745.38 C1368.67,773.7 1366.4,802.12 1363.96,830.55 C1362.32,849.69 1354.96,867.19 1346.71,884.31 C1345.65756,886.377405 1344.20635,888.216067 1342.44,889.72 C1333.69,897.39 1324.44,904.51 1316.1,912.6 C1309.96,918.6 1304.86,925.6 1299.52,932.39 C1297.39,935.07 1298.44,938.02 1299.93,940.82 C1304.61,949.63 1309.13,958.51 1313.84,967.29 C1329.84,997.19 1345.64,1027.23 1362.12,1056.88 C1372.4,1075.36 1375.5,1095.61 1378.77,1115.88 C1379.92,1123.07 1379.62,1130.53 1381.15,1137.61 C1382.25,1142.69 1380.62,1146.48 1378.94,1150.87 C1370.77,1172.18 1355.94,1188.87 1341.29,1205.65 C1327.74,1221.17 1313.62,1236.19 1299.71,1251.39 C1284.91,1267.57 1269.84,1283.53 1255.37,1300.01 C1251.54,1304.37 1249.43,1310.26 1246.63,1315.5 C1240.85,1326.34 1235.36,1337.35 1229.31,1348.05 C1226.31,1353.38 1224.12,1358.4 1224.79,1364.87 C1225.79,1374.08 1224.69,1383.57 1226.15,1392.67 C1228.47,1407.07 1232.15,1421.24 1235.27,1435.51 C1235.69,1437.51 1236.48,1439.4 1236.5,1441.35 C1236.66,1456.03 1243.24,1467.79 1251.94,1479.18 C1264.24,1495.3 1275.56,1512.18 1287.22,1528.78 C1292.85,1536.78 1294.12,1540.4 1296.4,1553.19 C1289.7,1555.74 1282.73,1557.77 1275.4,1557.04 C1258.22,1555.30667 1241.06333,1553.32667 1223.93,1551.1 C1219.13,1550.48 1214.5,1548.67 1209.76,1547.4 C1209.76,1545.48 1209.47,1544.4 1209.76,1543.59 C1215.83,1528.59 1211.76,1513.35 1210.29,1498.27 C1209.98,1495.09 1207.2,1491.68 1204.7,1489.27 C1194.44,1479.27 1183.88,1469.67 1173.36,1459.99 C1169.7,1456.62 1165.86,1453.47 1162.12,1450.24 L1162.12,1411.86 C1158.52,1415.59 1155.9,1417.93 1153.72,1420.62 C1148.07,1427.62 1142.31,1434.52 1137.18,1441.87 C1131.08,1450.61 1123.34,1456.05 1112.46,1456.58 C1107.11,1452.77 1104.33,1447.41 1102.73,1441.07 C1099.97,1430.07 1096.46,1419.33 1093.85,1408.35 C1091.24,1397.37 1088.91,1386.44 1090.53,1375 C1091.06,1371.29 1091.34,1368 1094.43,1365.24 C1096.28,1363.58 1097.15,1360.83 1098.72,1358.11 C1100.24895,1358.22991 1101.77088,1358.42683 1103.28,1358.7 C1115.8,1361.59 1126.83,1356.28 1137.95,1352.13 C1141.16,1350.94 1143.75,1347.81 1146.31,1345.25 C1150.31,1341.25 1153.76,1336.69 1157.95,1332.93 C1161.57616,1329.89688 1163.364,1325.19624 1162.67,1320.52 C1161.12,1305.33 1159.58,1290.14 1158.16,1274.94 C1157.16,1264.04 1156.16,1253.13 1155.47,1242.21 C1155.3828,1238.24851 1154.27363,1234.37674 1152.25,1230.97 C1136.76,1205.67 1136.74,1205.63 1135.41,1176.19 C1134.93,1165.59 1135.8,1154.86 1134.56,1144.36 C1130.07,1106.47 1125.08,1068.63 1120.02,1030.8 C1117.37,1011.05 1114.19,991.37 1111.23,971.67 C1110.99,970.07 1110.59,968.49 1110.17,966.46 C1107.85409,966.099702 1105.51377,965.919163 1103.17,965.92 C1064.67667,968.833333 1026.18667,971.793333 987.7,974.8 C980.7,975.34 973.76,976.11 966.78,976.16 C925.5,976.43 884.2,976.99 842.93,976.43 C829.74,976.25 816.57,973.06 803.42,971.07 C792.24,969.38 781.07,967.57 769.94,965.56 C742.37,960.56 715.44,953.2 689.64,942.24 C659.03,929.24 628.64,915.71 598.13,902.43 C595.13,901.13 592.04,900.02 588.56,898.64 C582.97,905.91 578.03,912.97 572.46,919.48 C555.305464,939.423384 535.876753,957.291488 514.57,972.72 C492,989.19 469.48,1005.72 447.42,1022.91 C437.75,1030.43 429.23,1039.44 420.26,1047.85 C408.13,1059.22 396.31,1070.92 383.89,1081.96 C377.8,1087.36 371.82,1093.35 363.03,1094.82 C361.03,1095.16 359.03,1097.17 357.41,1098.76 C352.61,1103.37 348.19,1108.41 343.2,1112.76 C339.64,1115.87 339.32,1119.28 339.97,1123.48 C341.37,1132.66 342.97,1141.86 343.65,1151.11 C344.47,1161.78 349.65,1170.74 354.04,1179.96 C362.34,1197.38667 370.983333,1214.64667 379.97,1231.74 C383.35,1238.16 388.05,1243.89 392.24,1249.88 C403.31,1265.69 414.55,1281.37 425.41,1297.32 C427.960085,1301.18189 429.861821,1305.43462 431.04,1309.91 C435.13,1325.04 435.46,1340.08 428.65,1354.73 C426.98,1358.33 426.13,1362.32 424.44,1365.92 C421.91,1371.28 422.17,1376.5 422.85,1382.32 C424.44,1395.88 424.45,1409.5 419.19,1422.58 C416.73,1428.7 414.66,1434.99 412.32,1441.45 C404.631591,1442.33162 396.844444,1441.30112 389.65,1438.45 C375.65,1432.71 363.97,1423.13 351.79,1414.45 C346.79,1410.87 346.23,1403.18 349.24,1397.58 C355.81,1385.36 365.89,1376.09 375.19,1366.16 C378.19,1363 381.32,1360.05 384.36,1356.96 C390.44,1350.75 391.5,1344.96 385.59,1338.79 C380.07,1333.07 377.31,1326.13 373.5,1319.58 C367.14,1308.68 360.03,1298.2 353.74,1287.26 C347.74,1276.88 342.23,1266.26 336.91,1255.53 C330.13,1241.85 319.01,1231.63 309.38,1220.25 C293.28,1201.25 276.77,1182.55 260.38,1163.74 C258.47,1161.55 256.38,1159.47 253.38,1156.26 C249.46,1163.9 245.71,1170.43 242.68,1177.26 C232.446667,1200.37333 222.39,1223.55667 212.51,1246.81 C210.824198,1250.77096 209.790828,1254.97873 209.45,1259.27 C207.8,1281.12 206.96,1303.03 204.91,1324.83 C203.6,1338.69 200.91,1352.43 198.45,1366.16 C195.7,1381.87 192.68,1397.52 189.62,1413.16 C188.629066,1418.02117 188.700702,1423.0391 189.83,1427.87 C194.69,1448.58 199.73,1469.25 204.2,1490.05 C205.994418,1498.22126 209.725802,1505.84179 215.08,1512.27 C222.16,1521.02 223.51,1531.66 225.52,1542.02 C226.79,1548.55 224.36,1551.59 217.64,1553.6 C209.04,1556.18 200.37,1558.53 191.72,1560.95 C190.458734,1561.3838 189.142262,1561.63632 187.81,1561.7 C174.51,1561.51 161.12,1562.12 147.98,1560.59 C141.84,1559.88 136.19,1555.01 129.74,1551.73 C132.26,1539.53 135.27,1527.98 136.89,1516.24 C138.75,1502.78 139.57,1489.16 140.37,1475.58 C140.53,1472.9 138.97,1469.86 137.52,1467.37 C132.85,1459.32 128.07,1451.31 122.9,1443.58 C120.09,1439.38 119.47,1435.29 120.16,1430.4 C126.653333,1384.4 133.013333,1338.37333 139.24,1292.32 C140.29,1284.45 139.92,1276.4 140.24,1268.43 C140.94,1250.17 141.89,1231.92 142.29,1213.66 C142.6,1199.66 144,1185.9 147.57,1172.29 C152.21,1154.6 156.57,1136.82 160.22,1118.9 C162.84,1105.9 164.04,1092.65 165.89,1079.51 C166.39,1075.9 166.76,1072.25 167.5,1068.68 C170.27,1055.47 168.84,1042.28 167.34,1029.11 C166.4,1020.91 165.21,1012.74 163.94,1003.11 C161.59,1005.48 159.99,1006.81 158.74,1008.4 C145.45,1025.4 132.31,1042.61 118.88,1059.54 C115.77631,1063.41408 112.186811,1066.87251 108.2,1069.83 C95.95,1078.99 83.11,1087.39 71.13,1096.9 C61.53,1104.52 52.69,1113.15 43.83,1121.66 C39.47,1125.86 35.36,1129.73 28.95,1130.66 C25.43,1131.19 21.95,1132.92 18.77,1134.66 C13.64,1137.46 9.3,1136.52 5.09,1132.94 C3.59,1131.65 1.94,1130.53 -3.41060513e-13,1129.07 C1,1116.26 1.73,1103.67 7.36,1091.44 C15.42,1073.95 22.19,1055.84 29.09,1037.83 C32.2802264,1029.79732 36.9474343,1022.43358 42.85,1016.12 C57.1033333,1000.34 71.27,984.48 85.35,968.54 C87.5,966.1 88.96,962.99 90.46,960.05 C115.04,912.05 136.09,862.46 156.14,812.43 C157.248035,809.293182 158.540283,806.22451 160.01,803.24 C162.37,798.9 162.61,794.45 162.01,789.7 C160.29,777.2 158.31,764.7 157.23,752.16 C156.43178,742.250747 156.258103,732.301074 156.71,722.37 C157.04,714.45 159.41,706.58 159.45,698.69 C159.45,690.02 162.94,683.69 168.55,677.54 C176.4,668.97 184.33,660.34 191.03,650.88 C200.6,637.33 209.08,622.97 218.08,609.05 C222.08,602.93 226.16,596.91 230.33,590.92 C236.33,582.28 244.85,576.41 253.24,570.41 C264.33,562.48 275.8,555 286.37,546.41 C296.73,538 309.13,534.13 320.87,528.78 C340.52,519.84 360.24,511.04 380.12,502.64 C388.052315,499.220442 396.284086,496.542355 404.71,494.64 C432.64,488.57 460.71,483.08 488.71,477.37 C489.338945,477.152049 489.984344,476.984847 490.64,476.87 C508.22,476.13 525.8,475.14 543.39,474.82 C551.66,474.67 559.95,476.38 568.22,476.28 C588.37,476.02 607.7,481.28 627.41,484.01 C656.08,488.01 684.23,494.43 712.5,500.31 C717.7,501.39 722.99,502.21 728.08,503.67 C738.53,506.67 749.08,506.52 759.75,505.67 C787.23,503.56 814.7,501.26 842.22,499.75 C865.105015,498.4511 887.765991,494.53559 909.76,488.08 C922.2,484.48 934.95,481.87 947.32,478.08 C964.46,472.8 981.32,466.63 998.4,461.16 C1018.65,454.66 1039.02,448.5 1059.32,442.16 C1066.95,439.77 1074.62,437.52 1079.95,430.8 C1081.34,429.05 1083.77,428.17 1085.49,426.63 C1089.17,423.34 1093.29,420.31 1096.14,416.39 C1100.72,410.07 1105.95,404.6 1112.73,400.87 C1124.9094,394.39379 1134.11151,383.457326 1138.41,370.35 C1139.64173,366.150141 1142.62739,362.686931 1146.6,360.85 C1147.79,360.29 1148.75,359.17 1149.96,358.71 C1164.45,353.19 1173.81,342.4 1180.25,328.85 C1182.77,323.56 1186.82,320.85 1192,318.91 C1201.94,315.15 1211.63,310.66 1221.68,307.26 C1228.99,304.78 1234.96,300.78 1238.57,294.26 C1246.63,279.69 1260.94,270.68 1270.51,257.48 C1272.51,254.7 1276.26,253.05 1279.39,251.21 C1292.3,243.63 1305.39,236.32 1318.19,228.61 C1321.81254,226.343971 1325.11524,223.602934 1328.01,220.46 C1334.26,213.88 1340.85,208.06 1349.63,204.88 C1355.86,202.63 1361.68,199.26 1367.78,196.61 C1374.24291,193.913497 1380.0633,189.882159 1384.86,184.78 C1388.73923,180.614257 1393.81635,177.755971 1399.39,176.6 C1404.25317,175.474576 1409.05603,174.102808 1413.78,172.49 C1416.31225,171.767904 1418.68662,170.577326 1420.78,168.98 C1440.78,151.7 1463.52,138.53 1486.55,125.83 C1490.2686,123.82472 1493.59786,121.16944 1496.38,117.99 C1499.7608,114.159964 1503.81906,111.042399 1508.31554,108.77107 L1508.09081,108.889869 L1508.09081,108.889869 Z M1233.53,1101.33 C1232.46,1104.72 1231.75,1106.58 1231.29,1108.5 C1231.03261,1109.81715 1230.91862,1111.1583 1230.95,1112.5 C1230.66,1137.5 1225.74,1161.94 1221.4,1186.5 C1219.21,1198.81 1219.8,1211.14 1221.97,1224.8 C1244.97,1196.03 1267.97,1169.47 1300.97,1155.5 C1301.85,1149.86 1298.6,1148.21 1295.21,1146.5 C1283.3,1140.6 1271.51,1134.43 1259.49,1128.77 C1253.28,1125.85 1248.24,1122.08 1244.58,1116.15 C1241.68,1111.35 1237.93,1107.12 1233.53,1101.33 Z M1780.1,253.23 C1783.49,257.31 1787.43,261.15 1793.54,263.34 C1799.34,265.43 1804.39,269.69 1809.68,273.14 C1823.06,281.87 1836.26,290.89 1849.78,299.39 C1860.18,305.93 1867.95,315.12 1874.78,324.84 C1879.03,330.9 1881.33,338.66 1883.2,345.99 C1886.38,358.52 1888.36,371.35 1891.2,383.99 C1892.6,390.25 1891.93,395.59 1887.69,400.68 C1883.69,405.53 1880.49,411.11 1876.4,415.9 C1873.67791,419.211098 1870.37363,421.996859 1866.65,424.12 C1852.89,431.51 1839.22,439.22 1824.86,445.25 C1814.28,449.69 1802.86,453.14 1790.86,451.12 C1789.58381,450.749886 1788.26764,450.535001 1786.94,450.48 C1767.6,452.25 1759.18,440.25 1754.03,424.31 C1752.73,420.31 1749.73,419.72 1746.34,419.31 C1733.48,417.67 1720.63,415.97 1707.78,414.31 C1704.48,413.89 1701.13,413.78 1697.88,413.14 C1694.2377,412.41154 1690.72807,412.155362 1687.28538,413.187106 C1687.56866,413.076946 1687.86984,412.967524 1688.19,412.86 C1688.26,410.3 1696.22,402.89 1702.08,395.02 C1707.94,387.15 1719.08,367.93 1722.08,361.5 C1725.08,355.07 1733.66,328.96 1733.66,328.96 C1733.66,328.96 1742.46,329.58 1742.97,326.96 C1743.48,324.34 1752.11,306.82 1752.11,306.82 L1752.11,306.82 L1751.95,299.45 C1751.47842,298.575509 1751.1413,297.63495 1750.95,296.66 C1751.46,295.39 1765.55,271.35 1766.78,268.81 C1768.01,266.27 1774.74,255.94 1776.01,253.91 C1777.28,251.88 1779.48,252.55 1780.46,251.44 C1780.51636,251.37616 1780.57111,251.301635 1780.62417,251.217561 C1780.42216,251.888701 1780.23677,252.567329 1780.1,253.23 Z M1663.2842,413.273727 C1667.79353,414.150145 1672.53961,415.07411 1674.95,415.53 C1679.68333,416.425238 1681.06066,415.778526 1682.47685,415.308901 L1682.69,415.24 C1682.8305,415.195977 1682.96968,415.147129 1683.10874,415.094014 C1681.14961,416.018084 1678.94745,416.30887 1676.81,415.92 C1672.82111,415.258889 1668.86,414.44037 1664.89923,413.611907 Z M1585.18,3.41060513e-13 C1588.02,13.18 1587.95,25.18 1588.45,37 C1588.97,49.16 1588.57,61.36 1588.57,74.27 L1624.12,83.56 L1622.63,88.3 C1623.7,89.08 1625.08,90.57 1626.8,91.3 C1634.48,94.4266667 1642.22333,97.4266667 1650.03,100.3 C1653.69649,101.458359 1657.05356,103.430891 1659.85,106.07 C1664.49,110.57 1670.85,113.48 1676.85,116.38 C1688.79,122.21 1697.85,131.45 1707.02,140.61 C1709.91,143.48 1710.6,146.98 1710.43,150.66 C1710,160.02 1713.63,167.88 1717.91,175.99 C1724.45,188.41 1733.5,197.83 1745.04,205.7 C1753.84,211.7 1760.32,220.2 1762.53,231.18 C1762.76931,231.18 1763.00574,231.184469 1763.23935,231.193284 C1763.93601,234.533152 1756.59682,242.921358 1753.57,245.53 C1750.53,248.15 1732.73,276.66 1730,279.77 C1727.52,277.61 1723.97,279.64 1720.31,281.93 C1714.55,273.63 1584.86,181.53 1584.86,181.53 L1584.86,181.53 L1579.95,169.68 L1585.88,166.97 L1585.88,161.05 C1585.88,161.05 1575.37,140.55 1572.88,136.16 C1570.39,131.77 1562.39,132.77 1562.39,132.77 C1557.65,117.87 1535.98,100.6 1535.98,100.6 C1532.36813,100.923494 1528.79419,101.513486 1525.28648,102.361379 C1526.90748,100.79685 1527.86047,98.6330354 1528.41,95.88 C1529.25,92.03 1530.57,88.32 1532.08,83.02 L1538.97,91.16 C1539.72,88.45 1540.37,86.96 1540.51,85.43 C1541.51,74.43 1546.66,65.33 1552.66,56.43 C1561.18,43.72 1569.5,30.86 1577.43,17.78 C1580.43,12.78 1582.17,7.03 1585.18,3.41060513e-13 Z M1781.7,244.44 C1782.32361,245.256761 1781.98787,246.80141 1781.44238,248.599978 C1781.7146,247.036297 1781.78895,245.284732 1781.61,244.39 C1781.60332,244.356585 1781.59565,244.322899 1781.58701,244.288938 C1781.62352,244.338952 1781.66176,244.389492 1781.7,244.44 Z M1777.74473,239.388416 L1777.88096,239.550247 C1777.20431,238.835003 1776.47065,238.054467 1775.71,237.2 C1775.61286,237.091663 1775.51454,236.984614 1775.41508,236.878865 L1775.19859,236.65247 C1776.08924,237.510031 1776.93246,238.431397 1777.74473,239.388416 Z M1771.44844,233.69332 L1771.46667,233.704109 C1769.48318,232.519491 1767.28325,231.714846 1764.98036,231.345184 C1767.43066,231.682355 1769.55344,232.52174 1771.44844,233.69332 Z M1669.22,151.01 C1665.47,150.63 1661.99,151.91 1659.38,152.47 C1656.77,153.03 1655.06,154.95 1654.93,156.03 L1654.93,156.03 L1654.93,156.47 C1655.63,157.65 1670.81,166.57 1673.22,167.65 C1675.63,168.73 1680.26,167.65 1683.63,167.01 C1682.95828,163.827629 1681.66341,160.809654 1679.82,158.13 C1678.1,156.01 1672.97,151.39 1669.22,151.01 Z" id="colour" fill="#000000" style="mix-blend-mode: overlay;"></path>
    </g>
</svg>