<?xml version="1.0" encoding="UTF-8"?>
<svg width="2048px" height="2048px" viewBox="0 0 2048 2048" version="1.1" xmlns="http://www.w3.org/2000/svg" xmlns:xlink="http://www.w3.org/1999/xlink">
    <title>pose-3-mask</title>
    <g id="pose-3-mask" stroke="none" stroke-width="1" fill="none" fill-rule="evenodd">
        <path d="M292.712587,172.245724 L293.041728,172.412442 C299.675262,175.719968 307.030984,177.304918 314.93,178.04 C323.43,178.82 331.68,182.04 340.09,184.04 C368.81,190.72 395.95,201.15 420.8,217.29 C424.29,219.56 428.75,220.38 432.8,221.72 C434.094574,222.027208 435.419526,222.188215 436.75,222.2 C451.711422,223.469361 465.946546,229.203823 477.61,238.66 C489.15,247.81 503.13,253.07 516.98,257.53 C530.83,261.99 543.18,268.25 554.19,277.85 C566.12,288.25 581.33,293.17 595.19,300.33 C602.27,303.98 609.78,306.82 616.88,310.44 C620.112865,312.12753 623.040071,314.344905 625.54,317 C632.01,323.84 639.47,329.21 647.41,334.22 C658.08,340.97 668.32,348.42 678.65,355.69 C680.484674,357.096498 682.113766,358.752517 683.49,360.61 C694.25,374.13 704.87,387.75 715.68,401.22 C718.52879,404.85958 721.698143,408.23643 725.15,411.31 C741.69,425.68 758.42,439.83 774.97,454.18 C776.9,455.86 778.97,458.11 779.58,460.46 C784.88,480.21 798.44,493.55 813.73,505.72 C819.17,510.05 824.49,514.53 827.06,521.52 C827.91,523.83 830.39,525.59 832.21,527.52 C839.32,535 846.75,542.18 853.48,549.98 C858,555.21 861.61,561.24 865.48,566.98 C871.65,576.03 877.8,585.1 883.83,594.24 C890.83,604.78 898.39,614.99 904.32,626.09 C914.79,645.68 931.47,659.61 946.81,674.72 C951.16,679.01 957.56,681.21 962.99,684.43 C990.17,700.53 1017.34667,716.646667 1044.52,732.78 C1057.39,740.41 1069.9,748.73 1083.22,755.47 C1094.52864,761.072213 1106.29049,765.708711 1118.38,769.33 C1126.15,771.71 1131.86,775.94 1137.21,781.59 C1147.95,792.94 1158.84,804.17 1169.96,815.15 C1172.15,817.31 1175.55,818.48 1178.61,819.45 C1185.61,821.65 1192.81,823.03 1199.67,825.45 C1216.12,831.32 1233.4,832.52 1250.4,835.39 C1265.78,837.98 1281.08,841.05 1296.4,843.84 C1302.94,845.03 1309.56,845.84 1316.05,847.22 C1327.05,849.59 1338.27,851.57 1348.97,855.04 C1366.97,860.9 1384.59,867.95 1402.47,874.21 C1421.91,881.02 1441.47,887.37 1460.92,894.21 C1465.6075,895.815524 1469.99933,898.180359 1473.92,901.21 C1490.09773,914.013065 1506.9954,925.879157 1524.53,936.75 C1529.79,940.05 1534.27,944.75 1538.61,949.33 C1553.53,964.96 1568.22,980.81 1583,996.57 C1583.68,997.3 1584.43,997.97 1585.11,998.69 C1590.5,1004.46 1596.78,1008.15 1604.97,1008.48 C1613.97,1008.84 1622.83,1009.98 1631.78,1010.37 C1655.42,1011.37 1679.01,1010.72 1702.09,1005.04 C1711.84706,1002.54472 1722.17044,1003.55334 1731.26,1007.89 C1749.45,1016.62 1768.57,1023.89 1784.34,1037.18 C1798.08,1048.73 1811.84,1060.26 1825.85,1071.48 C1833.67826,1077.64928 1840.3688,1085.13849 1845.62,1093.61 C1852.42,1104.61 1859.97,1115.24 1866.87,1126.23 C1868.97486,1129.60909 1870.46769,1133.33271 1871.28,1137.23 C1877.44,1167.52 1883.98,1197.69 1894.05,1227.02 C1895.90787,1232.67336 1898.90259,1237.8869 1902.85,1242.34 C1911.03,1251.53 1919.62,1260.34 1927.74,1269.58 C1931.22,1273.52 1934.74,1277.75 1936.9,1282.47 C1945.32,1300.92 1952.9,1319.75 1961.43,1338.14 C1964.43,1344.58 1962.93,1349.36 1959.56,1354.73 C1955.71,1360.85 1952.41,1367.32 1948.34,1374.58 C1943.22,1375.18 1938.16,1371.69 1932.69,1369.66 C1929.39437,1368.28603 1925.97109,1367.24095 1922.47,1366.54 C1917.1997,1365.87749 1912.24062,1363.67963 1908.21,1360.22 C1899.71,1352.76 1891.12,1345.4 1882.21,1338.4 C1872.83,1331 1863.27,1323.79 1853.43,1317.02 C1847.35378,1312.96597 1841.97132,1307.95831 1837.49,1302.19 C1827.21,1288.7 1816.67,1275.41 1806.17,1262.09 C1802.78783,1257.97623 1800.42686,1253.12066 1799.28,1247.92 C1795.11,1228.43 1790.05,1209.1 1786.35,1189.53 C1784.35,1178.82 1784.18,1167.75 1783.48,1156.82 C1782.33,1138.89 1780.19,1121.15 1775.83,1103.67 C1774.52,1098.42 1772.23,1094.61 1767.23,1092.41 C1763.89,1090.93 1760.72,1089.07 1757.44,1087.41 C1746.9982,1082.26232 1737.30036,1075.72645 1728.61,1067.98 C1725.29901,1065.26113 1721.5888,1063.06873 1717.61,1061.48 C1697.14,1052.48 1675.61,1053.11 1652.98,1054.33 C1653.83,1056.85 1654.6,1058.84 1655.17,1060.88 C1658.03,1071.12 1660.81,1081.38 1663.67,1091.62 C1664.46215,1094.84205 1665.4643,1098.00882 1666.67,1101.1 C1675.29,1121.29 1684.05,1141.41 1692.67,1161.57 C1694.79582,1166.07074 1695.76837,1171.02971 1695.5,1176 C1693.94,1198.35 1689.95,1220.17 1682.32,1241.21 C1676.7,1256.7 1676.43,1272.39 1678.71,1288.38 C1678.96466,1289.70055 1679.12838,1291.03703 1679.2,1292.38 C1679.31,1307.76 1682.2,1322.66 1686.03,1337.53 C1695.47,1374.57 1704.60333,1411.68 1713.43,1448.86 C1714.997,1455.30335 1715.4,1461.97487 1714.62,1468.56 C1713.07,1480.33 1715.03,1491.74 1716.51,1503.2 C1717.31,1509.43 1719.16,1515.55 1720.88,1521.62 C1723.18393,1529.95835 1724.23873,1538.59224 1724.01,1547.24 C1723.91,1553.18 1725.26,1559.15 1725.09,1565.09 C1724.78,1576.03 1723.97,1586.97 1723.09,1597.89 C1722.09,1611.12 1720.71,1624.33 1719.56,1637.56 C1717.56,1660.37 1715.19,1683.16 1713.84,1706.01 C1713.17,1717.21 1714.45,1728.52 1714.84,1739.78 C1715.15,1748.09 1715.54,1756.39 1715.78,1764.69 C1716.28,1781.96 1716.89,1799.23 1717.06,1816.51 C1717.12,1822.1 1715.93,1827.71 1715.37,1833.32 C1714.81,1838.93 1714.58,1844.59 1713.73,1850.15 C1712.87418,1855.03247 1711.75927,1859.86596 1710.39,1864.63 C1709.71,1867.18 1708.6,1869.63 1707.67,1872.12 C1701.58,1888.33 1702.1,1888.27 1703.87,1905.01 C1706.03,1925.5 1708.52,1945.9 1713.2,1966.01 C1714.55,1971.75 1710.56,1975.29 1708.8,1979.8 C1706.8,1985.05 1702.8,1986.5 1697.71,1986.24 C1697.0343,1986.28567 1696.36456,1986.39618 1695.71,1986.57 C1666.9,1990.8 1666.98,1990.57 1637.98,1983.13 C1628.98,1980.85 1622.29,1976.65 1617.33,1968.07 C1621.14,1958.01 1625.43,1947.56 1629.07,1936.89 C1638.51,1909.19 1647.69,1881.4 1656.9,1853.62 C1657.43512,1851.71644 1657.70103,1849.74732 1657.69,1847.77 C1658.37,1827.86 1658.89,1807.95 1659.69,1788.05 C1660.44,1768.8 1661.39,1749.56 1662.35,1730.32 C1662.49364,1727.00389 1662.91512,1723.70567 1663.61,1720.46 C1667.56,1702.93 1665.61,1685.46 1663.45,1667.97 C1660.59,1645.27 1658.45,1622.48 1655.57,1599.78 C1654.2,1588.94 1652.07,1578.18 1649.77,1567.49 C1649.22,1564.89 1647.04,1562.32 1644.99,1560.39 C1636.54,1552.39 1627.81,1544.72 1619.26,1536.84 C1611.64,1529.84 1604.68,1522.25 1599.56,1513.14 C1594.1953,1503.5512 1587.10651,1495.03516 1578.65,1488.02 C1570,1480.78 1562.17,1472.54 1554.06,1464.65 C1548.21126,1458.74066 1541.40102,1453.86799 1533.92,1450.24 C1521.57,1444.46 1509.39,1438.24 1497.29,1431.99 C1484.99,1425.58 1472.88,1418.8 1460.54,1412.09 C1451.47,1422.33 1449.35,1435.09 1450.08,1448.79 C1450.81,1462.49 1450.78,1476.02 1451.52,1489.62 C1451.74311,1495.2334 1452.69784,1500.79369 1454.36,1506.16 C1458.77,1519.4 1463.7,1532.47 1468.7,1545.51 C1471.71464,1552.89354 1473.35164,1560.76674 1473.53,1568.74 C1473.59,1575.68 1474.66,1582.61 1475.19,1589.55 C1475.38071,1591.21744 1475.30986,1592.90443 1474.98,1594.55 C1472.12,1606.55 1469.3,1618.48 1466.07,1630.35 C1465.1907,1633.17233 1463.59965,1635.72078 1461.45,1637.75 C1441.33,1657.13 1421.12333,1676.41667 1400.83,1695.61 C1394.57,1701.61 1388.52,1707.79 1381.88,1713.31 C1373.41,1720.31 1368.88,1730.03 1363.28,1739.04 C1353.07,1755.41 1342.63,1771.64 1332.65,1788.14 C1328.55,1794.92 1326.24,1802.9 1321.54,1809.14 C1317.09,1815.08 1310.54,1819.46 1305,1824.59 C1304,1825.48 1303.49,1826.84 1302.5,1827.68 C1298.41,1831.11 1297.94,1835 1299.3,1840.16 C1302.71,1853 1305.6,1865.99 1308.3,1878.99 C1309.73,1885.78 1310.47,1892.72 1311.42,1899.61 C1311.88,1902.94 1310.52,1905.1 1307.42,1906.78 C1302.95,1909.19 1298.5,1911.14 1293.32,1911.13 C1279.05,1911.13 1264.78,1911.25 1250.51,1911.13 C1243.44,1910.87 1235.12,1907.92 1226.97,1903.28 C1229.67332,1884.26148 1235.11999,1865.73541 1243.14,1848.28 C1245.14,1843.82 1248.64,1840 1251.57,1835.97 C1254.63328,1831.99805 1256.23954,1827.09456 1256.12,1822.08 C1255.39,1788.08 1270.58,1761.61 1295.2,1739.37 C1308.01,1727.79 1320.03,1715.51 1328.77,1700.12 C1339.11,1681.9 1350.62,1664.34 1362.09,1646.79 C1367.66,1638.26 1371.5,1629.47 1372.8,1619.27 C1374.27,1607.76 1376.47,1596.27 1378.86,1584.95 C1379.7,1580.95 1378.73,1578.09 1376.78,1574.8 C1367.61784,1558.97277 1356.50051,1544.36133 1343.69,1531.31 C1332.32,1519.88 1325.92,1505.78 1319.06,1491.78 C1318.77,1491.19 1318.6,1490.53 1318.36,1489.91 C1311.85,1472.66 1302.8,1457.04 1290.22,1443.36 C1272.82,1424.41 1259.47,1402.47 1245.56,1380.96 C1226.71771,1352.06728 1210.60173,1321.48575 1197.42,1289.61 C1192.73,1290.04 1188.16,1290.22 1183.65,1290.9 C1170.51,1292.9 1157.43,1295.35 1144.25,1297.07 C1134.39,1298.37 1124.43,1298.99 1114.5,1299.58 C1104.88,1300.14 1095.21,1300.82 1085.61,1300.46 C1074.01,1300.03 1062.43,1298.64 1050.87,1297.46 C1035.33,1295.94 1019.8,1294.37 1004.29,1292.58 C999.361418,1292.09222 994.49792,1291.08668 989.78,1289.58 C960.78,1279.73 931.42,1271.25 903.32,1258.92 C896.81,1256.07 889.11,1255.92 881.94,1254.64 C875.74,1253.54 869.36,1253.15 863.31,1251.54 C851.95,1248.54 841.45,1243.77 834,1233.96 C827.73,1225.7 818.7,1221.2 809.47,1217.41 C788.3,1208.72 770.13,1195.2 751.6,1182.24 C748.94,1180.37 746.83,1177.63 744.71,1175.09 C726.55,1153.45 708.43,1131.78333 690.35,1110.09 C684.84,1103.49 679.35,1096.82 674.15,1090.01 C664.77,1077.84 651.8,1070.53 638.99,1062.75 C633.44,1059.38 628.64,1054.41 624.37,1049.42 C618.54,1042.61 613.57,1035.07 608.17,1027.89 C601.87,1019.53 593.76,1014.71 583.08,1013.7 C559.27,1011.43 535.54,1008.23 511.71,1006.28 C496.129145,1005.04687 480.494275,1004.63296 464.87,1005.04 C451.37,1005.37 440.4,999.65 430.02,992.56 C421.02,986.39 412.83,978.97 404.24,972.15 C402.675325,971.084375 401.052841,970.106211 399.38,969.22 C399.55,974.22 402.19,977.33 403.68,980.83 C405.122244,984.549169 406.792069,988.176028 408.68,991.69 C419.33,1010.03 425.03,1029.97 429.6,1050.56 C433.805159,1068.98954 436.464394,1087.73799 437.55,1106.61 C439.4,1141.5 439.07,1176.36 439,1211.24 C438.852918,1223.52882 437.934445,1235.79628 436.25,1247.97 C435.31,1255.25 438,1260.27 443,1264.6 C447.77,1268.73 452.85,1272.5 457.69,1276.6 C460.48,1278.94 463.55,1281.18 465.69,1284.07 C471.69,1292.2 479.24,1297.18 489.05,1299.83 C502.17,1303.38 515.05,1307.83 527.89,1312.33 C532.51,1313.94 536.69,1316.8 541.54,1319.33 C545.33,1330.76 543.74,1342.64 541.05,1354.13 C536.67,1372.89 531.81,1391.59 526.05,1409.95 C522.05,1422.75 513.35,1431.65 496.98,1432.31 C491.65,1426.6 485.14,1420.06 479.12,1413.1 C455.42,1385.72 432.12,1358.04 408.18,1330.83 C399.65,1321.11 389.68,1312.67 380.86,1303.19 C375.22,1297.13 370.91,1289.83 365.23,1283.81 C353.15,1271 348.12,1255.41 347.55,1238.51 C347.18,1227.31 348.87,1216.02 349.96,1204.8 C350.66,1197.55 352.67,1190.36 352.8,1183.13 C352.92,1176.25 351.8,1169.25 350.46,1162.46 C342.39,1121.38 333.77,1080.46 326.05,1039.28 C322.140162,1019.40171 319.286163,999.330255 317.5,979.15 C316.5,966.05 318.65,952.69 319.41,939.44 C319.56,936.8 319.82,934.18 320.06,931.22 L300.2,915.71 C299.79,919.44 298.98,921.95 299.35,924.27 C302.35,943.05 299.93,961.47 294.69,979.39 C286.55,1007.23 282.26,1035.79 277.11,1064.21 C273.11,1086.43 268.97,1108.63 264.97,1130.85 C263.79,1137.43 262.42,1143.79 257.51,1148.85 C251.81,1154.78 251.25,1161.75 254.35,1169.17 C254.508876,1169.48431 254.616885,1169.82184 254.67,1170.17 C256.22,1185.83 263.94,1197.88 275.41,1208.39 C281.56,1214.02 287.03,1220.16 295,1223.39 C299,1225 302.68,1227.24 307.63,1229.76 C301.51,1237.38 295.96,1244.7 289.98,1251.65 C278.27,1265.25 266.38,1278.65 254.44,1292.09 C247.291046,1300.08962 239.049941,1307.04137 229.96,1312.74 C223.82,1304.03 218.91,1295.52 216.79,1284.94 C212.18,1261.82 206.21,1238.94 200.79,1216.02 C199.57,1210.84 198.26,1205.69 197.13,1200.49 C194.36,1187.73 190.39,1175.49 182.64,1164.72 C180.37,1161.57 179.07,1157.63 177.8,1153.88 C175.88,1148.22 174.8,1142.24 172.61,1136.71 C168.79,1127.19 169.68,1118.27 173.04,1108.71 C176.59,1098.65 180.25,1088.81 185.52,1079.47 C188.691605,1073.63768 191.094907,1067.41935 192.67,1060.97 C201.6,1026.17 209.67,991.15 219.06,956.47 C227.37,925.68 236.95,895.22 249.92,866 C252.112764,861.179809 255.131567,856.780209 258.84,853 C278.54,832.78 278.63,832.86 305.84,825.85 C311.96,824.27 318.3,823.35 324.21,821.24 C341.6,815.02 359.41,816.04 377.31,817.13 C382.95,817.48 388.62,817.45 394.31,817.38 C418.37,817.09 442.07,820.38 465.38,825.91 C473.32,827.78 480.61,832.42 488.2,835.81 C491.2,837.14 494.2,838.5 497.72,840.12 C505.5,823.94 512.5,808.24 514.98,791 C515.4,788.1 513.9,784.53 512.36,781.8 C505.82,770.21 498.8,758.9 492.23,747.34 C489.063233,741.866747 486.266963,736.187345 483.86,730.34 C468.073333,691.18 452.383333,651.973333 436.79,612.72 C428.88,592.83 416.94,575.12 406.79,556.44 C402.86,549.2 398.57,542.16 393.54,533.44 C391.79,538.13 390.43,541.05 389.61,544.11 C386.93,554.24 383.61,563.93 372.91,568.88 C374.531423,577.950567 371.630963,584.732583 366.352068,590.456366 C370.621248,585.110832 374.307862,577.704368 372.89,568.87 C369.9,550.24 324.58,510.3 319.76,502.68 C379.97,339.16 372.49,287.86 370.97,281.68 C369.45,275.5 364.71,259.59 364.71,259.59 L364.71,259.59 L368.91,258.75 C371.196832,258.293293 372.924397,256.407941 373.18,254.09 L373.18,254.09 L373.6,250.28 C373.6,250.28 352.52,220.06 348.96,214.98 C346.728287,211.87606 343.638383,209.491724 340.07,208.12 L340.07,208.12 L333.98,208.37 C333.98,208.37 320.77,191.13 318.23,189.07 C316.181613,187.40871 301.626722,177.838991 292.712587,172.245724 Z M128.28,489.76 C128.28,489.76 188.2,490.24 193.54,491.76 C198.88,493.28 261.09,516.14 261.09,516.14 L261.09,516.14 L269.22,527.06 L304.77,543.82 C306.164609,542.335374 307.28525,540.615479 308.08,538.74 C311.12,540.77 326.61,556.5 342.61,571.5 C342.87,575.56 349.98,591.05 349.98,591.05 L349.98,591.05 L342.11,591.81 C334.23,592.54 317.33,616.54 317.33,616.54 C317.928895,616.073419 318.757271,615.678612 319.755097,615.338801 C316.330009,616.7361 313.417633,619.176759 310.65,622.51 C303.9,630.66 296.55,638.3 289.3,646.33 C290.483401,647.208553 291.56658,648.214602 292.53,649.33 C296.29,654.99 302.58,659.16 302.61,667.05 C302.61,677.74 302.92,688.25 295.54,697.36 C289.69,704.59 284.91,712.67 279.14,719.98 C276.57,723.24 273.14,726.44 269.43,728.07 C258.786291,732.762357 247.912448,736.91431 236.85,740.51 C232.77,741.81 227.92,740.72 221.92,740.72 C218.66,743.86 212.37,743.46 206.83,745.33 C192.56,750.14 178.83,747.84 164.83,744.1 C158.59,742.44 153.96,739.81 150.57,734.44 C140.31,718.14 129.69,702.1 118.29,686.54 C111.498791,677.410683 107.403758,666.559887 106.47,655.22 C105.31,640.7 102.47,626.33 105.01,611.59 C106.24,604.45 105.58,597 105.87,589.69 C106.53,573.09 107.13,556.5 107.96,539.92 C108.531429,528.754286 109.148571,517.591837 109.798367,506.430787 L110.09553,501.39142 C112.004642,499.228767 128.28,489.76 128.28,489.76 Z M329.44,614.09 C328.239592,613.979148 327.096838,613.950629 326.004817,614.001617 C332.280853,613.098832 339.91589,612.728724 343.5,611.38 C343.58365,611.348522 343.667553,611.315498 343.751684,611.280979 C339.461902,613.614205 334.644156,614.570753 329.44,614.09 Z M112.261776,475.135204 C112.148601,475.98177 111.527925,480.724507 110.953662,487.117293 C111.071246,485.184667 111.19028,483.252333 111.31,481.32 C111.4316,479.3364 111.530096,476.988912 112.233224,475.203775 Z M125.19,58.77 C132.97,59.65 139.37,61.35 144.8,65.89 C148.37,68.89 151.98,71.83 155.37,75.01 C168.83,87.59 184.73,96.74 199.86,107.01 C210.32,114.103333 220.653333,121.356667 230.86,128.77 C233.509423,130.71755 235.714787,133.205828 237.33,136.07 C241.96,144.47 246.15,153.07 250.98,162.6 C251.504429,165.899491 252.339037,169.141238 253.48,172.28 C280.14,183.46 303.76,215.96 303.76,215.96 L303.76,215.96 L302.76,228.66 L326.13,263.71 L333.49,263.71 C336.79,267.77 342.64,279.45 342.13,284.28 C341.62,289.11 334.25,310.69 326.38,348.28 C318.51,385.87 299.45,437.17 297.68,442.5 C295.91,447.83 284.73,478.05 284.73,478.05 L284.73,478.05 L272.54,478.82 L270.26,486.69 L196.1,462.56 L147.34,461.29 L121.95,461.29 L112.386662,474.84464 C112.581705,474.42352 112.816324,474.040643 113.1,473.71 C117.45,468.65 117.1,462.66 117.71,456.8 C119.08,442.93 120.33,429.05 121.71,415.18 C122.23,409.78 122.16,404.69 118.47,400.06 C116.350025,397.418882 115.720659,393.880112 116.8,390.67 C118.008966,386.100937 117.323958,381.237384 114.9,377.18 C106.24,361.42 105,343.5 100.35,326.58 C100.099931,325.27857 100.099931,323.94143 100.35,322.64 C102.64,304.89 104.28,287.01 107.52,269.43 C110.134599,255.719766 113.774829,242.225175 118.41,229.06 C122.06,218.46 127.67,208.52 132.34,198.26 C133.15,196.48 133.63,194.55 134.23,192.79 C125.35,180.79 116.45,169.23 108.03,157.31 C99.9,145.8 91.11,134.68 85.4,121 C86.67,121.58 87.97,122.09 89.18,122.76 C90.0711623,123.222133 90.8735294,123.838296 91.55,124.58 C106.83,142.94 128.17,153 147.66,165.58 C151.55,168.09 155.6,170.34 159.66,172.8 L179.34,162.62 C173.42,155.32 168.23,148.53 162.61,142.1 C157.318572,136.13861 153.145166,129.272137 150.29,121.83 C142.35,101.04 133.87,80.46 125.19,58.77 Z M213.03,297.77 C210.83,300.64 202.28,308.77 202.87,312.66 C203.46,316.55 203.72,320.88 206.09,322.23 C208.46,323.58 211.34,326.8 220.65,323.75 C224.74,322.41 229.79,320.54 236.9,312.83 C241.255012,307.92603 244.98051,302.497351 247.99,296.67 L247.99,296.16 L244.61,296.16 L244.61,297.09 C244.61,297.09 218.87,297.26 218.7,297.09 C218.483673,296.628709 218.316098,296.146093 218.2,295.65 C216.210045,295.281685 214.188491,296.110639 213.03,297.77 Z M281.01,163.75 C281.24,163.99 281.6,164.09 281.83,164.32 C283.503733,165.999227 285.249229,167.483959 287.061942,168.796365 C281.900977,165.628986 278.748756,160.880191 273.389137,159.856273 C276.15311,160.227693 278.726839,161.362309 281.01,163.75 Z" id="colour" fill="#000000" style="mix-blend-mode: overlay;"></path>
    </g>
</svg>